G04 #@! TF.GenerationSoftware,KiCad,Pcbnew,5.0.2-bee76a0~70~ubuntu16.04.1*
G04 #@! TF.CreationDate,2019-03-04T23:23:01-05:00*
G04 #@! TF.ProjectId,Unified,556e6966-6965-4642-9e6b-696361645f70,rev?*
G04 #@! TF.SameCoordinates,Original*
G04 #@! TF.FileFunction,Paste,Top*
G04 #@! TF.FilePolarity,Positive*
%FSLAX46Y46*%
G04 Gerber Fmt 4.6, Leading zero omitted, Abs format (unit mm)*
G04 Created by KiCad (PCBNEW 5.0.2-bee76a0~70~ubuntu16.04.1) date Mon 04 Mar 2019 11:23:01 PM EST*
%MOMM*%
%LPD*%
G01*
G04 APERTURE LIST*
%ADD10C,0.100000*%
%ADD11C,1.425000*%
%ADD12C,1.250000*%
G04 APERTURE END LIST*
D10*
G04 #@! TO.C,C3*
G36*
X89041504Y-83870704D02*
X89065773Y-83874304D01*
X89089571Y-83880265D01*
X89112671Y-83888530D01*
X89134849Y-83899020D01*
X89155893Y-83911633D01*
X89175598Y-83926247D01*
X89193777Y-83942723D01*
X89210253Y-83960902D01*
X89224867Y-83980607D01*
X89237480Y-84001651D01*
X89247970Y-84023829D01*
X89256235Y-84046929D01*
X89262196Y-84070727D01*
X89265796Y-84094996D01*
X89267000Y-84119500D01*
X89267000Y-85044500D01*
X89265796Y-85069004D01*
X89262196Y-85093273D01*
X89256235Y-85117071D01*
X89247970Y-85140171D01*
X89237480Y-85162349D01*
X89224867Y-85183393D01*
X89210253Y-85203098D01*
X89193777Y-85221277D01*
X89175598Y-85237753D01*
X89155893Y-85252367D01*
X89134849Y-85264980D01*
X89112671Y-85275470D01*
X89089571Y-85283735D01*
X89065773Y-85289696D01*
X89041504Y-85293296D01*
X89017000Y-85294500D01*
X87767000Y-85294500D01*
X87742496Y-85293296D01*
X87718227Y-85289696D01*
X87694429Y-85283735D01*
X87671329Y-85275470D01*
X87649151Y-85264980D01*
X87628107Y-85252367D01*
X87608402Y-85237753D01*
X87590223Y-85221277D01*
X87573747Y-85203098D01*
X87559133Y-85183393D01*
X87546520Y-85162349D01*
X87536030Y-85140171D01*
X87527765Y-85117071D01*
X87521804Y-85093273D01*
X87518204Y-85069004D01*
X87517000Y-85044500D01*
X87517000Y-84119500D01*
X87518204Y-84094996D01*
X87521804Y-84070727D01*
X87527765Y-84046929D01*
X87536030Y-84023829D01*
X87546520Y-84001651D01*
X87559133Y-83980607D01*
X87573747Y-83960902D01*
X87590223Y-83942723D01*
X87608402Y-83926247D01*
X87628107Y-83911633D01*
X87649151Y-83899020D01*
X87671329Y-83888530D01*
X87694429Y-83880265D01*
X87718227Y-83874304D01*
X87742496Y-83870704D01*
X87767000Y-83869500D01*
X89017000Y-83869500D01*
X89041504Y-83870704D01*
X89041504Y-83870704D01*
G37*
D11*
X88392000Y-84582000D03*
D10*
G36*
X89041504Y-80895704D02*
X89065773Y-80899304D01*
X89089571Y-80905265D01*
X89112671Y-80913530D01*
X89134849Y-80924020D01*
X89155893Y-80936633D01*
X89175598Y-80951247D01*
X89193777Y-80967723D01*
X89210253Y-80985902D01*
X89224867Y-81005607D01*
X89237480Y-81026651D01*
X89247970Y-81048829D01*
X89256235Y-81071929D01*
X89262196Y-81095727D01*
X89265796Y-81119996D01*
X89267000Y-81144500D01*
X89267000Y-82069500D01*
X89265796Y-82094004D01*
X89262196Y-82118273D01*
X89256235Y-82142071D01*
X89247970Y-82165171D01*
X89237480Y-82187349D01*
X89224867Y-82208393D01*
X89210253Y-82228098D01*
X89193777Y-82246277D01*
X89175598Y-82262753D01*
X89155893Y-82277367D01*
X89134849Y-82289980D01*
X89112671Y-82300470D01*
X89089571Y-82308735D01*
X89065773Y-82314696D01*
X89041504Y-82318296D01*
X89017000Y-82319500D01*
X87767000Y-82319500D01*
X87742496Y-82318296D01*
X87718227Y-82314696D01*
X87694429Y-82308735D01*
X87671329Y-82300470D01*
X87649151Y-82289980D01*
X87628107Y-82277367D01*
X87608402Y-82262753D01*
X87590223Y-82246277D01*
X87573747Y-82228098D01*
X87559133Y-82208393D01*
X87546520Y-82187349D01*
X87536030Y-82165171D01*
X87527765Y-82142071D01*
X87521804Y-82118273D01*
X87518204Y-82094004D01*
X87517000Y-82069500D01*
X87517000Y-81144500D01*
X87518204Y-81119996D01*
X87521804Y-81095727D01*
X87527765Y-81071929D01*
X87536030Y-81048829D01*
X87546520Y-81026651D01*
X87559133Y-81005607D01*
X87573747Y-80985902D01*
X87590223Y-80967723D01*
X87608402Y-80951247D01*
X87628107Y-80936633D01*
X87649151Y-80924020D01*
X87671329Y-80913530D01*
X87694429Y-80905265D01*
X87718227Y-80899304D01*
X87742496Y-80895704D01*
X87767000Y-80894500D01*
X89017000Y-80894500D01*
X89041504Y-80895704D01*
X89041504Y-80895704D01*
G37*
D11*
X88392000Y-81607000D03*
G04 #@! TD*
D10*
G04 #@! TO.C,D1*
G36*
X110123504Y-67941704D02*
X110147773Y-67945304D01*
X110171571Y-67951265D01*
X110194671Y-67959530D01*
X110216849Y-67970020D01*
X110237893Y-67982633D01*
X110257598Y-67997247D01*
X110275777Y-68013723D01*
X110292253Y-68031902D01*
X110306867Y-68051607D01*
X110319480Y-68072651D01*
X110329970Y-68094829D01*
X110338235Y-68117929D01*
X110344196Y-68141727D01*
X110347796Y-68165996D01*
X110349000Y-68190500D01*
X110349000Y-69115500D01*
X110347796Y-69140004D01*
X110344196Y-69164273D01*
X110338235Y-69188071D01*
X110329970Y-69211171D01*
X110319480Y-69233349D01*
X110306867Y-69254393D01*
X110292253Y-69274098D01*
X110275777Y-69292277D01*
X110257598Y-69308753D01*
X110237893Y-69323367D01*
X110216849Y-69335980D01*
X110194671Y-69346470D01*
X110171571Y-69354735D01*
X110147773Y-69360696D01*
X110123504Y-69364296D01*
X110099000Y-69365500D01*
X108849000Y-69365500D01*
X108824496Y-69364296D01*
X108800227Y-69360696D01*
X108776429Y-69354735D01*
X108753329Y-69346470D01*
X108731151Y-69335980D01*
X108710107Y-69323367D01*
X108690402Y-69308753D01*
X108672223Y-69292277D01*
X108655747Y-69274098D01*
X108641133Y-69254393D01*
X108628520Y-69233349D01*
X108618030Y-69211171D01*
X108609765Y-69188071D01*
X108603804Y-69164273D01*
X108600204Y-69140004D01*
X108599000Y-69115500D01*
X108599000Y-68190500D01*
X108600204Y-68165996D01*
X108603804Y-68141727D01*
X108609765Y-68117929D01*
X108618030Y-68094829D01*
X108628520Y-68072651D01*
X108641133Y-68051607D01*
X108655747Y-68031902D01*
X108672223Y-68013723D01*
X108690402Y-67997247D01*
X108710107Y-67982633D01*
X108731151Y-67970020D01*
X108753329Y-67959530D01*
X108776429Y-67951265D01*
X108800227Y-67945304D01*
X108824496Y-67941704D01*
X108849000Y-67940500D01*
X110099000Y-67940500D01*
X110123504Y-67941704D01*
X110123504Y-67941704D01*
G37*
D11*
X109474000Y-68653000D03*
D10*
G36*
X110123504Y-70916704D02*
X110147773Y-70920304D01*
X110171571Y-70926265D01*
X110194671Y-70934530D01*
X110216849Y-70945020D01*
X110237893Y-70957633D01*
X110257598Y-70972247D01*
X110275777Y-70988723D01*
X110292253Y-71006902D01*
X110306867Y-71026607D01*
X110319480Y-71047651D01*
X110329970Y-71069829D01*
X110338235Y-71092929D01*
X110344196Y-71116727D01*
X110347796Y-71140996D01*
X110349000Y-71165500D01*
X110349000Y-72090500D01*
X110347796Y-72115004D01*
X110344196Y-72139273D01*
X110338235Y-72163071D01*
X110329970Y-72186171D01*
X110319480Y-72208349D01*
X110306867Y-72229393D01*
X110292253Y-72249098D01*
X110275777Y-72267277D01*
X110257598Y-72283753D01*
X110237893Y-72298367D01*
X110216849Y-72310980D01*
X110194671Y-72321470D01*
X110171571Y-72329735D01*
X110147773Y-72335696D01*
X110123504Y-72339296D01*
X110099000Y-72340500D01*
X108849000Y-72340500D01*
X108824496Y-72339296D01*
X108800227Y-72335696D01*
X108776429Y-72329735D01*
X108753329Y-72321470D01*
X108731151Y-72310980D01*
X108710107Y-72298367D01*
X108690402Y-72283753D01*
X108672223Y-72267277D01*
X108655747Y-72249098D01*
X108641133Y-72229393D01*
X108628520Y-72208349D01*
X108618030Y-72186171D01*
X108609765Y-72163071D01*
X108603804Y-72139273D01*
X108600204Y-72115004D01*
X108599000Y-72090500D01*
X108599000Y-71165500D01*
X108600204Y-71140996D01*
X108603804Y-71116727D01*
X108609765Y-71092929D01*
X108618030Y-71069829D01*
X108628520Y-71047651D01*
X108641133Y-71026607D01*
X108655747Y-71006902D01*
X108672223Y-70988723D01*
X108690402Y-70972247D01*
X108710107Y-70957633D01*
X108731151Y-70945020D01*
X108753329Y-70934530D01*
X108776429Y-70926265D01*
X108800227Y-70920304D01*
X108824496Y-70916704D01*
X108849000Y-70915500D01*
X110099000Y-70915500D01*
X110123504Y-70916704D01*
X110123504Y-70916704D01*
G37*
D11*
X109474000Y-71628000D03*
G04 #@! TD*
D10*
G04 #@! TO.C,R1*
G36*
X107113004Y-73040204D02*
X107137273Y-73043804D01*
X107161071Y-73049765D01*
X107184171Y-73058030D01*
X107206349Y-73068520D01*
X107227393Y-73081133D01*
X107247098Y-73095747D01*
X107265277Y-73112223D01*
X107281753Y-73130402D01*
X107296367Y-73150107D01*
X107308980Y-73171151D01*
X107319470Y-73193329D01*
X107327735Y-73216429D01*
X107333696Y-73240227D01*
X107337296Y-73264496D01*
X107338500Y-73289000D01*
X107338500Y-74539000D01*
X107337296Y-74563504D01*
X107333696Y-74587773D01*
X107327735Y-74611571D01*
X107319470Y-74634671D01*
X107308980Y-74656849D01*
X107296367Y-74677893D01*
X107281753Y-74697598D01*
X107265277Y-74715777D01*
X107247098Y-74732253D01*
X107227393Y-74746867D01*
X107206349Y-74759480D01*
X107184171Y-74769970D01*
X107161071Y-74778235D01*
X107137273Y-74784196D01*
X107113004Y-74787796D01*
X107088500Y-74789000D01*
X106163500Y-74789000D01*
X106138996Y-74787796D01*
X106114727Y-74784196D01*
X106090929Y-74778235D01*
X106067829Y-74769970D01*
X106045651Y-74759480D01*
X106024607Y-74746867D01*
X106004902Y-74732253D01*
X105986723Y-74715777D01*
X105970247Y-74697598D01*
X105955633Y-74677893D01*
X105943020Y-74656849D01*
X105932530Y-74634671D01*
X105924265Y-74611571D01*
X105918304Y-74587773D01*
X105914704Y-74563504D01*
X105913500Y-74539000D01*
X105913500Y-73289000D01*
X105914704Y-73264496D01*
X105918304Y-73240227D01*
X105924265Y-73216429D01*
X105932530Y-73193329D01*
X105943020Y-73171151D01*
X105955633Y-73150107D01*
X105970247Y-73130402D01*
X105986723Y-73112223D01*
X106004902Y-73095747D01*
X106024607Y-73081133D01*
X106045651Y-73068520D01*
X106067829Y-73058030D01*
X106090929Y-73049765D01*
X106114727Y-73043804D01*
X106138996Y-73040204D01*
X106163500Y-73039000D01*
X107088500Y-73039000D01*
X107113004Y-73040204D01*
X107113004Y-73040204D01*
G37*
D11*
X106626000Y-73914000D03*
D10*
G36*
X110088004Y-73040204D02*
X110112273Y-73043804D01*
X110136071Y-73049765D01*
X110159171Y-73058030D01*
X110181349Y-73068520D01*
X110202393Y-73081133D01*
X110222098Y-73095747D01*
X110240277Y-73112223D01*
X110256753Y-73130402D01*
X110271367Y-73150107D01*
X110283980Y-73171151D01*
X110294470Y-73193329D01*
X110302735Y-73216429D01*
X110308696Y-73240227D01*
X110312296Y-73264496D01*
X110313500Y-73289000D01*
X110313500Y-74539000D01*
X110312296Y-74563504D01*
X110308696Y-74587773D01*
X110302735Y-74611571D01*
X110294470Y-74634671D01*
X110283980Y-74656849D01*
X110271367Y-74677893D01*
X110256753Y-74697598D01*
X110240277Y-74715777D01*
X110222098Y-74732253D01*
X110202393Y-74746867D01*
X110181349Y-74759480D01*
X110159171Y-74769970D01*
X110136071Y-74778235D01*
X110112273Y-74784196D01*
X110088004Y-74787796D01*
X110063500Y-74789000D01*
X109138500Y-74789000D01*
X109113996Y-74787796D01*
X109089727Y-74784196D01*
X109065929Y-74778235D01*
X109042829Y-74769970D01*
X109020651Y-74759480D01*
X108999607Y-74746867D01*
X108979902Y-74732253D01*
X108961723Y-74715777D01*
X108945247Y-74697598D01*
X108930633Y-74677893D01*
X108918020Y-74656849D01*
X108907530Y-74634671D01*
X108899265Y-74611571D01*
X108893304Y-74587773D01*
X108889704Y-74563504D01*
X108888500Y-74539000D01*
X108888500Y-73289000D01*
X108889704Y-73264496D01*
X108893304Y-73240227D01*
X108899265Y-73216429D01*
X108907530Y-73193329D01*
X108918020Y-73171151D01*
X108930633Y-73150107D01*
X108945247Y-73130402D01*
X108961723Y-73112223D01*
X108979902Y-73095747D01*
X108999607Y-73081133D01*
X109020651Y-73068520D01*
X109042829Y-73058030D01*
X109065929Y-73049765D01*
X109089727Y-73043804D01*
X109113996Y-73040204D01*
X109138500Y-73039000D01*
X110063500Y-73039000D01*
X110088004Y-73040204D01*
X110088004Y-73040204D01*
G37*
D11*
X109601000Y-73914000D03*
G04 #@! TD*
D10*
G04 #@! TO.C,R2*
G36*
X89041504Y-70843704D02*
X89065773Y-70847304D01*
X89089571Y-70853265D01*
X89112671Y-70861530D01*
X89134849Y-70872020D01*
X89155893Y-70884633D01*
X89175598Y-70899247D01*
X89193777Y-70915723D01*
X89210253Y-70933902D01*
X89224867Y-70953607D01*
X89237480Y-70974651D01*
X89247970Y-70996829D01*
X89256235Y-71019929D01*
X89262196Y-71043727D01*
X89265796Y-71067996D01*
X89267000Y-71092500D01*
X89267000Y-72017500D01*
X89265796Y-72042004D01*
X89262196Y-72066273D01*
X89256235Y-72090071D01*
X89247970Y-72113171D01*
X89237480Y-72135349D01*
X89224867Y-72156393D01*
X89210253Y-72176098D01*
X89193777Y-72194277D01*
X89175598Y-72210753D01*
X89155893Y-72225367D01*
X89134849Y-72237980D01*
X89112671Y-72248470D01*
X89089571Y-72256735D01*
X89065773Y-72262696D01*
X89041504Y-72266296D01*
X89017000Y-72267500D01*
X87767000Y-72267500D01*
X87742496Y-72266296D01*
X87718227Y-72262696D01*
X87694429Y-72256735D01*
X87671329Y-72248470D01*
X87649151Y-72237980D01*
X87628107Y-72225367D01*
X87608402Y-72210753D01*
X87590223Y-72194277D01*
X87573747Y-72176098D01*
X87559133Y-72156393D01*
X87546520Y-72135349D01*
X87536030Y-72113171D01*
X87527765Y-72090071D01*
X87521804Y-72066273D01*
X87518204Y-72042004D01*
X87517000Y-72017500D01*
X87517000Y-71092500D01*
X87518204Y-71067996D01*
X87521804Y-71043727D01*
X87527765Y-71019929D01*
X87536030Y-70996829D01*
X87546520Y-70974651D01*
X87559133Y-70953607D01*
X87573747Y-70933902D01*
X87590223Y-70915723D01*
X87608402Y-70899247D01*
X87628107Y-70884633D01*
X87649151Y-70872020D01*
X87671329Y-70861530D01*
X87694429Y-70853265D01*
X87718227Y-70847304D01*
X87742496Y-70843704D01*
X87767000Y-70842500D01*
X89017000Y-70842500D01*
X89041504Y-70843704D01*
X89041504Y-70843704D01*
G37*
D11*
X88392000Y-71555000D03*
D10*
G36*
X89041504Y-67868704D02*
X89065773Y-67872304D01*
X89089571Y-67878265D01*
X89112671Y-67886530D01*
X89134849Y-67897020D01*
X89155893Y-67909633D01*
X89175598Y-67924247D01*
X89193777Y-67940723D01*
X89210253Y-67958902D01*
X89224867Y-67978607D01*
X89237480Y-67999651D01*
X89247970Y-68021829D01*
X89256235Y-68044929D01*
X89262196Y-68068727D01*
X89265796Y-68092996D01*
X89267000Y-68117500D01*
X89267000Y-69042500D01*
X89265796Y-69067004D01*
X89262196Y-69091273D01*
X89256235Y-69115071D01*
X89247970Y-69138171D01*
X89237480Y-69160349D01*
X89224867Y-69181393D01*
X89210253Y-69201098D01*
X89193777Y-69219277D01*
X89175598Y-69235753D01*
X89155893Y-69250367D01*
X89134849Y-69262980D01*
X89112671Y-69273470D01*
X89089571Y-69281735D01*
X89065773Y-69287696D01*
X89041504Y-69291296D01*
X89017000Y-69292500D01*
X87767000Y-69292500D01*
X87742496Y-69291296D01*
X87718227Y-69287696D01*
X87694429Y-69281735D01*
X87671329Y-69273470D01*
X87649151Y-69262980D01*
X87628107Y-69250367D01*
X87608402Y-69235753D01*
X87590223Y-69219277D01*
X87573747Y-69201098D01*
X87559133Y-69181393D01*
X87546520Y-69160349D01*
X87536030Y-69138171D01*
X87527765Y-69115071D01*
X87521804Y-69091273D01*
X87518204Y-69067004D01*
X87517000Y-69042500D01*
X87517000Y-68117500D01*
X87518204Y-68092996D01*
X87521804Y-68068727D01*
X87527765Y-68044929D01*
X87536030Y-68021829D01*
X87546520Y-67999651D01*
X87559133Y-67978607D01*
X87573747Y-67958902D01*
X87590223Y-67940723D01*
X87608402Y-67924247D01*
X87628107Y-67909633D01*
X87649151Y-67897020D01*
X87671329Y-67886530D01*
X87694429Y-67878265D01*
X87718227Y-67872304D01*
X87742496Y-67868704D01*
X87767000Y-67867500D01*
X89017000Y-67867500D01*
X89041504Y-67868704D01*
X89041504Y-67868704D01*
G37*
D11*
X88392000Y-68580000D03*
G04 #@! TD*
D10*
G04 #@! TO.C,R3*
G36*
X90819504Y-104771704D02*
X90843773Y-104775304D01*
X90867571Y-104781265D01*
X90890671Y-104789530D01*
X90912849Y-104800020D01*
X90933893Y-104812633D01*
X90953598Y-104827247D01*
X90971777Y-104843723D01*
X90988253Y-104861902D01*
X91002867Y-104881607D01*
X91015480Y-104902651D01*
X91025970Y-104924829D01*
X91034235Y-104947929D01*
X91040196Y-104971727D01*
X91043796Y-104995996D01*
X91045000Y-105020500D01*
X91045000Y-105945500D01*
X91043796Y-105970004D01*
X91040196Y-105994273D01*
X91034235Y-106018071D01*
X91025970Y-106041171D01*
X91015480Y-106063349D01*
X91002867Y-106084393D01*
X90988253Y-106104098D01*
X90971777Y-106122277D01*
X90953598Y-106138753D01*
X90933893Y-106153367D01*
X90912849Y-106165980D01*
X90890671Y-106176470D01*
X90867571Y-106184735D01*
X90843773Y-106190696D01*
X90819504Y-106194296D01*
X90795000Y-106195500D01*
X89545000Y-106195500D01*
X89520496Y-106194296D01*
X89496227Y-106190696D01*
X89472429Y-106184735D01*
X89449329Y-106176470D01*
X89427151Y-106165980D01*
X89406107Y-106153367D01*
X89386402Y-106138753D01*
X89368223Y-106122277D01*
X89351747Y-106104098D01*
X89337133Y-106084393D01*
X89324520Y-106063349D01*
X89314030Y-106041171D01*
X89305765Y-106018071D01*
X89299804Y-105994273D01*
X89296204Y-105970004D01*
X89295000Y-105945500D01*
X89295000Y-105020500D01*
X89296204Y-104995996D01*
X89299804Y-104971727D01*
X89305765Y-104947929D01*
X89314030Y-104924829D01*
X89324520Y-104902651D01*
X89337133Y-104881607D01*
X89351747Y-104861902D01*
X89368223Y-104843723D01*
X89386402Y-104827247D01*
X89406107Y-104812633D01*
X89427151Y-104800020D01*
X89449329Y-104789530D01*
X89472429Y-104781265D01*
X89496227Y-104775304D01*
X89520496Y-104771704D01*
X89545000Y-104770500D01*
X90795000Y-104770500D01*
X90819504Y-104771704D01*
X90819504Y-104771704D01*
G37*
D11*
X90170000Y-105483000D03*
D10*
G36*
X90819504Y-107746704D02*
X90843773Y-107750304D01*
X90867571Y-107756265D01*
X90890671Y-107764530D01*
X90912849Y-107775020D01*
X90933893Y-107787633D01*
X90953598Y-107802247D01*
X90971777Y-107818723D01*
X90988253Y-107836902D01*
X91002867Y-107856607D01*
X91015480Y-107877651D01*
X91025970Y-107899829D01*
X91034235Y-107922929D01*
X91040196Y-107946727D01*
X91043796Y-107970996D01*
X91045000Y-107995500D01*
X91045000Y-108920500D01*
X91043796Y-108945004D01*
X91040196Y-108969273D01*
X91034235Y-108993071D01*
X91025970Y-109016171D01*
X91015480Y-109038349D01*
X91002867Y-109059393D01*
X90988253Y-109079098D01*
X90971777Y-109097277D01*
X90953598Y-109113753D01*
X90933893Y-109128367D01*
X90912849Y-109140980D01*
X90890671Y-109151470D01*
X90867571Y-109159735D01*
X90843773Y-109165696D01*
X90819504Y-109169296D01*
X90795000Y-109170500D01*
X89545000Y-109170500D01*
X89520496Y-109169296D01*
X89496227Y-109165696D01*
X89472429Y-109159735D01*
X89449329Y-109151470D01*
X89427151Y-109140980D01*
X89406107Y-109128367D01*
X89386402Y-109113753D01*
X89368223Y-109097277D01*
X89351747Y-109079098D01*
X89337133Y-109059393D01*
X89324520Y-109038349D01*
X89314030Y-109016171D01*
X89305765Y-108993071D01*
X89299804Y-108969273D01*
X89296204Y-108945004D01*
X89295000Y-108920500D01*
X89295000Y-107995500D01*
X89296204Y-107970996D01*
X89299804Y-107946727D01*
X89305765Y-107922929D01*
X89314030Y-107899829D01*
X89324520Y-107877651D01*
X89337133Y-107856607D01*
X89351747Y-107836902D01*
X89368223Y-107818723D01*
X89386402Y-107802247D01*
X89406107Y-107787633D01*
X89427151Y-107775020D01*
X89449329Y-107764530D01*
X89472429Y-107756265D01*
X89496227Y-107750304D01*
X89520496Y-107746704D01*
X89545000Y-107745500D01*
X90795000Y-107745500D01*
X90819504Y-107746704D01*
X90819504Y-107746704D01*
G37*
D11*
X90170000Y-108458000D03*
G04 #@! TD*
D10*
G04 #@! TO.C,R4*
G36*
X100979504Y-107673704D02*
X101003773Y-107677304D01*
X101027571Y-107683265D01*
X101050671Y-107691530D01*
X101072849Y-107702020D01*
X101093893Y-107714633D01*
X101113598Y-107729247D01*
X101131777Y-107745723D01*
X101148253Y-107763902D01*
X101162867Y-107783607D01*
X101175480Y-107804651D01*
X101185970Y-107826829D01*
X101194235Y-107849929D01*
X101200196Y-107873727D01*
X101203796Y-107897996D01*
X101205000Y-107922500D01*
X101205000Y-108847500D01*
X101203796Y-108872004D01*
X101200196Y-108896273D01*
X101194235Y-108920071D01*
X101185970Y-108943171D01*
X101175480Y-108965349D01*
X101162867Y-108986393D01*
X101148253Y-109006098D01*
X101131777Y-109024277D01*
X101113598Y-109040753D01*
X101093893Y-109055367D01*
X101072849Y-109067980D01*
X101050671Y-109078470D01*
X101027571Y-109086735D01*
X101003773Y-109092696D01*
X100979504Y-109096296D01*
X100955000Y-109097500D01*
X99705000Y-109097500D01*
X99680496Y-109096296D01*
X99656227Y-109092696D01*
X99632429Y-109086735D01*
X99609329Y-109078470D01*
X99587151Y-109067980D01*
X99566107Y-109055367D01*
X99546402Y-109040753D01*
X99528223Y-109024277D01*
X99511747Y-109006098D01*
X99497133Y-108986393D01*
X99484520Y-108965349D01*
X99474030Y-108943171D01*
X99465765Y-108920071D01*
X99459804Y-108896273D01*
X99456204Y-108872004D01*
X99455000Y-108847500D01*
X99455000Y-107922500D01*
X99456204Y-107897996D01*
X99459804Y-107873727D01*
X99465765Y-107849929D01*
X99474030Y-107826829D01*
X99484520Y-107804651D01*
X99497133Y-107783607D01*
X99511747Y-107763902D01*
X99528223Y-107745723D01*
X99546402Y-107729247D01*
X99566107Y-107714633D01*
X99587151Y-107702020D01*
X99609329Y-107691530D01*
X99632429Y-107683265D01*
X99656227Y-107677304D01*
X99680496Y-107673704D01*
X99705000Y-107672500D01*
X100955000Y-107672500D01*
X100979504Y-107673704D01*
X100979504Y-107673704D01*
G37*
D11*
X100330000Y-108385000D03*
D10*
G36*
X100979504Y-104698704D02*
X101003773Y-104702304D01*
X101027571Y-104708265D01*
X101050671Y-104716530D01*
X101072849Y-104727020D01*
X101093893Y-104739633D01*
X101113598Y-104754247D01*
X101131777Y-104770723D01*
X101148253Y-104788902D01*
X101162867Y-104808607D01*
X101175480Y-104829651D01*
X101185970Y-104851829D01*
X101194235Y-104874929D01*
X101200196Y-104898727D01*
X101203796Y-104922996D01*
X101205000Y-104947500D01*
X101205000Y-105872500D01*
X101203796Y-105897004D01*
X101200196Y-105921273D01*
X101194235Y-105945071D01*
X101185970Y-105968171D01*
X101175480Y-105990349D01*
X101162867Y-106011393D01*
X101148253Y-106031098D01*
X101131777Y-106049277D01*
X101113598Y-106065753D01*
X101093893Y-106080367D01*
X101072849Y-106092980D01*
X101050671Y-106103470D01*
X101027571Y-106111735D01*
X101003773Y-106117696D01*
X100979504Y-106121296D01*
X100955000Y-106122500D01*
X99705000Y-106122500D01*
X99680496Y-106121296D01*
X99656227Y-106117696D01*
X99632429Y-106111735D01*
X99609329Y-106103470D01*
X99587151Y-106092980D01*
X99566107Y-106080367D01*
X99546402Y-106065753D01*
X99528223Y-106049277D01*
X99511747Y-106031098D01*
X99497133Y-106011393D01*
X99484520Y-105990349D01*
X99474030Y-105968171D01*
X99465765Y-105945071D01*
X99459804Y-105921273D01*
X99456204Y-105897004D01*
X99455000Y-105872500D01*
X99455000Y-104947500D01*
X99456204Y-104922996D01*
X99459804Y-104898727D01*
X99465765Y-104874929D01*
X99474030Y-104851829D01*
X99484520Y-104829651D01*
X99497133Y-104808607D01*
X99511747Y-104788902D01*
X99528223Y-104770723D01*
X99546402Y-104754247D01*
X99566107Y-104739633D01*
X99587151Y-104727020D01*
X99609329Y-104716530D01*
X99632429Y-104708265D01*
X99656227Y-104702304D01*
X99680496Y-104698704D01*
X99705000Y-104697500D01*
X100955000Y-104697500D01*
X100979504Y-104698704D01*
X100979504Y-104698704D01*
G37*
D11*
X100330000Y-105410000D03*
G04 #@! TD*
D10*
G04 #@! TO.C,R5*
G36*
X112917504Y-101069704D02*
X112941773Y-101073304D01*
X112965571Y-101079265D01*
X112988671Y-101087530D01*
X113010849Y-101098020D01*
X113031893Y-101110633D01*
X113051598Y-101125247D01*
X113069777Y-101141723D01*
X113086253Y-101159902D01*
X113100867Y-101179607D01*
X113113480Y-101200651D01*
X113123970Y-101222829D01*
X113132235Y-101245929D01*
X113138196Y-101269727D01*
X113141796Y-101293996D01*
X113143000Y-101318500D01*
X113143000Y-102243500D01*
X113141796Y-102268004D01*
X113138196Y-102292273D01*
X113132235Y-102316071D01*
X113123970Y-102339171D01*
X113113480Y-102361349D01*
X113100867Y-102382393D01*
X113086253Y-102402098D01*
X113069777Y-102420277D01*
X113051598Y-102436753D01*
X113031893Y-102451367D01*
X113010849Y-102463980D01*
X112988671Y-102474470D01*
X112965571Y-102482735D01*
X112941773Y-102488696D01*
X112917504Y-102492296D01*
X112893000Y-102493500D01*
X111643000Y-102493500D01*
X111618496Y-102492296D01*
X111594227Y-102488696D01*
X111570429Y-102482735D01*
X111547329Y-102474470D01*
X111525151Y-102463980D01*
X111504107Y-102451367D01*
X111484402Y-102436753D01*
X111466223Y-102420277D01*
X111449747Y-102402098D01*
X111435133Y-102382393D01*
X111422520Y-102361349D01*
X111412030Y-102339171D01*
X111403765Y-102316071D01*
X111397804Y-102292273D01*
X111394204Y-102268004D01*
X111393000Y-102243500D01*
X111393000Y-101318500D01*
X111394204Y-101293996D01*
X111397804Y-101269727D01*
X111403765Y-101245929D01*
X111412030Y-101222829D01*
X111422520Y-101200651D01*
X111435133Y-101179607D01*
X111449747Y-101159902D01*
X111466223Y-101141723D01*
X111484402Y-101125247D01*
X111504107Y-101110633D01*
X111525151Y-101098020D01*
X111547329Y-101087530D01*
X111570429Y-101079265D01*
X111594227Y-101073304D01*
X111618496Y-101069704D01*
X111643000Y-101068500D01*
X112893000Y-101068500D01*
X112917504Y-101069704D01*
X112917504Y-101069704D01*
G37*
D11*
X112268000Y-101781000D03*
D10*
G36*
X112917504Y-98094704D02*
X112941773Y-98098304D01*
X112965571Y-98104265D01*
X112988671Y-98112530D01*
X113010849Y-98123020D01*
X113031893Y-98135633D01*
X113051598Y-98150247D01*
X113069777Y-98166723D01*
X113086253Y-98184902D01*
X113100867Y-98204607D01*
X113113480Y-98225651D01*
X113123970Y-98247829D01*
X113132235Y-98270929D01*
X113138196Y-98294727D01*
X113141796Y-98318996D01*
X113143000Y-98343500D01*
X113143000Y-99268500D01*
X113141796Y-99293004D01*
X113138196Y-99317273D01*
X113132235Y-99341071D01*
X113123970Y-99364171D01*
X113113480Y-99386349D01*
X113100867Y-99407393D01*
X113086253Y-99427098D01*
X113069777Y-99445277D01*
X113051598Y-99461753D01*
X113031893Y-99476367D01*
X113010849Y-99488980D01*
X112988671Y-99499470D01*
X112965571Y-99507735D01*
X112941773Y-99513696D01*
X112917504Y-99517296D01*
X112893000Y-99518500D01*
X111643000Y-99518500D01*
X111618496Y-99517296D01*
X111594227Y-99513696D01*
X111570429Y-99507735D01*
X111547329Y-99499470D01*
X111525151Y-99488980D01*
X111504107Y-99476367D01*
X111484402Y-99461753D01*
X111466223Y-99445277D01*
X111449747Y-99427098D01*
X111435133Y-99407393D01*
X111422520Y-99386349D01*
X111412030Y-99364171D01*
X111403765Y-99341071D01*
X111397804Y-99317273D01*
X111394204Y-99293004D01*
X111393000Y-99268500D01*
X111393000Y-98343500D01*
X111394204Y-98318996D01*
X111397804Y-98294727D01*
X111403765Y-98270929D01*
X111412030Y-98247829D01*
X111422520Y-98225651D01*
X111435133Y-98204607D01*
X111449747Y-98184902D01*
X111466223Y-98166723D01*
X111484402Y-98150247D01*
X111504107Y-98135633D01*
X111525151Y-98123020D01*
X111547329Y-98112530D01*
X111570429Y-98104265D01*
X111594227Y-98098304D01*
X111618496Y-98094704D01*
X111643000Y-98093500D01*
X112893000Y-98093500D01*
X112917504Y-98094704D01*
X112917504Y-98094704D01*
G37*
D11*
X112268000Y-98806000D03*
G04 #@! TD*
D10*
G04 #@! TO.C,C1*
G36*
X89041504Y-88778204D02*
X89065773Y-88781804D01*
X89089571Y-88787765D01*
X89112671Y-88796030D01*
X89134849Y-88806520D01*
X89155893Y-88819133D01*
X89175598Y-88833747D01*
X89193777Y-88850223D01*
X89210253Y-88868402D01*
X89224867Y-88888107D01*
X89237480Y-88909151D01*
X89247970Y-88931329D01*
X89256235Y-88954429D01*
X89262196Y-88978227D01*
X89265796Y-89002496D01*
X89267000Y-89027000D01*
X89267000Y-89777000D01*
X89265796Y-89801504D01*
X89262196Y-89825773D01*
X89256235Y-89849571D01*
X89247970Y-89872671D01*
X89237480Y-89894849D01*
X89224867Y-89915893D01*
X89210253Y-89935598D01*
X89193777Y-89953777D01*
X89175598Y-89970253D01*
X89155893Y-89984867D01*
X89134849Y-89997480D01*
X89112671Y-90007970D01*
X89089571Y-90016235D01*
X89065773Y-90022196D01*
X89041504Y-90025796D01*
X89017000Y-90027000D01*
X87767000Y-90027000D01*
X87742496Y-90025796D01*
X87718227Y-90022196D01*
X87694429Y-90016235D01*
X87671329Y-90007970D01*
X87649151Y-89997480D01*
X87628107Y-89984867D01*
X87608402Y-89970253D01*
X87590223Y-89953777D01*
X87573747Y-89935598D01*
X87559133Y-89915893D01*
X87546520Y-89894849D01*
X87536030Y-89872671D01*
X87527765Y-89849571D01*
X87521804Y-89825773D01*
X87518204Y-89801504D01*
X87517000Y-89777000D01*
X87517000Y-89027000D01*
X87518204Y-89002496D01*
X87521804Y-88978227D01*
X87527765Y-88954429D01*
X87536030Y-88931329D01*
X87546520Y-88909151D01*
X87559133Y-88888107D01*
X87573747Y-88868402D01*
X87590223Y-88850223D01*
X87608402Y-88833747D01*
X87628107Y-88819133D01*
X87649151Y-88806520D01*
X87671329Y-88796030D01*
X87694429Y-88787765D01*
X87718227Y-88781804D01*
X87742496Y-88778204D01*
X87767000Y-88777000D01*
X89017000Y-88777000D01*
X89041504Y-88778204D01*
X89041504Y-88778204D01*
G37*
D12*
X88392000Y-89402000D03*
D10*
G36*
X89041504Y-91578204D02*
X89065773Y-91581804D01*
X89089571Y-91587765D01*
X89112671Y-91596030D01*
X89134849Y-91606520D01*
X89155893Y-91619133D01*
X89175598Y-91633747D01*
X89193777Y-91650223D01*
X89210253Y-91668402D01*
X89224867Y-91688107D01*
X89237480Y-91709151D01*
X89247970Y-91731329D01*
X89256235Y-91754429D01*
X89262196Y-91778227D01*
X89265796Y-91802496D01*
X89267000Y-91827000D01*
X89267000Y-92577000D01*
X89265796Y-92601504D01*
X89262196Y-92625773D01*
X89256235Y-92649571D01*
X89247970Y-92672671D01*
X89237480Y-92694849D01*
X89224867Y-92715893D01*
X89210253Y-92735598D01*
X89193777Y-92753777D01*
X89175598Y-92770253D01*
X89155893Y-92784867D01*
X89134849Y-92797480D01*
X89112671Y-92807970D01*
X89089571Y-92816235D01*
X89065773Y-92822196D01*
X89041504Y-92825796D01*
X89017000Y-92827000D01*
X87767000Y-92827000D01*
X87742496Y-92825796D01*
X87718227Y-92822196D01*
X87694429Y-92816235D01*
X87671329Y-92807970D01*
X87649151Y-92797480D01*
X87628107Y-92784867D01*
X87608402Y-92770253D01*
X87590223Y-92753777D01*
X87573747Y-92735598D01*
X87559133Y-92715893D01*
X87546520Y-92694849D01*
X87536030Y-92672671D01*
X87527765Y-92649571D01*
X87521804Y-92625773D01*
X87518204Y-92601504D01*
X87517000Y-92577000D01*
X87517000Y-91827000D01*
X87518204Y-91802496D01*
X87521804Y-91778227D01*
X87527765Y-91754429D01*
X87536030Y-91731329D01*
X87546520Y-91709151D01*
X87559133Y-91688107D01*
X87573747Y-91668402D01*
X87590223Y-91650223D01*
X87608402Y-91633747D01*
X87628107Y-91619133D01*
X87649151Y-91606520D01*
X87671329Y-91596030D01*
X87694429Y-91587765D01*
X87718227Y-91581804D01*
X87742496Y-91578204D01*
X87767000Y-91577000D01*
X89017000Y-91577000D01*
X89041504Y-91578204D01*
X89041504Y-91578204D01*
G37*
D12*
X88392000Y-92202000D03*
G04 #@! TD*
D10*
G04 #@! TO.C,C2*
G36*
X89041504Y-96144204D02*
X89065773Y-96147804D01*
X89089571Y-96153765D01*
X89112671Y-96162030D01*
X89134849Y-96172520D01*
X89155893Y-96185133D01*
X89175598Y-96199747D01*
X89193777Y-96216223D01*
X89210253Y-96234402D01*
X89224867Y-96254107D01*
X89237480Y-96275151D01*
X89247970Y-96297329D01*
X89256235Y-96320429D01*
X89262196Y-96344227D01*
X89265796Y-96368496D01*
X89267000Y-96393000D01*
X89267000Y-97143000D01*
X89265796Y-97167504D01*
X89262196Y-97191773D01*
X89256235Y-97215571D01*
X89247970Y-97238671D01*
X89237480Y-97260849D01*
X89224867Y-97281893D01*
X89210253Y-97301598D01*
X89193777Y-97319777D01*
X89175598Y-97336253D01*
X89155893Y-97350867D01*
X89134849Y-97363480D01*
X89112671Y-97373970D01*
X89089571Y-97382235D01*
X89065773Y-97388196D01*
X89041504Y-97391796D01*
X89017000Y-97393000D01*
X87767000Y-97393000D01*
X87742496Y-97391796D01*
X87718227Y-97388196D01*
X87694429Y-97382235D01*
X87671329Y-97373970D01*
X87649151Y-97363480D01*
X87628107Y-97350867D01*
X87608402Y-97336253D01*
X87590223Y-97319777D01*
X87573747Y-97301598D01*
X87559133Y-97281893D01*
X87546520Y-97260849D01*
X87536030Y-97238671D01*
X87527765Y-97215571D01*
X87521804Y-97191773D01*
X87518204Y-97167504D01*
X87517000Y-97143000D01*
X87517000Y-96393000D01*
X87518204Y-96368496D01*
X87521804Y-96344227D01*
X87527765Y-96320429D01*
X87536030Y-96297329D01*
X87546520Y-96275151D01*
X87559133Y-96254107D01*
X87573747Y-96234402D01*
X87590223Y-96216223D01*
X87608402Y-96199747D01*
X87628107Y-96185133D01*
X87649151Y-96172520D01*
X87671329Y-96162030D01*
X87694429Y-96153765D01*
X87718227Y-96147804D01*
X87742496Y-96144204D01*
X87767000Y-96143000D01*
X89017000Y-96143000D01*
X89041504Y-96144204D01*
X89041504Y-96144204D01*
G37*
D12*
X88392000Y-96768000D03*
D10*
G36*
X89041504Y-98944204D02*
X89065773Y-98947804D01*
X89089571Y-98953765D01*
X89112671Y-98962030D01*
X89134849Y-98972520D01*
X89155893Y-98985133D01*
X89175598Y-98999747D01*
X89193777Y-99016223D01*
X89210253Y-99034402D01*
X89224867Y-99054107D01*
X89237480Y-99075151D01*
X89247970Y-99097329D01*
X89256235Y-99120429D01*
X89262196Y-99144227D01*
X89265796Y-99168496D01*
X89267000Y-99193000D01*
X89267000Y-99943000D01*
X89265796Y-99967504D01*
X89262196Y-99991773D01*
X89256235Y-100015571D01*
X89247970Y-100038671D01*
X89237480Y-100060849D01*
X89224867Y-100081893D01*
X89210253Y-100101598D01*
X89193777Y-100119777D01*
X89175598Y-100136253D01*
X89155893Y-100150867D01*
X89134849Y-100163480D01*
X89112671Y-100173970D01*
X89089571Y-100182235D01*
X89065773Y-100188196D01*
X89041504Y-100191796D01*
X89017000Y-100193000D01*
X87767000Y-100193000D01*
X87742496Y-100191796D01*
X87718227Y-100188196D01*
X87694429Y-100182235D01*
X87671329Y-100173970D01*
X87649151Y-100163480D01*
X87628107Y-100150867D01*
X87608402Y-100136253D01*
X87590223Y-100119777D01*
X87573747Y-100101598D01*
X87559133Y-100081893D01*
X87546520Y-100060849D01*
X87536030Y-100038671D01*
X87527765Y-100015571D01*
X87521804Y-99991773D01*
X87518204Y-99967504D01*
X87517000Y-99943000D01*
X87517000Y-99193000D01*
X87518204Y-99168496D01*
X87521804Y-99144227D01*
X87527765Y-99120429D01*
X87536030Y-99097329D01*
X87546520Y-99075151D01*
X87559133Y-99054107D01*
X87573747Y-99034402D01*
X87590223Y-99016223D01*
X87608402Y-98999747D01*
X87628107Y-98985133D01*
X87649151Y-98972520D01*
X87671329Y-98962030D01*
X87694429Y-98953765D01*
X87718227Y-98947804D01*
X87742496Y-98944204D01*
X87767000Y-98943000D01*
X89017000Y-98943000D01*
X89041504Y-98944204D01*
X89041504Y-98944204D01*
G37*
D12*
X88392000Y-99568000D03*
G04 #@! TD*
D10*
G04 #@! TO.C,D3*
G36*
X112663504Y-67941704D02*
X112687773Y-67945304D01*
X112711571Y-67951265D01*
X112734671Y-67959530D01*
X112756849Y-67970020D01*
X112777893Y-67982633D01*
X112797598Y-67997247D01*
X112815777Y-68013723D01*
X112832253Y-68031902D01*
X112846867Y-68051607D01*
X112859480Y-68072651D01*
X112869970Y-68094829D01*
X112878235Y-68117929D01*
X112884196Y-68141727D01*
X112887796Y-68165996D01*
X112889000Y-68190500D01*
X112889000Y-69115500D01*
X112887796Y-69140004D01*
X112884196Y-69164273D01*
X112878235Y-69188071D01*
X112869970Y-69211171D01*
X112859480Y-69233349D01*
X112846867Y-69254393D01*
X112832253Y-69274098D01*
X112815777Y-69292277D01*
X112797598Y-69308753D01*
X112777893Y-69323367D01*
X112756849Y-69335980D01*
X112734671Y-69346470D01*
X112711571Y-69354735D01*
X112687773Y-69360696D01*
X112663504Y-69364296D01*
X112639000Y-69365500D01*
X111389000Y-69365500D01*
X111364496Y-69364296D01*
X111340227Y-69360696D01*
X111316429Y-69354735D01*
X111293329Y-69346470D01*
X111271151Y-69335980D01*
X111250107Y-69323367D01*
X111230402Y-69308753D01*
X111212223Y-69292277D01*
X111195747Y-69274098D01*
X111181133Y-69254393D01*
X111168520Y-69233349D01*
X111158030Y-69211171D01*
X111149765Y-69188071D01*
X111143804Y-69164273D01*
X111140204Y-69140004D01*
X111139000Y-69115500D01*
X111139000Y-68190500D01*
X111140204Y-68165996D01*
X111143804Y-68141727D01*
X111149765Y-68117929D01*
X111158030Y-68094829D01*
X111168520Y-68072651D01*
X111181133Y-68051607D01*
X111195747Y-68031902D01*
X111212223Y-68013723D01*
X111230402Y-67997247D01*
X111250107Y-67982633D01*
X111271151Y-67970020D01*
X111293329Y-67959530D01*
X111316429Y-67951265D01*
X111340227Y-67945304D01*
X111364496Y-67941704D01*
X111389000Y-67940500D01*
X112639000Y-67940500D01*
X112663504Y-67941704D01*
X112663504Y-67941704D01*
G37*
D11*
X112014000Y-68653000D03*
D10*
G36*
X112663504Y-70916704D02*
X112687773Y-70920304D01*
X112711571Y-70926265D01*
X112734671Y-70934530D01*
X112756849Y-70945020D01*
X112777893Y-70957633D01*
X112797598Y-70972247D01*
X112815777Y-70988723D01*
X112832253Y-71006902D01*
X112846867Y-71026607D01*
X112859480Y-71047651D01*
X112869970Y-71069829D01*
X112878235Y-71092929D01*
X112884196Y-71116727D01*
X112887796Y-71140996D01*
X112889000Y-71165500D01*
X112889000Y-72090500D01*
X112887796Y-72115004D01*
X112884196Y-72139273D01*
X112878235Y-72163071D01*
X112869970Y-72186171D01*
X112859480Y-72208349D01*
X112846867Y-72229393D01*
X112832253Y-72249098D01*
X112815777Y-72267277D01*
X112797598Y-72283753D01*
X112777893Y-72298367D01*
X112756849Y-72310980D01*
X112734671Y-72321470D01*
X112711571Y-72329735D01*
X112687773Y-72335696D01*
X112663504Y-72339296D01*
X112639000Y-72340500D01*
X111389000Y-72340500D01*
X111364496Y-72339296D01*
X111340227Y-72335696D01*
X111316429Y-72329735D01*
X111293329Y-72321470D01*
X111271151Y-72310980D01*
X111250107Y-72298367D01*
X111230402Y-72283753D01*
X111212223Y-72267277D01*
X111195747Y-72249098D01*
X111181133Y-72229393D01*
X111168520Y-72208349D01*
X111158030Y-72186171D01*
X111149765Y-72163071D01*
X111143804Y-72139273D01*
X111140204Y-72115004D01*
X111139000Y-72090500D01*
X111139000Y-71165500D01*
X111140204Y-71140996D01*
X111143804Y-71116727D01*
X111149765Y-71092929D01*
X111158030Y-71069829D01*
X111168520Y-71047651D01*
X111181133Y-71026607D01*
X111195747Y-71006902D01*
X111212223Y-70988723D01*
X111230402Y-70972247D01*
X111250107Y-70957633D01*
X111271151Y-70945020D01*
X111293329Y-70934530D01*
X111316429Y-70926265D01*
X111340227Y-70920304D01*
X111364496Y-70916704D01*
X111389000Y-70915500D01*
X112639000Y-70915500D01*
X112663504Y-70916704D01*
X112663504Y-70916704D01*
G37*
D11*
X112014000Y-71628000D03*
G04 #@! TD*
D10*
G04 #@! TO.C,R6*
G36*
X115476004Y-73040204D02*
X115500273Y-73043804D01*
X115524071Y-73049765D01*
X115547171Y-73058030D01*
X115569349Y-73068520D01*
X115590393Y-73081133D01*
X115610098Y-73095747D01*
X115628277Y-73112223D01*
X115644753Y-73130402D01*
X115659367Y-73150107D01*
X115671980Y-73171151D01*
X115682470Y-73193329D01*
X115690735Y-73216429D01*
X115696696Y-73240227D01*
X115700296Y-73264496D01*
X115701500Y-73289000D01*
X115701500Y-74539000D01*
X115700296Y-74563504D01*
X115696696Y-74587773D01*
X115690735Y-74611571D01*
X115682470Y-74634671D01*
X115671980Y-74656849D01*
X115659367Y-74677893D01*
X115644753Y-74697598D01*
X115628277Y-74715777D01*
X115610098Y-74732253D01*
X115590393Y-74746867D01*
X115569349Y-74759480D01*
X115547171Y-74769970D01*
X115524071Y-74778235D01*
X115500273Y-74784196D01*
X115476004Y-74787796D01*
X115451500Y-74789000D01*
X114526500Y-74789000D01*
X114501996Y-74787796D01*
X114477727Y-74784196D01*
X114453929Y-74778235D01*
X114430829Y-74769970D01*
X114408651Y-74759480D01*
X114387607Y-74746867D01*
X114367902Y-74732253D01*
X114349723Y-74715777D01*
X114333247Y-74697598D01*
X114318633Y-74677893D01*
X114306020Y-74656849D01*
X114295530Y-74634671D01*
X114287265Y-74611571D01*
X114281304Y-74587773D01*
X114277704Y-74563504D01*
X114276500Y-74539000D01*
X114276500Y-73289000D01*
X114277704Y-73264496D01*
X114281304Y-73240227D01*
X114287265Y-73216429D01*
X114295530Y-73193329D01*
X114306020Y-73171151D01*
X114318633Y-73150107D01*
X114333247Y-73130402D01*
X114349723Y-73112223D01*
X114367902Y-73095747D01*
X114387607Y-73081133D01*
X114408651Y-73068520D01*
X114430829Y-73058030D01*
X114453929Y-73049765D01*
X114477727Y-73043804D01*
X114501996Y-73040204D01*
X114526500Y-73039000D01*
X115451500Y-73039000D01*
X115476004Y-73040204D01*
X115476004Y-73040204D01*
G37*
D11*
X114989000Y-73914000D03*
D10*
G36*
X112501004Y-73040204D02*
X112525273Y-73043804D01*
X112549071Y-73049765D01*
X112572171Y-73058030D01*
X112594349Y-73068520D01*
X112615393Y-73081133D01*
X112635098Y-73095747D01*
X112653277Y-73112223D01*
X112669753Y-73130402D01*
X112684367Y-73150107D01*
X112696980Y-73171151D01*
X112707470Y-73193329D01*
X112715735Y-73216429D01*
X112721696Y-73240227D01*
X112725296Y-73264496D01*
X112726500Y-73289000D01*
X112726500Y-74539000D01*
X112725296Y-74563504D01*
X112721696Y-74587773D01*
X112715735Y-74611571D01*
X112707470Y-74634671D01*
X112696980Y-74656849D01*
X112684367Y-74677893D01*
X112669753Y-74697598D01*
X112653277Y-74715777D01*
X112635098Y-74732253D01*
X112615393Y-74746867D01*
X112594349Y-74759480D01*
X112572171Y-74769970D01*
X112549071Y-74778235D01*
X112525273Y-74784196D01*
X112501004Y-74787796D01*
X112476500Y-74789000D01*
X111551500Y-74789000D01*
X111526996Y-74787796D01*
X111502727Y-74784196D01*
X111478929Y-74778235D01*
X111455829Y-74769970D01*
X111433651Y-74759480D01*
X111412607Y-74746867D01*
X111392902Y-74732253D01*
X111374723Y-74715777D01*
X111358247Y-74697598D01*
X111343633Y-74677893D01*
X111331020Y-74656849D01*
X111320530Y-74634671D01*
X111312265Y-74611571D01*
X111306304Y-74587773D01*
X111302704Y-74563504D01*
X111301500Y-74539000D01*
X111301500Y-73289000D01*
X111302704Y-73264496D01*
X111306304Y-73240227D01*
X111312265Y-73216429D01*
X111320530Y-73193329D01*
X111331020Y-73171151D01*
X111343633Y-73150107D01*
X111358247Y-73130402D01*
X111374723Y-73112223D01*
X111392902Y-73095747D01*
X111412607Y-73081133D01*
X111433651Y-73068520D01*
X111455829Y-73058030D01*
X111478929Y-73049765D01*
X111502727Y-73043804D01*
X111526996Y-73040204D01*
X111551500Y-73039000D01*
X112476500Y-73039000D01*
X112501004Y-73040204D01*
X112501004Y-73040204D01*
G37*
D11*
X112014000Y-73914000D03*
G04 #@! TD*
D10*
G04 #@! TO.C,R7*
G36*
X112917504Y-86229704D02*
X112941773Y-86233304D01*
X112965571Y-86239265D01*
X112988671Y-86247530D01*
X113010849Y-86258020D01*
X113031893Y-86270633D01*
X113051598Y-86285247D01*
X113069777Y-86301723D01*
X113086253Y-86319902D01*
X113100867Y-86339607D01*
X113113480Y-86360651D01*
X113123970Y-86382829D01*
X113132235Y-86405929D01*
X113138196Y-86429727D01*
X113141796Y-86453996D01*
X113143000Y-86478500D01*
X113143000Y-87403500D01*
X113141796Y-87428004D01*
X113138196Y-87452273D01*
X113132235Y-87476071D01*
X113123970Y-87499171D01*
X113113480Y-87521349D01*
X113100867Y-87542393D01*
X113086253Y-87562098D01*
X113069777Y-87580277D01*
X113051598Y-87596753D01*
X113031893Y-87611367D01*
X113010849Y-87623980D01*
X112988671Y-87634470D01*
X112965571Y-87642735D01*
X112941773Y-87648696D01*
X112917504Y-87652296D01*
X112893000Y-87653500D01*
X111643000Y-87653500D01*
X111618496Y-87652296D01*
X111594227Y-87648696D01*
X111570429Y-87642735D01*
X111547329Y-87634470D01*
X111525151Y-87623980D01*
X111504107Y-87611367D01*
X111484402Y-87596753D01*
X111466223Y-87580277D01*
X111449747Y-87562098D01*
X111435133Y-87542393D01*
X111422520Y-87521349D01*
X111412030Y-87499171D01*
X111403765Y-87476071D01*
X111397804Y-87452273D01*
X111394204Y-87428004D01*
X111393000Y-87403500D01*
X111393000Y-86478500D01*
X111394204Y-86453996D01*
X111397804Y-86429727D01*
X111403765Y-86405929D01*
X111412030Y-86382829D01*
X111422520Y-86360651D01*
X111435133Y-86339607D01*
X111449747Y-86319902D01*
X111466223Y-86301723D01*
X111484402Y-86285247D01*
X111504107Y-86270633D01*
X111525151Y-86258020D01*
X111547329Y-86247530D01*
X111570429Y-86239265D01*
X111594227Y-86233304D01*
X111618496Y-86229704D01*
X111643000Y-86228500D01*
X112893000Y-86228500D01*
X112917504Y-86229704D01*
X112917504Y-86229704D01*
G37*
D11*
X112268000Y-86941000D03*
D10*
G36*
X112917504Y-89204704D02*
X112941773Y-89208304D01*
X112965571Y-89214265D01*
X112988671Y-89222530D01*
X113010849Y-89233020D01*
X113031893Y-89245633D01*
X113051598Y-89260247D01*
X113069777Y-89276723D01*
X113086253Y-89294902D01*
X113100867Y-89314607D01*
X113113480Y-89335651D01*
X113123970Y-89357829D01*
X113132235Y-89380929D01*
X113138196Y-89404727D01*
X113141796Y-89428996D01*
X113143000Y-89453500D01*
X113143000Y-90378500D01*
X113141796Y-90403004D01*
X113138196Y-90427273D01*
X113132235Y-90451071D01*
X113123970Y-90474171D01*
X113113480Y-90496349D01*
X113100867Y-90517393D01*
X113086253Y-90537098D01*
X113069777Y-90555277D01*
X113051598Y-90571753D01*
X113031893Y-90586367D01*
X113010849Y-90598980D01*
X112988671Y-90609470D01*
X112965571Y-90617735D01*
X112941773Y-90623696D01*
X112917504Y-90627296D01*
X112893000Y-90628500D01*
X111643000Y-90628500D01*
X111618496Y-90627296D01*
X111594227Y-90623696D01*
X111570429Y-90617735D01*
X111547329Y-90609470D01*
X111525151Y-90598980D01*
X111504107Y-90586367D01*
X111484402Y-90571753D01*
X111466223Y-90555277D01*
X111449747Y-90537098D01*
X111435133Y-90517393D01*
X111422520Y-90496349D01*
X111412030Y-90474171D01*
X111403765Y-90451071D01*
X111397804Y-90427273D01*
X111394204Y-90403004D01*
X111393000Y-90378500D01*
X111393000Y-89453500D01*
X111394204Y-89428996D01*
X111397804Y-89404727D01*
X111403765Y-89380929D01*
X111412030Y-89357829D01*
X111422520Y-89335651D01*
X111435133Y-89314607D01*
X111449747Y-89294902D01*
X111466223Y-89276723D01*
X111484402Y-89260247D01*
X111504107Y-89245633D01*
X111525151Y-89233020D01*
X111547329Y-89222530D01*
X111570429Y-89214265D01*
X111594227Y-89208304D01*
X111618496Y-89204704D01*
X111643000Y-89203500D01*
X112893000Y-89203500D01*
X112917504Y-89204704D01*
X112917504Y-89204704D01*
G37*
D11*
X112268000Y-89916000D03*
G04 #@! TD*
D10*
G04 #@! TO.C,R8*
G36*
X110377504Y-89204704D02*
X110401773Y-89208304D01*
X110425571Y-89214265D01*
X110448671Y-89222530D01*
X110470849Y-89233020D01*
X110491893Y-89245633D01*
X110511598Y-89260247D01*
X110529777Y-89276723D01*
X110546253Y-89294902D01*
X110560867Y-89314607D01*
X110573480Y-89335651D01*
X110583970Y-89357829D01*
X110592235Y-89380929D01*
X110598196Y-89404727D01*
X110601796Y-89428996D01*
X110603000Y-89453500D01*
X110603000Y-90378500D01*
X110601796Y-90403004D01*
X110598196Y-90427273D01*
X110592235Y-90451071D01*
X110583970Y-90474171D01*
X110573480Y-90496349D01*
X110560867Y-90517393D01*
X110546253Y-90537098D01*
X110529777Y-90555277D01*
X110511598Y-90571753D01*
X110491893Y-90586367D01*
X110470849Y-90598980D01*
X110448671Y-90609470D01*
X110425571Y-90617735D01*
X110401773Y-90623696D01*
X110377504Y-90627296D01*
X110353000Y-90628500D01*
X109103000Y-90628500D01*
X109078496Y-90627296D01*
X109054227Y-90623696D01*
X109030429Y-90617735D01*
X109007329Y-90609470D01*
X108985151Y-90598980D01*
X108964107Y-90586367D01*
X108944402Y-90571753D01*
X108926223Y-90555277D01*
X108909747Y-90537098D01*
X108895133Y-90517393D01*
X108882520Y-90496349D01*
X108872030Y-90474171D01*
X108863765Y-90451071D01*
X108857804Y-90427273D01*
X108854204Y-90403004D01*
X108853000Y-90378500D01*
X108853000Y-89453500D01*
X108854204Y-89428996D01*
X108857804Y-89404727D01*
X108863765Y-89380929D01*
X108872030Y-89357829D01*
X108882520Y-89335651D01*
X108895133Y-89314607D01*
X108909747Y-89294902D01*
X108926223Y-89276723D01*
X108944402Y-89260247D01*
X108964107Y-89245633D01*
X108985151Y-89233020D01*
X109007329Y-89222530D01*
X109030429Y-89214265D01*
X109054227Y-89208304D01*
X109078496Y-89204704D01*
X109103000Y-89203500D01*
X110353000Y-89203500D01*
X110377504Y-89204704D01*
X110377504Y-89204704D01*
G37*
D11*
X109728000Y-89916000D03*
D10*
G36*
X110377504Y-86229704D02*
X110401773Y-86233304D01*
X110425571Y-86239265D01*
X110448671Y-86247530D01*
X110470849Y-86258020D01*
X110491893Y-86270633D01*
X110511598Y-86285247D01*
X110529777Y-86301723D01*
X110546253Y-86319902D01*
X110560867Y-86339607D01*
X110573480Y-86360651D01*
X110583970Y-86382829D01*
X110592235Y-86405929D01*
X110598196Y-86429727D01*
X110601796Y-86453996D01*
X110603000Y-86478500D01*
X110603000Y-87403500D01*
X110601796Y-87428004D01*
X110598196Y-87452273D01*
X110592235Y-87476071D01*
X110583970Y-87499171D01*
X110573480Y-87521349D01*
X110560867Y-87542393D01*
X110546253Y-87562098D01*
X110529777Y-87580277D01*
X110511598Y-87596753D01*
X110491893Y-87611367D01*
X110470849Y-87623980D01*
X110448671Y-87634470D01*
X110425571Y-87642735D01*
X110401773Y-87648696D01*
X110377504Y-87652296D01*
X110353000Y-87653500D01*
X109103000Y-87653500D01*
X109078496Y-87652296D01*
X109054227Y-87648696D01*
X109030429Y-87642735D01*
X109007329Y-87634470D01*
X108985151Y-87623980D01*
X108964107Y-87611367D01*
X108944402Y-87596753D01*
X108926223Y-87580277D01*
X108909747Y-87562098D01*
X108895133Y-87542393D01*
X108882520Y-87521349D01*
X108872030Y-87499171D01*
X108863765Y-87476071D01*
X108857804Y-87452273D01*
X108854204Y-87428004D01*
X108853000Y-87403500D01*
X108853000Y-86478500D01*
X108854204Y-86453996D01*
X108857804Y-86429727D01*
X108863765Y-86405929D01*
X108872030Y-86382829D01*
X108882520Y-86360651D01*
X108895133Y-86339607D01*
X108909747Y-86319902D01*
X108926223Y-86301723D01*
X108944402Y-86285247D01*
X108964107Y-86270633D01*
X108985151Y-86258020D01*
X109007329Y-86247530D01*
X109030429Y-86239265D01*
X109054227Y-86233304D01*
X109078496Y-86229704D01*
X109103000Y-86228500D01*
X110353000Y-86228500D01*
X110377504Y-86229704D01*
X110377504Y-86229704D01*
G37*
D11*
X109728000Y-86941000D03*
G04 #@! TD*
D10*
G04 #@! TO.C,R9*
G36*
X107837504Y-86229704D02*
X107861773Y-86233304D01*
X107885571Y-86239265D01*
X107908671Y-86247530D01*
X107930849Y-86258020D01*
X107951893Y-86270633D01*
X107971598Y-86285247D01*
X107989777Y-86301723D01*
X108006253Y-86319902D01*
X108020867Y-86339607D01*
X108033480Y-86360651D01*
X108043970Y-86382829D01*
X108052235Y-86405929D01*
X108058196Y-86429727D01*
X108061796Y-86453996D01*
X108063000Y-86478500D01*
X108063000Y-87403500D01*
X108061796Y-87428004D01*
X108058196Y-87452273D01*
X108052235Y-87476071D01*
X108043970Y-87499171D01*
X108033480Y-87521349D01*
X108020867Y-87542393D01*
X108006253Y-87562098D01*
X107989777Y-87580277D01*
X107971598Y-87596753D01*
X107951893Y-87611367D01*
X107930849Y-87623980D01*
X107908671Y-87634470D01*
X107885571Y-87642735D01*
X107861773Y-87648696D01*
X107837504Y-87652296D01*
X107813000Y-87653500D01*
X106563000Y-87653500D01*
X106538496Y-87652296D01*
X106514227Y-87648696D01*
X106490429Y-87642735D01*
X106467329Y-87634470D01*
X106445151Y-87623980D01*
X106424107Y-87611367D01*
X106404402Y-87596753D01*
X106386223Y-87580277D01*
X106369747Y-87562098D01*
X106355133Y-87542393D01*
X106342520Y-87521349D01*
X106332030Y-87499171D01*
X106323765Y-87476071D01*
X106317804Y-87452273D01*
X106314204Y-87428004D01*
X106313000Y-87403500D01*
X106313000Y-86478500D01*
X106314204Y-86453996D01*
X106317804Y-86429727D01*
X106323765Y-86405929D01*
X106332030Y-86382829D01*
X106342520Y-86360651D01*
X106355133Y-86339607D01*
X106369747Y-86319902D01*
X106386223Y-86301723D01*
X106404402Y-86285247D01*
X106424107Y-86270633D01*
X106445151Y-86258020D01*
X106467329Y-86247530D01*
X106490429Y-86239265D01*
X106514227Y-86233304D01*
X106538496Y-86229704D01*
X106563000Y-86228500D01*
X107813000Y-86228500D01*
X107837504Y-86229704D01*
X107837504Y-86229704D01*
G37*
D11*
X107188000Y-86941000D03*
D10*
G36*
X107837504Y-89204704D02*
X107861773Y-89208304D01*
X107885571Y-89214265D01*
X107908671Y-89222530D01*
X107930849Y-89233020D01*
X107951893Y-89245633D01*
X107971598Y-89260247D01*
X107989777Y-89276723D01*
X108006253Y-89294902D01*
X108020867Y-89314607D01*
X108033480Y-89335651D01*
X108043970Y-89357829D01*
X108052235Y-89380929D01*
X108058196Y-89404727D01*
X108061796Y-89428996D01*
X108063000Y-89453500D01*
X108063000Y-90378500D01*
X108061796Y-90403004D01*
X108058196Y-90427273D01*
X108052235Y-90451071D01*
X108043970Y-90474171D01*
X108033480Y-90496349D01*
X108020867Y-90517393D01*
X108006253Y-90537098D01*
X107989777Y-90555277D01*
X107971598Y-90571753D01*
X107951893Y-90586367D01*
X107930849Y-90598980D01*
X107908671Y-90609470D01*
X107885571Y-90617735D01*
X107861773Y-90623696D01*
X107837504Y-90627296D01*
X107813000Y-90628500D01*
X106563000Y-90628500D01*
X106538496Y-90627296D01*
X106514227Y-90623696D01*
X106490429Y-90617735D01*
X106467329Y-90609470D01*
X106445151Y-90598980D01*
X106424107Y-90586367D01*
X106404402Y-90571753D01*
X106386223Y-90555277D01*
X106369747Y-90537098D01*
X106355133Y-90517393D01*
X106342520Y-90496349D01*
X106332030Y-90474171D01*
X106323765Y-90451071D01*
X106317804Y-90427273D01*
X106314204Y-90403004D01*
X106313000Y-90378500D01*
X106313000Y-89453500D01*
X106314204Y-89428996D01*
X106317804Y-89404727D01*
X106323765Y-89380929D01*
X106332030Y-89357829D01*
X106342520Y-89335651D01*
X106355133Y-89314607D01*
X106369747Y-89294902D01*
X106386223Y-89276723D01*
X106404402Y-89260247D01*
X106424107Y-89245633D01*
X106445151Y-89233020D01*
X106467329Y-89222530D01*
X106490429Y-89214265D01*
X106514227Y-89208304D01*
X106538496Y-89204704D01*
X106563000Y-89203500D01*
X107813000Y-89203500D01*
X107837504Y-89204704D01*
X107837504Y-89204704D01*
G37*
D11*
X107188000Y-89916000D03*
G04 #@! TD*
D10*
G04 #@! TO.C,R10*
G36*
X105062004Y-71008204D02*
X105086273Y-71011804D01*
X105110071Y-71017765D01*
X105133171Y-71026030D01*
X105155349Y-71036520D01*
X105176393Y-71049133D01*
X105196098Y-71063747D01*
X105214277Y-71080223D01*
X105230753Y-71098402D01*
X105245367Y-71118107D01*
X105257980Y-71139151D01*
X105268470Y-71161329D01*
X105276735Y-71184429D01*
X105282696Y-71208227D01*
X105286296Y-71232496D01*
X105287500Y-71257000D01*
X105287500Y-72507000D01*
X105286296Y-72531504D01*
X105282696Y-72555773D01*
X105276735Y-72579571D01*
X105268470Y-72602671D01*
X105257980Y-72624849D01*
X105245367Y-72645893D01*
X105230753Y-72665598D01*
X105214277Y-72683777D01*
X105196098Y-72700253D01*
X105176393Y-72714867D01*
X105155349Y-72727480D01*
X105133171Y-72737970D01*
X105110071Y-72746235D01*
X105086273Y-72752196D01*
X105062004Y-72755796D01*
X105037500Y-72757000D01*
X104112500Y-72757000D01*
X104087996Y-72755796D01*
X104063727Y-72752196D01*
X104039929Y-72746235D01*
X104016829Y-72737970D01*
X103994651Y-72727480D01*
X103973607Y-72714867D01*
X103953902Y-72700253D01*
X103935723Y-72683777D01*
X103919247Y-72665598D01*
X103904633Y-72645893D01*
X103892020Y-72624849D01*
X103881530Y-72602671D01*
X103873265Y-72579571D01*
X103867304Y-72555773D01*
X103863704Y-72531504D01*
X103862500Y-72507000D01*
X103862500Y-71257000D01*
X103863704Y-71232496D01*
X103867304Y-71208227D01*
X103873265Y-71184429D01*
X103881530Y-71161329D01*
X103892020Y-71139151D01*
X103904633Y-71118107D01*
X103919247Y-71098402D01*
X103935723Y-71080223D01*
X103953902Y-71063747D01*
X103973607Y-71049133D01*
X103994651Y-71036520D01*
X104016829Y-71026030D01*
X104039929Y-71017765D01*
X104063727Y-71011804D01*
X104087996Y-71008204D01*
X104112500Y-71007000D01*
X105037500Y-71007000D01*
X105062004Y-71008204D01*
X105062004Y-71008204D01*
G37*
D11*
X104575000Y-71882000D03*
D10*
G36*
X102087004Y-71008204D02*
X102111273Y-71011804D01*
X102135071Y-71017765D01*
X102158171Y-71026030D01*
X102180349Y-71036520D01*
X102201393Y-71049133D01*
X102221098Y-71063747D01*
X102239277Y-71080223D01*
X102255753Y-71098402D01*
X102270367Y-71118107D01*
X102282980Y-71139151D01*
X102293470Y-71161329D01*
X102301735Y-71184429D01*
X102307696Y-71208227D01*
X102311296Y-71232496D01*
X102312500Y-71257000D01*
X102312500Y-72507000D01*
X102311296Y-72531504D01*
X102307696Y-72555773D01*
X102301735Y-72579571D01*
X102293470Y-72602671D01*
X102282980Y-72624849D01*
X102270367Y-72645893D01*
X102255753Y-72665598D01*
X102239277Y-72683777D01*
X102221098Y-72700253D01*
X102201393Y-72714867D01*
X102180349Y-72727480D01*
X102158171Y-72737970D01*
X102135071Y-72746235D01*
X102111273Y-72752196D01*
X102087004Y-72755796D01*
X102062500Y-72757000D01*
X101137500Y-72757000D01*
X101112996Y-72755796D01*
X101088727Y-72752196D01*
X101064929Y-72746235D01*
X101041829Y-72737970D01*
X101019651Y-72727480D01*
X100998607Y-72714867D01*
X100978902Y-72700253D01*
X100960723Y-72683777D01*
X100944247Y-72665598D01*
X100929633Y-72645893D01*
X100917020Y-72624849D01*
X100906530Y-72602671D01*
X100898265Y-72579571D01*
X100892304Y-72555773D01*
X100888704Y-72531504D01*
X100887500Y-72507000D01*
X100887500Y-71257000D01*
X100888704Y-71232496D01*
X100892304Y-71208227D01*
X100898265Y-71184429D01*
X100906530Y-71161329D01*
X100917020Y-71139151D01*
X100929633Y-71118107D01*
X100944247Y-71098402D01*
X100960723Y-71080223D01*
X100978902Y-71063747D01*
X100998607Y-71049133D01*
X101019651Y-71036520D01*
X101041829Y-71026030D01*
X101064929Y-71017765D01*
X101088727Y-71011804D01*
X101112996Y-71008204D01*
X101137500Y-71007000D01*
X102062500Y-71007000D01*
X102087004Y-71008204D01*
X102087004Y-71008204D01*
G37*
D11*
X101600000Y-71882000D03*
G04 #@! TD*
D10*
G04 #@! TO.C,R11*
G36*
X105062004Y-68468204D02*
X105086273Y-68471804D01*
X105110071Y-68477765D01*
X105133171Y-68486030D01*
X105155349Y-68496520D01*
X105176393Y-68509133D01*
X105196098Y-68523747D01*
X105214277Y-68540223D01*
X105230753Y-68558402D01*
X105245367Y-68578107D01*
X105257980Y-68599151D01*
X105268470Y-68621329D01*
X105276735Y-68644429D01*
X105282696Y-68668227D01*
X105286296Y-68692496D01*
X105287500Y-68717000D01*
X105287500Y-69967000D01*
X105286296Y-69991504D01*
X105282696Y-70015773D01*
X105276735Y-70039571D01*
X105268470Y-70062671D01*
X105257980Y-70084849D01*
X105245367Y-70105893D01*
X105230753Y-70125598D01*
X105214277Y-70143777D01*
X105196098Y-70160253D01*
X105176393Y-70174867D01*
X105155349Y-70187480D01*
X105133171Y-70197970D01*
X105110071Y-70206235D01*
X105086273Y-70212196D01*
X105062004Y-70215796D01*
X105037500Y-70217000D01*
X104112500Y-70217000D01*
X104087996Y-70215796D01*
X104063727Y-70212196D01*
X104039929Y-70206235D01*
X104016829Y-70197970D01*
X103994651Y-70187480D01*
X103973607Y-70174867D01*
X103953902Y-70160253D01*
X103935723Y-70143777D01*
X103919247Y-70125598D01*
X103904633Y-70105893D01*
X103892020Y-70084849D01*
X103881530Y-70062671D01*
X103873265Y-70039571D01*
X103867304Y-70015773D01*
X103863704Y-69991504D01*
X103862500Y-69967000D01*
X103862500Y-68717000D01*
X103863704Y-68692496D01*
X103867304Y-68668227D01*
X103873265Y-68644429D01*
X103881530Y-68621329D01*
X103892020Y-68599151D01*
X103904633Y-68578107D01*
X103919247Y-68558402D01*
X103935723Y-68540223D01*
X103953902Y-68523747D01*
X103973607Y-68509133D01*
X103994651Y-68496520D01*
X104016829Y-68486030D01*
X104039929Y-68477765D01*
X104063727Y-68471804D01*
X104087996Y-68468204D01*
X104112500Y-68467000D01*
X105037500Y-68467000D01*
X105062004Y-68468204D01*
X105062004Y-68468204D01*
G37*
D11*
X104575000Y-69342000D03*
D10*
G36*
X102087004Y-68468204D02*
X102111273Y-68471804D01*
X102135071Y-68477765D01*
X102158171Y-68486030D01*
X102180349Y-68496520D01*
X102201393Y-68509133D01*
X102221098Y-68523747D01*
X102239277Y-68540223D01*
X102255753Y-68558402D01*
X102270367Y-68578107D01*
X102282980Y-68599151D01*
X102293470Y-68621329D01*
X102301735Y-68644429D01*
X102307696Y-68668227D01*
X102311296Y-68692496D01*
X102312500Y-68717000D01*
X102312500Y-69967000D01*
X102311296Y-69991504D01*
X102307696Y-70015773D01*
X102301735Y-70039571D01*
X102293470Y-70062671D01*
X102282980Y-70084849D01*
X102270367Y-70105893D01*
X102255753Y-70125598D01*
X102239277Y-70143777D01*
X102221098Y-70160253D01*
X102201393Y-70174867D01*
X102180349Y-70187480D01*
X102158171Y-70197970D01*
X102135071Y-70206235D01*
X102111273Y-70212196D01*
X102087004Y-70215796D01*
X102062500Y-70217000D01*
X101137500Y-70217000D01*
X101112996Y-70215796D01*
X101088727Y-70212196D01*
X101064929Y-70206235D01*
X101041829Y-70197970D01*
X101019651Y-70187480D01*
X100998607Y-70174867D01*
X100978902Y-70160253D01*
X100960723Y-70143777D01*
X100944247Y-70125598D01*
X100929633Y-70105893D01*
X100917020Y-70084849D01*
X100906530Y-70062671D01*
X100898265Y-70039571D01*
X100892304Y-70015773D01*
X100888704Y-69991504D01*
X100887500Y-69967000D01*
X100887500Y-68717000D01*
X100888704Y-68692496D01*
X100892304Y-68668227D01*
X100898265Y-68644429D01*
X100906530Y-68621329D01*
X100917020Y-68599151D01*
X100929633Y-68578107D01*
X100944247Y-68558402D01*
X100960723Y-68540223D01*
X100978902Y-68523747D01*
X100998607Y-68509133D01*
X101019651Y-68496520D01*
X101041829Y-68486030D01*
X101064929Y-68477765D01*
X101088727Y-68471804D01*
X101112996Y-68468204D01*
X101137500Y-68467000D01*
X102062500Y-68467000D01*
X102087004Y-68468204D01*
X102087004Y-68468204D01*
G37*
D11*
X101600000Y-69342000D03*
G04 #@! TD*
M02*
