G04 #@! TF.GenerationSoftware,KiCad,Pcbnew,5.0.2-bee76a0~70~ubuntu16.04.1*
G04 #@! TF.CreationDate,2019-03-04T23:23:01-05:00*
G04 #@! TF.ProjectId,Unified,556e6966-6965-4642-9e6b-696361645f70,rev?*
G04 #@! TF.SameCoordinates,Original*
G04 #@! TF.FileFunction,Soldermask,Top*
G04 #@! TF.FilePolarity,Negative*
%FSLAX46Y46*%
G04 Gerber Fmt 4.6, Leading zero omitted, Abs format (unit mm)*
G04 Created by KiCad (PCBNEW 5.0.2-bee76a0~70~ubuntu16.04.1) date Mon 04 Mar 2019 11:23:01 PM EST*
%MOMM*%
%LPD*%
G01*
G04 APERTURE LIST*
%ADD10C,0.100000*%
G04 APERTURE END LIST*
D10*
G36*
X123864630Y-110414299D02*
X124024855Y-110462903D01*
X124172520Y-110541831D01*
X124301949Y-110648051D01*
X124408169Y-110777480D01*
X124487097Y-110925145D01*
X124535701Y-111085370D01*
X124552112Y-111252000D01*
X124535701Y-111418630D01*
X124487097Y-111578855D01*
X124408169Y-111726520D01*
X124301949Y-111855949D01*
X124172520Y-111962169D01*
X124024855Y-112041097D01*
X123864630Y-112089701D01*
X123739752Y-112102000D01*
X123656248Y-112102000D01*
X123531370Y-112089701D01*
X123371145Y-112041097D01*
X123223480Y-111962169D01*
X123094051Y-111855949D01*
X122987831Y-111726520D01*
X122908903Y-111578855D01*
X122860299Y-111418630D01*
X122843888Y-111252000D01*
X122860299Y-111085370D01*
X122908903Y-110925145D01*
X122987831Y-110777480D01*
X123094051Y-110648051D01*
X123223480Y-110541831D01*
X123371145Y-110462903D01*
X123531370Y-110414299D01*
X123656248Y-110402000D01*
X123739752Y-110402000D01*
X123864630Y-110414299D01*
X123864630Y-110414299D01*
G37*
G36*
X123864630Y-107874299D02*
X124024855Y-107922903D01*
X124172520Y-108001831D01*
X124301949Y-108108051D01*
X124408169Y-108237480D01*
X124487097Y-108385145D01*
X124535701Y-108545370D01*
X124552112Y-108712000D01*
X124535701Y-108878630D01*
X124487097Y-109038855D01*
X124408169Y-109186520D01*
X124301949Y-109315949D01*
X124172520Y-109422169D01*
X124024855Y-109501097D01*
X123864630Y-109549701D01*
X123739752Y-109562000D01*
X123656248Y-109562000D01*
X123531370Y-109549701D01*
X123371145Y-109501097D01*
X123223480Y-109422169D01*
X123094051Y-109315949D01*
X122987831Y-109186520D01*
X122908903Y-109038855D01*
X122860299Y-108878630D01*
X122843888Y-108712000D01*
X122860299Y-108545370D01*
X122908903Y-108385145D01*
X122987831Y-108237480D01*
X123094051Y-108108051D01*
X123223480Y-108001831D01*
X123371145Y-107922903D01*
X123531370Y-107874299D01*
X123656248Y-107862000D01*
X123739752Y-107862000D01*
X123864630Y-107874299D01*
X123864630Y-107874299D01*
G37*
G36*
X95512521Y-107592586D02*
X95676309Y-107660429D01*
X95823720Y-107758926D01*
X95949074Y-107884280D01*
X96047571Y-108031691D01*
X96115414Y-108195479D01*
X96150000Y-108369356D01*
X96150000Y-108546644D01*
X96115414Y-108720521D01*
X96047571Y-108884309D01*
X95949074Y-109031720D01*
X95823720Y-109157074D01*
X95676309Y-109255571D01*
X95512521Y-109323414D01*
X95338644Y-109358000D01*
X95161356Y-109358000D01*
X94987479Y-109323414D01*
X94823691Y-109255571D01*
X94676280Y-109157074D01*
X94550926Y-109031720D01*
X94452429Y-108884309D01*
X94384586Y-108720521D01*
X94350000Y-108546644D01*
X94350000Y-108369356D01*
X94384586Y-108195479D01*
X94452429Y-108031691D01*
X94550926Y-107884280D01*
X94676280Y-107758926D01*
X94823691Y-107660429D01*
X94987479Y-107592586D01*
X95161356Y-107558000D01*
X95338644Y-107558000D01*
X95512521Y-107592586D01*
X95512521Y-107592586D01*
G37*
G36*
X98690000Y-109358000D02*
X96890000Y-109358000D01*
X96890000Y-107558000D01*
X98690000Y-107558000D01*
X98690000Y-109358000D01*
X98690000Y-109358000D01*
G37*
G36*
X92972521Y-107592586D02*
X93136309Y-107660429D01*
X93283720Y-107758926D01*
X93409074Y-107884280D01*
X93507571Y-108031691D01*
X93575414Y-108195479D01*
X93610000Y-108369356D01*
X93610000Y-108546644D01*
X93575414Y-108720521D01*
X93507571Y-108884309D01*
X93409074Y-109031720D01*
X93283720Y-109157074D01*
X93136309Y-109255571D01*
X92972521Y-109323414D01*
X92798644Y-109358000D01*
X92621356Y-109358000D01*
X92447479Y-109323414D01*
X92283691Y-109255571D01*
X92136280Y-109157074D01*
X92010926Y-109031720D01*
X91912429Y-108884309D01*
X91844586Y-108720521D01*
X91810000Y-108546644D01*
X91810000Y-108369356D01*
X91844586Y-108195479D01*
X91912429Y-108031691D01*
X92010926Y-107884280D01*
X92136280Y-107758926D01*
X92283691Y-107660429D01*
X92447479Y-107592586D01*
X92621356Y-107558000D01*
X92798644Y-107558000D01*
X92972521Y-107592586D01*
X92972521Y-107592586D01*
G37*
G36*
X90908964Y-107749337D02*
X90940528Y-107758912D01*
X90969617Y-107774460D01*
X90995114Y-107795386D01*
X91016040Y-107820883D01*
X91031588Y-107849972D01*
X91041163Y-107881536D01*
X91045000Y-107920498D01*
X91045000Y-108995502D01*
X91041163Y-109034464D01*
X91031588Y-109066028D01*
X91016040Y-109095117D01*
X90995114Y-109120614D01*
X90969617Y-109141540D01*
X90940528Y-109157088D01*
X90908964Y-109166663D01*
X90870002Y-109170500D01*
X89469998Y-109170500D01*
X89431036Y-109166663D01*
X89399472Y-109157088D01*
X89370383Y-109141540D01*
X89344886Y-109120614D01*
X89323960Y-109095117D01*
X89308412Y-109066028D01*
X89298837Y-109034464D01*
X89295000Y-108995502D01*
X89295000Y-107920498D01*
X89298837Y-107881536D01*
X89308412Y-107849972D01*
X89323960Y-107820883D01*
X89344886Y-107795386D01*
X89370383Y-107774460D01*
X89399472Y-107758912D01*
X89431036Y-107749337D01*
X89469998Y-107745500D01*
X90870002Y-107745500D01*
X90908964Y-107749337D01*
X90908964Y-107749337D01*
G37*
G36*
X101068964Y-107676337D02*
X101100528Y-107685912D01*
X101129617Y-107701460D01*
X101155114Y-107722386D01*
X101176040Y-107747883D01*
X101191588Y-107776972D01*
X101201163Y-107808536D01*
X101205000Y-107847498D01*
X101205000Y-108922502D01*
X101201163Y-108961464D01*
X101191588Y-108993028D01*
X101176040Y-109022117D01*
X101155114Y-109047614D01*
X101129617Y-109068540D01*
X101100528Y-109084088D01*
X101068964Y-109093663D01*
X101030002Y-109097500D01*
X99629998Y-109097500D01*
X99591036Y-109093663D01*
X99559472Y-109084088D01*
X99530383Y-109068540D01*
X99504886Y-109047614D01*
X99483960Y-109022117D01*
X99468412Y-108993028D01*
X99458837Y-108961464D01*
X99455000Y-108922502D01*
X99455000Y-107847498D01*
X99458837Y-107808536D01*
X99468412Y-107776972D01*
X99483960Y-107747883D01*
X99504886Y-107722386D01*
X99530383Y-107701460D01*
X99559472Y-107685912D01*
X99591036Y-107676337D01*
X99629998Y-107672500D01*
X101030002Y-107672500D01*
X101068964Y-107676337D01*
X101068964Y-107676337D01*
G37*
G36*
X124548000Y-107022000D02*
X122848000Y-107022000D01*
X122848000Y-105322000D01*
X124548000Y-105322000D01*
X124548000Y-107022000D01*
X124548000Y-107022000D01*
G37*
G36*
X115491770Y-104933372D02*
X115607689Y-104956429D01*
X115789678Y-105031811D01*
X115953463Y-105141249D01*
X116092751Y-105280537D01*
X116202189Y-105444322D01*
X116277571Y-105626311D01*
X116300628Y-105742230D01*
X116316000Y-105819507D01*
X116316000Y-106016493D01*
X116311091Y-106041171D01*
X116277571Y-106209689D01*
X116202189Y-106391678D01*
X116092751Y-106555463D01*
X115953463Y-106694751D01*
X115789678Y-106804189D01*
X115607689Y-106879571D01*
X115491770Y-106902628D01*
X115414493Y-106918000D01*
X115217507Y-106918000D01*
X115140230Y-106902628D01*
X115024311Y-106879571D01*
X114842322Y-106804189D01*
X114678537Y-106694751D01*
X114539249Y-106555463D01*
X114429811Y-106391678D01*
X114354429Y-106209689D01*
X114320909Y-106041171D01*
X114316000Y-106016493D01*
X114316000Y-105819507D01*
X114331372Y-105742230D01*
X114354429Y-105626311D01*
X114429811Y-105444322D01*
X114539249Y-105280537D01*
X114678537Y-105141249D01*
X114842322Y-105031811D01*
X115024311Y-104956429D01*
X115140230Y-104933372D01*
X115217507Y-104918000D01*
X115414493Y-104918000D01*
X115491770Y-104933372D01*
X115491770Y-104933372D01*
G37*
G36*
X119991770Y-104933372D02*
X120107689Y-104956429D01*
X120289678Y-105031811D01*
X120453463Y-105141249D01*
X120592751Y-105280537D01*
X120702189Y-105444322D01*
X120777571Y-105626311D01*
X120800628Y-105742230D01*
X120816000Y-105819507D01*
X120816000Y-106016493D01*
X120811091Y-106041171D01*
X120777571Y-106209689D01*
X120702189Y-106391678D01*
X120592751Y-106555463D01*
X120453463Y-106694751D01*
X120289678Y-106804189D01*
X120107689Y-106879571D01*
X119991770Y-106902628D01*
X119914493Y-106918000D01*
X119717507Y-106918000D01*
X119640230Y-106902628D01*
X119524311Y-106879571D01*
X119342322Y-106804189D01*
X119178537Y-106694751D01*
X119039249Y-106555463D01*
X118929811Y-106391678D01*
X118854429Y-106209689D01*
X118820909Y-106041171D01*
X118816000Y-106016493D01*
X118816000Y-105819507D01*
X118831372Y-105742230D01*
X118854429Y-105626311D01*
X118929811Y-105444322D01*
X119039249Y-105280537D01*
X119178537Y-105141249D01*
X119342322Y-105031811D01*
X119524311Y-104956429D01*
X119640230Y-104933372D01*
X119717507Y-104918000D01*
X119914493Y-104918000D01*
X119991770Y-104933372D01*
X119991770Y-104933372D01*
G37*
G36*
X90908964Y-104774337D02*
X90940528Y-104783912D01*
X90969617Y-104799460D01*
X90995114Y-104820386D01*
X91016040Y-104845883D01*
X91031588Y-104874972D01*
X91041163Y-104906536D01*
X91045000Y-104945498D01*
X91045000Y-106020502D01*
X91041163Y-106059464D01*
X91031588Y-106091028D01*
X91016040Y-106120117D01*
X90995114Y-106145614D01*
X90969617Y-106166540D01*
X90940528Y-106182088D01*
X90908964Y-106191663D01*
X90870002Y-106195500D01*
X89469998Y-106195500D01*
X89431036Y-106191663D01*
X89399472Y-106182088D01*
X89370383Y-106166540D01*
X89344886Y-106145614D01*
X89323960Y-106120117D01*
X89308412Y-106091028D01*
X89298837Y-106059464D01*
X89295000Y-106020502D01*
X89295000Y-104945498D01*
X89298837Y-104906536D01*
X89308412Y-104874972D01*
X89323960Y-104845883D01*
X89344886Y-104820386D01*
X89370383Y-104799460D01*
X89399472Y-104783912D01*
X89431036Y-104774337D01*
X89469998Y-104770500D01*
X90870002Y-104770500D01*
X90908964Y-104774337D01*
X90908964Y-104774337D01*
G37*
G36*
X101068964Y-104701337D02*
X101100528Y-104710912D01*
X101129617Y-104726460D01*
X101155114Y-104747386D01*
X101176040Y-104772883D01*
X101191588Y-104801972D01*
X101201163Y-104833536D01*
X101205000Y-104872498D01*
X101205000Y-105947502D01*
X101201163Y-105986464D01*
X101191588Y-106018028D01*
X101176040Y-106047117D01*
X101155114Y-106072614D01*
X101129617Y-106093540D01*
X101100528Y-106109088D01*
X101068964Y-106118663D01*
X101030002Y-106122500D01*
X99629998Y-106122500D01*
X99591036Y-106118663D01*
X99559472Y-106109088D01*
X99530383Y-106093540D01*
X99504886Y-106072614D01*
X99483960Y-106047117D01*
X99468412Y-106018028D01*
X99458837Y-105986464D01*
X99455000Y-105947502D01*
X99455000Y-104872498D01*
X99458837Y-104833536D01*
X99468412Y-104801972D01*
X99483960Y-104772883D01*
X99504886Y-104747386D01*
X99530383Y-104726460D01*
X99559472Y-104710912D01*
X99591036Y-104701337D01*
X99629998Y-104697500D01*
X101030002Y-104697500D01*
X101068964Y-104701337D01*
X101068964Y-104701337D01*
G37*
G36*
X91557649Y-101569717D02*
X91596827Y-101573576D01*
X91672228Y-101596449D01*
X91747629Y-101619321D01*
X91886608Y-101693608D01*
X92008422Y-101793578D01*
X92108392Y-101915392D01*
X92182679Y-102054371D01*
X92182679Y-102054372D01*
X92228424Y-102205173D01*
X92239586Y-102318502D01*
X92243870Y-102362000D01*
X92228424Y-102518826D01*
X92182679Y-102669629D01*
X92108392Y-102808608D01*
X92008422Y-102930422D01*
X91886608Y-103030392D01*
X91747629Y-103104679D01*
X91672227Y-103127552D01*
X91596827Y-103150424D01*
X91557649Y-103154283D01*
X91479295Y-103162000D01*
X91400705Y-103162000D01*
X91322351Y-103154283D01*
X91283173Y-103150424D01*
X91207773Y-103127552D01*
X91132371Y-103104679D01*
X90993392Y-103030392D01*
X90871578Y-102930422D01*
X90771608Y-102808608D01*
X90697321Y-102669629D01*
X90651576Y-102518826D01*
X90636130Y-102362000D01*
X90640414Y-102318502D01*
X90651576Y-102205173D01*
X90697321Y-102054372D01*
X90697321Y-102054371D01*
X90771608Y-101915392D01*
X90871578Y-101793578D01*
X90993392Y-101693608D01*
X91132371Y-101619321D01*
X91207772Y-101596449D01*
X91283173Y-101573576D01*
X91322351Y-101569717D01*
X91400705Y-101562000D01*
X91479295Y-101562000D01*
X91557649Y-101569717D01*
X91557649Y-101569717D01*
G37*
G36*
X99177649Y-101569717D02*
X99216827Y-101573576D01*
X99292228Y-101596449D01*
X99367629Y-101619321D01*
X99506608Y-101693608D01*
X99628422Y-101793578D01*
X99728392Y-101915392D01*
X99802679Y-102054371D01*
X99802679Y-102054372D01*
X99848424Y-102205173D01*
X99859586Y-102318502D01*
X99863870Y-102362000D01*
X99848424Y-102518826D01*
X99802679Y-102669629D01*
X99728392Y-102808608D01*
X99628422Y-102930422D01*
X99506608Y-103030392D01*
X99367629Y-103104679D01*
X99292227Y-103127552D01*
X99216827Y-103150424D01*
X99177649Y-103154283D01*
X99099295Y-103162000D01*
X99020705Y-103162000D01*
X98942351Y-103154283D01*
X98903173Y-103150424D01*
X98827773Y-103127552D01*
X98752371Y-103104679D01*
X98613392Y-103030392D01*
X98491578Y-102930422D01*
X98391608Y-102808608D01*
X98317321Y-102669629D01*
X98271576Y-102518826D01*
X98256130Y-102362000D01*
X98260414Y-102318502D01*
X98271576Y-102205173D01*
X98317321Y-102054372D01*
X98317321Y-102054371D01*
X98391608Y-101915392D01*
X98491578Y-101793578D01*
X98613392Y-101693608D01*
X98752371Y-101619321D01*
X98827772Y-101596449D01*
X98903173Y-101573576D01*
X98942351Y-101569717D01*
X99020705Y-101562000D01*
X99099295Y-101562000D01*
X99177649Y-101569717D01*
X99177649Y-101569717D01*
G37*
G36*
X113006964Y-101072337D02*
X113038528Y-101081912D01*
X113067617Y-101097460D01*
X113093114Y-101118386D01*
X113114040Y-101143883D01*
X113129588Y-101172972D01*
X113139163Y-101204536D01*
X113143000Y-101243498D01*
X113143000Y-102318502D01*
X113139163Y-102357464D01*
X113129588Y-102389028D01*
X113114040Y-102418117D01*
X113093114Y-102443614D01*
X113067617Y-102464540D01*
X113038528Y-102480088D01*
X113006964Y-102489663D01*
X112968002Y-102493500D01*
X111567998Y-102493500D01*
X111529036Y-102489663D01*
X111497472Y-102480088D01*
X111468383Y-102464540D01*
X111442886Y-102443614D01*
X111421960Y-102418117D01*
X111406412Y-102389028D01*
X111396837Y-102357464D01*
X111393000Y-102318502D01*
X111393000Y-101243498D01*
X111396837Y-101204536D01*
X111406412Y-101172972D01*
X111421960Y-101143883D01*
X111442886Y-101118386D01*
X111468383Y-101097460D01*
X111497472Y-101081912D01*
X111529036Y-101072337D01*
X111567998Y-101068500D01*
X112968002Y-101068500D01*
X113006964Y-101072337D01*
X113006964Y-101072337D01*
G37*
G36*
X106338630Y-100508299D02*
X106498855Y-100556903D01*
X106646520Y-100635831D01*
X106775949Y-100742051D01*
X106882169Y-100871480D01*
X106961097Y-101019145D01*
X107009701Y-101179370D01*
X107026112Y-101346000D01*
X107009701Y-101512630D01*
X106961097Y-101672855D01*
X106882169Y-101820520D01*
X106775949Y-101949949D01*
X106646520Y-102056169D01*
X106498855Y-102135097D01*
X106338630Y-102183701D01*
X106213752Y-102196000D01*
X106130248Y-102196000D01*
X106005370Y-102183701D01*
X105845145Y-102135097D01*
X105697480Y-102056169D01*
X105568051Y-101949949D01*
X105461831Y-101820520D01*
X105382903Y-101672855D01*
X105334299Y-101512630D01*
X105317888Y-101346000D01*
X105334299Y-101179370D01*
X105382903Y-101019145D01*
X105461831Y-100871480D01*
X105568051Y-100742051D01*
X105697480Y-100635831D01*
X105845145Y-100556903D01*
X106005370Y-100508299D01*
X106130248Y-100496000D01*
X106213752Y-100496000D01*
X106338630Y-100508299D01*
X106338630Y-100508299D01*
G37*
G36*
X104482000Y-102196000D02*
X102782000Y-102196000D01*
X102782000Y-100496000D01*
X104482000Y-100496000D01*
X104482000Y-102196000D01*
X104482000Y-102196000D01*
G37*
G36*
X108878630Y-100508299D02*
X109038855Y-100556903D01*
X109186520Y-100635831D01*
X109315949Y-100742051D01*
X109422169Y-100871480D01*
X109501097Y-101019145D01*
X109549701Y-101179370D01*
X109566112Y-101346000D01*
X109549701Y-101512630D01*
X109501097Y-101672855D01*
X109422169Y-101820520D01*
X109315949Y-101949949D01*
X109186520Y-102056169D01*
X109038855Y-102135097D01*
X108878630Y-102183701D01*
X108753752Y-102196000D01*
X108670248Y-102196000D01*
X108545370Y-102183701D01*
X108385145Y-102135097D01*
X108237480Y-102056169D01*
X108108051Y-101949949D01*
X108001831Y-101820520D01*
X107922903Y-101672855D01*
X107874299Y-101512630D01*
X107857888Y-101346000D01*
X107874299Y-101179370D01*
X107922903Y-101019145D01*
X108001831Y-100871480D01*
X108108051Y-100742051D01*
X108237480Y-100635831D01*
X108385145Y-100556903D01*
X108545370Y-100508299D01*
X108670248Y-100496000D01*
X108753752Y-100496000D01*
X108878630Y-100508299D01*
X108878630Y-100508299D01*
G37*
G36*
X82896360Y-99891678D02*
X83022767Y-99916822D01*
X83079303Y-99940240D01*
X83159257Y-99973358D01*
X83282100Y-100055439D01*
X83386561Y-100159900D01*
X83468642Y-100282743D01*
X83525178Y-100419234D01*
X83554000Y-100564130D01*
X83554000Y-100711870D01*
X83547996Y-100742052D01*
X83525178Y-100856767D01*
X83519083Y-100871481D01*
X83468642Y-100993257D01*
X83386561Y-101116100D01*
X83282100Y-101220561D01*
X83159257Y-101302642D01*
X83079303Y-101335760D01*
X83022767Y-101359178D01*
X82950318Y-101373589D01*
X82877870Y-101388000D01*
X82730130Y-101388000D01*
X82657682Y-101373589D01*
X82585233Y-101359178D01*
X82528697Y-101335760D01*
X82448743Y-101302642D01*
X82325900Y-101220561D01*
X82221439Y-101116100D01*
X82139358Y-100993257D01*
X82088917Y-100871481D01*
X82082822Y-100856767D01*
X82060004Y-100742052D01*
X82054000Y-100711870D01*
X82054000Y-100564130D01*
X82082822Y-100419234D01*
X82139358Y-100282743D01*
X82221439Y-100159900D01*
X82325900Y-100055439D01*
X82448743Y-99973358D01*
X82528697Y-99940240D01*
X82585233Y-99916822D01*
X82711640Y-99891678D01*
X82730130Y-99888000D01*
X82877870Y-99888000D01*
X82896360Y-99891678D01*
X82896360Y-99891678D01*
G37*
G36*
X123864630Y-99492299D02*
X124024855Y-99540903D01*
X124172520Y-99619831D01*
X124301949Y-99726051D01*
X124408169Y-99855480D01*
X124487097Y-100003145D01*
X124535701Y-100163370D01*
X124552112Y-100330000D01*
X124535701Y-100496630D01*
X124487097Y-100656855D01*
X124408169Y-100804520D01*
X124301949Y-100933949D01*
X124172520Y-101040169D01*
X124024855Y-101119097D01*
X123864630Y-101167701D01*
X123739752Y-101180000D01*
X123656248Y-101180000D01*
X123531370Y-101167701D01*
X123371145Y-101119097D01*
X123223480Y-101040169D01*
X123094051Y-100933949D01*
X122987831Y-100804520D01*
X122908903Y-100656855D01*
X122860299Y-100496630D01*
X122843888Y-100330000D01*
X122860299Y-100163370D01*
X122908903Y-100003145D01*
X122987831Y-99855480D01*
X123094051Y-99726051D01*
X123223480Y-99619831D01*
X123371145Y-99540903D01*
X123531370Y-99492299D01*
X123656248Y-99480000D01*
X123739752Y-99480000D01*
X123864630Y-99492299D01*
X123864630Y-99492299D01*
G37*
G36*
X91557649Y-99029717D02*
X91596827Y-99033576D01*
X91664509Y-99054107D01*
X91747629Y-99079321D01*
X91886608Y-99153608D01*
X92008422Y-99253578D01*
X92108392Y-99375392D01*
X92182679Y-99514371D01*
X92190727Y-99540903D01*
X92228424Y-99665173D01*
X92243870Y-99822000D01*
X92228424Y-99978827D01*
X92206220Y-100052024D01*
X92182679Y-100129629D01*
X92108392Y-100268608D01*
X92008422Y-100390422D01*
X91886608Y-100490392D01*
X91747629Y-100564679D01*
X91672228Y-100587551D01*
X91596827Y-100610424D01*
X91557649Y-100614283D01*
X91479295Y-100622000D01*
X91400705Y-100622000D01*
X91322351Y-100614283D01*
X91283173Y-100610424D01*
X91207772Y-100587551D01*
X91132371Y-100564679D01*
X90993392Y-100490392D01*
X90871578Y-100390422D01*
X90771608Y-100268608D01*
X90697321Y-100129629D01*
X90673780Y-100052024D01*
X90651576Y-99978827D01*
X90636130Y-99822000D01*
X90651576Y-99665173D01*
X90689273Y-99540903D01*
X90697321Y-99514371D01*
X90771608Y-99375392D01*
X90871578Y-99253578D01*
X90993392Y-99153608D01*
X91132371Y-99079321D01*
X91215491Y-99054107D01*
X91283173Y-99033576D01*
X91322351Y-99029717D01*
X91400705Y-99022000D01*
X91479295Y-99022000D01*
X91557649Y-99029717D01*
X91557649Y-99029717D01*
G37*
G36*
X99177649Y-99029717D02*
X99216827Y-99033576D01*
X99284509Y-99054107D01*
X99367629Y-99079321D01*
X99506608Y-99153608D01*
X99628422Y-99253578D01*
X99728392Y-99375392D01*
X99802679Y-99514371D01*
X99810727Y-99540903D01*
X99848424Y-99665173D01*
X99863870Y-99822000D01*
X99848424Y-99978827D01*
X99826220Y-100052024D01*
X99802679Y-100129629D01*
X99728392Y-100268608D01*
X99628422Y-100390422D01*
X99506608Y-100490392D01*
X99367629Y-100564679D01*
X99292228Y-100587551D01*
X99216827Y-100610424D01*
X99177649Y-100614283D01*
X99099295Y-100622000D01*
X99020705Y-100622000D01*
X98942351Y-100614283D01*
X98903173Y-100610424D01*
X98827772Y-100587551D01*
X98752371Y-100564679D01*
X98613392Y-100490392D01*
X98491578Y-100390422D01*
X98391608Y-100268608D01*
X98317321Y-100129629D01*
X98293780Y-100052024D01*
X98271576Y-99978827D01*
X98256130Y-99822000D01*
X98271576Y-99665173D01*
X98309273Y-99540903D01*
X98317321Y-99514371D01*
X98391608Y-99375392D01*
X98491578Y-99253578D01*
X98613392Y-99153608D01*
X98752371Y-99079321D01*
X98835491Y-99054107D01*
X98903173Y-99033576D01*
X98942351Y-99029717D01*
X99020705Y-99022000D01*
X99099295Y-99022000D01*
X99177649Y-99029717D01*
X99177649Y-99029717D01*
G37*
G36*
X119991770Y-98433372D02*
X120107689Y-98456429D01*
X120289678Y-98531811D01*
X120453463Y-98641249D01*
X120592751Y-98780537D01*
X120702189Y-98944322D01*
X120777571Y-99126311D01*
X120790836Y-99193000D01*
X120816000Y-99319507D01*
X120816000Y-99516493D01*
X120811144Y-99540903D01*
X120777571Y-99709689D01*
X120702189Y-99891678D01*
X120592751Y-100055463D01*
X120453463Y-100194751D01*
X120289678Y-100304189D01*
X120107689Y-100379571D01*
X119991770Y-100402628D01*
X119914493Y-100418000D01*
X119717507Y-100418000D01*
X119640230Y-100402628D01*
X119524311Y-100379571D01*
X119342322Y-100304189D01*
X119178537Y-100194751D01*
X119039249Y-100055463D01*
X118929811Y-99891678D01*
X118854429Y-99709689D01*
X118820856Y-99540903D01*
X118816000Y-99516493D01*
X118816000Y-99319507D01*
X118841164Y-99193000D01*
X118854429Y-99126311D01*
X118929811Y-98944322D01*
X119039249Y-98780537D01*
X119178537Y-98641249D01*
X119342322Y-98531811D01*
X119524311Y-98456429D01*
X119640230Y-98433372D01*
X119717507Y-98418000D01*
X119914493Y-98418000D01*
X119991770Y-98433372D01*
X119991770Y-98433372D01*
G37*
G36*
X115491770Y-98433372D02*
X115607689Y-98456429D01*
X115789678Y-98531811D01*
X115953463Y-98641249D01*
X116092751Y-98780537D01*
X116202189Y-98944322D01*
X116277571Y-99126311D01*
X116290836Y-99193000D01*
X116316000Y-99319507D01*
X116316000Y-99516493D01*
X116311144Y-99540903D01*
X116277571Y-99709689D01*
X116202189Y-99891678D01*
X116092751Y-100055463D01*
X115953463Y-100194751D01*
X115789678Y-100304189D01*
X115607689Y-100379571D01*
X115491770Y-100402628D01*
X115414493Y-100418000D01*
X115217507Y-100418000D01*
X115140230Y-100402628D01*
X115024311Y-100379571D01*
X114842322Y-100304189D01*
X114678537Y-100194751D01*
X114539249Y-100055463D01*
X114429811Y-99891678D01*
X114354429Y-99709689D01*
X114320856Y-99540903D01*
X114316000Y-99516493D01*
X114316000Y-99319507D01*
X114341164Y-99193000D01*
X114354429Y-99126311D01*
X114429811Y-98944322D01*
X114539249Y-98780537D01*
X114678537Y-98641249D01*
X114842322Y-98531811D01*
X115024311Y-98456429D01*
X115140230Y-98433372D01*
X115217507Y-98418000D01*
X115414493Y-98418000D01*
X115491770Y-98433372D01*
X115491770Y-98433372D01*
G37*
G36*
X89126024Y-98946955D02*
X89158736Y-98956879D01*
X89188890Y-98972997D01*
X89215316Y-98994684D01*
X89237003Y-99021110D01*
X89253121Y-99051264D01*
X89263045Y-99083976D01*
X89267000Y-99124138D01*
X89267000Y-100011862D01*
X89263045Y-100052024D01*
X89253121Y-100084736D01*
X89237003Y-100114890D01*
X89215316Y-100141316D01*
X89188890Y-100163003D01*
X89158736Y-100179121D01*
X89126024Y-100189045D01*
X89085862Y-100193000D01*
X87698138Y-100193000D01*
X87657976Y-100189045D01*
X87625264Y-100179121D01*
X87595110Y-100163003D01*
X87568684Y-100141316D01*
X87546997Y-100114890D01*
X87530879Y-100084736D01*
X87520955Y-100052024D01*
X87517000Y-100011862D01*
X87517000Y-99124138D01*
X87520955Y-99083976D01*
X87530879Y-99051264D01*
X87546997Y-99021110D01*
X87568684Y-98994684D01*
X87595110Y-98972997D01*
X87625264Y-98956879D01*
X87657976Y-98946955D01*
X87698138Y-98943000D01*
X89085862Y-98943000D01*
X89126024Y-98946955D01*
X89126024Y-98946955D01*
G37*
G36*
X108878630Y-97968299D02*
X109038855Y-98016903D01*
X109186520Y-98095831D01*
X109315949Y-98202051D01*
X109422169Y-98331480D01*
X109501097Y-98479145D01*
X109549701Y-98639370D01*
X109566112Y-98806000D01*
X109549701Y-98972630D01*
X109501097Y-99132855D01*
X109422169Y-99280520D01*
X109315949Y-99409949D01*
X109186520Y-99516169D01*
X109038855Y-99595097D01*
X108878630Y-99643701D01*
X108753752Y-99656000D01*
X108670248Y-99656000D01*
X108545370Y-99643701D01*
X108385145Y-99595097D01*
X108237480Y-99516169D01*
X108108051Y-99409949D01*
X108001831Y-99280520D01*
X107922903Y-99132855D01*
X107874299Y-98972630D01*
X107857888Y-98806000D01*
X107874299Y-98639370D01*
X107922903Y-98479145D01*
X108001831Y-98331480D01*
X108108051Y-98202051D01*
X108237480Y-98095831D01*
X108385145Y-98016903D01*
X108545370Y-97968299D01*
X108670248Y-97956000D01*
X108753752Y-97956000D01*
X108878630Y-97968299D01*
X108878630Y-97968299D01*
G37*
G36*
X106338630Y-97968299D02*
X106498855Y-98016903D01*
X106646520Y-98095831D01*
X106775949Y-98202051D01*
X106882169Y-98331480D01*
X106961097Y-98479145D01*
X107009701Y-98639370D01*
X107026112Y-98806000D01*
X107009701Y-98972630D01*
X106961097Y-99132855D01*
X106882169Y-99280520D01*
X106775949Y-99409949D01*
X106646520Y-99516169D01*
X106498855Y-99595097D01*
X106338630Y-99643701D01*
X106213752Y-99656000D01*
X106130248Y-99656000D01*
X106005370Y-99643701D01*
X105845145Y-99595097D01*
X105697480Y-99516169D01*
X105568051Y-99409949D01*
X105461831Y-99280520D01*
X105382903Y-99132855D01*
X105334299Y-98972630D01*
X105317888Y-98806000D01*
X105334299Y-98639370D01*
X105382903Y-98479145D01*
X105461831Y-98331480D01*
X105568051Y-98202051D01*
X105697480Y-98095831D01*
X105845145Y-98016903D01*
X106005370Y-97968299D01*
X106130248Y-97956000D01*
X106213752Y-97956000D01*
X106338630Y-97968299D01*
X106338630Y-97968299D01*
G37*
G36*
X103798630Y-97968299D02*
X103958855Y-98016903D01*
X104106520Y-98095831D01*
X104235949Y-98202051D01*
X104342169Y-98331480D01*
X104421097Y-98479145D01*
X104469701Y-98639370D01*
X104486112Y-98806000D01*
X104469701Y-98972630D01*
X104421097Y-99132855D01*
X104342169Y-99280520D01*
X104235949Y-99409949D01*
X104106520Y-99516169D01*
X103958855Y-99595097D01*
X103798630Y-99643701D01*
X103673752Y-99656000D01*
X103590248Y-99656000D01*
X103465370Y-99643701D01*
X103305145Y-99595097D01*
X103157480Y-99516169D01*
X103028051Y-99409949D01*
X102921831Y-99280520D01*
X102842903Y-99132855D01*
X102794299Y-98972630D01*
X102777888Y-98806000D01*
X102794299Y-98639370D01*
X102842903Y-98479145D01*
X102921831Y-98331480D01*
X103028051Y-98202051D01*
X103157480Y-98095831D01*
X103305145Y-98016903D01*
X103465370Y-97968299D01*
X103590248Y-97956000D01*
X103673752Y-97956000D01*
X103798630Y-97968299D01*
X103798630Y-97968299D01*
G37*
G36*
X113006964Y-98097337D02*
X113038528Y-98106912D01*
X113067617Y-98122460D01*
X113093114Y-98143386D01*
X113114040Y-98168883D01*
X113129588Y-98197972D01*
X113139163Y-98229536D01*
X113143000Y-98268498D01*
X113143000Y-99343502D01*
X113139163Y-99382464D01*
X113129588Y-99414028D01*
X113114040Y-99443117D01*
X113093114Y-99468614D01*
X113067617Y-99489540D01*
X113038528Y-99505088D01*
X113006964Y-99514663D01*
X112968002Y-99518500D01*
X111567998Y-99518500D01*
X111529036Y-99514663D01*
X111497472Y-99505088D01*
X111468383Y-99489540D01*
X111442886Y-99468614D01*
X111421960Y-99443117D01*
X111406412Y-99414028D01*
X111396837Y-99382464D01*
X111393000Y-99343502D01*
X111393000Y-98268498D01*
X111396837Y-98229536D01*
X111406412Y-98197972D01*
X111421960Y-98168883D01*
X111442886Y-98143386D01*
X111468383Y-98122460D01*
X111497472Y-98106912D01*
X111529036Y-98097337D01*
X111567998Y-98093500D01*
X112968002Y-98093500D01*
X113006964Y-98097337D01*
X113006964Y-98097337D01*
G37*
G36*
X123864630Y-96952299D02*
X124024855Y-97000903D01*
X124172520Y-97079831D01*
X124301949Y-97186051D01*
X124408169Y-97315480D01*
X124487097Y-97463145D01*
X124535701Y-97623370D01*
X124552112Y-97790000D01*
X124535701Y-97956630D01*
X124487097Y-98116855D01*
X124408169Y-98264520D01*
X124301949Y-98393949D01*
X124172520Y-98500169D01*
X124024855Y-98579097D01*
X123864630Y-98627701D01*
X123739752Y-98640000D01*
X123656248Y-98640000D01*
X123531370Y-98627701D01*
X123371145Y-98579097D01*
X123223480Y-98500169D01*
X123094051Y-98393949D01*
X122987831Y-98264520D01*
X122908903Y-98116855D01*
X122860299Y-97956630D01*
X122843888Y-97790000D01*
X122860299Y-97623370D01*
X122908903Y-97463145D01*
X122987831Y-97315480D01*
X123094051Y-97186051D01*
X123223480Y-97079831D01*
X123371145Y-97000903D01*
X123531370Y-96952299D01*
X123656248Y-96940000D01*
X123739752Y-96940000D01*
X123864630Y-96952299D01*
X123864630Y-96952299D01*
G37*
G36*
X91557649Y-96489717D02*
X91596827Y-96493576D01*
X91672227Y-96516448D01*
X91747629Y-96539321D01*
X91886608Y-96613608D01*
X92008422Y-96713578D01*
X92108392Y-96835392D01*
X92182679Y-96974371D01*
X92182679Y-96974372D01*
X92228424Y-97125173D01*
X92243870Y-97282000D01*
X92232938Y-97393000D01*
X92228424Y-97438826D01*
X92182679Y-97589629D01*
X92108392Y-97728608D01*
X92008422Y-97850422D01*
X91886608Y-97950392D01*
X91747629Y-98024679D01*
X91672228Y-98047551D01*
X91596827Y-98070424D01*
X91557649Y-98074283D01*
X91479295Y-98082000D01*
X91400705Y-98082000D01*
X91322351Y-98074283D01*
X91283173Y-98070424D01*
X91207772Y-98047551D01*
X91132371Y-98024679D01*
X90993392Y-97950392D01*
X90871578Y-97850422D01*
X90771608Y-97728608D01*
X90697321Y-97589629D01*
X90651576Y-97438826D01*
X90647063Y-97393000D01*
X90636130Y-97282000D01*
X90651576Y-97125173D01*
X90697321Y-96974372D01*
X90697321Y-96974371D01*
X90771608Y-96835392D01*
X90871578Y-96713578D01*
X90993392Y-96613608D01*
X91132371Y-96539321D01*
X91207773Y-96516448D01*
X91283173Y-96493576D01*
X91322351Y-96489717D01*
X91400705Y-96482000D01*
X91479295Y-96482000D01*
X91557649Y-96489717D01*
X91557649Y-96489717D01*
G37*
G36*
X99177649Y-96489717D02*
X99216827Y-96493576D01*
X99292227Y-96516448D01*
X99367629Y-96539321D01*
X99506608Y-96613608D01*
X99628422Y-96713578D01*
X99728392Y-96835392D01*
X99802679Y-96974371D01*
X99802679Y-96974372D01*
X99848424Y-97125173D01*
X99863870Y-97282000D01*
X99852938Y-97393000D01*
X99848424Y-97438826D01*
X99802679Y-97589629D01*
X99728392Y-97728608D01*
X99628422Y-97850422D01*
X99506608Y-97950392D01*
X99367629Y-98024679D01*
X99292228Y-98047551D01*
X99216827Y-98070424D01*
X99177649Y-98074283D01*
X99099295Y-98082000D01*
X99020705Y-98082000D01*
X98942351Y-98074283D01*
X98903173Y-98070424D01*
X98827772Y-98047551D01*
X98752371Y-98024679D01*
X98613392Y-97950392D01*
X98491578Y-97850422D01*
X98391608Y-97728608D01*
X98317321Y-97589629D01*
X98271576Y-97438826D01*
X98267063Y-97393000D01*
X98256130Y-97282000D01*
X98271576Y-97125173D01*
X98317321Y-96974372D01*
X98317321Y-96974371D01*
X98391608Y-96835392D01*
X98491578Y-96713578D01*
X98613392Y-96613608D01*
X98752371Y-96539321D01*
X98827773Y-96516448D01*
X98903173Y-96493576D01*
X98942351Y-96489717D01*
X99020705Y-96482000D01*
X99099295Y-96482000D01*
X99177649Y-96489717D01*
X99177649Y-96489717D01*
G37*
G36*
X89126024Y-96146955D02*
X89158736Y-96156879D01*
X89188890Y-96172997D01*
X89215316Y-96194684D01*
X89237003Y-96221110D01*
X89253121Y-96251264D01*
X89263045Y-96283976D01*
X89267000Y-96324138D01*
X89267000Y-97211862D01*
X89263045Y-97252024D01*
X89253121Y-97284736D01*
X89237003Y-97314890D01*
X89215316Y-97341316D01*
X89188890Y-97363003D01*
X89158736Y-97379121D01*
X89126024Y-97389045D01*
X89085862Y-97393000D01*
X87698138Y-97393000D01*
X87657976Y-97389045D01*
X87625264Y-97379121D01*
X87595110Y-97363003D01*
X87568684Y-97341316D01*
X87546997Y-97314890D01*
X87530879Y-97284736D01*
X87520955Y-97252024D01*
X87517000Y-97211862D01*
X87517000Y-96324138D01*
X87520955Y-96283976D01*
X87530879Y-96251264D01*
X87546997Y-96221110D01*
X87568684Y-96194684D01*
X87595110Y-96172997D01*
X87625264Y-96156879D01*
X87657976Y-96146955D01*
X87698138Y-96143000D01*
X89085862Y-96143000D01*
X89126024Y-96146955D01*
X89126024Y-96146955D01*
G37*
G36*
X82950318Y-95022411D02*
X83022767Y-95036822D01*
X83070085Y-95056422D01*
X83159257Y-95093358D01*
X83282100Y-95175439D01*
X83386561Y-95279900D01*
X83468642Y-95402743D01*
X83525178Y-95539234D01*
X83554000Y-95684130D01*
X83554000Y-95831870D01*
X83525178Y-95976766D01*
X83468642Y-96113257D01*
X83386561Y-96236100D01*
X83282100Y-96340561D01*
X83159257Y-96422642D01*
X83079303Y-96455760D01*
X83022767Y-96479178D01*
X82950383Y-96493576D01*
X82877870Y-96508000D01*
X82730130Y-96508000D01*
X82657617Y-96493576D01*
X82585233Y-96479178D01*
X82528697Y-96455760D01*
X82448743Y-96422642D01*
X82325900Y-96340561D01*
X82221439Y-96236100D01*
X82139358Y-96113257D01*
X82082822Y-95976766D01*
X82054000Y-95831870D01*
X82054000Y-95684130D01*
X82082822Y-95539234D01*
X82139358Y-95402743D01*
X82221439Y-95279900D01*
X82325900Y-95175439D01*
X82448743Y-95093358D01*
X82537915Y-95056422D01*
X82585233Y-95036822D01*
X82657682Y-95022411D01*
X82730130Y-95008000D01*
X82877870Y-95008000D01*
X82950318Y-95022411D01*
X82950318Y-95022411D01*
G37*
G36*
X124548000Y-96100000D02*
X122848000Y-96100000D01*
X122848000Y-94400000D01*
X124548000Y-94400000D01*
X124548000Y-96100000D01*
X124548000Y-96100000D01*
G37*
G36*
X99177649Y-93949717D02*
X99216827Y-93953576D01*
X99292228Y-93976449D01*
X99367629Y-93999321D01*
X99506608Y-94073608D01*
X99628422Y-94173578D01*
X99728392Y-94295392D01*
X99802679Y-94434371D01*
X99802679Y-94434372D01*
X99848424Y-94585173D01*
X99863870Y-94742000D01*
X99848424Y-94898827D01*
X99837570Y-94934608D01*
X99802679Y-95049629D01*
X99728392Y-95188608D01*
X99628422Y-95310422D01*
X99506608Y-95410392D01*
X99367629Y-95484679D01*
X99292228Y-95507551D01*
X99216827Y-95530424D01*
X99177649Y-95534283D01*
X99099295Y-95542000D01*
X99020705Y-95542000D01*
X98942351Y-95534283D01*
X98903173Y-95530424D01*
X98827772Y-95507551D01*
X98752371Y-95484679D01*
X98613392Y-95410392D01*
X98491578Y-95310422D01*
X98391608Y-95188608D01*
X98317321Y-95049629D01*
X98282430Y-94934608D01*
X98271576Y-94898827D01*
X98256130Y-94742000D01*
X98271576Y-94585173D01*
X98317321Y-94434372D01*
X98317321Y-94434371D01*
X98391608Y-94295392D01*
X98491578Y-94173578D01*
X98613392Y-94073608D01*
X98752371Y-93999321D01*
X98827772Y-93976449D01*
X98903173Y-93953576D01*
X98942351Y-93949717D01*
X99020705Y-93942000D01*
X99099295Y-93942000D01*
X99177649Y-93949717D01*
X99177649Y-93949717D01*
G37*
G36*
X91557649Y-93949717D02*
X91596827Y-93953576D01*
X91672228Y-93976449D01*
X91747629Y-93999321D01*
X91886608Y-94073608D01*
X92008422Y-94173578D01*
X92108392Y-94295392D01*
X92182679Y-94434371D01*
X92182679Y-94434372D01*
X92228424Y-94585173D01*
X92243870Y-94742000D01*
X92228424Y-94898827D01*
X92217570Y-94934608D01*
X92182679Y-95049629D01*
X92108392Y-95188608D01*
X92008422Y-95310422D01*
X91886608Y-95410392D01*
X91747629Y-95484679D01*
X91672228Y-95507551D01*
X91596827Y-95530424D01*
X91557649Y-95534283D01*
X91479295Y-95542000D01*
X91400705Y-95542000D01*
X91322351Y-95534283D01*
X91283173Y-95530424D01*
X91207772Y-95507551D01*
X91132371Y-95484679D01*
X90993392Y-95410392D01*
X90871578Y-95310422D01*
X90771608Y-95188608D01*
X90697321Y-95049629D01*
X90662430Y-94934608D01*
X90651576Y-94898827D01*
X90636130Y-94742000D01*
X90651576Y-94585173D01*
X90697321Y-94434372D01*
X90697321Y-94434371D01*
X90771608Y-94295392D01*
X90871578Y-94173578D01*
X90993392Y-94073608D01*
X91132371Y-93999321D01*
X91207772Y-93976449D01*
X91283173Y-93953576D01*
X91322351Y-93949717D01*
X91400705Y-93942000D01*
X91479295Y-93942000D01*
X91557649Y-93949717D01*
X91557649Y-93949717D01*
G37*
G36*
X103495649Y-93695717D02*
X103534827Y-93699576D01*
X103610228Y-93722449D01*
X103685629Y-93745321D01*
X103824608Y-93819608D01*
X103946422Y-93919578D01*
X104046392Y-94041392D01*
X104120679Y-94180371D01*
X104120679Y-94180372D01*
X104155571Y-94295394D01*
X104166424Y-94331174D01*
X104181870Y-94488000D01*
X104166424Y-94644826D01*
X104120679Y-94795629D01*
X104046392Y-94934608D01*
X103946422Y-95056422D01*
X103824608Y-95156392D01*
X103685629Y-95230679D01*
X103610228Y-95253551D01*
X103534827Y-95276424D01*
X103499534Y-95279900D01*
X103417295Y-95288000D01*
X103338705Y-95288000D01*
X103256466Y-95279900D01*
X103221173Y-95276424D01*
X103145772Y-95253551D01*
X103070371Y-95230679D01*
X102931392Y-95156392D01*
X102809578Y-95056422D01*
X102709608Y-94934608D01*
X102635321Y-94795629D01*
X102589576Y-94644826D01*
X102574130Y-94488000D01*
X102589576Y-94331174D01*
X102600430Y-94295394D01*
X102635321Y-94180372D01*
X102635321Y-94180371D01*
X102709608Y-94041392D01*
X102809578Y-93919578D01*
X102931392Y-93819608D01*
X103070371Y-93745321D01*
X103145772Y-93722449D01*
X103221173Y-93699576D01*
X103260351Y-93695717D01*
X103338705Y-93688000D01*
X103417295Y-93688000D01*
X103495649Y-93695717D01*
X103495649Y-93695717D01*
G37*
G36*
X116878000Y-95288000D02*
X115278000Y-95288000D01*
X115278000Y-93688000D01*
X116878000Y-93688000D01*
X116878000Y-95288000D01*
X116878000Y-95288000D01*
G37*
G36*
X91557649Y-91409717D02*
X91596827Y-91413576D01*
X91672228Y-91436449D01*
X91747629Y-91459321D01*
X91886608Y-91533608D01*
X92008422Y-91633578D01*
X92108392Y-91755392D01*
X92182679Y-91894371D01*
X92182679Y-91894372D01*
X92228424Y-92045173D01*
X92243870Y-92202000D01*
X92228424Y-92358827D01*
X92217570Y-92394608D01*
X92182679Y-92509629D01*
X92108392Y-92648608D01*
X92008422Y-92770422D01*
X91886608Y-92870392D01*
X91747629Y-92944679D01*
X91672227Y-92967552D01*
X91596827Y-92990424D01*
X91557649Y-92994283D01*
X91479295Y-93002000D01*
X91400705Y-93002000D01*
X91322351Y-92994283D01*
X91283173Y-92990424D01*
X91207773Y-92967552D01*
X91132371Y-92944679D01*
X90993392Y-92870392D01*
X90871578Y-92770422D01*
X90771608Y-92648608D01*
X90697321Y-92509629D01*
X90662430Y-92394608D01*
X90651576Y-92358827D01*
X90636130Y-92202000D01*
X90651576Y-92045173D01*
X90697321Y-91894372D01*
X90697321Y-91894371D01*
X90771608Y-91755392D01*
X90871578Y-91633578D01*
X90993392Y-91533608D01*
X91132371Y-91459321D01*
X91207772Y-91436449D01*
X91283173Y-91413576D01*
X91322351Y-91409717D01*
X91400705Y-91402000D01*
X91479295Y-91402000D01*
X91557649Y-91409717D01*
X91557649Y-91409717D01*
G37*
G36*
X99177649Y-91409717D02*
X99216827Y-91413576D01*
X99292228Y-91436449D01*
X99367629Y-91459321D01*
X99506608Y-91533608D01*
X99628422Y-91633578D01*
X99728392Y-91755392D01*
X99802679Y-91894371D01*
X99802679Y-91894372D01*
X99848424Y-92045173D01*
X99863870Y-92202000D01*
X99848424Y-92358827D01*
X99837570Y-92394608D01*
X99802679Y-92509629D01*
X99728392Y-92648608D01*
X99628422Y-92770422D01*
X99506608Y-92870392D01*
X99367629Y-92944679D01*
X99292227Y-92967552D01*
X99216827Y-92990424D01*
X99177649Y-92994283D01*
X99099295Y-93002000D01*
X99020705Y-93002000D01*
X98942351Y-92994283D01*
X98903173Y-92990424D01*
X98827773Y-92967552D01*
X98752371Y-92944679D01*
X98613392Y-92870392D01*
X98491578Y-92770422D01*
X98391608Y-92648608D01*
X98317321Y-92509629D01*
X98282430Y-92394608D01*
X98271576Y-92358827D01*
X98256130Y-92202000D01*
X98271576Y-92045173D01*
X98317321Y-91894372D01*
X98317321Y-91894371D01*
X98391608Y-91755392D01*
X98491578Y-91633578D01*
X98613392Y-91533608D01*
X98752371Y-91459321D01*
X98827772Y-91436449D01*
X98903173Y-91413576D01*
X98942351Y-91409717D01*
X99020705Y-91402000D01*
X99099295Y-91402000D01*
X99177649Y-91409717D01*
X99177649Y-91409717D01*
G37*
G36*
X89126024Y-91580955D02*
X89158736Y-91590879D01*
X89188890Y-91606997D01*
X89215316Y-91628684D01*
X89237003Y-91655110D01*
X89253121Y-91685264D01*
X89263045Y-91717976D01*
X89267000Y-91758138D01*
X89267000Y-92645862D01*
X89263045Y-92686024D01*
X89253121Y-92718736D01*
X89237003Y-92748890D01*
X89215316Y-92775316D01*
X89188890Y-92797003D01*
X89158736Y-92813121D01*
X89126024Y-92823045D01*
X89085862Y-92827000D01*
X87698138Y-92827000D01*
X87657976Y-92823045D01*
X87625264Y-92813121D01*
X87595110Y-92797003D01*
X87568684Y-92775316D01*
X87546997Y-92748890D01*
X87530879Y-92718736D01*
X87520955Y-92686024D01*
X87517000Y-92645862D01*
X87517000Y-91758138D01*
X87520955Y-91717976D01*
X87530879Y-91685264D01*
X87546997Y-91655110D01*
X87568684Y-91628684D01*
X87595110Y-91606997D01*
X87625264Y-91590879D01*
X87657976Y-91580955D01*
X87698138Y-91577000D01*
X89085862Y-91577000D01*
X89126024Y-91580955D01*
X89126024Y-91580955D01*
G37*
G36*
X103495649Y-91155717D02*
X103534827Y-91159576D01*
X103610227Y-91182448D01*
X103685629Y-91205321D01*
X103824608Y-91279608D01*
X103946422Y-91379578D01*
X104046392Y-91501392D01*
X104120679Y-91640371D01*
X104125150Y-91655110D01*
X104155571Y-91755394D01*
X104166424Y-91791174D01*
X104181870Y-91948000D01*
X104166424Y-92104826D01*
X104120679Y-92255629D01*
X104046392Y-92394608D01*
X103946422Y-92516422D01*
X103824608Y-92616392D01*
X103685629Y-92690679D01*
X103610228Y-92713551D01*
X103534827Y-92736424D01*
X103495649Y-92740283D01*
X103417295Y-92748000D01*
X103338705Y-92748000D01*
X103260351Y-92740283D01*
X103221173Y-92736424D01*
X103145772Y-92713551D01*
X103070371Y-92690679D01*
X102931392Y-92616392D01*
X102809578Y-92516422D01*
X102709608Y-92394608D01*
X102635321Y-92255629D01*
X102589576Y-92104826D01*
X102574130Y-91948000D01*
X102589576Y-91791174D01*
X102600430Y-91755394D01*
X102630850Y-91655110D01*
X102635321Y-91640371D01*
X102709608Y-91501392D01*
X102809578Y-91379578D01*
X102931392Y-91279608D01*
X103070371Y-91205321D01*
X103145773Y-91182448D01*
X103221173Y-91159576D01*
X103260351Y-91155717D01*
X103338705Y-91148000D01*
X103417295Y-91148000D01*
X103495649Y-91155717D01*
X103495649Y-91155717D01*
G37*
G36*
X116195649Y-91155717D02*
X116234827Y-91159576D01*
X116310227Y-91182448D01*
X116385629Y-91205321D01*
X116524608Y-91279608D01*
X116646422Y-91379578D01*
X116746392Y-91501392D01*
X116820679Y-91640371D01*
X116825150Y-91655110D01*
X116855571Y-91755394D01*
X116866424Y-91791174D01*
X116881870Y-91948000D01*
X116866424Y-92104826D01*
X116820679Y-92255629D01*
X116746392Y-92394608D01*
X116646422Y-92516422D01*
X116524608Y-92616392D01*
X116385629Y-92690679D01*
X116310228Y-92713551D01*
X116234827Y-92736424D01*
X116195649Y-92740283D01*
X116117295Y-92748000D01*
X116038705Y-92748000D01*
X115960351Y-92740283D01*
X115921173Y-92736424D01*
X115845772Y-92713551D01*
X115770371Y-92690679D01*
X115631392Y-92616392D01*
X115509578Y-92516422D01*
X115409608Y-92394608D01*
X115335321Y-92255629D01*
X115289576Y-92104826D01*
X115274130Y-91948000D01*
X115289576Y-91791174D01*
X115300430Y-91755394D01*
X115330850Y-91655110D01*
X115335321Y-91640371D01*
X115409608Y-91501392D01*
X115509578Y-91379578D01*
X115631392Y-91279608D01*
X115770371Y-91205321D01*
X115845773Y-91182448D01*
X115921173Y-91159576D01*
X115960351Y-91155717D01*
X116038705Y-91148000D01*
X116117295Y-91148000D01*
X116195649Y-91155717D01*
X116195649Y-91155717D01*
G37*
G36*
X113006964Y-89207337D02*
X113038528Y-89216912D01*
X113067617Y-89232460D01*
X113093114Y-89253386D01*
X113114040Y-89278883D01*
X113129588Y-89307972D01*
X113139163Y-89339536D01*
X113143000Y-89378498D01*
X113143000Y-90453502D01*
X113139163Y-90492464D01*
X113129588Y-90524028D01*
X113114040Y-90553117D01*
X113093114Y-90578614D01*
X113067617Y-90599540D01*
X113038528Y-90615088D01*
X113006964Y-90624663D01*
X112968002Y-90628500D01*
X111567998Y-90628500D01*
X111529036Y-90624663D01*
X111497472Y-90615088D01*
X111468383Y-90599540D01*
X111442886Y-90578614D01*
X111421960Y-90553117D01*
X111406412Y-90524028D01*
X111396837Y-90492464D01*
X111393000Y-90453502D01*
X111393000Y-89378498D01*
X111396837Y-89339536D01*
X111406412Y-89307972D01*
X111421960Y-89278883D01*
X111442886Y-89253386D01*
X111468383Y-89232460D01*
X111497472Y-89216912D01*
X111529036Y-89207337D01*
X111567998Y-89203500D01*
X112968002Y-89203500D01*
X113006964Y-89207337D01*
X113006964Y-89207337D01*
G37*
G36*
X110466964Y-89207337D02*
X110498528Y-89216912D01*
X110527617Y-89232460D01*
X110553114Y-89253386D01*
X110574040Y-89278883D01*
X110589588Y-89307972D01*
X110599163Y-89339536D01*
X110603000Y-89378498D01*
X110603000Y-90453502D01*
X110599163Y-90492464D01*
X110589588Y-90524028D01*
X110574040Y-90553117D01*
X110553114Y-90578614D01*
X110527617Y-90599540D01*
X110498528Y-90615088D01*
X110466964Y-90624663D01*
X110428002Y-90628500D01*
X109027998Y-90628500D01*
X108989036Y-90624663D01*
X108957472Y-90615088D01*
X108928383Y-90599540D01*
X108902886Y-90578614D01*
X108881960Y-90553117D01*
X108866412Y-90524028D01*
X108856837Y-90492464D01*
X108853000Y-90453502D01*
X108853000Y-89378498D01*
X108856837Y-89339536D01*
X108866412Y-89307972D01*
X108881960Y-89278883D01*
X108902886Y-89253386D01*
X108928383Y-89232460D01*
X108957472Y-89216912D01*
X108989036Y-89207337D01*
X109027998Y-89203500D01*
X110428002Y-89203500D01*
X110466964Y-89207337D01*
X110466964Y-89207337D01*
G37*
G36*
X107926964Y-89207337D02*
X107958528Y-89216912D01*
X107987617Y-89232460D01*
X108013114Y-89253386D01*
X108034040Y-89278883D01*
X108049588Y-89307972D01*
X108059163Y-89339536D01*
X108063000Y-89378498D01*
X108063000Y-90453502D01*
X108059163Y-90492464D01*
X108049588Y-90524028D01*
X108034040Y-90553117D01*
X108013114Y-90578614D01*
X107987617Y-90599540D01*
X107958528Y-90615088D01*
X107926964Y-90624663D01*
X107888002Y-90628500D01*
X106487998Y-90628500D01*
X106449036Y-90624663D01*
X106417472Y-90615088D01*
X106388383Y-90599540D01*
X106362886Y-90578614D01*
X106341960Y-90553117D01*
X106326412Y-90524028D01*
X106316837Y-90492464D01*
X106313000Y-90453502D01*
X106313000Y-89378498D01*
X106316837Y-89339536D01*
X106326412Y-89307972D01*
X106341960Y-89278883D01*
X106362886Y-89253386D01*
X106388383Y-89232460D01*
X106417472Y-89216912D01*
X106449036Y-89207337D01*
X106487998Y-89203500D01*
X107888002Y-89203500D01*
X107926964Y-89207337D01*
X107926964Y-89207337D01*
G37*
G36*
X85002630Y-88824299D02*
X85162855Y-88872903D01*
X85310520Y-88951831D01*
X85439949Y-89058051D01*
X85546169Y-89187480D01*
X85625097Y-89335145D01*
X85673701Y-89495370D01*
X85690112Y-89662000D01*
X85673701Y-89828630D01*
X85625097Y-89988855D01*
X85546169Y-90136520D01*
X85439949Y-90265949D01*
X85310520Y-90372169D01*
X85162855Y-90451097D01*
X85002630Y-90499701D01*
X84877752Y-90512000D01*
X84794248Y-90512000D01*
X84669370Y-90499701D01*
X84509145Y-90451097D01*
X84361480Y-90372169D01*
X84232051Y-90265949D01*
X84125831Y-90136520D01*
X84046903Y-89988855D01*
X83998299Y-89828630D01*
X83981888Y-89662000D01*
X83998299Y-89495370D01*
X84046903Y-89335145D01*
X84125831Y-89187480D01*
X84232051Y-89058051D01*
X84361480Y-88951831D01*
X84509145Y-88872903D01*
X84669370Y-88824299D01*
X84794248Y-88812000D01*
X84877752Y-88812000D01*
X85002630Y-88824299D01*
X85002630Y-88824299D01*
G37*
G36*
X80938630Y-88824299D02*
X81098855Y-88872903D01*
X81246520Y-88951831D01*
X81375949Y-89058051D01*
X81482169Y-89187480D01*
X81561097Y-89335145D01*
X81609701Y-89495370D01*
X81626112Y-89662000D01*
X81609701Y-89828630D01*
X81561097Y-89988855D01*
X81482169Y-90136520D01*
X81375949Y-90265949D01*
X81246520Y-90372169D01*
X81098855Y-90451097D01*
X80938630Y-90499701D01*
X80813752Y-90512000D01*
X80730248Y-90512000D01*
X80605370Y-90499701D01*
X80445145Y-90451097D01*
X80297480Y-90372169D01*
X80168051Y-90265949D01*
X80061831Y-90136520D01*
X79982903Y-89988855D01*
X79934299Y-89828630D01*
X79917888Y-89662000D01*
X79934299Y-89495370D01*
X79982903Y-89335145D01*
X80061831Y-89187480D01*
X80168051Y-89058051D01*
X80297480Y-88951831D01*
X80445145Y-88872903D01*
X80605370Y-88824299D01*
X80730248Y-88812000D01*
X80813752Y-88812000D01*
X80938630Y-88824299D01*
X80938630Y-88824299D01*
G37*
G36*
X99177649Y-88869717D02*
X99216827Y-88873576D01*
X99255357Y-88885264D01*
X99367629Y-88919321D01*
X99506608Y-88993608D01*
X99628422Y-89093578D01*
X99728392Y-89215392D01*
X99802679Y-89354371D01*
X99802679Y-89354372D01*
X99848424Y-89505173D01*
X99863870Y-89662000D01*
X99848424Y-89818827D01*
X99837570Y-89854608D01*
X99802679Y-89969629D01*
X99728392Y-90108608D01*
X99628422Y-90230422D01*
X99506608Y-90330392D01*
X99367629Y-90404679D01*
X99293146Y-90427273D01*
X99216827Y-90450424D01*
X99185575Y-90453502D01*
X99099295Y-90462000D01*
X99020705Y-90462000D01*
X98934425Y-90453502D01*
X98903173Y-90450424D01*
X98826854Y-90427273D01*
X98752371Y-90404679D01*
X98613392Y-90330392D01*
X98491578Y-90230422D01*
X98391608Y-90108608D01*
X98317321Y-89969629D01*
X98282430Y-89854608D01*
X98271576Y-89818827D01*
X98256130Y-89662000D01*
X98271576Y-89505173D01*
X98317321Y-89354372D01*
X98317321Y-89354371D01*
X98391608Y-89215392D01*
X98491578Y-89093578D01*
X98613392Y-88993608D01*
X98752371Y-88919321D01*
X98864643Y-88885264D01*
X98903173Y-88873576D01*
X98942351Y-88869717D01*
X99020705Y-88862000D01*
X99099295Y-88862000D01*
X99177649Y-88869717D01*
X99177649Y-88869717D01*
G37*
G36*
X91557649Y-88869717D02*
X91596827Y-88873576D01*
X91635357Y-88885264D01*
X91747629Y-88919321D01*
X91886608Y-88993608D01*
X92008422Y-89093578D01*
X92108392Y-89215392D01*
X92182679Y-89354371D01*
X92182679Y-89354372D01*
X92228424Y-89505173D01*
X92243870Y-89662000D01*
X92228424Y-89818827D01*
X92217570Y-89854608D01*
X92182679Y-89969629D01*
X92108392Y-90108608D01*
X92008422Y-90230422D01*
X91886608Y-90330392D01*
X91747629Y-90404679D01*
X91673146Y-90427273D01*
X91596827Y-90450424D01*
X91565575Y-90453502D01*
X91479295Y-90462000D01*
X91400705Y-90462000D01*
X91314425Y-90453502D01*
X91283173Y-90450424D01*
X91206854Y-90427273D01*
X91132371Y-90404679D01*
X90993392Y-90330392D01*
X90871578Y-90230422D01*
X90771608Y-90108608D01*
X90697321Y-89969629D01*
X90662430Y-89854608D01*
X90651576Y-89818827D01*
X90636130Y-89662000D01*
X90651576Y-89505173D01*
X90697321Y-89354372D01*
X90697321Y-89354371D01*
X90771608Y-89215392D01*
X90871578Y-89093578D01*
X90993392Y-88993608D01*
X91132371Y-88919321D01*
X91244643Y-88885264D01*
X91283173Y-88873576D01*
X91322351Y-88869717D01*
X91400705Y-88862000D01*
X91479295Y-88862000D01*
X91557649Y-88869717D01*
X91557649Y-88869717D01*
G37*
G36*
X124548000Y-90258000D02*
X122848000Y-90258000D01*
X122848000Y-88558000D01*
X124548000Y-88558000D01*
X124548000Y-90258000D01*
X124548000Y-90258000D01*
G37*
G36*
X103495649Y-88615717D02*
X103534827Y-88619576D01*
X103610228Y-88642449D01*
X103685629Y-88665321D01*
X103824608Y-88739608D01*
X103946422Y-88839578D01*
X104046392Y-88961392D01*
X104120679Y-89100371D01*
X104120679Y-89100372D01*
X104155571Y-89215394D01*
X104166424Y-89251174D01*
X104181870Y-89408000D01*
X104166424Y-89564826D01*
X104120679Y-89715629D01*
X104046392Y-89854608D01*
X103946422Y-89976422D01*
X103824608Y-90076392D01*
X103685629Y-90150679D01*
X103610227Y-90173552D01*
X103534827Y-90196424D01*
X103495649Y-90200283D01*
X103417295Y-90208000D01*
X103338705Y-90208000D01*
X103260351Y-90200283D01*
X103221173Y-90196424D01*
X103145773Y-90173552D01*
X103070371Y-90150679D01*
X102931392Y-90076392D01*
X102809578Y-89976422D01*
X102709608Y-89854608D01*
X102635321Y-89715629D01*
X102589576Y-89564826D01*
X102574130Y-89408000D01*
X102589576Y-89251174D01*
X102600430Y-89215394D01*
X102635321Y-89100372D01*
X102635321Y-89100371D01*
X102709608Y-88961392D01*
X102809578Y-88839578D01*
X102931392Y-88739608D01*
X103070371Y-88665321D01*
X103145772Y-88642449D01*
X103221173Y-88619576D01*
X103260351Y-88615717D01*
X103338705Y-88608000D01*
X103417295Y-88608000D01*
X103495649Y-88615717D01*
X103495649Y-88615717D01*
G37*
G36*
X116195649Y-88615717D02*
X116234827Y-88619576D01*
X116310228Y-88642449D01*
X116385629Y-88665321D01*
X116524608Y-88739608D01*
X116646422Y-88839578D01*
X116746392Y-88961392D01*
X116820679Y-89100371D01*
X116820679Y-89100372D01*
X116855571Y-89215394D01*
X116866424Y-89251174D01*
X116881870Y-89408000D01*
X116866424Y-89564826D01*
X116820679Y-89715629D01*
X116746392Y-89854608D01*
X116646422Y-89976422D01*
X116524608Y-90076392D01*
X116385629Y-90150679D01*
X116310227Y-90173552D01*
X116234827Y-90196424D01*
X116195649Y-90200283D01*
X116117295Y-90208000D01*
X116038705Y-90208000D01*
X115960351Y-90200283D01*
X115921173Y-90196424D01*
X115845773Y-90173552D01*
X115770371Y-90150679D01*
X115631392Y-90076392D01*
X115509578Y-89976422D01*
X115409608Y-89854608D01*
X115335321Y-89715629D01*
X115289576Y-89564826D01*
X115274130Y-89408000D01*
X115289576Y-89251174D01*
X115300430Y-89215394D01*
X115335321Y-89100372D01*
X115335321Y-89100371D01*
X115409608Y-88961392D01*
X115509578Y-88839578D01*
X115631392Y-88739608D01*
X115770371Y-88665321D01*
X115845772Y-88642449D01*
X115921173Y-88619576D01*
X115960351Y-88615717D01*
X116038705Y-88608000D01*
X116117295Y-88608000D01*
X116195649Y-88615717D01*
X116195649Y-88615717D01*
G37*
G36*
X89126024Y-88780955D02*
X89158736Y-88790879D01*
X89188890Y-88806997D01*
X89215316Y-88828684D01*
X89237003Y-88855110D01*
X89253121Y-88885264D01*
X89263045Y-88917976D01*
X89267000Y-88958138D01*
X89267000Y-89845862D01*
X89263045Y-89886024D01*
X89253121Y-89918736D01*
X89237003Y-89948890D01*
X89215316Y-89975316D01*
X89188890Y-89997003D01*
X89158736Y-90013121D01*
X89126024Y-90023045D01*
X89085862Y-90027000D01*
X87698138Y-90027000D01*
X87657976Y-90023045D01*
X87625264Y-90013121D01*
X87595110Y-89997003D01*
X87568684Y-89975316D01*
X87546997Y-89948890D01*
X87530879Y-89918736D01*
X87520955Y-89886024D01*
X87517000Y-89845862D01*
X87517000Y-88958138D01*
X87520955Y-88917976D01*
X87530879Y-88885264D01*
X87546997Y-88855110D01*
X87568684Y-88828684D01*
X87595110Y-88806997D01*
X87625264Y-88790879D01*
X87657976Y-88780955D01*
X87698138Y-88777000D01*
X89085862Y-88777000D01*
X89126024Y-88780955D01*
X89126024Y-88780955D01*
G37*
G36*
X85002630Y-86284299D02*
X85162855Y-86332903D01*
X85310520Y-86411831D01*
X85439949Y-86518051D01*
X85546169Y-86647480D01*
X85625097Y-86795145D01*
X85673701Y-86955370D01*
X85690112Y-87122000D01*
X85673701Y-87288630D01*
X85625097Y-87448855D01*
X85546169Y-87596520D01*
X85439949Y-87725949D01*
X85310520Y-87832169D01*
X85162855Y-87911097D01*
X85002630Y-87959701D01*
X84877752Y-87972000D01*
X84794248Y-87972000D01*
X84669370Y-87959701D01*
X84509145Y-87911097D01*
X84361480Y-87832169D01*
X84232051Y-87725949D01*
X84125831Y-87596520D01*
X84046903Y-87448855D01*
X83998299Y-87288630D01*
X83981888Y-87122000D01*
X83998299Y-86955370D01*
X84046903Y-86795145D01*
X84125831Y-86647480D01*
X84232051Y-86518051D01*
X84361480Y-86411831D01*
X84509145Y-86332903D01*
X84669370Y-86284299D01*
X84794248Y-86272000D01*
X84877752Y-86272000D01*
X85002630Y-86284299D01*
X85002630Y-86284299D01*
G37*
G36*
X80938630Y-86284299D02*
X81098855Y-86332903D01*
X81246520Y-86411831D01*
X81375949Y-86518051D01*
X81482169Y-86647480D01*
X81561097Y-86795145D01*
X81609701Y-86955370D01*
X81626112Y-87122000D01*
X81609701Y-87288630D01*
X81561097Y-87448855D01*
X81482169Y-87596520D01*
X81375949Y-87725949D01*
X81246520Y-87832169D01*
X81098855Y-87911097D01*
X80938630Y-87959701D01*
X80813752Y-87972000D01*
X80730248Y-87972000D01*
X80605370Y-87959701D01*
X80445145Y-87911097D01*
X80297480Y-87832169D01*
X80168051Y-87725949D01*
X80061831Y-87596520D01*
X79982903Y-87448855D01*
X79934299Y-87288630D01*
X79917888Y-87122000D01*
X79934299Y-86955370D01*
X79982903Y-86795145D01*
X80061831Y-86647480D01*
X80168051Y-86518051D01*
X80297480Y-86411831D01*
X80445145Y-86332903D01*
X80605370Y-86284299D01*
X80730248Y-86272000D01*
X80813752Y-86272000D01*
X80938630Y-86284299D01*
X80938630Y-86284299D01*
G37*
G36*
X91557649Y-86329717D02*
X91596827Y-86333576D01*
X91672227Y-86356448D01*
X91747629Y-86379321D01*
X91886608Y-86453608D01*
X92008422Y-86553578D01*
X92108392Y-86675392D01*
X92182679Y-86814371D01*
X92182679Y-86814372D01*
X92228424Y-86965173D01*
X92243870Y-87122000D01*
X92228424Y-87278827D01*
X92217570Y-87314608D01*
X92182679Y-87429629D01*
X92108392Y-87568608D01*
X92008422Y-87690422D01*
X91886608Y-87790392D01*
X91747629Y-87864679D01*
X91672228Y-87887551D01*
X91596827Y-87910424D01*
X91557649Y-87914283D01*
X91479295Y-87922000D01*
X91400705Y-87922000D01*
X91322351Y-87914283D01*
X91283173Y-87910424D01*
X91207772Y-87887551D01*
X91132371Y-87864679D01*
X90993392Y-87790392D01*
X90871578Y-87690422D01*
X90771608Y-87568608D01*
X90697321Y-87429629D01*
X90662430Y-87314608D01*
X90651576Y-87278827D01*
X90636130Y-87122000D01*
X90651576Y-86965173D01*
X90697321Y-86814372D01*
X90697321Y-86814371D01*
X90771608Y-86675392D01*
X90871578Y-86553578D01*
X90993392Y-86453608D01*
X91132371Y-86379321D01*
X91207773Y-86356448D01*
X91283173Y-86333576D01*
X91322351Y-86329717D01*
X91400705Y-86322000D01*
X91479295Y-86322000D01*
X91557649Y-86329717D01*
X91557649Y-86329717D01*
G37*
G36*
X99177649Y-86329717D02*
X99216827Y-86333576D01*
X99292227Y-86356448D01*
X99367629Y-86379321D01*
X99506608Y-86453608D01*
X99628422Y-86553578D01*
X99728392Y-86675392D01*
X99802679Y-86814371D01*
X99802679Y-86814372D01*
X99848424Y-86965173D01*
X99863870Y-87122000D01*
X99848424Y-87278827D01*
X99837570Y-87314608D01*
X99802679Y-87429629D01*
X99728392Y-87568608D01*
X99628422Y-87690422D01*
X99506608Y-87790392D01*
X99367629Y-87864679D01*
X99292228Y-87887551D01*
X99216827Y-87910424D01*
X99177649Y-87914283D01*
X99099295Y-87922000D01*
X99020705Y-87922000D01*
X98942351Y-87914283D01*
X98903173Y-87910424D01*
X98827772Y-87887551D01*
X98752371Y-87864679D01*
X98613392Y-87790392D01*
X98491578Y-87690422D01*
X98391608Y-87568608D01*
X98317321Y-87429629D01*
X98282430Y-87314608D01*
X98271576Y-87278827D01*
X98256130Y-87122000D01*
X98271576Y-86965173D01*
X98317321Y-86814372D01*
X98317321Y-86814371D01*
X98391608Y-86675392D01*
X98491578Y-86553578D01*
X98613392Y-86453608D01*
X98752371Y-86379321D01*
X98827773Y-86356448D01*
X98903173Y-86333576D01*
X98942351Y-86329717D01*
X99020705Y-86322000D01*
X99099295Y-86322000D01*
X99177649Y-86329717D01*
X99177649Y-86329717D01*
G37*
G36*
X123864630Y-86030299D02*
X124024855Y-86078903D01*
X124172520Y-86157831D01*
X124301949Y-86264051D01*
X124408169Y-86393480D01*
X124487097Y-86541145D01*
X124535701Y-86701370D01*
X124552112Y-86868000D01*
X124535701Y-87034630D01*
X124487097Y-87194855D01*
X124408169Y-87342520D01*
X124301949Y-87471949D01*
X124172520Y-87578169D01*
X124024855Y-87657097D01*
X123864630Y-87705701D01*
X123739752Y-87718000D01*
X123656248Y-87718000D01*
X123531370Y-87705701D01*
X123371145Y-87657097D01*
X123223480Y-87578169D01*
X123094051Y-87471949D01*
X122987831Y-87342520D01*
X122908903Y-87194855D01*
X122860299Y-87034630D01*
X122843888Y-86868000D01*
X122860299Y-86701370D01*
X122908903Y-86541145D01*
X122987831Y-86393480D01*
X123094051Y-86264051D01*
X123223480Y-86157831D01*
X123371145Y-86078903D01*
X123531370Y-86030299D01*
X123656248Y-86018000D01*
X123739752Y-86018000D01*
X123864630Y-86030299D01*
X123864630Y-86030299D01*
G37*
G36*
X116195649Y-86075717D02*
X116234827Y-86079576D01*
X116310228Y-86102449D01*
X116385629Y-86125321D01*
X116524608Y-86199608D01*
X116646422Y-86299578D01*
X116746392Y-86421392D01*
X116820679Y-86560371D01*
X116820679Y-86560372D01*
X116866424Y-86711173D01*
X116881870Y-86868000D01*
X116866424Y-87024827D01*
X116863450Y-87034630D01*
X116820679Y-87175629D01*
X116746392Y-87314608D01*
X116646422Y-87436422D01*
X116524608Y-87536392D01*
X116385629Y-87610679D01*
X116310227Y-87633552D01*
X116234827Y-87656424D01*
X116195649Y-87660283D01*
X116117295Y-87668000D01*
X116038705Y-87668000D01*
X115960351Y-87660283D01*
X115921173Y-87656424D01*
X115845773Y-87633552D01*
X115770371Y-87610679D01*
X115631392Y-87536392D01*
X115509578Y-87436422D01*
X115409608Y-87314608D01*
X115335321Y-87175629D01*
X115292550Y-87034630D01*
X115289576Y-87024827D01*
X115274130Y-86868000D01*
X115289576Y-86711173D01*
X115335321Y-86560372D01*
X115335321Y-86560371D01*
X115409608Y-86421392D01*
X115509578Y-86299578D01*
X115631392Y-86199608D01*
X115770371Y-86125321D01*
X115845772Y-86102449D01*
X115921173Y-86079576D01*
X115960351Y-86075717D01*
X116038705Y-86068000D01*
X116117295Y-86068000D01*
X116195649Y-86075717D01*
X116195649Y-86075717D01*
G37*
G36*
X103495649Y-86075717D02*
X103534827Y-86079576D01*
X103610228Y-86102449D01*
X103685629Y-86125321D01*
X103824608Y-86199608D01*
X103946422Y-86299578D01*
X104046392Y-86421392D01*
X104120679Y-86560371D01*
X104120679Y-86560372D01*
X104166424Y-86711173D01*
X104181870Y-86868000D01*
X104166424Y-87024827D01*
X104163450Y-87034630D01*
X104120679Y-87175629D01*
X104046392Y-87314608D01*
X103946422Y-87436422D01*
X103824608Y-87536392D01*
X103685629Y-87610679D01*
X103610227Y-87633552D01*
X103534827Y-87656424D01*
X103495649Y-87660283D01*
X103417295Y-87668000D01*
X103338705Y-87668000D01*
X103260351Y-87660283D01*
X103221173Y-87656424D01*
X103145773Y-87633552D01*
X103070371Y-87610679D01*
X102931392Y-87536392D01*
X102809578Y-87436422D01*
X102709608Y-87314608D01*
X102635321Y-87175629D01*
X102592550Y-87034630D01*
X102589576Y-87024827D01*
X102574130Y-86868000D01*
X102589576Y-86711173D01*
X102635321Y-86560372D01*
X102635321Y-86560371D01*
X102709608Y-86421392D01*
X102809578Y-86299578D01*
X102931392Y-86199608D01*
X103070371Y-86125321D01*
X103145772Y-86102449D01*
X103221173Y-86079576D01*
X103260351Y-86075717D01*
X103338705Y-86068000D01*
X103417295Y-86068000D01*
X103495649Y-86075717D01*
X103495649Y-86075717D01*
G37*
G36*
X113006964Y-86232337D02*
X113038528Y-86241912D01*
X113067617Y-86257460D01*
X113093114Y-86278386D01*
X113114040Y-86303883D01*
X113129588Y-86332972D01*
X113139163Y-86364536D01*
X113143000Y-86403498D01*
X113143000Y-87478502D01*
X113139163Y-87517464D01*
X113129588Y-87549028D01*
X113114040Y-87578117D01*
X113093114Y-87603614D01*
X113067617Y-87624540D01*
X113038528Y-87640088D01*
X113006964Y-87649663D01*
X112968002Y-87653500D01*
X111567998Y-87653500D01*
X111529036Y-87649663D01*
X111497472Y-87640088D01*
X111468383Y-87624540D01*
X111442886Y-87603614D01*
X111421960Y-87578117D01*
X111406412Y-87549028D01*
X111396837Y-87517464D01*
X111393000Y-87478502D01*
X111393000Y-86403498D01*
X111396837Y-86364536D01*
X111406412Y-86332972D01*
X111421960Y-86303883D01*
X111442886Y-86278386D01*
X111468383Y-86257460D01*
X111497472Y-86241912D01*
X111529036Y-86232337D01*
X111567998Y-86228500D01*
X112968002Y-86228500D01*
X113006964Y-86232337D01*
X113006964Y-86232337D01*
G37*
G36*
X110466964Y-86232337D02*
X110498528Y-86241912D01*
X110527617Y-86257460D01*
X110553114Y-86278386D01*
X110574040Y-86303883D01*
X110589588Y-86332972D01*
X110599163Y-86364536D01*
X110603000Y-86403498D01*
X110603000Y-87478502D01*
X110599163Y-87517464D01*
X110589588Y-87549028D01*
X110574040Y-87578117D01*
X110553114Y-87603614D01*
X110527617Y-87624540D01*
X110498528Y-87640088D01*
X110466964Y-87649663D01*
X110428002Y-87653500D01*
X109027998Y-87653500D01*
X108989036Y-87649663D01*
X108957472Y-87640088D01*
X108928383Y-87624540D01*
X108902886Y-87603614D01*
X108881960Y-87578117D01*
X108866412Y-87549028D01*
X108856837Y-87517464D01*
X108853000Y-87478502D01*
X108853000Y-86403498D01*
X108856837Y-86364536D01*
X108866412Y-86332972D01*
X108881960Y-86303883D01*
X108902886Y-86278386D01*
X108928383Y-86257460D01*
X108957472Y-86241912D01*
X108989036Y-86232337D01*
X109027998Y-86228500D01*
X110428002Y-86228500D01*
X110466964Y-86232337D01*
X110466964Y-86232337D01*
G37*
G36*
X107926964Y-86232337D02*
X107958528Y-86241912D01*
X107987617Y-86257460D01*
X108013114Y-86278386D01*
X108034040Y-86303883D01*
X108049588Y-86332972D01*
X108059163Y-86364536D01*
X108063000Y-86403498D01*
X108063000Y-87478502D01*
X108059163Y-87517464D01*
X108049588Y-87549028D01*
X108034040Y-87578117D01*
X108013114Y-87603614D01*
X107987617Y-87624540D01*
X107958528Y-87640088D01*
X107926964Y-87649663D01*
X107888002Y-87653500D01*
X106487998Y-87653500D01*
X106449036Y-87649663D01*
X106417472Y-87640088D01*
X106388383Y-87624540D01*
X106362886Y-87603614D01*
X106341960Y-87578117D01*
X106326412Y-87549028D01*
X106316837Y-87517464D01*
X106313000Y-87478502D01*
X106313000Y-86403498D01*
X106316837Y-86364536D01*
X106326412Y-86332972D01*
X106341960Y-86303883D01*
X106362886Y-86278386D01*
X106388383Y-86257460D01*
X106417472Y-86241912D01*
X106449036Y-86232337D01*
X106487998Y-86228500D01*
X107888002Y-86228500D01*
X107926964Y-86232337D01*
X107926964Y-86232337D01*
G37*
G36*
X85002630Y-83744299D02*
X85162855Y-83792903D01*
X85310520Y-83871831D01*
X85439949Y-83978051D01*
X85546169Y-84107480D01*
X85625097Y-84255145D01*
X85673701Y-84415370D01*
X85690112Y-84582000D01*
X85673701Y-84748630D01*
X85625097Y-84908855D01*
X85546169Y-85056520D01*
X85439949Y-85185949D01*
X85310520Y-85292169D01*
X85162855Y-85371097D01*
X85002630Y-85419701D01*
X84877752Y-85432000D01*
X84794248Y-85432000D01*
X84669370Y-85419701D01*
X84509145Y-85371097D01*
X84361480Y-85292169D01*
X84232051Y-85185949D01*
X84125831Y-85056520D01*
X84046903Y-84908855D01*
X83998299Y-84748630D01*
X83981888Y-84582000D01*
X83998299Y-84415370D01*
X84046903Y-84255145D01*
X84125831Y-84107480D01*
X84232051Y-83978051D01*
X84361480Y-83871831D01*
X84509145Y-83792903D01*
X84669370Y-83744299D01*
X84794248Y-83732000D01*
X84877752Y-83732000D01*
X85002630Y-83744299D01*
X85002630Y-83744299D01*
G37*
G36*
X80938630Y-83744299D02*
X81098855Y-83792903D01*
X81246520Y-83871831D01*
X81375949Y-83978051D01*
X81482169Y-84107480D01*
X81561097Y-84255145D01*
X81609701Y-84415370D01*
X81626112Y-84582000D01*
X81609701Y-84748630D01*
X81561097Y-84908855D01*
X81482169Y-85056520D01*
X81375949Y-85185949D01*
X81246520Y-85292169D01*
X81098855Y-85371097D01*
X80938630Y-85419701D01*
X80813752Y-85432000D01*
X80730248Y-85432000D01*
X80605370Y-85419701D01*
X80445145Y-85371097D01*
X80297480Y-85292169D01*
X80168051Y-85185949D01*
X80061831Y-85056520D01*
X79982903Y-84908855D01*
X79934299Y-84748630D01*
X79917888Y-84582000D01*
X79934299Y-84415370D01*
X79982903Y-84255145D01*
X80061831Y-84107480D01*
X80168051Y-83978051D01*
X80297480Y-83871831D01*
X80445145Y-83792903D01*
X80605370Y-83744299D01*
X80730248Y-83732000D01*
X80813752Y-83732000D01*
X80938630Y-83744299D01*
X80938630Y-83744299D01*
G37*
G36*
X99177649Y-83789717D02*
X99216827Y-83793576D01*
X99292228Y-83816449D01*
X99367629Y-83839321D01*
X99506608Y-83913608D01*
X99628422Y-84013578D01*
X99728392Y-84135392D01*
X99802679Y-84274371D01*
X99802679Y-84274372D01*
X99848424Y-84425173D01*
X99863870Y-84582000D01*
X99848424Y-84738827D01*
X99837570Y-84774608D01*
X99802679Y-84889629D01*
X99728392Y-85028608D01*
X99628422Y-85150422D01*
X99506608Y-85250392D01*
X99367629Y-85324679D01*
X99292227Y-85347552D01*
X99216827Y-85370424D01*
X99177649Y-85374283D01*
X99099295Y-85382000D01*
X99020705Y-85382000D01*
X98942351Y-85374283D01*
X98903173Y-85370424D01*
X98827773Y-85347552D01*
X98752371Y-85324679D01*
X98613392Y-85250392D01*
X98491578Y-85150422D01*
X98391608Y-85028608D01*
X98317321Y-84889629D01*
X98282430Y-84774608D01*
X98271576Y-84738827D01*
X98256130Y-84582000D01*
X98271576Y-84425173D01*
X98317321Y-84274372D01*
X98317321Y-84274371D01*
X98391608Y-84135392D01*
X98491578Y-84013578D01*
X98613392Y-83913608D01*
X98752371Y-83839321D01*
X98827772Y-83816449D01*
X98903173Y-83793576D01*
X98942351Y-83789717D01*
X99020705Y-83782000D01*
X99099295Y-83782000D01*
X99177649Y-83789717D01*
X99177649Y-83789717D01*
G37*
G36*
X91557649Y-83789717D02*
X91596827Y-83793576D01*
X91672228Y-83816449D01*
X91747629Y-83839321D01*
X91886608Y-83913608D01*
X92008422Y-84013578D01*
X92108392Y-84135392D01*
X92182679Y-84274371D01*
X92182679Y-84274372D01*
X92228424Y-84425173D01*
X92243870Y-84582000D01*
X92228424Y-84738827D01*
X92217570Y-84774608D01*
X92182679Y-84889629D01*
X92108392Y-85028608D01*
X92008422Y-85150422D01*
X91886608Y-85250392D01*
X91747629Y-85324679D01*
X91672227Y-85347552D01*
X91596827Y-85370424D01*
X91557649Y-85374283D01*
X91479295Y-85382000D01*
X91400705Y-85382000D01*
X91322351Y-85374283D01*
X91283173Y-85370424D01*
X91207773Y-85347552D01*
X91132371Y-85324679D01*
X90993392Y-85250392D01*
X90871578Y-85150422D01*
X90771608Y-85028608D01*
X90697321Y-84889629D01*
X90662430Y-84774608D01*
X90651576Y-84738827D01*
X90636130Y-84582000D01*
X90651576Y-84425173D01*
X90697321Y-84274372D01*
X90697321Y-84274371D01*
X90771608Y-84135392D01*
X90871578Y-84013578D01*
X90993392Y-83913608D01*
X91132371Y-83839321D01*
X91207772Y-83816449D01*
X91283173Y-83793576D01*
X91322351Y-83789717D01*
X91400705Y-83782000D01*
X91479295Y-83782000D01*
X91557649Y-83789717D01*
X91557649Y-83789717D01*
G37*
G36*
X89130964Y-83873337D02*
X89162528Y-83882912D01*
X89191617Y-83898460D01*
X89217114Y-83919386D01*
X89238040Y-83944883D01*
X89253588Y-83973972D01*
X89263163Y-84005536D01*
X89267000Y-84044498D01*
X89267000Y-85119502D01*
X89263163Y-85158464D01*
X89253588Y-85190028D01*
X89238040Y-85219117D01*
X89217114Y-85244614D01*
X89191617Y-85265540D01*
X89162528Y-85281088D01*
X89130964Y-85290663D01*
X89092002Y-85294500D01*
X87691998Y-85294500D01*
X87653036Y-85290663D01*
X87621472Y-85281088D01*
X87592383Y-85265540D01*
X87566886Y-85244614D01*
X87545960Y-85219117D01*
X87530412Y-85190028D01*
X87520837Y-85158464D01*
X87517000Y-85119502D01*
X87517000Y-84044498D01*
X87520837Y-84005536D01*
X87530412Y-83973972D01*
X87545960Y-83944883D01*
X87566886Y-83919386D01*
X87592383Y-83898460D01*
X87621472Y-83882912D01*
X87653036Y-83873337D01*
X87691998Y-83869500D01*
X89092002Y-83869500D01*
X89130964Y-83873337D01*
X89130964Y-83873337D01*
G37*
G36*
X123864630Y-83490299D02*
X124024855Y-83538903D01*
X124172520Y-83617831D01*
X124301949Y-83724051D01*
X124408169Y-83853480D01*
X124487097Y-84001145D01*
X124535701Y-84161370D01*
X124552112Y-84328000D01*
X124535701Y-84494630D01*
X124487097Y-84654855D01*
X124408169Y-84802520D01*
X124301949Y-84931949D01*
X124172520Y-85038169D01*
X124024855Y-85117097D01*
X123864630Y-85165701D01*
X123739752Y-85178000D01*
X123656248Y-85178000D01*
X123531370Y-85165701D01*
X123371145Y-85117097D01*
X123223480Y-85038169D01*
X123094051Y-84931949D01*
X122987831Y-84802520D01*
X122908903Y-84654855D01*
X122860299Y-84494630D01*
X122843888Y-84328000D01*
X122860299Y-84161370D01*
X122908903Y-84001145D01*
X122987831Y-83853480D01*
X123094051Y-83724051D01*
X123223480Y-83617831D01*
X123371145Y-83538903D01*
X123531370Y-83490299D01*
X123656248Y-83478000D01*
X123739752Y-83478000D01*
X123864630Y-83490299D01*
X123864630Y-83490299D01*
G37*
G36*
X116195649Y-83535717D02*
X116234827Y-83539576D01*
X116310227Y-83562448D01*
X116385629Y-83585321D01*
X116524608Y-83659608D01*
X116646422Y-83759578D01*
X116746392Y-83881392D01*
X116820679Y-84020371D01*
X116820679Y-84020372D01*
X116866424Y-84171173D01*
X116881870Y-84328000D01*
X116866424Y-84484827D01*
X116863450Y-84494630D01*
X116820679Y-84635629D01*
X116746392Y-84774608D01*
X116646422Y-84896422D01*
X116524608Y-84996392D01*
X116385629Y-85070679D01*
X116311146Y-85093273D01*
X116234827Y-85116424D01*
X116203575Y-85119502D01*
X116117295Y-85128000D01*
X116038705Y-85128000D01*
X115952425Y-85119502D01*
X115921173Y-85116424D01*
X115844854Y-85093273D01*
X115770371Y-85070679D01*
X115631392Y-84996392D01*
X115509578Y-84896422D01*
X115409608Y-84774608D01*
X115335321Y-84635629D01*
X115292550Y-84494630D01*
X115289576Y-84484827D01*
X115274130Y-84328000D01*
X115289576Y-84171173D01*
X115335321Y-84020372D01*
X115335321Y-84020371D01*
X115409608Y-83881392D01*
X115509578Y-83759578D01*
X115631392Y-83659608D01*
X115770371Y-83585321D01*
X115845773Y-83562448D01*
X115921173Y-83539576D01*
X115960351Y-83535717D01*
X116038705Y-83528000D01*
X116117295Y-83528000D01*
X116195649Y-83535717D01*
X116195649Y-83535717D01*
G37*
G36*
X103495649Y-83535717D02*
X103534827Y-83539576D01*
X103610227Y-83562448D01*
X103685629Y-83585321D01*
X103824608Y-83659608D01*
X103946422Y-83759578D01*
X104046392Y-83881392D01*
X104120679Y-84020371D01*
X104120679Y-84020372D01*
X104166424Y-84171173D01*
X104181870Y-84328000D01*
X104166424Y-84484827D01*
X104163450Y-84494630D01*
X104120679Y-84635629D01*
X104046392Y-84774608D01*
X103946422Y-84896422D01*
X103824608Y-84996392D01*
X103685629Y-85070679D01*
X103611146Y-85093273D01*
X103534827Y-85116424D01*
X103503575Y-85119502D01*
X103417295Y-85128000D01*
X103338705Y-85128000D01*
X103252425Y-85119502D01*
X103221173Y-85116424D01*
X103144854Y-85093273D01*
X103070371Y-85070679D01*
X102931392Y-84996392D01*
X102809578Y-84896422D01*
X102709608Y-84774608D01*
X102635321Y-84635629D01*
X102592550Y-84494630D01*
X102589576Y-84484827D01*
X102574130Y-84328000D01*
X102589576Y-84171173D01*
X102635321Y-84020372D01*
X102635321Y-84020371D01*
X102709608Y-83881392D01*
X102809578Y-83759578D01*
X102931392Y-83659608D01*
X103070371Y-83585321D01*
X103145773Y-83562448D01*
X103221173Y-83539576D01*
X103260351Y-83535717D01*
X103338705Y-83528000D01*
X103417295Y-83528000D01*
X103495649Y-83535717D01*
X103495649Y-83535717D01*
G37*
G36*
X80938630Y-81204299D02*
X81098855Y-81252903D01*
X81246520Y-81331831D01*
X81375949Y-81438051D01*
X81482169Y-81567480D01*
X81561097Y-81715145D01*
X81609701Y-81875370D01*
X81626112Y-82042000D01*
X81609701Y-82208630D01*
X81561097Y-82368855D01*
X81482169Y-82516520D01*
X81375949Y-82645949D01*
X81246520Y-82752169D01*
X81098855Y-82831097D01*
X80938630Y-82879701D01*
X80813752Y-82892000D01*
X80730248Y-82892000D01*
X80605370Y-82879701D01*
X80445145Y-82831097D01*
X80297480Y-82752169D01*
X80168051Y-82645949D01*
X80061831Y-82516520D01*
X79982903Y-82368855D01*
X79934299Y-82208630D01*
X79917888Y-82042000D01*
X79934299Y-81875370D01*
X79982903Y-81715145D01*
X80061831Y-81567480D01*
X80168051Y-81438051D01*
X80297480Y-81331831D01*
X80445145Y-81252903D01*
X80605370Y-81204299D01*
X80730248Y-81192000D01*
X80813752Y-81192000D01*
X80938630Y-81204299D01*
X80938630Y-81204299D01*
G37*
G36*
X85002630Y-81204299D02*
X85162855Y-81252903D01*
X85310520Y-81331831D01*
X85439949Y-81438051D01*
X85546169Y-81567480D01*
X85625097Y-81715145D01*
X85673701Y-81875370D01*
X85690112Y-82042000D01*
X85673701Y-82208630D01*
X85625097Y-82368855D01*
X85546169Y-82516520D01*
X85439949Y-82645949D01*
X85310520Y-82752169D01*
X85162855Y-82831097D01*
X85002630Y-82879701D01*
X84877752Y-82892000D01*
X84794248Y-82892000D01*
X84669370Y-82879701D01*
X84509145Y-82831097D01*
X84361480Y-82752169D01*
X84232051Y-82645949D01*
X84125831Y-82516520D01*
X84046903Y-82368855D01*
X83998299Y-82208630D01*
X83981888Y-82042000D01*
X83998299Y-81875370D01*
X84046903Y-81715145D01*
X84125831Y-81567480D01*
X84232051Y-81438051D01*
X84361480Y-81331831D01*
X84509145Y-81252903D01*
X84669370Y-81204299D01*
X84794248Y-81192000D01*
X84877752Y-81192000D01*
X85002630Y-81204299D01*
X85002630Y-81204299D01*
G37*
G36*
X91557649Y-81249717D02*
X91596827Y-81253576D01*
X91672227Y-81276448D01*
X91747629Y-81299321D01*
X91886608Y-81373608D01*
X92008422Y-81473578D01*
X92108392Y-81595392D01*
X92182679Y-81734371D01*
X92182679Y-81734372D01*
X92228424Y-81885173D01*
X92243870Y-82042000D01*
X92228424Y-82198827D01*
X92217570Y-82234608D01*
X92182679Y-82349629D01*
X92108392Y-82488608D01*
X92008422Y-82610422D01*
X91886608Y-82710392D01*
X91747629Y-82784679D01*
X91672228Y-82807551D01*
X91596827Y-82830424D01*
X91557649Y-82834283D01*
X91479295Y-82842000D01*
X91400705Y-82842000D01*
X91322351Y-82834283D01*
X91283173Y-82830424D01*
X91207772Y-82807551D01*
X91132371Y-82784679D01*
X90993392Y-82710392D01*
X90871578Y-82610422D01*
X90771608Y-82488608D01*
X90697321Y-82349629D01*
X90662430Y-82234608D01*
X90651576Y-82198827D01*
X90636130Y-82042000D01*
X90651576Y-81885173D01*
X90697321Y-81734372D01*
X90697321Y-81734371D01*
X90771608Y-81595392D01*
X90871578Y-81473578D01*
X90993392Y-81373608D01*
X91132371Y-81299321D01*
X91207773Y-81276448D01*
X91283173Y-81253576D01*
X91322351Y-81249717D01*
X91400705Y-81242000D01*
X91479295Y-81242000D01*
X91557649Y-81249717D01*
X91557649Y-81249717D01*
G37*
G36*
X99177649Y-81249717D02*
X99216827Y-81253576D01*
X99292227Y-81276448D01*
X99367629Y-81299321D01*
X99506608Y-81373608D01*
X99628422Y-81473578D01*
X99728392Y-81595392D01*
X99802679Y-81734371D01*
X99802679Y-81734372D01*
X99848424Y-81885173D01*
X99863870Y-82042000D01*
X99848424Y-82198827D01*
X99837570Y-82234608D01*
X99802679Y-82349629D01*
X99728392Y-82488608D01*
X99628422Y-82610422D01*
X99506608Y-82710392D01*
X99367629Y-82784679D01*
X99292228Y-82807551D01*
X99216827Y-82830424D01*
X99177649Y-82834283D01*
X99099295Y-82842000D01*
X99020705Y-82842000D01*
X98942351Y-82834283D01*
X98903173Y-82830424D01*
X98827772Y-82807551D01*
X98752371Y-82784679D01*
X98613392Y-82710392D01*
X98491578Y-82610422D01*
X98391608Y-82488608D01*
X98317321Y-82349629D01*
X98282430Y-82234608D01*
X98271576Y-82198827D01*
X98256130Y-82042000D01*
X98271576Y-81885173D01*
X98317321Y-81734372D01*
X98317321Y-81734371D01*
X98391608Y-81595392D01*
X98491578Y-81473578D01*
X98613392Y-81373608D01*
X98752371Y-81299321D01*
X98827773Y-81276448D01*
X98903173Y-81253576D01*
X98942351Y-81249717D01*
X99020705Y-81242000D01*
X99099295Y-81242000D01*
X99177649Y-81249717D01*
X99177649Y-81249717D01*
G37*
G36*
X123864630Y-80950299D02*
X124024855Y-80998903D01*
X124172520Y-81077831D01*
X124301949Y-81184051D01*
X124408169Y-81313480D01*
X124487097Y-81461145D01*
X124535701Y-81621370D01*
X124552112Y-81788000D01*
X124535701Y-81954630D01*
X124487097Y-82114855D01*
X124408169Y-82262520D01*
X124301949Y-82391949D01*
X124172520Y-82498169D01*
X124024855Y-82577097D01*
X123864630Y-82625701D01*
X123739752Y-82638000D01*
X123656248Y-82638000D01*
X123531370Y-82625701D01*
X123371145Y-82577097D01*
X123223480Y-82498169D01*
X123094051Y-82391949D01*
X122987831Y-82262520D01*
X122908903Y-82114855D01*
X122860299Y-81954630D01*
X122843888Y-81788000D01*
X122860299Y-81621370D01*
X122908903Y-81461145D01*
X122987831Y-81313480D01*
X123094051Y-81184051D01*
X123223480Y-81077831D01*
X123371145Y-80998903D01*
X123531370Y-80950299D01*
X123656248Y-80938000D01*
X123739752Y-80938000D01*
X123864630Y-80950299D01*
X123864630Y-80950299D01*
G37*
G36*
X116195649Y-80995717D02*
X116234827Y-80999576D01*
X116310228Y-81022449D01*
X116385629Y-81045321D01*
X116524608Y-81119608D01*
X116646422Y-81219578D01*
X116746392Y-81341392D01*
X116820679Y-81480371D01*
X116820679Y-81480372D01*
X116866424Y-81631173D01*
X116881870Y-81788000D01*
X116866424Y-81944827D01*
X116863450Y-81954630D01*
X116820679Y-82095629D01*
X116746392Y-82234608D01*
X116646422Y-82356422D01*
X116524608Y-82456392D01*
X116385629Y-82530679D01*
X116310228Y-82553551D01*
X116234827Y-82576424D01*
X116195649Y-82580283D01*
X116117295Y-82588000D01*
X116038705Y-82588000D01*
X115960351Y-82580283D01*
X115921173Y-82576424D01*
X115845772Y-82553551D01*
X115770371Y-82530679D01*
X115631392Y-82456392D01*
X115509578Y-82356422D01*
X115409608Y-82234608D01*
X115335321Y-82095629D01*
X115292550Y-81954630D01*
X115289576Y-81944827D01*
X115274130Y-81788000D01*
X115289576Y-81631173D01*
X115335321Y-81480372D01*
X115335321Y-81480371D01*
X115409608Y-81341392D01*
X115509578Y-81219578D01*
X115631392Y-81119608D01*
X115770371Y-81045321D01*
X115845773Y-81022448D01*
X115921173Y-80999576D01*
X115960351Y-80995717D01*
X116038705Y-80988000D01*
X116117295Y-80988000D01*
X116195649Y-80995717D01*
X116195649Y-80995717D01*
G37*
G36*
X103495649Y-80995717D02*
X103534827Y-80999576D01*
X103610228Y-81022449D01*
X103685629Y-81045321D01*
X103824608Y-81119608D01*
X103946422Y-81219578D01*
X104046392Y-81341392D01*
X104120679Y-81480371D01*
X104120679Y-81480372D01*
X104166424Y-81631173D01*
X104181870Y-81788000D01*
X104166424Y-81944827D01*
X104163450Y-81954630D01*
X104120679Y-82095629D01*
X104046392Y-82234608D01*
X103946422Y-82356422D01*
X103824608Y-82456392D01*
X103685629Y-82530679D01*
X103610228Y-82553551D01*
X103534827Y-82576424D01*
X103495649Y-82580283D01*
X103417295Y-82588000D01*
X103338705Y-82588000D01*
X103260351Y-82580283D01*
X103221173Y-82576424D01*
X103145772Y-82553551D01*
X103070371Y-82530679D01*
X102931392Y-82456392D01*
X102809578Y-82356422D01*
X102709608Y-82234608D01*
X102635321Y-82095629D01*
X102592550Y-81954630D01*
X102589576Y-81944827D01*
X102574130Y-81788000D01*
X102589576Y-81631173D01*
X102635321Y-81480372D01*
X102635321Y-81480371D01*
X102709608Y-81341392D01*
X102809578Y-81219578D01*
X102931392Y-81119608D01*
X103070371Y-81045321D01*
X103145773Y-81022448D01*
X103221173Y-80999576D01*
X103260351Y-80995717D01*
X103338705Y-80988000D01*
X103417295Y-80988000D01*
X103495649Y-80995717D01*
X103495649Y-80995717D01*
G37*
G36*
X89130964Y-80898337D02*
X89162528Y-80907912D01*
X89191617Y-80923460D01*
X89217114Y-80944386D01*
X89238040Y-80969883D01*
X89253588Y-80998972D01*
X89263163Y-81030536D01*
X89267000Y-81069498D01*
X89267000Y-82144502D01*
X89263163Y-82183464D01*
X89253588Y-82215028D01*
X89238040Y-82244117D01*
X89217114Y-82269614D01*
X89191617Y-82290540D01*
X89162528Y-82306088D01*
X89130964Y-82315663D01*
X89092002Y-82319500D01*
X87691998Y-82319500D01*
X87653036Y-82315663D01*
X87621472Y-82306088D01*
X87592383Y-82290540D01*
X87566886Y-82269614D01*
X87545960Y-82244117D01*
X87530412Y-82215028D01*
X87520837Y-82183464D01*
X87517000Y-82144502D01*
X87517000Y-81069498D01*
X87520837Y-81030536D01*
X87530412Y-80998972D01*
X87545960Y-80969883D01*
X87566886Y-80944386D01*
X87592383Y-80923460D01*
X87621472Y-80907912D01*
X87653036Y-80898337D01*
X87691998Y-80894500D01*
X89092002Y-80894500D01*
X89130964Y-80898337D01*
X89130964Y-80898337D01*
G37*
G36*
X111739352Y-78986743D02*
X111884941Y-79047048D01*
X112015973Y-79134601D01*
X112127399Y-79246027D01*
X112214952Y-79377059D01*
X112275257Y-79522648D01*
X112306000Y-79677205D01*
X112306000Y-79834795D01*
X112275257Y-79989352D01*
X112214952Y-80134941D01*
X112127399Y-80265973D01*
X112015973Y-80377399D01*
X111884941Y-80464952D01*
X111739352Y-80525257D01*
X111584795Y-80556000D01*
X111427205Y-80556000D01*
X111272648Y-80525257D01*
X111127059Y-80464952D01*
X110996027Y-80377399D01*
X110884601Y-80265973D01*
X110797048Y-80134941D01*
X110736743Y-79989352D01*
X110706000Y-79834795D01*
X110706000Y-79677205D01*
X110736743Y-79522648D01*
X110797048Y-79377059D01*
X110884601Y-79246027D01*
X110996027Y-79134601D01*
X111127059Y-79047048D01*
X111272648Y-78986743D01*
X111427205Y-78956000D01*
X111584795Y-78956000D01*
X111739352Y-78986743D01*
X111739352Y-78986743D01*
G37*
G36*
X108239352Y-78986743D02*
X108384941Y-79047048D01*
X108515973Y-79134601D01*
X108627399Y-79246027D01*
X108714952Y-79377059D01*
X108775257Y-79522648D01*
X108806000Y-79677205D01*
X108806000Y-79834795D01*
X108775257Y-79989352D01*
X108714952Y-80134941D01*
X108627399Y-80265973D01*
X108515973Y-80377399D01*
X108384941Y-80464952D01*
X108239352Y-80525257D01*
X108084795Y-80556000D01*
X107927205Y-80556000D01*
X107772648Y-80525257D01*
X107627059Y-80464952D01*
X107496027Y-80377399D01*
X107384601Y-80265973D01*
X107297048Y-80134941D01*
X107236743Y-79989352D01*
X107206000Y-79834795D01*
X107206000Y-79677205D01*
X107236743Y-79522648D01*
X107297048Y-79377059D01*
X107384601Y-79246027D01*
X107496027Y-79134601D01*
X107627059Y-79047048D01*
X107772648Y-78986743D01*
X107927205Y-78956000D01*
X108084795Y-78956000D01*
X108239352Y-78986743D01*
X108239352Y-78986743D01*
G37*
G36*
X80938630Y-78664299D02*
X81098855Y-78712903D01*
X81246520Y-78791831D01*
X81375949Y-78898051D01*
X81482169Y-79027480D01*
X81561097Y-79175145D01*
X81609701Y-79335370D01*
X81626112Y-79502000D01*
X81609701Y-79668630D01*
X81561097Y-79828855D01*
X81482169Y-79976520D01*
X81375949Y-80105949D01*
X81246520Y-80212169D01*
X81098855Y-80291097D01*
X80938630Y-80339701D01*
X80813752Y-80352000D01*
X80730248Y-80352000D01*
X80605370Y-80339701D01*
X80445145Y-80291097D01*
X80297480Y-80212169D01*
X80168051Y-80105949D01*
X80061831Y-79976520D01*
X79982903Y-79828855D01*
X79934299Y-79668630D01*
X79917888Y-79502000D01*
X79934299Y-79335370D01*
X79982903Y-79175145D01*
X80061831Y-79027480D01*
X80168051Y-78898051D01*
X80297480Y-78791831D01*
X80445145Y-78712903D01*
X80605370Y-78664299D01*
X80730248Y-78652000D01*
X80813752Y-78652000D01*
X80938630Y-78664299D01*
X80938630Y-78664299D01*
G37*
G36*
X85002630Y-78664299D02*
X85162855Y-78712903D01*
X85310520Y-78791831D01*
X85439949Y-78898051D01*
X85546169Y-79027480D01*
X85625097Y-79175145D01*
X85673701Y-79335370D01*
X85690112Y-79502000D01*
X85673701Y-79668630D01*
X85625097Y-79828855D01*
X85546169Y-79976520D01*
X85439949Y-80105949D01*
X85310520Y-80212169D01*
X85162855Y-80291097D01*
X85002630Y-80339701D01*
X84877752Y-80352000D01*
X84794248Y-80352000D01*
X84669370Y-80339701D01*
X84509145Y-80291097D01*
X84361480Y-80212169D01*
X84232051Y-80105949D01*
X84125831Y-79976520D01*
X84046903Y-79828855D01*
X83998299Y-79668630D01*
X83981888Y-79502000D01*
X83998299Y-79335370D01*
X84046903Y-79175145D01*
X84125831Y-79027480D01*
X84232051Y-78898051D01*
X84361480Y-78791831D01*
X84509145Y-78712903D01*
X84669370Y-78664299D01*
X84794248Y-78652000D01*
X84877752Y-78652000D01*
X85002630Y-78664299D01*
X85002630Y-78664299D01*
G37*
G36*
X91557649Y-78709717D02*
X91596827Y-78713576D01*
X91672228Y-78736449D01*
X91747629Y-78759321D01*
X91886608Y-78833608D01*
X92008422Y-78933578D01*
X92108392Y-79055392D01*
X92182679Y-79194371D01*
X92182679Y-79194372D01*
X92228424Y-79345173D01*
X92243870Y-79502000D01*
X92228424Y-79658827D01*
X92217570Y-79694608D01*
X92182679Y-79809629D01*
X92108392Y-79948608D01*
X92008422Y-80070422D01*
X91886608Y-80170392D01*
X91747629Y-80244679D01*
X91677441Y-80265970D01*
X91596827Y-80290424D01*
X91557649Y-80294283D01*
X91479295Y-80302000D01*
X91400705Y-80302000D01*
X91322351Y-80294283D01*
X91283173Y-80290424D01*
X91202559Y-80265970D01*
X91132371Y-80244679D01*
X90993392Y-80170392D01*
X90871578Y-80070422D01*
X90771608Y-79948608D01*
X90697321Y-79809629D01*
X90662430Y-79694608D01*
X90651576Y-79658827D01*
X90636130Y-79502000D01*
X90651576Y-79345173D01*
X90697321Y-79194372D01*
X90697321Y-79194371D01*
X90771608Y-79055392D01*
X90871578Y-78933578D01*
X90993392Y-78833608D01*
X91132371Y-78759321D01*
X91207772Y-78736449D01*
X91283173Y-78713576D01*
X91322351Y-78709717D01*
X91400705Y-78702000D01*
X91479295Y-78702000D01*
X91557649Y-78709717D01*
X91557649Y-78709717D01*
G37*
G36*
X99177649Y-78709717D02*
X99216827Y-78713576D01*
X99292228Y-78736449D01*
X99367629Y-78759321D01*
X99506608Y-78833608D01*
X99628422Y-78933578D01*
X99728392Y-79055392D01*
X99802679Y-79194371D01*
X99802679Y-79194372D01*
X99848424Y-79345173D01*
X99863870Y-79502000D01*
X99848424Y-79658827D01*
X99837570Y-79694608D01*
X99802679Y-79809629D01*
X99728392Y-79948608D01*
X99628422Y-80070422D01*
X99506608Y-80170392D01*
X99367629Y-80244679D01*
X99297441Y-80265970D01*
X99216827Y-80290424D01*
X99177649Y-80294283D01*
X99099295Y-80302000D01*
X99020705Y-80302000D01*
X98942351Y-80294283D01*
X98903173Y-80290424D01*
X98822559Y-80265970D01*
X98752371Y-80244679D01*
X98613392Y-80170392D01*
X98491578Y-80070422D01*
X98391608Y-79948608D01*
X98317321Y-79809629D01*
X98282430Y-79694608D01*
X98271576Y-79658827D01*
X98256130Y-79502000D01*
X98271576Y-79345173D01*
X98317321Y-79194372D01*
X98317321Y-79194371D01*
X98391608Y-79055392D01*
X98491578Y-78933578D01*
X98613392Y-78833608D01*
X98752371Y-78759321D01*
X98827772Y-78736449D01*
X98903173Y-78713576D01*
X98942351Y-78709717D01*
X99020705Y-78702000D01*
X99099295Y-78702000D01*
X99177649Y-78709717D01*
X99177649Y-78709717D01*
G37*
G36*
X103495649Y-78455717D02*
X103534827Y-78459576D01*
X103610228Y-78482449D01*
X103685629Y-78505321D01*
X103824608Y-78579608D01*
X103946422Y-78679578D01*
X104046392Y-78801392D01*
X104120679Y-78940371D01*
X104143552Y-79015773D01*
X104155571Y-79055394D01*
X104166424Y-79091174D01*
X104181870Y-79248000D01*
X104166424Y-79404826D01*
X104120679Y-79555629D01*
X104046392Y-79694608D01*
X103946422Y-79816422D01*
X103824608Y-79916392D01*
X103685629Y-79990679D01*
X103610228Y-80013551D01*
X103534827Y-80036424D01*
X103495649Y-80040283D01*
X103417295Y-80048000D01*
X103338705Y-80048000D01*
X103260351Y-80040283D01*
X103221173Y-80036424D01*
X103145772Y-80013551D01*
X103070371Y-79990679D01*
X102931392Y-79916392D01*
X102809578Y-79816422D01*
X102709608Y-79694608D01*
X102635321Y-79555629D01*
X102589576Y-79404826D01*
X102574130Y-79248000D01*
X102589576Y-79091174D01*
X102600430Y-79055394D01*
X102612448Y-79015773D01*
X102635321Y-78940371D01*
X102709608Y-78801392D01*
X102809578Y-78679578D01*
X102931392Y-78579608D01*
X103070371Y-78505321D01*
X103145772Y-78482449D01*
X103221173Y-78459576D01*
X103260351Y-78455717D01*
X103338705Y-78448000D01*
X103417295Y-78448000D01*
X103495649Y-78455717D01*
X103495649Y-78455717D01*
G37*
G36*
X116195649Y-78455717D02*
X116234827Y-78459576D01*
X116310228Y-78482449D01*
X116385629Y-78505321D01*
X116524608Y-78579608D01*
X116646422Y-78679578D01*
X116746392Y-78801392D01*
X116820679Y-78940371D01*
X116843552Y-79015773D01*
X116855571Y-79055394D01*
X116866424Y-79091174D01*
X116881870Y-79248000D01*
X116866424Y-79404826D01*
X116820679Y-79555629D01*
X116746392Y-79694608D01*
X116646422Y-79816422D01*
X116524608Y-79916392D01*
X116385629Y-79990679D01*
X116310228Y-80013551D01*
X116234827Y-80036424D01*
X116195649Y-80040283D01*
X116117295Y-80048000D01*
X116038705Y-80048000D01*
X115960351Y-80040283D01*
X115921173Y-80036424D01*
X115845772Y-80013551D01*
X115770371Y-79990679D01*
X115631392Y-79916392D01*
X115509578Y-79816422D01*
X115409608Y-79694608D01*
X115335321Y-79555629D01*
X115289576Y-79404826D01*
X115274130Y-79248000D01*
X115289576Y-79091174D01*
X115300430Y-79055394D01*
X115312449Y-79015772D01*
X115335321Y-78940371D01*
X115409608Y-78801392D01*
X115509578Y-78679578D01*
X115631392Y-78579608D01*
X115770371Y-78505321D01*
X115845772Y-78482449D01*
X115921173Y-78459576D01*
X115960351Y-78455717D01*
X116038705Y-78448000D01*
X116117295Y-78448000D01*
X116195649Y-78455717D01*
X116195649Y-78455717D01*
G37*
G36*
X85002630Y-76124299D02*
X85162855Y-76172903D01*
X85310520Y-76251831D01*
X85439949Y-76358051D01*
X85546169Y-76487480D01*
X85625097Y-76635145D01*
X85673701Y-76795370D01*
X85690112Y-76962000D01*
X85673701Y-77128630D01*
X85625097Y-77288855D01*
X85546169Y-77436520D01*
X85439949Y-77565949D01*
X85310520Y-77672169D01*
X85162855Y-77751097D01*
X85002630Y-77799701D01*
X84877752Y-77812000D01*
X84794248Y-77812000D01*
X84669370Y-77799701D01*
X84509145Y-77751097D01*
X84361480Y-77672169D01*
X84232051Y-77565949D01*
X84125831Y-77436520D01*
X84046903Y-77288855D01*
X83998299Y-77128630D01*
X83981888Y-76962000D01*
X83998299Y-76795370D01*
X84046903Y-76635145D01*
X84125831Y-76487480D01*
X84232051Y-76358051D01*
X84361480Y-76251831D01*
X84509145Y-76172903D01*
X84669370Y-76124299D01*
X84794248Y-76112000D01*
X84877752Y-76112000D01*
X85002630Y-76124299D01*
X85002630Y-76124299D01*
G37*
G36*
X123864630Y-76124299D02*
X124024855Y-76172903D01*
X124172520Y-76251831D01*
X124301949Y-76358051D01*
X124408169Y-76487480D01*
X124487097Y-76635145D01*
X124535701Y-76795370D01*
X124552112Y-76962000D01*
X124535701Y-77128630D01*
X124487097Y-77288855D01*
X124408169Y-77436520D01*
X124301949Y-77565949D01*
X124172520Y-77672169D01*
X124024855Y-77751097D01*
X123864630Y-77799701D01*
X123739752Y-77812000D01*
X123656248Y-77812000D01*
X123531370Y-77799701D01*
X123371145Y-77751097D01*
X123223480Y-77672169D01*
X123094051Y-77565949D01*
X122987831Y-77436520D01*
X122908903Y-77288855D01*
X122860299Y-77128630D01*
X122843888Y-76962000D01*
X122860299Y-76795370D01*
X122908903Y-76635145D01*
X122987831Y-76487480D01*
X123094051Y-76358051D01*
X123223480Y-76251831D01*
X123371145Y-76172903D01*
X123531370Y-76124299D01*
X123656248Y-76112000D01*
X123739752Y-76112000D01*
X123864630Y-76124299D01*
X123864630Y-76124299D01*
G37*
G36*
X120054630Y-76124299D02*
X120214855Y-76172903D01*
X120362520Y-76251831D01*
X120491949Y-76358051D01*
X120598169Y-76487480D01*
X120677097Y-76635145D01*
X120725701Y-76795370D01*
X120742112Y-76962000D01*
X120725701Y-77128630D01*
X120677097Y-77288855D01*
X120598169Y-77436520D01*
X120491949Y-77565949D01*
X120362520Y-77672169D01*
X120214855Y-77751097D01*
X120054630Y-77799701D01*
X119929752Y-77812000D01*
X119846248Y-77812000D01*
X119721370Y-77799701D01*
X119561145Y-77751097D01*
X119413480Y-77672169D01*
X119284051Y-77565949D01*
X119177831Y-77436520D01*
X119098903Y-77288855D01*
X119050299Y-77128630D01*
X119033888Y-76962000D01*
X119050299Y-76795370D01*
X119098903Y-76635145D01*
X119177831Y-76487480D01*
X119284051Y-76358051D01*
X119413480Y-76251831D01*
X119561145Y-76172903D01*
X119721370Y-76124299D01*
X119846248Y-76112000D01*
X119929752Y-76112000D01*
X120054630Y-76124299D01*
X120054630Y-76124299D01*
G37*
G36*
X80938630Y-76124299D02*
X81098855Y-76172903D01*
X81246520Y-76251831D01*
X81375949Y-76358051D01*
X81482169Y-76487480D01*
X81561097Y-76635145D01*
X81609701Y-76795370D01*
X81626112Y-76962000D01*
X81609701Y-77128630D01*
X81561097Y-77288855D01*
X81482169Y-77436520D01*
X81375949Y-77565949D01*
X81246520Y-77672169D01*
X81098855Y-77751097D01*
X80938630Y-77799701D01*
X80813752Y-77812000D01*
X80730248Y-77812000D01*
X80605370Y-77799701D01*
X80445145Y-77751097D01*
X80297480Y-77672169D01*
X80168051Y-77565949D01*
X80061831Y-77436520D01*
X79982903Y-77288855D01*
X79934299Y-77128630D01*
X79917888Y-76962000D01*
X79934299Y-76795370D01*
X79982903Y-76635145D01*
X80061831Y-76487480D01*
X80168051Y-76358051D01*
X80297480Y-76251831D01*
X80445145Y-76172903D01*
X80605370Y-76124299D01*
X80730248Y-76112000D01*
X80813752Y-76112000D01*
X80938630Y-76124299D01*
X80938630Y-76124299D01*
G37*
G36*
X91557649Y-76169717D02*
X91596827Y-76173576D01*
X91672227Y-76196448D01*
X91747629Y-76219321D01*
X91886608Y-76293608D01*
X92008422Y-76393578D01*
X92108392Y-76515392D01*
X92182679Y-76654371D01*
X92182679Y-76654372D01*
X92228424Y-76805173D01*
X92243870Y-76962000D01*
X92228424Y-77118827D01*
X92217570Y-77154608D01*
X92182679Y-77269629D01*
X92108392Y-77408608D01*
X92008422Y-77530422D01*
X91886608Y-77630392D01*
X91747629Y-77704679D01*
X91672227Y-77727552D01*
X91596827Y-77750424D01*
X91557649Y-77754283D01*
X91479295Y-77762000D01*
X91400705Y-77762000D01*
X91322351Y-77754283D01*
X91283173Y-77750424D01*
X91207773Y-77727552D01*
X91132371Y-77704679D01*
X90993392Y-77630392D01*
X90871578Y-77530422D01*
X90771608Y-77408608D01*
X90697321Y-77269629D01*
X90662430Y-77154608D01*
X90651576Y-77118827D01*
X90636130Y-76962000D01*
X90651576Y-76805173D01*
X90697321Y-76654372D01*
X90697321Y-76654371D01*
X90771608Y-76515392D01*
X90871578Y-76393578D01*
X90993392Y-76293608D01*
X91132371Y-76219321D01*
X91207772Y-76196449D01*
X91283173Y-76173576D01*
X91322351Y-76169717D01*
X91400705Y-76162000D01*
X91479295Y-76162000D01*
X91557649Y-76169717D01*
X91557649Y-76169717D01*
G37*
G36*
X99177649Y-76169717D02*
X99216827Y-76173576D01*
X99292227Y-76196448D01*
X99367629Y-76219321D01*
X99506608Y-76293608D01*
X99628422Y-76393578D01*
X99728392Y-76515392D01*
X99802679Y-76654371D01*
X99802679Y-76654372D01*
X99848424Y-76805173D01*
X99863870Y-76962000D01*
X99848424Y-77118827D01*
X99837570Y-77154608D01*
X99802679Y-77269629D01*
X99728392Y-77408608D01*
X99628422Y-77530422D01*
X99506608Y-77630392D01*
X99367629Y-77704679D01*
X99292227Y-77727552D01*
X99216827Y-77750424D01*
X99177649Y-77754283D01*
X99099295Y-77762000D01*
X99020705Y-77762000D01*
X98942351Y-77754283D01*
X98903173Y-77750424D01*
X98827773Y-77727552D01*
X98752371Y-77704679D01*
X98613392Y-77630392D01*
X98491578Y-77530422D01*
X98391608Y-77408608D01*
X98317321Y-77269629D01*
X98282430Y-77154608D01*
X98271576Y-77118827D01*
X98256130Y-76962000D01*
X98271576Y-76805173D01*
X98317321Y-76654372D01*
X98317321Y-76654371D01*
X98391608Y-76515392D01*
X98491578Y-76393578D01*
X98613392Y-76293608D01*
X98752371Y-76219321D01*
X98827772Y-76196449D01*
X98903173Y-76173576D01*
X98942351Y-76169717D01*
X99020705Y-76162000D01*
X99099295Y-76162000D01*
X99177649Y-76169717D01*
X99177649Y-76169717D01*
G37*
G36*
X116195649Y-75915717D02*
X116234827Y-75919576D01*
X116310228Y-75942449D01*
X116385629Y-75965321D01*
X116524608Y-76039608D01*
X116646422Y-76139578D01*
X116746392Y-76261392D01*
X116820679Y-76400371D01*
X116820679Y-76400372D01*
X116855571Y-76515394D01*
X116866424Y-76551174D01*
X116881870Y-76708000D01*
X116866424Y-76864826D01*
X116820679Y-77015629D01*
X116746392Y-77154608D01*
X116646422Y-77276422D01*
X116524608Y-77376392D01*
X116385629Y-77450679D01*
X116310228Y-77473551D01*
X116234827Y-77496424D01*
X116195649Y-77500283D01*
X116117295Y-77508000D01*
X116038705Y-77508000D01*
X115960351Y-77500283D01*
X115921173Y-77496424D01*
X115845772Y-77473551D01*
X115770371Y-77450679D01*
X115631392Y-77376392D01*
X115509578Y-77276422D01*
X115409608Y-77154608D01*
X115335321Y-77015629D01*
X115289576Y-76864826D01*
X115274130Y-76708000D01*
X115289576Y-76551174D01*
X115300430Y-76515394D01*
X115335321Y-76400372D01*
X115335321Y-76400371D01*
X115409608Y-76261392D01*
X115509578Y-76139578D01*
X115631392Y-76039608D01*
X115770371Y-75965321D01*
X115845772Y-75942449D01*
X115921173Y-75919576D01*
X115960351Y-75915717D01*
X116038705Y-75908000D01*
X116117295Y-75908000D01*
X116195649Y-75915717D01*
X116195649Y-75915717D01*
G37*
G36*
X103495649Y-75915717D02*
X103534827Y-75919576D01*
X103610228Y-75942449D01*
X103685629Y-75965321D01*
X103824608Y-76039608D01*
X103946422Y-76139578D01*
X104046392Y-76261392D01*
X104120679Y-76400371D01*
X104120679Y-76400372D01*
X104155571Y-76515394D01*
X104166424Y-76551174D01*
X104181870Y-76708000D01*
X104166424Y-76864826D01*
X104120679Y-77015629D01*
X104046392Y-77154608D01*
X103946422Y-77276422D01*
X103824608Y-77376392D01*
X103685629Y-77450679D01*
X103610228Y-77473551D01*
X103534827Y-77496424D01*
X103495649Y-77500283D01*
X103417295Y-77508000D01*
X103338705Y-77508000D01*
X103260351Y-77500283D01*
X103221173Y-77496424D01*
X103145772Y-77473551D01*
X103070371Y-77450679D01*
X102931392Y-77376392D01*
X102809578Y-77276422D01*
X102709608Y-77154608D01*
X102635321Y-77015629D01*
X102589576Y-76864826D01*
X102574130Y-76708000D01*
X102589576Y-76551174D01*
X102600430Y-76515394D01*
X102635321Y-76400372D01*
X102635321Y-76400371D01*
X102709608Y-76261392D01*
X102809578Y-76139578D01*
X102931392Y-76039608D01*
X103070371Y-75965321D01*
X103145772Y-75942449D01*
X103221173Y-75919576D01*
X103260351Y-75915717D01*
X103338705Y-75908000D01*
X103417295Y-75908000D01*
X103495649Y-75915717D01*
X103495649Y-75915717D01*
G37*
G36*
X89141999Y-74713999D02*
X89141998Y-74713999D01*
X89142000Y-74714000D01*
X89142001Y-74714001D01*
X89142605Y-74720137D01*
X89142605Y-75207863D01*
X89140799Y-75226203D01*
X89140197Y-75238453D01*
X89140197Y-75256872D01*
X89138988Y-75269150D01*
X89122263Y-75353232D01*
X89118678Y-75365048D01*
X89085870Y-75444255D01*
X89080053Y-75455140D01*
X89032421Y-75526425D01*
X89024585Y-75535973D01*
X88963973Y-75596585D01*
X88954425Y-75604421D01*
X88883140Y-75652053D01*
X88872255Y-75657870D01*
X88793048Y-75690678D01*
X88781232Y-75694263D01*
X88697150Y-75710988D01*
X88684872Y-75712197D01*
X88666453Y-75712197D01*
X88654203Y-75712799D01*
X88635863Y-75714605D01*
X88148137Y-75714605D01*
X88129797Y-75712799D01*
X88117547Y-75712197D01*
X88099128Y-75712197D01*
X88086850Y-75710988D01*
X88002768Y-75694263D01*
X87990952Y-75690678D01*
X87911745Y-75657870D01*
X87900860Y-75652053D01*
X87829575Y-75604421D01*
X87820027Y-75596585D01*
X87759415Y-75535973D01*
X87751579Y-75526425D01*
X87703947Y-75455140D01*
X87698130Y-75444255D01*
X87665322Y-75365048D01*
X87661737Y-75353232D01*
X87645012Y-75269150D01*
X87643803Y-75256872D01*
X87643803Y-75238453D01*
X87643201Y-75226203D01*
X87641395Y-75207863D01*
X87641395Y-74720137D01*
X87641999Y-74714001D01*
X87642000Y-74714000D01*
X87642002Y-74713999D01*
X87642001Y-74713999D01*
X87648137Y-74713395D01*
X89135863Y-74713395D01*
X89141999Y-74713999D01*
X89141999Y-74713999D01*
G37*
G36*
X123864630Y-73584299D02*
X124024855Y-73632903D01*
X124172520Y-73711831D01*
X124301949Y-73818051D01*
X124408169Y-73947480D01*
X124487097Y-74095145D01*
X124535701Y-74255370D01*
X124552112Y-74422000D01*
X124535701Y-74588630D01*
X124487097Y-74748855D01*
X124408169Y-74896520D01*
X124301949Y-75025949D01*
X124172520Y-75132169D01*
X124024855Y-75211097D01*
X123864630Y-75259701D01*
X123739752Y-75272000D01*
X123656248Y-75272000D01*
X123531370Y-75259701D01*
X123371145Y-75211097D01*
X123223480Y-75132169D01*
X123094051Y-75025949D01*
X122987831Y-74896520D01*
X122908903Y-74748855D01*
X122860299Y-74588630D01*
X122843888Y-74422000D01*
X122860299Y-74255370D01*
X122908903Y-74095145D01*
X122987831Y-73947480D01*
X123094051Y-73818051D01*
X123223480Y-73711831D01*
X123371145Y-73632903D01*
X123531370Y-73584299D01*
X123656248Y-73572000D01*
X123739752Y-73572000D01*
X123864630Y-73584299D01*
X123864630Y-73584299D01*
G37*
G36*
X85002630Y-73584299D02*
X85162855Y-73632903D01*
X85310520Y-73711831D01*
X85439949Y-73818051D01*
X85546169Y-73947480D01*
X85625097Y-74095145D01*
X85673701Y-74255370D01*
X85690112Y-74422000D01*
X85673701Y-74588630D01*
X85625097Y-74748855D01*
X85546169Y-74896520D01*
X85439949Y-75025949D01*
X85310520Y-75132169D01*
X85162855Y-75211097D01*
X85002630Y-75259701D01*
X84877752Y-75272000D01*
X84794248Y-75272000D01*
X84669370Y-75259701D01*
X84509145Y-75211097D01*
X84361480Y-75132169D01*
X84232051Y-75025949D01*
X84125831Y-74896520D01*
X84046903Y-74748855D01*
X83998299Y-74588630D01*
X83981888Y-74422000D01*
X83998299Y-74255370D01*
X84046903Y-74095145D01*
X84125831Y-73947480D01*
X84232051Y-73818051D01*
X84361480Y-73711831D01*
X84509145Y-73632903D01*
X84669370Y-73584299D01*
X84794248Y-73572000D01*
X84877752Y-73572000D01*
X85002630Y-73584299D01*
X85002630Y-73584299D01*
G37*
G36*
X120054630Y-73584299D02*
X120214855Y-73632903D01*
X120362520Y-73711831D01*
X120491949Y-73818051D01*
X120598169Y-73947480D01*
X120677097Y-74095145D01*
X120725701Y-74255370D01*
X120742112Y-74422000D01*
X120725701Y-74588630D01*
X120677097Y-74748855D01*
X120598169Y-74896520D01*
X120491949Y-75025949D01*
X120362520Y-75132169D01*
X120214855Y-75211097D01*
X120054630Y-75259701D01*
X119929752Y-75272000D01*
X119846248Y-75272000D01*
X119721370Y-75259701D01*
X119561145Y-75211097D01*
X119413480Y-75132169D01*
X119284051Y-75025949D01*
X119177831Y-74896520D01*
X119098903Y-74748855D01*
X119050299Y-74588630D01*
X119033888Y-74422000D01*
X119050299Y-74255370D01*
X119098903Y-74095145D01*
X119177831Y-73947480D01*
X119284051Y-73818051D01*
X119413480Y-73711831D01*
X119561145Y-73632903D01*
X119721370Y-73584299D01*
X119846248Y-73572000D01*
X119929752Y-73572000D01*
X120054630Y-73584299D01*
X120054630Y-73584299D01*
G37*
G36*
X80938630Y-73584299D02*
X81098855Y-73632903D01*
X81246520Y-73711831D01*
X81375949Y-73818051D01*
X81482169Y-73947480D01*
X81561097Y-74095145D01*
X81609701Y-74255370D01*
X81626112Y-74422000D01*
X81609701Y-74588630D01*
X81561097Y-74748855D01*
X81482169Y-74896520D01*
X81375949Y-75025949D01*
X81246520Y-75132169D01*
X81098855Y-75211097D01*
X80938630Y-75259701D01*
X80813752Y-75272000D01*
X80730248Y-75272000D01*
X80605370Y-75259701D01*
X80445145Y-75211097D01*
X80297480Y-75132169D01*
X80168051Y-75025949D01*
X80061831Y-74896520D01*
X79982903Y-74748855D01*
X79934299Y-74588630D01*
X79917888Y-74422000D01*
X79934299Y-74255370D01*
X79982903Y-74095145D01*
X80061831Y-73947480D01*
X80168051Y-73818051D01*
X80297480Y-73711831D01*
X80445145Y-73632903D01*
X80605370Y-73584299D01*
X80730248Y-73572000D01*
X80813752Y-73572000D01*
X80938630Y-73584299D01*
X80938630Y-73584299D01*
G37*
G36*
X99177649Y-73629717D02*
X99216827Y-73633576D01*
X99292228Y-73656449D01*
X99367629Y-73679321D01*
X99506608Y-73753608D01*
X99628422Y-73853578D01*
X99728392Y-73975392D01*
X99802679Y-74114371D01*
X99802679Y-74114372D01*
X99848424Y-74265173D01*
X99863870Y-74422000D01*
X99848424Y-74578827D01*
X99845450Y-74588630D01*
X99802679Y-74729629D01*
X99728392Y-74868608D01*
X99628422Y-74990422D01*
X99506608Y-75090392D01*
X99367629Y-75164679D01*
X99292228Y-75187551D01*
X99216827Y-75210424D01*
X99180519Y-75214000D01*
X99099295Y-75222000D01*
X99020705Y-75222000D01*
X98939481Y-75214000D01*
X98903173Y-75210424D01*
X98827772Y-75187551D01*
X98752371Y-75164679D01*
X98613392Y-75090392D01*
X98491578Y-74990422D01*
X98391608Y-74868608D01*
X98317321Y-74729629D01*
X98274550Y-74588630D01*
X98271576Y-74578827D01*
X98256130Y-74422000D01*
X98271576Y-74265173D01*
X98317321Y-74114372D01*
X98317321Y-74114371D01*
X98391608Y-73975392D01*
X98491578Y-73853578D01*
X98613392Y-73753608D01*
X98752371Y-73679321D01*
X98827772Y-73656449D01*
X98903173Y-73633576D01*
X98942351Y-73629717D01*
X99020705Y-73622000D01*
X99099295Y-73622000D01*
X99177649Y-73629717D01*
X99177649Y-73629717D01*
G37*
G36*
X91557649Y-73629717D02*
X91596827Y-73633576D01*
X91672228Y-73656449D01*
X91747629Y-73679321D01*
X91886608Y-73753608D01*
X92008422Y-73853578D01*
X92108392Y-73975392D01*
X92182679Y-74114371D01*
X92182679Y-74114372D01*
X92228424Y-74265173D01*
X92243870Y-74422000D01*
X92228424Y-74578827D01*
X92225450Y-74588630D01*
X92182679Y-74729629D01*
X92108392Y-74868608D01*
X92008422Y-74990422D01*
X91886608Y-75090392D01*
X91747629Y-75164679D01*
X91672228Y-75187551D01*
X91596827Y-75210424D01*
X91560519Y-75214000D01*
X91479295Y-75222000D01*
X91400705Y-75222000D01*
X91319481Y-75214000D01*
X91283173Y-75210424D01*
X91207772Y-75187551D01*
X91132371Y-75164679D01*
X90993392Y-75090392D01*
X90871578Y-74990422D01*
X90771608Y-74868608D01*
X90697321Y-74729629D01*
X90654550Y-74588630D01*
X90651576Y-74578827D01*
X90636130Y-74422000D01*
X90651576Y-74265173D01*
X90697321Y-74114372D01*
X90697321Y-74114371D01*
X90771608Y-73975392D01*
X90871578Y-73853578D01*
X90993392Y-73753608D01*
X91132371Y-73679321D01*
X91207772Y-73656449D01*
X91283173Y-73633576D01*
X91322351Y-73629717D01*
X91400705Y-73622000D01*
X91479295Y-73622000D01*
X91557649Y-73629717D01*
X91557649Y-73629717D01*
G37*
G36*
X112590464Y-73042837D02*
X112622028Y-73052412D01*
X112651117Y-73067960D01*
X112676614Y-73088886D01*
X112697540Y-73114383D01*
X112713088Y-73143472D01*
X112722663Y-73175036D01*
X112726500Y-73213998D01*
X112726500Y-74614002D01*
X112722663Y-74652964D01*
X112713088Y-74684528D01*
X112697540Y-74713617D01*
X112676614Y-74739114D01*
X112651117Y-74760040D01*
X112622028Y-74775588D01*
X112590464Y-74785163D01*
X112551502Y-74789000D01*
X111476498Y-74789000D01*
X111437536Y-74785163D01*
X111405972Y-74775588D01*
X111376883Y-74760040D01*
X111351386Y-74739114D01*
X111330460Y-74713617D01*
X111314912Y-74684528D01*
X111305337Y-74652964D01*
X111301500Y-74614002D01*
X111301500Y-73213998D01*
X111305337Y-73175036D01*
X111314912Y-73143472D01*
X111330460Y-73114383D01*
X111351386Y-73088886D01*
X111376883Y-73067960D01*
X111405972Y-73052412D01*
X111437536Y-73042837D01*
X111476498Y-73039000D01*
X112551502Y-73039000D01*
X112590464Y-73042837D01*
X112590464Y-73042837D01*
G37*
G36*
X110177464Y-73042837D02*
X110209028Y-73052412D01*
X110238117Y-73067960D01*
X110263614Y-73088886D01*
X110284540Y-73114383D01*
X110300088Y-73143472D01*
X110309663Y-73175036D01*
X110313500Y-73213998D01*
X110313500Y-74614002D01*
X110309663Y-74652964D01*
X110300088Y-74684528D01*
X110284540Y-74713617D01*
X110263614Y-74739114D01*
X110238117Y-74760040D01*
X110209028Y-74775588D01*
X110177464Y-74785163D01*
X110138502Y-74789000D01*
X109063498Y-74789000D01*
X109024536Y-74785163D01*
X108992972Y-74775588D01*
X108963883Y-74760040D01*
X108938386Y-74739114D01*
X108917460Y-74713617D01*
X108901912Y-74684528D01*
X108892337Y-74652964D01*
X108888500Y-74614002D01*
X108888500Y-73213998D01*
X108892337Y-73175036D01*
X108901912Y-73143472D01*
X108917460Y-73114383D01*
X108938386Y-73088886D01*
X108963883Y-73067960D01*
X108992972Y-73052412D01*
X109024536Y-73042837D01*
X109063498Y-73039000D01*
X110138502Y-73039000D01*
X110177464Y-73042837D01*
X110177464Y-73042837D01*
G37*
G36*
X115565464Y-73042837D02*
X115597028Y-73052412D01*
X115626117Y-73067960D01*
X115651614Y-73088886D01*
X115672540Y-73114383D01*
X115688088Y-73143472D01*
X115697663Y-73175036D01*
X115701500Y-73213998D01*
X115701500Y-74614002D01*
X115697663Y-74652964D01*
X115688088Y-74684528D01*
X115672540Y-74713617D01*
X115651614Y-74739114D01*
X115626117Y-74760040D01*
X115597028Y-74775588D01*
X115565464Y-74785163D01*
X115526502Y-74789000D01*
X114451498Y-74789000D01*
X114412536Y-74785163D01*
X114380972Y-74775588D01*
X114351883Y-74760040D01*
X114326386Y-74739114D01*
X114305460Y-74713617D01*
X114289912Y-74684528D01*
X114280337Y-74652964D01*
X114276500Y-74614002D01*
X114276500Y-73213998D01*
X114280337Y-73175036D01*
X114289912Y-73143472D01*
X114305460Y-73114383D01*
X114326386Y-73088886D01*
X114351883Y-73067960D01*
X114380972Y-73052412D01*
X114412536Y-73042837D01*
X114451498Y-73039000D01*
X115526502Y-73039000D01*
X115565464Y-73042837D01*
X115565464Y-73042837D01*
G37*
G36*
X107202464Y-73042837D02*
X107234028Y-73052412D01*
X107263117Y-73067960D01*
X107288614Y-73088886D01*
X107309540Y-73114383D01*
X107325088Y-73143472D01*
X107334663Y-73175036D01*
X107338500Y-73213998D01*
X107338500Y-74614002D01*
X107334663Y-74652964D01*
X107325088Y-74684528D01*
X107309540Y-74713617D01*
X107288614Y-74739114D01*
X107263117Y-74760040D01*
X107234028Y-74775588D01*
X107202464Y-74785163D01*
X107163502Y-74789000D01*
X106088498Y-74789000D01*
X106049536Y-74785163D01*
X106017972Y-74775588D01*
X105988883Y-74760040D01*
X105963386Y-74739114D01*
X105942460Y-74713617D01*
X105926912Y-74684528D01*
X105917337Y-74652964D01*
X105913500Y-74614002D01*
X105913500Y-73213998D01*
X105917337Y-73175036D01*
X105926912Y-73143472D01*
X105942460Y-73114383D01*
X105963386Y-73088886D01*
X105988883Y-73067960D01*
X106017972Y-73052412D01*
X106049536Y-73042837D01*
X106088498Y-73039000D01*
X107163502Y-73039000D01*
X107202464Y-73042837D01*
X107202464Y-73042837D01*
G37*
G36*
X88654203Y-73415201D02*
X88666453Y-73415803D01*
X88684872Y-73415803D01*
X88697150Y-73417012D01*
X88781232Y-73433737D01*
X88793048Y-73437322D01*
X88872255Y-73470130D01*
X88883140Y-73475947D01*
X88954425Y-73523579D01*
X88963973Y-73531415D01*
X89024585Y-73592027D01*
X89032421Y-73601575D01*
X89080053Y-73672860D01*
X89085870Y-73683745D01*
X89118678Y-73762952D01*
X89122263Y-73774768D01*
X89138988Y-73858850D01*
X89140197Y-73871128D01*
X89140197Y-73889547D01*
X89140799Y-73901797D01*
X89142605Y-73920137D01*
X89142605Y-74407863D01*
X89142001Y-74413999D01*
X89141999Y-74414001D01*
X89135863Y-74414605D01*
X87648137Y-74414605D01*
X87642001Y-74414001D01*
X87641999Y-74413999D01*
X87641395Y-74407863D01*
X87641395Y-73920137D01*
X87643201Y-73901797D01*
X87643803Y-73889547D01*
X87643803Y-73871128D01*
X87645012Y-73858850D01*
X87661737Y-73774768D01*
X87665322Y-73762952D01*
X87698130Y-73683745D01*
X87703947Y-73672860D01*
X87751579Y-73601575D01*
X87759415Y-73592027D01*
X87820027Y-73531415D01*
X87829575Y-73523579D01*
X87900860Y-73475947D01*
X87911745Y-73470130D01*
X87990952Y-73437322D01*
X88002768Y-73433737D01*
X88086850Y-73417012D01*
X88099128Y-73415803D01*
X88117547Y-73415803D01*
X88129797Y-73415201D01*
X88148137Y-73413395D01*
X88635863Y-73413395D01*
X88654203Y-73415201D01*
X88654203Y-73415201D01*
G37*
G36*
X102176464Y-71010837D02*
X102208028Y-71020412D01*
X102237117Y-71035960D01*
X102262614Y-71056886D01*
X102283540Y-71082383D01*
X102299088Y-71111472D01*
X102308663Y-71143036D01*
X102312500Y-71181998D01*
X102312500Y-72582002D01*
X102308663Y-72620964D01*
X102299088Y-72652528D01*
X102283540Y-72681617D01*
X102262614Y-72707114D01*
X102237117Y-72728040D01*
X102208028Y-72743588D01*
X102176464Y-72753163D01*
X102137502Y-72757000D01*
X101062498Y-72757000D01*
X101023536Y-72753163D01*
X100991972Y-72743588D01*
X100962883Y-72728040D01*
X100937386Y-72707114D01*
X100916460Y-72681617D01*
X100900912Y-72652528D01*
X100891337Y-72620964D01*
X100887500Y-72582002D01*
X100887500Y-71181998D01*
X100891337Y-71143036D01*
X100900912Y-71111472D01*
X100916460Y-71082383D01*
X100937386Y-71056886D01*
X100962883Y-71035960D01*
X100991972Y-71020412D01*
X101023536Y-71010837D01*
X101062498Y-71007000D01*
X102137502Y-71007000D01*
X102176464Y-71010837D01*
X102176464Y-71010837D01*
G37*
G36*
X105151464Y-71010837D02*
X105183028Y-71020412D01*
X105212117Y-71035960D01*
X105237614Y-71056886D01*
X105258540Y-71082383D01*
X105274088Y-71111472D01*
X105283663Y-71143036D01*
X105287500Y-71181998D01*
X105287500Y-72582002D01*
X105283663Y-72620964D01*
X105274088Y-72652528D01*
X105258540Y-72681617D01*
X105237614Y-72707114D01*
X105212117Y-72728040D01*
X105183028Y-72743588D01*
X105151464Y-72753163D01*
X105112502Y-72757000D01*
X104037498Y-72757000D01*
X103998536Y-72753163D01*
X103966972Y-72743588D01*
X103937883Y-72728040D01*
X103912386Y-72707114D01*
X103891460Y-72681617D01*
X103875912Y-72652528D01*
X103866337Y-72620964D01*
X103862500Y-72582002D01*
X103862500Y-71181998D01*
X103866337Y-71143036D01*
X103875912Y-71111472D01*
X103891460Y-71082383D01*
X103912386Y-71056886D01*
X103937883Y-71035960D01*
X103966972Y-71020412D01*
X103998536Y-71010837D01*
X104037498Y-71007000D01*
X105112502Y-71007000D01*
X105151464Y-71010837D01*
X105151464Y-71010837D01*
G37*
G36*
X123864630Y-71044299D02*
X124024855Y-71092903D01*
X124172520Y-71171831D01*
X124301949Y-71278051D01*
X124408169Y-71407480D01*
X124487097Y-71555145D01*
X124535701Y-71715370D01*
X124552112Y-71882000D01*
X124535701Y-72048630D01*
X124487097Y-72208855D01*
X124408169Y-72356520D01*
X124301949Y-72485949D01*
X124172520Y-72592169D01*
X124024855Y-72671097D01*
X123864630Y-72719701D01*
X123739752Y-72732000D01*
X123656248Y-72732000D01*
X123531370Y-72719701D01*
X123371145Y-72671097D01*
X123223480Y-72592169D01*
X123094051Y-72485949D01*
X122987831Y-72356520D01*
X122908903Y-72208855D01*
X122860299Y-72048630D01*
X122843888Y-71882000D01*
X122860299Y-71715370D01*
X122908903Y-71555145D01*
X122987831Y-71407480D01*
X123094051Y-71278051D01*
X123223480Y-71171831D01*
X123371145Y-71092903D01*
X123531370Y-71044299D01*
X123656248Y-71032000D01*
X123739752Y-71032000D01*
X123864630Y-71044299D01*
X123864630Y-71044299D01*
G37*
G36*
X120054630Y-71044299D02*
X120214855Y-71092903D01*
X120362520Y-71171831D01*
X120491949Y-71278051D01*
X120598169Y-71407480D01*
X120677097Y-71555145D01*
X120725701Y-71715370D01*
X120742112Y-71882000D01*
X120725701Y-72048630D01*
X120677097Y-72208855D01*
X120598169Y-72356520D01*
X120491949Y-72485949D01*
X120362520Y-72592169D01*
X120214855Y-72671097D01*
X120054630Y-72719701D01*
X119929752Y-72732000D01*
X119846248Y-72732000D01*
X119721370Y-72719701D01*
X119561145Y-72671097D01*
X119413480Y-72592169D01*
X119284051Y-72485949D01*
X119177831Y-72356520D01*
X119098903Y-72208855D01*
X119050299Y-72048630D01*
X119033888Y-71882000D01*
X119050299Y-71715370D01*
X119098903Y-71555145D01*
X119177831Y-71407480D01*
X119284051Y-71278051D01*
X119413480Y-71171831D01*
X119561145Y-71092903D01*
X119721370Y-71044299D01*
X119846248Y-71032000D01*
X119929752Y-71032000D01*
X120054630Y-71044299D01*
X120054630Y-71044299D01*
G37*
G36*
X85686000Y-72732000D02*
X83986000Y-72732000D01*
X83986000Y-71032000D01*
X85686000Y-71032000D01*
X85686000Y-72732000D01*
X85686000Y-72732000D01*
G37*
G36*
X81622000Y-72732000D02*
X79922000Y-72732000D01*
X79922000Y-71032000D01*
X81622000Y-71032000D01*
X81622000Y-72732000D01*
X81622000Y-72732000D01*
G37*
G36*
X99177649Y-71089717D02*
X99216827Y-71093576D01*
X99275822Y-71111472D01*
X99367629Y-71139321D01*
X99506608Y-71213608D01*
X99628422Y-71313578D01*
X99728392Y-71435392D01*
X99802679Y-71574371D01*
X99802679Y-71574372D01*
X99848424Y-71725173D01*
X99863870Y-71882000D01*
X99848424Y-72038827D01*
X99845450Y-72048630D01*
X99802679Y-72189629D01*
X99728392Y-72328608D01*
X99628422Y-72450422D01*
X99506608Y-72550392D01*
X99367629Y-72624679D01*
X99297695Y-72645893D01*
X99216827Y-72670424D01*
X99177649Y-72674283D01*
X99099295Y-72682000D01*
X99020705Y-72682000D01*
X98942351Y-72674283D01*
X98903173Y-72670424D01*
X98822305Y-72645893D01*
X98752371Y-72624679D01*
X98613392Y-72550392D01*
X98491578Y-72450422D01*
X98391608Y-72328608D01*
X98317321Y-72189629D01*
X98274550Y-72048630D01*
X98271576Y-72038827D01*
X98256130Y-71882000D01*
X98271576Y-71725173D01*
X98317321Y-71574372D01*
X98317321Y-71574371D01*
X98391608Y-71435392D01*
X98491578Y-71313578D01*
X98613392Y-71213608D01*
X98752371Y-71139321D01*
X98844178Y-71111472D01*
X98903173Y-71093576D01*
X98942351Y-71089717D01*
X99020705Y-71082000D01*
X99099295Y-71082000D01*
X99177649Y-71089717D01*
X99177649Y-71089717D01*
G37*
G36*
X91557649Y-71089717D02*
X91596827Y-71093576D01*
X91655822Y-71111472D01*
X91747629Y-71139321D01*
X91886608Y-71213608D01*
X92008422Y-71313578D01*
X92108392Y-71435392D01*
X92182679Y-71574371D01*
X92182679Y-71574372D01*
X92228424Y-71725173D01*
X92243870Y-71882000D01*
X92228424Y-72038827D01*
X92225450Y-72048630D01*
X92182679Y-72189629D01*
X92108392Y-72328608D01*
X92008422Y-72450422D01*
X91886608Y-72550392D01*
X91747629Y-72624679D01*
X91677695Y-72645893D01*
X91596827Y-72670424D01*
X91557649Y-72674283D01*
X91479295Y-72682000D01*
X91400705Y-72682000D01*
X91322351Y-72674283D01*
X91283173Y-72670424D01*
X91202305Y-72645893D01*
X91132371Y-72624679D01*
X90993392Y-72550392D01*
X90871578Y-72450422D01*
X90771608Y-72328608D01*
X90697321Y-72189629D01*
X90654550Y-72048630D01*
X90651576Y-72038827D01*
X90636130Y-71882000D01*
X90651576Y-71725173D01*
X90697321Y-71574372D01*
X90697321Y-71574371D01*
X90771608Y-71435392D01*
X90871578Y-71313578D01*
X90993392Y-71213608D01*
X91132371Y-71139321D01*
X91224178Y-71111472D01*
X91283173Y-71093576D01*
X91322351Y-71089717D01*
X91400705Y-71082000D01*
X91479295Y-71082000D01*
X91557649Y-71089717D01*
X91557649Y-71089717D01*
G37*
G36*
X110212964Y-70919337D02*
X110244528Y-70928912D01*
X110273617Y-70944460D01*
X110299114Y-70965386D01*
X110320040Y-70990883D01*
X110335588Y-71019972D01*
X110345163Y-71051536D01*
X110349000Y-71090498D01*
X110349000Y-72165502D01*
X110345163Y-72204464D01*
X110335588Y-72236028D01*
X110320040Y-72265117D01*
X110299114Y-72290614D01*
X110273617Y-72311540D01*
X110244528Y-72327088D01*
X110212964Y-72336663D01*
X110174002Y-72340500D01*
X108773998Y-72340500D01*
X108735036Y-72336663D01*
X108703472Y-72327088D01*
X108674383Y-72311540D01*
X108648886Y-72290614D01*
X108627960Y-72265117D01*
X108612412Y-72236028D01*
X108602837Y-72204464D01*
X108599000Y-72165502D01*
X108599000Y-71090498D01*
X108602837Y-71051536D01*
X108612412Y-71019972D01*
X108627960Y-70990883D01*
X108648886Y-70965386D01*
X108674383Y-70944460D01*
X108703472Y-70928912D01*
X108735036Y-70919337D01*
X108773998Y-70915500D01*
X110174002Y-70915500D01*
X110212964Y-70919337D01*
X110212964Y-70919337D01*
G37*
G36*
X112752964Y-70919337D02*
X112784528Y-70928912D01*
X112813617Y-70944460D01*
X112839114Y-70965386D01*
X112860040Y-70990883D01*
X112875588Y-71019972D01*
X112885163Y-71051536D01*
X112889000Y-71090498D01*
X112889000Y-72165502D01*
X112885163Y-72204464D01*
X112875588Y-72236028D01*
X112860040Y-72265117D01*
X112839114Y-72290614D01*
X112813617Y-72311540D01*
X112784528Y-72327088D01*
X112752964Y-72336663D01*
X112714002Y-72340500D01*
X111313998Y-72340500D01*
X111275036Y-72336663D01*
X111243472Y-72327088D01*
X111214383Y-72311540D01*
X111188886Y-72290614D01*
X111167960Y-72265117D01*
X111152412Y-72236028D01*
X111142837Y-72204464D01*
X111139000Y-72165502D01*
X111139000Y-71090498D01*
X111142837Y-71051536D01*
X111152412Y-71019972D01*
X111167960Y-70990883D01*
X111188886Y-70965386D01*
X111214383Y-70944460D01*
X111243472Y-70928912D01*
X111275036Y-70919337D01*
X111313998Y-70915500D01*
X112714002Y-70915500D01*
X112752964Y-70919337D01*
X112752964Y-70919337D01*
G37*
G36*
X89130964Y-70846337D02*
X89162528Y-70855912D01*
X89191617Y-70871460D01*
X89217114Y-70892386D01*
X89238040Y-70917883D01*
X89253588Y-70946972D01*
X89263163Y-70978536D01*
X89267000Y-71017498D01*
X89267000Y-72092502D01*
X89263163Y-72131464D01*
X89253588Y-72163028D01*
X89238040Y-72192117D01*
X89217114Y-72217614D01*
X89191617Y-72238540D01*
X89162528Y-72254088D01*
X89130964Y-72263663D01*
X89092002Y-72267500D01*
X87691998Y-72267500D01*
X87653036Y-72263663D01*
X87621472Y-72254088D01*
X87592383Y-72238540D01*
X87566886Y-72217614D01*
X87545960Y-72192117D01*
X87530412Y-72163028D01*
X87520837Y-72131464D01*
X87517000Y-72092502D01*
X87517000Y-71017498D01*
X87520837Y-70978536D01*
X87530412Y-70946972D01*
X87545960Y-70917883D01*
X87566886Y-70892386D01*
X87592383Y-70871460D01*
X87621472Y-70855912D01*
X87653036Y-70846337D01*
X87691998Y-70842500D01*
X89092002Y-70842500D01*
X89130964Y-70846337D01*
X89130964Y-70846337D01*
G37*
G36*
X105151464Y-68470837D02*
X105183028Y-68480412D01*
X105212117Y-68495960D01*
X105237614Y-68516886D01*
X105258540Y-68542383D01*
X105274088Y-68571472D01*
X105283663Y-68603036D01*
X105287500Y-68641998D01*
X105287500Y-70042002D01*
X105283663Y-70080964D01*
X105274088Y-70112528D01*
X105258540Y-70141617D01*
X105237614Y-70167114D01*
X105212117Y-70188040D01*
X105183028Y-70203588D01*
X105151464Y-70213163D01*
X105112502Y-70217000D01*
X104037498Y-70217000D01*
X103998536Y-70213163D01*
X103966972Y-70203588D01*
X103937883Y-70188040D01*
X103912386Y-70167114D01*
X103891460Y-70141617D01*
X103875912Y-70112528D01*
X103866337Y-70080964D01*
X103862500Y-70042002D01*
X103862500Y-68641998D01*
X103866337Y-68603036D01*
X103875912Y-68571472D01*
X103891460Y-68542383D01*
X103912386Y-68516886D01*
X103937883Y-68495960D01*
X103966972Y-68480412D01*
X103998536Y-68470837D01*
X104037498Y-68467000D01*
X105112502Y-68467000D01*
X105151464Y-68470837D01*
X105151464Y-68470837D01*
G37*
G36*
X102176464Y-68470837D02*
X102208028Y-68480412D01*
X102237117Y-68495960D01*
X102262614Y-68516886D01*
X102283540Y-68542383D01*
X102299088Y-68571472D01*
X102308663Y-68603036D01*
X102312500Y-68641998D01*
X102312500Y-70042002D01*
X102308663Y-70080964D01*
X102299088Y-70112528D01*
X102283540Y-70141617D01*
X102262614Y-70167114D01*
X102237117Y-70188040D01*
X102208028Y-70203588D01*
X102176464Y-70213163D01*
X102137502Y-70217000D01*
X101062498Y-70217000D01*
X101023536Y-70213163D01*
X100991972Y-70203588D01*
X100962883Y-70188040D01*
X100937386Y-70167114D01*
X100916460Y-70141617D01*
X100900912Y-70112528D01*
X100891337Y-70080964D01*
X100887500Y-70042002D01*
X100887500Y-68641998D01*
X100891337Y-68603036D01*
X100900912Y-68571472D01*
X100916460Y-68542383D01*
X100937386Y-68516886D01*
X100962883Y-68495960D01*
X100991972Y-68480412D01*
X101023536Y-68470837D01*
X101062498Y-68467000D01*
X102137502Y-68467000D01*
X102176464Y-68470837D01*
X102176464Y-68470837D01*
G37*
G36*
X124548000Y-70192000D02*
X122848000Y-70192000D01*
X122848000Y-68492000D01*
X124548000Y-68492000D01*
X124548000Y-70192000D01*
X124548000Y-70192000D01*
G37*
G36*
X120738000Y-70192000D02*
X119038000Y-70192000D01*
X119038000Y-68492000D01*
X120738000Y-68492000D01*
X120738000Y-70192000D01*
X120738000Y-70192000D01*
G37*
G36*
X99177649Y-68549717D02*
X99216827Y-68553576D01*
X99275822Y-68571472D01*
X99367629Y-68599321D01*
X99506608Y-68673608D01*
X99628422Y-68773578D01*
X99728392Y-68895392D01*
X99802679Y-69034371D01*
X99802679Y-69034372D01*
X99848424Y-69185173D01*
X99855895Y-69261028D01*
X99863870Y-69342000D01*
X99848424Y-69498826D01*
X99802679Y-69649629D01*
X99728392Y-69788608D01*
X99628422Y-69910422D01*
X99506608Y-70010392D01*
X99367629Y-70084679D01*
X99297695Y-70105893D01*
X99216827Y-70130424D01*
X99177649Y-70134283D01*
X99099295Y-70142000D01*
X99020705Y-70142000D01*
X98942351Y-70134283D01*
X98903173Y-70130424D01*
X98822305Y-70105893D01*
X98752371Y-70084679D01*
X98613392Y-70010392D01*
X98491578Y-69910422D01*
X98391608Y-69788608D01*
X98317321Y-69649629D01*
X98271576Y-69498826D01*
X98256130Y-69342000D01*
X98264105Y-69261028D01*
X98271576Y-69185173D01*
X98317321Y-69034372D01*
X98317321Y-69034371D01*
X98391608Y-68895392D01*
X98491578Y-68773578D01*
X98613392Y-68673608D01*
X98752371Y-68599321D01*
X98844178Y-68571472D01*
X98903173Y-68553576D01*
X98942351Y-68549717D01*
X99020705Y-68542000D01*
X99099295Y-68542000D01*
X99177649Y-68549717D01*
X99177649Y-68549717D01*
G37*
G36*
X92240000Y-70142000D02*
X90640000Y-70142000D01*
X90640000Y-68542000D01*
X92240000Y-68542000D01*
X92240000Y-70142000D01*
X92240000Y-70142000D01*
G37*
G36*
X110212964Y-67944337D02*
X110244528Y-67953912D01*
X110273617Y-67969460D01*
X110299114Y-67990386D01*
X110320040Y-68015883D01*
X110335588Y-68044972D01*
X110345163Y-68076536D01*
X110349000Y-68115498D01*
X110349000Y-69190502D01*
X110345163Y-69229464D01*
X110335588Y-69261028D01*
X110320040Y-69290117D01*
X110299114Y-69315614D01*
X110273617Y-69336540D01*
X110244528Y-69352088D01*
X110212964Y-69361663D01*
X110174002Y-69365500D01*
X108773998Y-69365500D01*
X108735036Y-69361663D01*
X108703472Y-69352088D01*
X108674383Y-69336540D01*
X108648886Y-69315614D01*
X108627960Y-69290117D01*
X108612412Y-69261028D01*
X108602837Y-69229464D01*
X108599000Y-69190502D01*
X108599000Y-68115498D01*
X108602837Y-68076536D01*
X108612412Y-68044972D01*
X108627960Y-68015883D01*
X108648886Y-67990386D01*
X108674383Y-67969460D01*
X108703472Y-67953912D01*
X108735036Y-67944337D01*
X108773998Y-67940500D01*
X110174002Y-67940500D01*
X110212964Y-67944337D01*
X110212964Y-67944337D01*
G37*
G36*
X112752964Y-67944337D02*
X112784528Y-67953912D01*
X112813617Y-67969460D01*
X112839114Y-67990386D01*
X112860040Y-68015883D01*
X112875588Y-68044972D01*
X112885163Y-68076536D01*
X112889000Y-68115498D01*
X112889000Y-69190502D01*
X112885163Y-69229464D01*
X112875588Y-69261028D01*
X112860040Y-69290117D01*
X112839114Y-69315614D01*
X112813617Y-69336540D01*
X112784528Y-69352088D01*
X112752964Y-69361663D01*
X112714002Y-69365500D01*
X111313998Y-69365500D01*
X111275036Y-69361663D01*
X111243472Y-69352088D01*
X111214383Y-69336540D01*
X111188886Y-69315614D01*
X111167960Y-69290117D01*
X111152412Y-69261028D01*
X111142837Y-69229464D01*
X111139000Y-69190502D01*
X111139000Y-68115498D01*
X111142837Y-68076536D01*
X111152412Y-68044972D01*
X111167960Y-68015883D01*
X111188886Y-67990386D01*
X111214383Y-67969460D01*
X111243472Y-67953912D01*
X111275036Y-67944337D01*
X111313998Y-67940500D01*
X112714002Y-67940500D01*
X112752964Y-67944337D01*
X112752964Y-67944337D01*
G37*
G36*
X89130964Y-67871337D02*
X89162528Y-67880912D01*
X89191617Y-67896460D01*
X89217114Y-67917386D01*
X89238040Y-67942883D01*
X89253588Y-67971972D01*
X89263163Y-68003536D01*
X89267000Y-68042498D01*
X89267000Y-69117502D01*
X89263163Y-69156464D01*
X89253588Y-69188028D01*
X89238040Y-69217117D01*
X89217114Y-69242614D01*
X89191617Y-69263540D01*
X89162528Y-69279088D01*
X89130964Y-69288663D01*
X89092002Y-69292500D01*
X87691998Y-69292500D01*
X87653036Y-69288663D01*
X87621472Y-69279088D01*
X87592383Y-69263540D01*
X87566886Y-69242614D01*
X87545960Y-69217117D01*
X87530412Y-69188028D01*
X87520837Y-69156464D01*
X87517000Y-69117502D01*
X87517000Y-68042498D01*
X87520837Y-68003536D01*
X87530412Y-67971972D01*
X87545960Y-67942883D01*
X87566886Y-67917386D01*
X87592383Y-67896460D01*
X87621472Y-67880912D01*
X87653036Y-67871337D01*
X87691998Y-67867500D01*
X89092002Y-67867500D01*
X89130964Y-67871337D01*
X89130964Y-67871337D01*
G37*
G36*
X85305000Y-68795000D02*
X83605000Y-68795000D01*
X83605000Y-67095000D01*
X85305000Y-67095000D01*
X85305000Y-68795000D01*
X85305000Y-68795000D01*
G37*
G36*
X113014026Y-60314115D02*
X113232412Y-60404573D01*
X113428958Y-60535901D01*
X113596099Y-60703042D01*
X113727427Y-60899588D01*
X113817885Y-61117974D01*
X113864000Y-61349809D01*
X113864000Y-61586191D01*
X113817885Y-61818026D01*
X113727427Y-62036412D01*
X113596099Y-62232958D01*
X113428958Y-62400099D01*
X113232412Y-62531427D01*
X113014026Y-62621885D01*
X112782191Y-62668000D01*
X112545809Y-62668000D01*
X112313974Y-62621885D01*
X112095588Y-62531427D01*
X111899042Y-62400099D01*
X111731901Y-62232958D01*
X111600573Y-62036412D01*
X111510115Y-61818026D01*
X111464000Y-61586191D01*
X111464000Y-61349809D01*
X111510115Y-61117974D01*
X111600573Y-60899588D01*
X111731901Y-60703042D01*
X111899042Y-60535901D01*
X112095588Y-60404573D01*
X112313974Y-60314115D01*
X112545809Y-60268000D01*
X112782191Y-60268000D01*
X113014026Y-60314115D01*
X113014026Y-60314115D01*
G37*
G36*
X123514026Y-60314115D02*
X123732412Y-60404573D01*
X123928958Y-60535901D01*
X124096099Y-60703042D01*
X124227427Y-60899588D01*
X124317885Y-61117974D01*
X124364000Y-61349809D01*
X124364000Y-61586191D01*
X124317885Y-61818026D01*
X124227427Y-62036412D01*
X124096099Y-62232958D01*
X123928958Y-62400099D01*
X123732412Y-62531427D01*
X123514026Y-62621885D01*
X123282191Y-62668000D01*
X123045809Y-62668000D01*
X122813974Y-62621885D01*
X122595588Y-62531427D01*
X122399042Y-62400099D01*
X122231901Y-62232958D01*
X122100573Y-62036412D01*
X122010115Y-61818026D01*
X121964000Y-61586191D01*
X121964000Y-61349809D01*
X122010115Y-61117974D01*
X122100573Y-60899588D01*
X122231901Y-60703042D01*
X122399042Y-60535901D01*
X122595588Y-60404573D01*
X122813974Y-60314115D01*
X123045809Y-60268000D01*
X123282191Y-60268000D01*
X123514026Y-60314115D01*
X123514026Y-60314115D01*
G37*
G36*
X109514026Y-60314115D02*
X109732412Y-60404573D01*
X109928958Y-60535901D01*
X110096099Y-60703042D01*
X110227427Y-60899588D01*
X110317885Y-61117974D01*
X110364000Y-61349809D01*
X110364000Y-61586191D01*
X110317885Y-61818026D01*
X110227427Y-62036412D01*
X110096099Y-62232958D01*
X109928958Y-62400099D01*
X109732412Y-62531427D01*
X109514026Y-62621885D01*
X109282191Y-62668000D01*
X109045809Y-62668000D01*
X108813974Y-62621885D01*
X108595588Y-62531427D01*
X108399042Y-62400099D01*
X108231901Y-62232958D01*
X108100573Y-62036412D01*
X108010115Y-61818026D01*
X107964000Y-61586191D01*
X107964000Y-61349809D01*
X108010115Y-61117974D01*
X108100573Y-60899588D01*
X108231901Y-60703042D01*
X108399042Y-60535901D01*
X108595588Y-60404573D01*
X108813974Y-60314115D01*
X109045809Y-60268000D01*
X109282191Y-60268000D01*
X109514026Y-60314115D01*
X109514026Y-60314115D01*
G37*
G36*
X106864000Y-62668000D02*
X104464000Y-62668000D01*
X104464000Y-60268000D01*
X106864000Y-60268000D01*
X106864000Y-62668000D01*
X106864000Y-62668000D01*
G37*
G36*
X116514026Y-60314115D02*
X116732412Y-60404573D01*
X116928958Y-60535901D01*
X117096099Y-60703042D01*
X117227427Y-60899588D01*
X117317885Y-61117974D01*
X117364000Y-61349809D01*
X117364000Y-61586191D01*
X117317885Y-61818026D01*
X117227427Y-62036412D01*
X117096099Y-62232958D01*
X116928958Y-62400099D01*
X116732412Y-62531427D01*
X116514026Y-62621885D01*
X116282191Y-62668000D01*
X116045809Y-62668000D01*
X115813974Y-62621885D01*
X115595588Y-62531427D01*
X115399042Y-62400099D01*
X115231901Y-62232958D01*
X115100573Y-62036412D01*
X115010115Y-61818026D01*
X114964000Y-61586191D01*
X114964000Y-61349809D01*
X115010115Y-61117974D01*
X115100573Y-60899588D01*
X115231901Y-60703042D01*
X115399042Y-60535901D01*
X115595588Y-60404573D01*
X115813974Y-60314115D01*
X116045809Y-60268000D01*
X116282191Y-60268000D01*
X116514026Y-60314115D01*
X116514026Y-60314115D01*
G37*
G36*
X82394000Y-62668000D02*
X79994000Y-62668000D01*
X79994000Y-60268000D01*
X82394000Y-60268000D01*
X82394000Y-62668000D01*
X82394000Y-62668000D01*
G37*
G36*
X120014026Y-60314115D02*
X120232412Y-60404573D01*
X120428958Y-60535901D01*
X120596099Y-60703042D01*
X120727427Y-60899588D01*
X120817885Y-61117974D01*
X120864000Y-61349809D01*
X120864000Y-61586191D01*
X120817885Y-61818026D01*
X120727427Y-62036412D01*
X120596099Y-62232958D01*
X120428958Y-62400099D01*
X120232412Y-62531427D01*
X120014026Y-62621885D01*
X119782191Y-62668000D01*
X119545809Y-62668000D01*
X119313974Y-62621885D01*
X119095588Y-62531427D01*
X118899042Y-62400099D01*
X118731901Y-62232958D01*
X118600573Y-62036412D01*
X118510115Y-61818026D01*
X118464000Y-61586191D01*
X118464000Y-61349809D01*
X118510115Y-61117974D01*
X118600573Y-60899588D01*
X118731901Y-60703042D01*
X118899042Y-60535901D01*
X119095588Y-60404573D01*
X119313974Y-60314115D01*
X119545809Y-60268000D01*
X119782191Y-60268000D01*
X120014026Y-60314115D01*
X120014026Y-60314115D01*
G37*
G36*
X88544026Y-60314115D02*
X88762412Y-60404573D01*
X88958958Y-60535901D01*
X89126099Y-60703042D01*
X89257427Y-60899588D01*
X89347885Y-61117974D01*
X89394000Y-61349809D01*
X89394000Y-61586191D01*
X89347885Y-61818026D01*
X89257427Y-62036412D01*
X89126099Y-62232958D01*
X88958958Y-62400099D01*
X88762412Y-62531427D01*
X88544026Y-62621885D01*
X88312191Y-62668000D01*
X88075809Y-62668000D01*
X87843974Y-62621885D01*
X87625588Y-62531427D01*
X87429042Y-62400099D01*
X87261901Y-62232958D01*
X87130573Y-62036412D01*
X87040115Y-61818026D01*
X86994000Y-61586191D01*
X86994000Y-61349809D01*
X87040115Y-61117974D01*
X87130573Y-60899588D01*
X87261901Y-60703042D01*
X87429042Y-60535901D01*
X87625588Y-60404573D01*
X87843974Y-60314115D01*
X88075809Y-60268000D01*
X88312191Y-60268000D01*
X88544026Y-60314115D01*
X88544026Y-60314115D01*
G37*
G36*
X92044026Y-60314115D02*
X92262412Y-60404573D01*
X92458958Y-60535901D01*
X92626099Y-60703042D01*
X92757427Y-60899588D01*
X92847885Y-61117974D01*
X92894000Y-61349809D01*
X92894000Y-61586191D01*
X92847885Y-61818026D01*
X92757427Y-62036412D01*
X92626099Y-62232958D01*
X92458958Y-62400099D01*
X92262412Y-62531427D01*
X92044026Y-62621885D01*
X91812191Y-62668000D01*
X91575809Y-62668000D01*
X91343974Y-62621885D01*
X91125588Y-62531427D01*
X90929042Y-62400099D01*
X90761901Y-62232958D01*
X90630573Y-62036412D01*
X90540115Y-61818026D01*
X90494000Y-61586191D01*
X90494000Y-61349809D01*
X90540115Y-61117974D01*
X90630573Y-60899588D01*
X90761901Y-60703042D01*
X90929042Y-60535901D01*
X91125588Y-60404573D01*
X91343974Y-60314115D01*
X91575809Y-60268000D01*
X91812191Y-60268000D01*
X92044026Y-60314115D01*
X92044026Y-60314115D01*
G37*
G36*
X95544026Y-60314115D02*
X95762412Y-60404573D01*
X95958958Y-60535901D01*
X96126099Y-60703042D01*
X96257427Y-60899588D01*
X96347885Y-61117974D01*
X96394000Y-61349809D01*
X96394000Y-61586191D01*
X96347885Y-61818026D01*
X96257427Y-62036412D01*
X96126099Y-62232958D01*
X95958958Y-62400099D01*
X95762412Y-62531427D01*
X95544026Y-62621885D01*
X95312191Y-62668000D01*
X95075809Y-62668000D01*
X94843974Y-62621885D01*
X94625588Y-62531427D01*
X94429042Y-62400099D01*
X94261901Y-62232958D01*
X94130573Y-62036412D01*
X94040115Y-61818026D01*
X93994000Y-61586191D01*
X93994000Y-61349809D01*
X94040115Y-61117974D01*
X94130573Y-60899588D01*
X94261901Y-60703042D01*
X94429042Y-60535901D01*
X94625588Y-60404573D01*
X94843974Y-60314115D01*
X95075809Y-60268000D01*
X95312191Y-60268000D01*
X95544026Y-60314115D01*
X95544026Y-60314115D01*
G37*
G36*
X99044026Y-60314115D02*
X99262412Y-60404573D01*
X99458958Y-60535901D01*
X99626099Y-60703042D01*
X99757427Y-60899588D01*
X99847885Y-61117974D01*
X99894000Y-61349809D01*
X99894000Y-61586191D01*
X99847885Y-61818026D01*
X99757427Y-62036412D01*
X99626099Y-62232958D01*
X99458958Y-62400099D01*
X99262412Y-62531427D01*
X99044026Y-62621885D01*
X98812191Y-62668000D01*
X98575809Y-62668000D01*
X98343974Y-62621885D01*
X98125588Y-62531427D01*
X97929042Y-62400099D01*
X97761901Y-62232958D01*
X97630573Y-62036412D01*
X97540115Y-61818026D01*
X97494000Y-61586191D01*
X97494000Y-61349809D01*
X97540115Y-61117974D01*
X97630573Y-60899588D01*
X97761901Y-60703042D01*
X97929042Y-60535901D01*
X98125588Y-60404573D01*
X98343974Y-60314115D01*
X98575809Y-60268000D01*
X98812191Y-60268000D01*
X99044026Y-60314115D01*
X99044026Y-60314115D01*
G37*
G36*
X85044026Y-60314115D02*
X85262412Y-60404573D01*
X85458958Y-60535901D01*
X85626099Y-60703042D01*
X85757427Y-60899588D01*
X85847885Y-61117974D01*
X85894000Y-61349809D01*
X85894000Y-61586191D01*
X85847885Y-61818026D01*
X85757427Y-62036412D01*
X85626099Y-62232958D01*
X85458958Y-62400099D01*
X85262412Y-62531427D01*
X85044026Y-62621885D01*
X84812191Y-62668000D01*
X84575809Y-62668000D01*
X84343974Y-62621885D01*
X84125588Y-62531427D01*
X83929042Y-62400099D01*
X83761901Y-62232958D01*
X83630573Y-62036412D01*
X83540115Y-61818026D01*
X83494000Y-61586191D01*
X83494000Y-61349809D01*
X83540115Y-61117974D01*
X83630573Y-60899588D01*
X83761901Y-60703042D01*
X83929042Y-60535901D01*
X84125588Y-60404573D01*
X84343974Y-60314115D01*
X84575809Y-60268000D01*
X84812191Y-60268000D01*
X85044026Y-60314115D01*
X85044026Y-60314115D01*
G37*
M02*
