G04 #@! TF.GenerationSoftware,KiCad,Pcbnew,5.0.2-bee76a0~70~ubuntu16.04.1*
G04 #@! TF.CreationDate,2019-03-04T23:23:01-05:00*
G04 #@! TF.ProjectId,Unified,556e6966-6965-4642-9e6b-696361645f70,rev?*
G04 #@! TF.SameCoordinates,Original*
G04 #@! TF.FileFunction,Copper,L2,Bot*
G04 #@! TF.FilePolarity,Positive*
%FSLAX46Y46*%
G04 Gerber Fmt 4.6, Leading zero omitted, Abs format (unit mm)*
G04 Created by KiCad (PCBNEW 5.0.2-bee76a0~70~ubuntu16.04.1) date Mon 04 Mar 2019 11:23:01 PM EST*
%MOMM*%
%LPD*%
G01*
G04 APERTURE LIST*
G04 #@! TA.AperFunction,ComponentPad*
%ADD10R,1.600000X1.600000*%
G04 #@! TD*
G04 #@! TA.AperFunction,ComponentPad*
%ADD11O,1.600000X1.600000*%
G04 #@! TD*
G04 #@! TA.AperFunction,ComponentPad*
%ADD12C,1.600000*%
G04 #@! TD*
G04 #@! TA.AperFunction,ComponentPad*
%ADD13R,1.800000X1.800000*%
G04 #@! TD*
G04 #@! TA.AperFunction,ComponentPad*
%ADD14C,1.800000*%
G04 #@! TD*
G04 #@! TA.AperFunction,ComponentPad*
%ADD15R,2.400000X2.400000*%
G04 #@! TD*
G04 #@! TA.AperFunction,ComponentPad*
%ADD16C,2.400000*%
G04 #@! TD*
G04 #@! TA.AperFunction,ComponentPad*
%ADD17R,1.700000X1.700000*%
G04 #@! TD*
G04 #@! TA.AperFunction,ComponentPad*
%ADD18O,1.700000X1.700000*%
G04 #@! TD*
G04 #@! TA.AperFunction,ComponentPad*
%ADD19C,2.000000*%
G04 #@! TD*
G04 #@! TA.AperFunction,ComponentPad*
%ADD20C,1.500000*%
G04 #@! TD*
G04 #@! TA.AperFunction,Conductor*
%ADD21C,0.500000*%
G04 #@! TD*
G04 #@! TA.AperFunction,Conductor*
%ADD22C,0.250000*%
G04 #@! TD*
G04 #@! TA.AperFunction,Conductor*
%ADD23C,0.254000*%
G04 #@! TD*
G04 APERTURE END LIST*
D10*
G04 #@! TO.P,A1,1*
G04 #@! TO.N,GND*
X116078000Y-94488000D03*
D11*
G04 #@! TO.P,A1,9*
X103378000Y-76708000D03*
G04 #@! TO.P,A1,2*
G04 #@! TO.N,+5V*
X116078000Y-91948000D03*
G04 #@! TO.P,A1,10*
G04 #@! TO.N,Net-(A1-Pad10)*
X103378000Y-79248000D03*
G04 #@! TO.P,A1,3*
G04 #@! TO.N,Net-(A1-Pad3)*
X116078000Y-89408000D03*
G04 #@! TO.P,A1,11*
G04 #@! TO.N,Net-(A1-Pad11)*
X103378000Y-81788000D03*
G04 #@! TO.P,A1,4*
G04 #@! TO.N,Net-(A1-Pad4)*
X116078000Y-86868000D03*
G04 #@! TO.P,A1,12*
G04 #@! TO.N,Net-(A1-Pad12)*
X103378000Y-84328000D03*
G04 #@! TO.P,A1,5*
G04 #@! TO.N,Net-(A1-Pad5)*
X116078000Y-84328000D03*
G04 #@! TO.P,A1,13*
G04 #@! TO.N,/A4988_RESET*
X103378000Y-86868000D03*
G04 #@! TO.P,A1,6*
G04 #@! TO.N,Net-(A1-Pad6)*
X116078000Y-81788000D03*
G04 #@! TO.P,A1,14*
G04 #@! TO.N,/A4988_SLEEP*
X103378000Y-89408000D03*
G04 #@! TO.P,A1,7*
G04 #@! TO.N,GND*
X116078000Y-79248000D03*
G04 #@! TO.P,A1,15*
G04 #@! TO.N,/A4988_STEP*
X103378000Y-91948000D03*
G04 #@! TO.P,A1,8*
G04 #@! TO.N,+12V*
X116078000Y-76708000D03*
G04 #@! TO.P,A1,16*
G04 #@! TO.N,/A4988_DIR*
X103378000Y-94488000D03*
G04 #@! TD*
D12*
G04 #@! TO.P,C4,1*
G04 #@! TO.N,+12V*
X111506000Y-79756000D03*
G04 #@! TO.P,C4,2*
G04 #@! TO.N,GND*
X108006000Y-79756000D03*
G04 #@! TD*
D13*
G04 #@! TO.P,D2,1*
G04 #@! TO.N,Net-(D2-Pad1)*
X97790000Y-108458000D03*
D14*
G04 #@! TO.P,D2,2*
G04 #@! TO.N,GND*
X95250000Y-108458000D03*
G04 #@! TO.P,D2,3*
G04 #@! TO.N,Net-(D2-Pad3)*
X92710000Y-108458000D03*
G04 #@! TD*
D15*
G04 #@! TO.P,J1,1*
G04 #@! TO.N,GND*
X81194000Y-61468000D03*
D16*
G04 #@! TO.P,J1,2*
G04 #@! TO.N,/SPARE_IN*
X84694000Y-61468000D03*
G04 #@! TO.P,J1,3*
G04 #@! TO.N,/SDA*
X88194000Y-61468000D03*
G04 #@! TO.P,J1,4*
G04 #@! TO.N,/SCL*
X91694000Y-61468000D03*
G04 #@! TO.P,J1,5*
G04 #@! TO.N,+12V*
X95194000Y-61468000D03*
G04 #@! TO.P,J1,6*
G04 #@! TO.N,+5V*
X98694000Y-61468000D03*
G04 #@! TD*
G04 #@! TO.P,J2,6*
G04 #@! TO.N,GND*
X123164000Y-61468000D03*
G04 #@! TO.P,J2,5*
G04 #@! TO.N,/SPARE_IN*
X119664000Y-61468000D03*
G04 #@! TO.P,J2,4*
G04 #@! TO.N,/SDA*
X116164000Y-61468000D03*
G04 #@! TO.P,J2,3*
G04 #@! TO.N,/SCL*
X112664000Y-61468000D03*
G04 #@! TO.P,J2,2*
G04 #@! TO.N,+12V*
X109164000Y-61468000D03*
D15*
G04 #@! TO.P,J2,1*
G04 #@! TO.N,+5V*
X105664000Y-61468000D03*
G04 #@! TD*
D17*
G04 #@! TO.P,J3,1*
G04 #@! TO.N,/SPARE_IN*
X84455000Y-67945000D03*
G04 #@! TD*
G04 #@! TO.P,J4,1*
G04 #@! TO.N,/MISO*
X103632000Y-101346000D03*
D18*
G04 #@! TO.P,J4,2*
G04 #@! TO.N,/SCK*
X103632000Y-98806000D03*
G04 #@! TO.P,J4,3*
G04 #@! TO.N,/A4988_RESET*
X106172000Y-101346000D03*
G04 #@! TO.P,J4,4*
G04 #@! TO.N,GND*
X106172000Y-98806000D03*
G04 #@! TO.P,J4,5*
G04 #@! TO.N,/MOSI*
X108712000Y-101346000D03*
G04 #@! TO.P,J4,6*
G04 #@! TO.N,+5V*
X108712000Y-98806000D03*
G04 #@! TD*
G04 #@! TO.P,J5,3*
G04 #@! TO.N,GND*
X123698000Y-111252000D03*
G04 #@! TO.P,J5,2*
G04 #@! TO.N,/SWITCH*
X123698000Y-108712000D03*
D17*
G04 #@! TO.P,J5,1*
G04 #@! TO.N,+5V*
X123698000Y-106172000D03*
G04 #@! TD*
G04 #@! TO.P,J6,1*
G04 #@! TO.N,+5V*
X123698000Y-95250000D03*
D18*
G04 #@! TO.P,J6,2*
G04 #@! TO.N,/HALL_SENSOR*
X123698000Y-97790000D03*
G04 #@! TO.P,J6,3*
G04 #@! TO.N,GND*
X123698000Y-100330000D03*
G04 #@! TD*
D17*
G04 #@! TO.P,J8,1*
G04 #@! TO.N,/SPARE_A*
X84836000Y-71882000D03*
D18*
G04 #@! TO.P,J8,2*
G04 #@! TO.N,/SPARE_B*
X84836000Y-74422000D03*
G04 #@! TO.P,J8,3*
G04 #@! TO.N,/SPARE_C*
X84836000Y-76962000D03*
G04 #@! TO.P,J8,4*
G04 #@! TO.N,/SPARE_D*
X84836000Y-79502000D03*
G04 #@! TO.P,J8,5*
G04 #@! TO.N,/SPARE_E*
X84836000Y-82042000D03*
G04 #@! TO.P,J8,6*
G04 #@! TO.N,/SPARE_F*
X84836000Y-84582000D03*
G04 #@! TO.P,J8,7*
G04 #@! TO.N,/SPARE_G*
X84836000Y-87122000D03*
G04 #@! TO.P,J8,8*
G04 #@! TO.N,/SPARE_AN_A*
X84836000Y-89662000D03*
G04 #@! TD*
D19*
G04 #@! TO.P,SW1,2*
G04 #@! TO.N,GND*
X119816000Y-105918000D03*
G04 #@! TO.P,SW1,1*
G04 #@! TO.N,/SWITCH*
X115316000Y-105918000D03*
G04 #@! TO.P,SW1,2*
G04 #@! TO.N,GND*
X119816000Y-99418000D03*
G04 #@! TO.P,SW1,1*
G04 #@! TO.N,/SWITCH*
X115316000Y-99418000D03*
G04 #@! TD*
D10*
G04 #@! TO.P,U1,1*
G04 #@! TO.N,/A4988_RESET*
X91440000Y-69342000D03*
D11*
G04 #@! TO.P,U1,15*
G04 #@! TO.N,/STATUS_G*
X99060000Y-102362000D03*
G04 #@! TO.P,U1,2*
G04 #@! TO.N,/SPARE_A*
X91440000Y-71882000D03*
G04 #@! TO.P,U1,16*
G04 #@! TO.N,/A4988_DIR*
X99060000Y-99822000D03*
G04 #@! TO.P,U1,3*
G04 #@! TO.N,/SPARE_B*
X91440000Y-74422000D03*
G04 #@! TO.P,U1,17*
G04 #@! TO.N,/MOSI*
X99060000Y-97282000D03*
G04 #@! TO.P,U1,4*
G04 #@! TO.N,/SWITCH*
X91440000Y-76962000D03*
G04 #@! TO.P,U1,18*
G04 #@! TO.N,/MISO*
X99060000Y-94742000D03*
G04 #@! TO.P,U1,5*
G04 #@! TO.N,/SPARE_C*
X91440000Y-79502000D03*
G04 #@! TO.P,U1,19*
G04 #@! TO.N,/SCK*
X99060000Y-92202000D03*
G04 #@! TO.P,U1,6*
G04 #@! TO.N,/SPARE_D*
X91440000Y-82042000D03*
G04 #@! TO.P,U1,20*
G04 #@! TO.N,+5V*
X99060000Y-89662000D03*
G04 #@! TO.P,U1,7*
X91440000Y-84582000D03*
G04 #@! TO.P,U1,21*
G04 #@! TO.N,Net-(U1-Pad21)*
X99060000Y-87122000D03*
G04 #@! TO.P,U1,8*
G04 #@! TO.N,GND*
X91440000Y-87122000D03*
G04 #@! TO.P,U1,22*
X99060000Y-84582000D03*
G04 #@! TO.P,U1,9*
G04 #@! TO.N,/XTAL1*
X91440000Y-89662000D03*
G04 #@! TO.P,U1,23*
G04 #@! TO.N,/HALL_SENSOR*
X99060000Y-82042000D03*
G04 #@! TO.P,U1,10*
G04 #@! TO.N,/XTAL2*
X91440000Y-92202000D03*
G04 #@! TO.P,U1,24*
G04 #@! TO.N,/SPARE_AN_A*
X99060000Y-79502000D03*
G04 #@! TO.P,U1,11*
G04 #@! TO.N,/SPARE_E*
X91440000Y-94742000D03*
G04 #@! TO.P,U1,25*
G04 #@! TO.N,/A4988_STEP*
X99060000Y-76962000D03*
G04 #@! TO.P,U1,12*
G04 #@! TO.N,/SPARE_F*
X91440000Y-97282000D03*
G04 #@! TO.P,U1,26*
G04 #@! TO.N,/A4988_SLEEP*
X99060000Y-74422000D03*
G04 #@! TO.P,U1,13*
G04 #@! TO.N,/SPARE_G*
X91440000Y-99822000D03*
G04 #@! TO.P,U1,27*
G04 #@! TO.N,/SDA*
X99060000Y-71882000D03*
G04 #@! TO.P,U1,14*
G04 #@! TO.N,/STATUS_R*
X91440000Y-102362000D03*
G04 #@! TO.P,U1,28*
G04 #@! TO.N,/SCL*
X99060000Y-69342000D03*
G04 #@! TD*
D20*
G04 #@! TO.P,Y1,1*
G04 #@! TO.N,/XTAL1*
X82804000Y-95758000D03*
G04 #@! TO.P,Y1,2*
G04 #@! TO.N,/XTAL2*
X82804000Y-100638000D03*
G04 #@! TD*
D17*
G04 #@! TO.P,J11,1*
G04 #@! TO.N,Net-(A1-Pad3)*
X123698000Y-89408000D03*
D18*
G04 #@! TO.P,J11,2*
G04 #@! TO.N,Net-(A1-Pad4)*
X123698000Y-86868000D03*
G04 #@! TO.P,J11,3*
G04 #@! TO.N,Net-(A1-Pad5)*
X123698000Y-84328000D03*
G04 #@! TO.P,J11,4*
G04 #@! TO.N,Net-(A1-Pad6)*
X123698000Y-81788000D03*
G04 #@! TD*
D17*
G04 #@! TO.P,J10,1*
G04 #@! TO.N,/SPARE_A*
X80772000Y-71882000D03*
D18*
G04 #@! TO.P,J10,2*
G04 #@! TO.N,/SPARE_B*
X80772000Y-74422000D03*
G04 #@! TO.P,J10,3*
G04 #@! TO.N,/SPARE_C*
X80772000Y-76962000D03*
G04 #@! TO.P,J10,4*
G04 #@! TO.N,/SPARE_D*
X80772000Y-79502000D03*
G04 #@! TO.P,J10,5*
G04 #@! TO.N,/SPARE_E*
X80772000Y-82042000D03*
G04 #@! TO.P,J10,6*
G04 #@! TO.N,/SPARE_F*
X80772000Y-84582000D03*
G04 #@! TO.P,J10,7*
G04 #@! TO.N,/SPARE_G*
X80772000Y-87122000D03*
G04 #@! TO.P,J10,8*
G04 #@! TO.N,/SPARE_AN_A*
X80772000Y-89662000D03*
G04 #@! TD*
D17*
G04 #@! TO.P,J7,1*
G04 #@! TO.N,+5V*
X119888000Y-69342000D03*
D18*
G04 #@! TO.P,J7,2*
X119888000Y-71882000D03*
G04 #@! TO.P,J7,3*
X119888000Y-74422000D03*
G04 #@! TO.P,J7,4*
X119888000Y-76962000D03*
G04 #@! TD*
D17*
G04 #@! TO.P,J9,1*
G04 #@! TO.N,GND*
X123698000Y-69342000D03*
D18*
G04 #@! TO.P,J9,2*
X123698000Y-71882000D03*
G04 #@! TO.P,J9,3*
X123698000Y-74422000D03*
G04 #@! TO.P,J9,4*
X123698000Y-76962000D03*
G04 #@! TD*
D21*
G04 #@! TO.N,Net-(A1-Pad3)*
X117209370Y-89408000D02*
X123698000Y-89408000D01*
X116078000Y-89408000D02*
X117209370Y-89408000D01*
G04 #@! TO.N,Net-(A1-Pad4)*
X122495919Y-86868000D02*
X116078000Y-86868000D01*
X123698000Y-86868000D02*
X122495919Y-86868000D01*
G04 #@! TO.N,Net-(A1-Pad5)*
X116078000Y-84328000D02*
X123698000Y-84328000D01*
D22*
G04 #@! TO.N,/A4988_RESET*
X92490000Y-69342000D02*
X91440000Y-69342000D01*
X92565001Y-77212003D02*
X92565001Y-69417001D01*
X92565001Y-69417001D02*
X92490000Y-69342000D01*
X98809997Y-83456999D02*
X92565001Y-77212003D01*
X99966999Y-83456999D02*
X98809997Y-83456999D01*
X103378000Y-86868000D02*
X99966999Y-83456999D01*
D21*
G04 #@! TO.N,Net-(A1-Pad6)*
X123698000Y-81788000D02*
X116078000Y-81788000D01*
G04 #@! TO.N,+12V*
X114554000Y-76708000D02*
X111506000Y-79756000D01*
X116078000Y-76708000D02*
X114554000Y-76708000D01*
X96844001Y-63118001D02*
X96393999Y-62667999D01*
X96393999Y-62667999D02*
X95194000Y-61468000D01*
X107513999Y-63118001D02*
X96844001Y-63118001D01*
X109164000Y-61468000D02*
X107513999Y-63118001D01*
X107513999Y-68143999D02*
X116078000Y-76708000D01*
X107513999Y-63118001D02*
X107513999Y-68143999D01*
D22*
G04 #@! TO.N,/A4988_DIR*
X103378000Y-95504000D02*
X103378000Y-94488000D01*
X99060000Y-99822000D02*
X103378000Y-95504000D01*
G04 #@! TO.N,/SPARE_IN*
X117238980Y-59042980D02*
X118464001Y-60268001D01*
X87119020Y-59042980D02*
X117238980Y-59042980D01*
X118464001Y-60268001D02*
X119664000Y-61468000D01*
X84694000Y-61468000D02*
X87119020Y-59042980D01*
G04 #@! TO.N,/SCL*
X111464001Y-60268001D02*
X112664000Y-61468000D01*
X111138999Y-59942999D02*
X111464001Y-60268001D01*
X93219001Y-59942999D02*
X111138999Y-59942999D01*
X91694000Y-61468000D02*
X93219001Y-59942999D01*
X99060000Y-68834000D02*
X99060000Y-69342000D01*
X91694000Y-61468000D02*
X99060000Y-68834000D01*
G04 #@! TO.N,/SDA*
X114188989Y-59492989D02*
X114964001Y-60268001D01*
X88471955Y-59492989D02*
X114188989Y-59492989D01*
X114964001Y-60268001D02*
X116164000Y-61468000D01*
X88194000Y-59770944D02*
X88471955Y-59492989D01*
X88194000Y-61468000D02*
X88194000Y-59770944D01*
X98608000Y-71882000D02*
X99060000Y-71882000D01*
X88194000Y-61468000D02*
X98608000Y-71882000D01*
G04 #@! TO.N,/SWITCH*
X103891001Y-87993001D02*
X114316001Y-98418001D01*
X100551999Y-85707001D02*
X102837999Y-87993001D01*
X97934999Y-85122001D02*
X98519999Y-85707001D01*
X98519999Y-85707001D02*
X100551999Y-85707001D01*
X97934999Y-83456999D02*
X97934999Y-85122001D01*
X114316001Y-98418001D02*
X115316000Y-99418000D01*
X102837999Y-87993001D02*
X103891001Y-87993001D01*
X91440000Y-76962000D02*
X97934999Y-83456999D01*
G04 #@! TO.N,/HALL_SENSOR*
X103628003Y-82913001D02*
X114300000Y-93584998D01*
X99931001Y-82913001D02*
X103628003Y-82913001D01*
X99060000Y-82042000D02*
X99931001Y-82913001D01*
X122703185Y-97790000D02*
X123698000Y-97790000D01*
X117127988Y-97722990D02*
X122636175Y-97722990D01*
X122636175Y-97722990D02*
X122703185Y-97790000D01*
X114300000Y-94895002D02*
X117127988Y-97722990D01*
X114300000Y-93584998D02*
X114300000Y-94895002D01*
G04 #@! TO.N,/SPARE_A*
X84836000Y-71882000D02*
X91440000Y-71882000D01*
G04 #@! TO.N,/SPARE_B*
X86038081Y-74422000D02*
X91440000Y-74422000D01*
X84836000Y-74422000D02*
X86038081Y-74422000D01*
G04 #@! TO.N,/SPARE_C*
X88900000Y-76962000D02*
X91440000Y-79502000D01*
X84836000Y-76962000D02*
X88900000Y-76962000D01*
G04 #@! TO.N,/SPARE_D*
X88900000Y-79502000D02*
X91440000Y-82042000D01*
X84836000Y-79502000D02*
X88900000Y-79502000D01*
G04 #@! TO.N,/SPARE_E*
X90314999Y-93616999D02*
X90640001Y-93942001D01*
X90314999Y-87520999D02*
X90314999Y-93616999D01*
X84836000Y-82042000D02*
X90314999Y-87520999D01*
X90640001Y-93942001D02*
X91440000Y-94742000D01*
G04 #@! TO.N,/SPARE_F*
X84836000Y-84582000D02*
X89864988Y-89610988D01*
X90640001Y-96482001D02*
X91440000Y-97282000D01*
X90314999Y-94253409D02*
X90314999Y-96156999D01*
X89864988Y-93803399D02*
X90314999Y-94253409D01*
X89864988Y-89610988D02*
X89864988Y-93803399D01*
X90314999Y-96156999D02*
X90640001Y-96482001D01*
G04 #@! TO.N,/SPARE_G*
X84836000Y-87122000D02*
X89414977Y-91700977D01*
X89414977Y-91700977D02*
X89414977Y-93989799D01*
X89864988Y-94439810D02*
X89864988Y-98246988D01*
X90640001Y-99022001D02*
X91440000Y-99822000D01*
X89864988Y-98246988D02*
X90640001Y-99022001D01*
X89414977Y-93989799D02*
X89864988Y-94439810D01*
G04 #@! TD*
D23*
G04 #@! TO.N,GND*
G36*
X126265000Y-113565000D02*
X78205000Y-113565000D01*
X78205000Y-111608890D01*
X122256524Y-111608890D01*
X122426355Y-112018924D01*
X122816642Y-112447183D01*
X123341108Y-112693486D01*
X123571000Y-112572819D01*
X123571000Y-111379000D01*
X123825000Y-111379000D01*
X123825000Y-112572819D01*
X124054892Y-112693486D01*
X124579358Y-112447183D01*
X124969645Y-112018924D01*
X125139476Y-111608890D01*
X125018155Y-111379000D01*
X123825000Y-111379000D01*
X123571000Y-111379000D01*
X122377845Y-111379000D01*
X122256524Y-111608890D01*
X78205000Y-111608890D01*
X78205000Y-108152670D01*
X91175000Y-108152670D01*
X91175000Y-108763330D01*
X91408690Y-109327507D01*
X91840493Y-109759310D01*
X92404670Y-109993000D01*
X93015330Y-109993000D01*
X93579507Y-109759310D01*
X94011310Y-109327507D01*
X94019438Y-109307885D01*
X94169841Y-109358554D01*
X95070395Y-108458000D01*
X94169841Y-107557446D01*
X94019438Y-107608115D01*
X94011310Y-107588493D01*
X93800658Y-107377841D01*
X94349446Y-107377841D01*
X95250000Y-108278395D01*
X95264143Y-108264253D01*
X95443748Y-108443858D01*
X95429605Y-108458000D01*
X95443748Y-108472143D01*
X95264143Y-108651748D01*
X95250000Y-108637605D01*
X94349446Y-109538159D01*
X94435852Y-109794643D01*
X95009336Y-110004458D01*
X95619460Y-109978839D01*
X96064148Y-109794643D01*
X96150553Y-109538161D01*
X96265110Y-109652718D01*
X96299942Y-109617886D01*
X96432191Y-109815809D01*
X96642235Y-109956157D01*
X96890000Y-110005440D01*
X98690000Y-110005440D01*
X98937765Y-109956157D01*
X99147809Y-109815809D01*
X99288157Y-109605765D01*
X99337440Y-109358000D01*
X99337440Y-108712000D01*
X122183908Y-108712000D01*
X122299161Y-109291418D01*
X122627375Y-109782625D01*
X122946478Y-109995843D01*
X122816642Y-110056817D01*
X122426355Y-110485076D01*
X122256524Y-110895110D01*
X122377845Y-111125000D01*
X123571000Y-111125000D01*
X123571000Y-111105000D01*
X123825000Y-111105000D01*
X123825000Y-111125000D01*
X125018155Y-111125000D01*
X125139476Y-110895110D01*
X124969645Y-110485076D01*
X124579358Y-110056817D01*
X124449522Y-109995843D01*
X124768625Y-109782625D01*
X125096839Y-109291418D01*
X125212092Y-108712000D01*
X125096839Y-108132582D01*
X124768625Y-107641375D01*
X124750381Y-107629184D01*
X124795765Y-107620157D01*
X125005809Y-107479809D01*
X125146157Y-107269765D01*
X125195440Y-107022000D01*
X125195440Y-105322000D01*
X125146157Y-105074235D01*
X125005809Y-104864191D01*
X124795765Y-104723843D01*
X124548000Y-104674560D01*
X122848000Y-104674560D01*
X122600235Y-104723843D01*
X122390191Y-104864191D01*
X122249843Y-105074235D01*
X122200560Y-105322000D01*
X122200560Y-107022000D01*
X122249843Y-107269765D01*
X122390191Y-107479809D01*
X122600235Y-107620157D01*
X122645619Y-107629184D01*
X122627375Y-107641375D01*
X122299161Y-108132582D01*
X122183908Y-108712000D01*
X99337440Y-108712000D01*
X99337440Y-107558000D01*
X99288157Y-107310235D01*
X99147809Y-107100191D01*
X98937765Y-106959843D01*
X98690000Y-106910560D01*
X96890000Y-106910560D01*
X96642235Y-106959843D01*
X96432191Y-107100191D01*
X96299942Y-107298114D01*
X96265110Y-107263282D01*
X96150553Y-107377839D01*
X96064148Y-107121357D01*
X95490664Y-106911542D01*
X94880540Y-106937161D01*
X94435852Y-107121357D01*
X94349446Y-107377841D01*
X93800658Y-107377841D01*
X93579507Y-107156690D01*
X93015330Y-106923000D01*
X92404670Y-106923000D01*
X91840493Y-107156690D01*
X91408690Y-107588493D01*
X91175000Y-108152670D01*
X78205000Y-108152670D01*
X78205000Y-106045000D01*
X78670000Y-106045000D01*
X78789107Y-106720490D01*
X79132062Y-107314506D01*
X79657500Y-107755400D01*
X80302045Y-107989995D01*
X80987955Y-107989995D01*
X81632500Y-107755400D01*
X82157938Y-107314506D01*
X82500893Y-106720490D01*
X82620000Y-106045000D01*
X109150000Y-106045000D01*
X109269107Y-106720490D01*
X109612062Y-107314506D01*
X110137500Y-107755400D01*
X110782045Y-107989995D01*
X111467955Y-107989995D01*
X112112500Y-107755400D01*
X112637938Y-107314506D01*
X112980893Y-106720490D01*
X113100000Y-106045000D01*
X113020262Y-105592778D01*
X113681000Y-105592778D01*
X113681000Y-106243222D01*
X113929914Y-106844153D01*
X114389847Y-107304086D01*
X114990778Y-107553000D01*
X115641222Y-107553000D01*
X116242153Y-107304086D01*
X116475707Y-107070532D01*
X118843073Y-107070532D01*
X118941736Y-107337387D01*
X119551461Y-107563908D01*
X120201460Y-107539856D01*
X120690264Y-107337387D01*
X120788927Y-107070532D01*
X119816000Y-106097605D01*
X118843073Y-107070532D01*
X116475707Y-107070532D01*
X116702086Y-106844153D01*
X116951000Y-106243222D01*
X116951000Y-105653461D01*
X118170092Y-105653461D01*
X118194144Y-106303460D01*
X118396613Y-106792264D01*
X118663468Y-106890927D01*
X119636395Y-105918000D01*
X119995605Y-105918000D01*
X120968532Y-106890927D01*
X121235387Y-106792264D01*
X121461908Y-106182539D01*
X121437856Y-105532540D01*
X121235387Y-105043736D01*
X120968532Y-104945073D01*
X119995605Y-105918000D01*
X119636395Y-105918000D01*
X118663468Y-104945073D01*
X118396613Y-105043736D01*
X118170092Y-105653461D01*
X116951000Y-105653461D01*
X116951000Y-105592778D01*
X116702086Y-104991847D01*
X116475707Y-104765468D01*
X118843073Y-104765468D01*
X119816000Y-105738395D01*
X120788927Y-104765468D01*
X120690264Y-104498613D01*
X120080539Y-104272092D01*
X119430540Y-104296144D01*
X118941736Y-104498613D01*
X118843073Y-104765468D01*
X116475707Y-104765468D01*
X116242153Y-104531914D01*
X115641222Y-104283000D01*
X114990778Y-104283000D01*
X114389847Y-104531914D01*
X113929914Y-104991847D01*
X113681000Y-105592778D01*
X113020262Y-105592778D01*
X112980893Y-105369510D01*
X112637938Y-104775494D01*
X112112500Y-104334600D01*
X111467955Y-104100005D01*
X110782045Y-104100005D01*
X110137500Y-104334600D01*
X109612062Y-104775494D01*
X109269107Y-105369510D01*
X109150000Y-106045000D01*
X82620000Y-106045000D01*
X82500893Y-105369510D01*
X82157938Y-104775494D01*
X81632500Y-104334600D01*
X80987955Y-104100005D01*
X80302045Y-104100005D01*
X79657500Y-104334600D01*
X79132062Y-104775494D01*
X78789107Y-105369510D01*
X78670000Y-106045000D01*
X78205000Y-106045000D01*
X78205000Y-100362506D01*
X81419000Y-100362506D01*
X81419000Y-100913494D01*
X81629853Y-101422540D01*
X82019460Y-101812147D01*
X82528506Y-102023000D01*
X83079494Y-102023000D01*
X83588540Y-101812147D01*
X83978147Y-101422540D01*
X84189000Y-100913494D01*
X84189000Y-100362506D01*
X83978147Y-99853460D01*
X83588540Y-99463853D01*
X83079494Y-99253000D01*
X82528506Y-99253000D01*
X82019460Y-99463853D01*
X81629853Y-99853460D01*
X81419000Y-100362506D01*
X78205000Y-100362506D01*
X78205000Y-95482506D01*
X81419000Y-95482506D01*
X81419000Y-96033494D01*
X81629853Y-96542540D01*
X82019460Y-96932147D01*
X82528506Y-97143000D01*
X83079494Y-97143000D01*
X83588540Y-96932147D01*
X83978147Y-96542540D01*
X84189000Y-96033494D01*
X84189000Y-95482506D01*
X83978147Y-94973460D01*
X83588540Y-94583853D01*
X83079494Y-94373000D01*
X82528506Y-94373000D01*
X82019460Y-94583853D01*
X81629853Y-94973460D01*
X81419000Y-95482506D01*
X78205000Y-95482506D01*
X78205000Y-74422000D01*
X79257908Y-74422000D01*
X79373161Y-75001418D01*
X79701375Y-75492625D01*
X79999761Y-75692000D01*
X79701375Y-75891375D01*
X79373161Y-76382582D01*
X79257908Y-76962000D01*
X79373161Y-77541418D01*
X79701375Y-78032625D01*
X79999761Y-78232000D01*
X79701375Y-78431375D01*
X79373161Y-78922582D01*
X79257908Y-79502000D01*
X79373161Y-80081418D01*
X79701375Y-80572625D01*
X79999761Y-80772000D01*
X79701375Y-80971375D01*
X79373161Y-81462582D01*
X79257908Y-82042000D01*
X79373161Y-82621418D01*
X79701375Y-83112625D01*
X79999761Y-83312000D01*
X79701375Y-83511375D01*
X79373161Y-84002582D01*
X79257908Y-84582000D01*
X79373161Y-85161418D01*
X79701375Y-85652625D01*
X79999761Y-85852000D01*
X79701375Y-86051375D01*
X79373161Y-86542582D01*
X79257908Y-87122000D01*
X79373161Y-87701418D01*
X79701375Y-88192625D01*
X79999761Y-88392000D01*
X79701375Y-88591375D01*
X79373161Y-89082582D01*
X79257908Y-89662000D01*
X79373161Y-90241418D01*
X79701375Y-90732625D01*
X80192582Y-91060839D01*
X80625744Y-91147000D01*
X80918256Y-91147000D01*
X81351418Y-91060839D01*
X81842625Y-90732625D01*
X82170839Y-90241418D01*
X82286092Y-89662000D01*
X82170839Y-89082582D01*
X81842625Y-88591375D01*
X81544239Y-88392000D01*
X81842625Y-88192625D01*
X82170839Y-87701418D01*
X82286092Y-87122000D01*
X82170839Y-86542582D01*
X81842625Y-86051375D01*
X81544239Y-85852000D01*
X81842625Y-85652625D01*
X82170839Y-85161418D01*
X82286092Y-84582000D01*
X82170839Y-84002582D01*
X81842625Y-83511375D01*
X81544239Y-83312000D01*
X81842625Y-83112625D01*
X82170839Y-82621418D01*
X82286092Y-82042000D01*
X82170839Y-81462582D01*
X81842625Y-80971375D01*
X81544239Y-80772000D01*
X81842625Y-80572625D01*
X82170839Y-80081418D01*
X82286092Y-79502000D01*
X82170839Y-78922582D01*
X81842625Y-78431375D01*
X81544239Y-78232000D01*
X81842625Y-78032625D01*
X82170839Y-77541418D01*
X82286092Y-76962000D01*
X82170839Y-76382582D01*
X81842625Y-75891375D01*
X81544239Y-75692000D01*
X81842625Y-75492625D01*
X82170839Y-75001418D01*
X82286092Y-74422000D01*
X82170839Y-73842582D01*
X81842625Y-73351375D01*
X81824381Y-73339184D01*
X81869765Y-73330157D01*
X82079809Y-73189809D01*
X82220157Y-72979765D01*
X82269440Y-72732000D01*
X82269440Y-71032000D01*
X82220157Y-70784235D01*
X82079809Y-70574191D01*
X81869765Y-70433843D01*
X81622000Y-70384560D01*
X79922000Y-70384560D01*
X79674235Y-70433843D01*
X79464191Y-70574191D01*
X79323843Y-70784235D01*
X79274560Y-71032000D01*
X79274560Y-72732000D01*
X79323843Y-72979765D01*
X79464191Y-73189809D01*
X79674235Y-73330157D01*
X79719619Y-73339184D01*
X79701375Y-73351375D01*
X79373161Y-73842582D01*
X79257908Y-74422000D01*
X78205000Y-74422000D01*
X78205000Y-67945000D01*
X78670000Y-67945000D01*
X78789107Y-68620490D01*
X79132062Y-69214506D01*
X79657500Y-69655400D01*
X80302045Y-69889995D01*
X80987955Y-69889995D01*
X81632500Y-69655400D01*
X82157938Y-69214506D01*
X82500893Y-68620490D01*
X82620000Y-67945000D01*
X82500893Y-67269510D01*
X82400140Y-67095000D01*
X82957560Y-67095000D01*
X82957560Y-68795000D01*
X83006843Y-69042765D01*
X83147191Y-69252809D01*
X83357235Y-69393157D01*
X83605000Y-69442440D01*
X85305000Y-69442440D01*
X85552765Y-69393157D01*
X85762809Y-69252809D01*
X85903157Y-69042765D01*
X85952440Y-68795000D01*
X85952440Y-67095000D01*
X85903157Y-66847235D01*
X85762809Y-66637191D01*
X85552765Y-66496843D01*
X85305000Y-66447560D01*
X83605000Y-66447560D01*
X83357235Y-66496843D01*
X83147191Y-66637191D01*
X83006843Y-66847235D01*
X82957560Y-67095000D01*
X82400140Y-67095000D01*
X82157938Y-66675494D01*
X81632500Y-66234600D01*
X80987955Y-66000005D01*
X80302045Y-66000005D01*
X79657500Y-66234600D01*
X79132062Y-66675494D01*
X78789107Y-67269510D01*
X78670000Y-67945000D01*
X78205000Y-67945000D01*
X78205000Y-61753750D01*
X79359000Y-61753750D01*
X79359000Y-62794310D01*
X79455673Y-63027699D01*
X79634302Y-63206327D01*
X79867691Y-63303000D01*
X80908250Y-63303000D01*
X81067000Y-63144250D01*
X81067000Y-61595000D01*
X79517750Y-61595000D01*
X79359000Y-61753750D01*
X78205000Y-61753750D01*
X78205000Y-60141690D01*
X79359000Y-60141690D01*
X79359000Y-61182250D01*
X79517750Y-61341000D01*
X81067000Y-61341000D01*
X81067000Y-59791750D01*
X81321000Y-59791750D01*
X81321000Y-61341000D01*
X81341000Y-61341000D01*
X81341000Y-61595000D01*
X81321000Y-61595000D01*
X81321000Y-63144250D01*
X81479750Y-63303000D01*
X82520309Y-63303000D01*
X82753698Y-63206327D01*
X82932327Y-63027699D01*
X83029000Y-62794310D01*
X83029000Y-62243421D01*
X83138362Y-62507444D01*
X83654556Y-63023638D01*
X84328996Y-63303000D01*
X85059004Y-63303000D01*
X85733444Y-63023638D01*
X86249638Y-62507444D01*
X86444000Y-62038212D01*
X86638362Y-62507444D01*
X87154556Y-63023638D01*
X87828996Y-63303000D01*
X88559004Y-63303000D01*
X88838449Y-63187250D01*
X97612701Y-71961503D01*
X97708260Y-72441909D01*
X98025423Y-72916577D01*
X98377758Y-73152000D01*
X98025423Y-73387423D01*
X97708260Y-73862091D01*
X97596887Y-74422000D01*
X97708260Y-74981909D01*
X98025423Y-75456577D01*
X98377758Y-75692000D01*
X98025423Y-75927423D01*
X97708260Y-76402091D01*
X97596887Y-76962000D01*
X97708260Y-77521909D01*
X98025423Y-77996577D01*
X98377758Y-78232000D01*
X98025423Y-78467423D01*
X97708260Y-78942091D01*
X97596887Y-79502000D01*
X97708260Y-80061909D01*
X98025423Y-80536577D01*
X98377758Y-80772000D01*
X98025423Y-81007423D01*
X97789022Y-81361222D01*
X93325001Y-76897202D01*
X93325001Y-69491847D01*
X93339889Y-69417000D01*
X93325001Y-69342153D01*
X93325001Y-69342149D01*
X93280905Y-69120464D01*
X93112930Y-68869072D01*
X93067970Y-68839031D01*
X93037929Y-68794071D01*
X92887440Y-68693517D01*
X92887440Y-68542000D01*
X92838157Y-68294235D01*
X92697809Y-68084191D01*
X92487765Y-67943843D01*
X92240000Y-67894560D01*
X90640000Y-67894560D01*
X90392235Y-67943843D01*
X90182191Y-68084191D01*
X90041843Y-68294235D01*
X89992560Y-68542000D01*
X89992560Y-70142000D01*
X90041843Y-70389765D01*
X90182191Y-70599809D01*
X90392235Y-70740157D01*
X90526106Y-70766785D01*
X90405423Y-70847423D01*
X90221957Y-71122000D01*
X86333440Y-71122000D01*
X86333440Y-71032000D01*
X86284157Y-70784235D01*
X86143809Y-70574191D01*
X85933765Y-70433843D01*
X85686000Y-70384560D01*
X83986000Y-70384560D01*
X83738235Y-70433843D01*
X83528191Y-70574191D01*
X83387843Y-70784235D01*
X83338560Y-71032000D01*
X83338560Y-72732000D01*
X83387843Y-72979765D01*
X83528191Y-73189809D01*
X83738235Y-73330157D01*
X83783619Y-73339184D01*
X83765375Y-73351375D01*
X83437161Y-73842582D01*
X83321908Y-74422000D01*
X83437161Y-75001418D01*
X83765375Y-75492625D01*
X84063761Y-75692000D01*
X83765375Y-75891375D01*
X83437161Y-76382582D01*
X83321908Y-76962000D01*
X83437161Y-77541418D01*
X83765375Y-78032625D01*
X84063761Y-78232000D01*
X83765375Y-78431375D01*
X83437161Y-78922582D01*
X83321908Y-79502000D01*
X83437161Y-80081418D01*
X83765375Y-80572625D01*
X84063761Y-80772000D01*
X83765375Y-80971375D01*
X83437161Y-81462582D01*
X83321908Y-82042000D01*
X83437161Y-82621418D01*
X83765375Y-83112625D01*
X84063761Y-83312000D01*
X83765375Y-83511375D01*
X83437161Y-84002582D01*
X83321908Y-84582000D01*
X83437161Y-85161418D01*
X83765375Y-85652625D01*
X84063761Y-85852000D01*
X83765375Y-86051375D01*
X83437161Y-86542582D01*
X83321908Y-87122000D01*
X83437161Y-87701418D01*
X83765375Y-88192625D01*
X84063761Y-88392000D01*
X83765375Y-88591375D01*
X83437161Y-89082582D01*
X83321908Y-89662000D01*
X83437161Y-90241418D01*
X83765375Y-90732625D01*
X84256582Y-91060839D01*
X84689744Y-91147000D01*
X84982256Y-91147000D01*
X85415418Y-91060839D01*
X85906625Y-90732625D01*
X86234839Y-90241418D01*
X86341980Y-89702782D01*
X88654977Y-92015780D01*
X88654978Y-93914947D01*
X88640089Y-93989799D01*
X88699074Y-94286336D01*
X88805399Y-94445462D01*
X88867049Y-94537728D01*
X88930505Y-94580128D01*
X89104988Y-94754611D01*
X89104989Y-98172136D01*
X89090100Y-98246988D01*
X89104989Y-98321840D01*
X89141602Y-98505904D01*
X89149085Y-98543525D01*
X89263352Y-98714537D01*
X89317060Y-98794917D01*
X89380516Y-98837317D01*
X90041312Y-99498114D01*
X89976887Y-99822000D01*
X90088260Y-100381909D01*
X90405423Y-100856577D01*
X90757758Y-101092000D01*
X90405423Y-101327423D01*
X90088260Y-101802091D01*
X89976887Y-102362000D01*
X90088260Y-102921909D01*
X90405423Y-103396577D01*
X90880091Y-103713740D01*
X91298667Y-103797000D01*
X91581333Y-103797000D01*
X91999909Y-103713740D01*
X92474577Y-103396577D01*
X92791740Y-102921909D01*
X92903113Y-102362000D01*
X92791740Y-101802091D01*
X92474577Y-101327423D01*
X92122242Y-101092000D01*
X92474577Y-100856577D01*
X92791740Y-100381909D01*
X92903113Y-99822000D01*
X92791740Y-99262091D01*
X92474577Y-98787423D01*
X92122242Y-98552000D01*
X92474577Y-98316577D01*
X92791740Y-97841909D01*
X92903113Y-97282000D01*
X92791740Y-96722091D01*
X92474577Y-96247423D01*
X92122242Y-96012000D01*
X92474577Y-95776577D01*
X92791740Y-95301909D01*
X92903113Y-94742000D01*
X92791740Y-94182091D01*
X92474577Y-93707423D01*
X92122242Y-93472000D01*
X92474577Y-93236577D01*
X92791740Y-92761909D01*
X92903113Y-92202000D01*
X92791740Y-91642091D01*
X92474577Y-91167423D01*
X92122242Y-90932000D01*
X92474577Y-90696577D01*
X92791740Y-90221909D01*
X92903113Y-89662000D01*
X92791740Y-89102091D01*
X92474577Y-88627423D01*
X92090892Y-88371053D01*
X92295134Y-88274389D01*
X92671041Y-87859423D01*
X92831904Y-87471039D01*
X92709915Y-87249000D01*
X91567000Y-87249000D01*
X91567000Y-87269000D01*
X91313000Y-87269000D01*
X91313000Y-87249000D01*
X91293000Y-87249000D01*
X91293000Y-86995000D01*
X91313000Y-86995000D01*
X91313000Y-86975000D01*
X91567000Y-86975000D01*
X91567000Y-86995000D01*
X92709915Y-86995000D01*
X92831904Y-86772961D01*
X92671041Y-86384577D01*
X92295134Y-85969611D01*
X92090892Y-85872947D01*
X92474577Y-85616577D01*
X92791740Y-85141909D01*
X92903113Y-84582000D01*
X92791740Y-84022091D01*
X92474577Y-83547423D01*
X92122242Y-83312000D01*
X92474577Y-83076577D01*
X92791740Y-82601909D01*
X92903113Y-82042000D01*
X92791740Y-81482091D01*
X92474577Y-81007423D01*
X92122242Y-80772000D01*
X92474577Y-80536577D01*
X92791740Y-80061909D01*
X92903113Y-79502000D01*
X92902595Y-79499396D01*
X97174999Y-83771801D01*
X97175000Y-85047150D01*
X97160111Y-85122001D01*
X97175000Y-85196853D01*
X97219096Y-85418538D01*
X97387071Y-85669930D01*
X97450527Y-85712330D01*
X97929669Y-86191473D01*
X97942784Y-86211101D01*
X97708260Y-86562091D01*
X97596887Y-87122000D01*
X97708260Y-87681909D01*
X98025423Y-88156577D01*
X98377758Y-88392000D01*
X98025423Y-88627423D01*
X97708260Y-89102091D01*
X97596887Y-89662000D01*
X97708260Y-90221909D01*
X98025423Y-90696577D01*
X98377758Y-90932000D01*
X98025423Y-91167423D01*
X97708260Y-91642091D01*
X97596887Y-92202000D01*
X97708260Y-92761909D01*
X98025423Y-93236577D01*
X98377758Y-93472000D01*
X98025423Y-93707423D01*
X97708260Y-94182091D01*
X97596887Y-94742000D01*
X97708260Y-95301909D01*
X98025423Y-95776577D01*
X98377758Y-96012000D01*
X98025423Y-96247423D01*
X97708260Y-96722091D01*
X97596887Y-97282000D01*
X97708260Y-97841909D01*
X98025423Y-98316577D01*
X98377758Y-98552000D01*
X98025423Y-98787423D01*
X97708260Y-99262091D01*
X97596887Y-99822000D01*
X97708260Y-100381909D01*
X98025423Y-100856577D01*
X98377758Y-101092000D01*
X98025423Y-101327423D01*
X97708260Y-101802091D01*
X97596887Y-102362000D01*
X97708260Y-102921909D01*
X98025423Y-103396577D01*
X98500091Y-103713740D01*
X98918667Y-103797000D01*
X99201333Y-103797000D01*
X99619909Y-103713740D01*
X100094577Y-103396577D01*
X100411740Y-102921909D01*
X100523113Y-102362000D01*
X100411740Y-101802091D01*
X100094577Y-101327423D01*
X99742242Y-101092000D01*
X100094577Y-100856577D01*
X100411740Y-100381909D01*
X100523113Y-99822000D01*
X100458688Y-99498113D01*
X101150801Y-98806000D01*
X102117908Y-98806000D01*
X102233161Y-99385418D01*
X102561375Y-99876625D01*
X102579619Y-99888816D01*
X102534235Y-99897843D01*
X102324191Y-100038191D01*
X102183843Y-100248235D01*
X102134560Y-100496000D01*
X102134560Y-102196000D01*
X102183843Y-102443765D01*
X102324191Y-102653809D01*
X102534235Y-102794157D01*
X102782000Y-102843440D01*
X104482000Y-102843440D01*
X104729765Y-102794157D01*
X104939809Y-102653809D01*
X105080157Y-102443765D01*
X105089184Y-102398381D01*
X105101375Y-102416625D01*
X105592582Y-102744839D01*
X106025744Y-102831000D01*
X106318256Y-102831000D01*
X106751418Y-102744839D01*
X107242625Y-102416625D01*
X107442000Y-102118239D01*
X107641375Y-102416625D01*
X108132582Y-102744839D01*
X108565744Y-102831000D01*
X108858256Y-102831000D01*
X109291418Y-102744839D01*
X109782625Y-102416625D01*
X110110839Y-101925418D01*
X110226092Y-101346000D01*
X110110839Y-100766582D01*
X109782625Y-100275375D01*
X109484239Y-100076000D01*
X109782625Y-99876625D01*
X110110839Y-99385418D01*
X110226092Y-98806000D01*
X110110839Y-98226582D01*
X109782625Y-97735375D01*
X109291418Y-97407161D01*
X108858256Y-97321000D01*
X108565744Y-97321000D01*
X108132582Y-97407161D01*
X107641375Y-97735375D01*
X107428157Y-98054478D01*
X107367183Y-97924642D01*
X106938924Y-97534355D01*
X106528890Y-97364524D01*
X106299000Y-97485845D01*
X106299000Y-98679000D01*
X106319000Y-98679000D01*
X106319000Y-98933000D01*
X106299000Y-98933000D01*
X106299000Y-98953000D01*
X106045000Y-98953000D01*
X106045000Y-98933000D01*
X106025000Y-98933000D01*
X106025000Y-98679000D01*
X106045000Y-98679000D01*
X106045000Y-97485845D01*
X105815110Y-97364524D01*
X105405076Y-97534355D01*
X104976817Y-97924642D01*
X104915843Y-98054478D01*
X104702625Y-97735375D01*
X104211418Y-97407161D01*
X103778256Y-97321000D01*
X103485744Y-97321000D01*
X103052582Y-97407161D01*
X102561375Y-97735375D01*
X102233161Y-98226582D01*
X102117908Y-98806000D01*
X101150801Y-98806000D01*
X103862473Y-96094329D01*
X103925929Y-96051929D01*
X104093904Y-95800537D01*
X104108822Y-95725540D01*
X104412577Y-95522577D01*
X104729740Y-95047909D01*
X104841113Y-94488000D01*
X104729740Y-93928091D01*
X104412577Y-93453423D01*
X104060242Y-93218000D01*
X104412577Y-92982577D01*
X104729740Y-92507909D01*
X104841113Y-91948000D01*
X104729740Y-91388091D01*
X104412577Y-90913423D01*
X104060242Y-90678000D01*
X104412577Y-90442577D01*
X104729740Y-89967909D01*
X104739922Y-89916723D01*
X113749823Y-98926626D01*
X113681000Y-99092778D01*
X113681000Y-99743222D01*
X113929914Y-100344153D01*
X114389847Y-100804086D01*
X114990778Y-101053000D01*
X115641222Y-101053000D01*
X116242153Y-100804086D01*
X116475707Y-100570532D01*
X118843073Y-100570532D01*
X118941736Y-100837387D01*
X119551461Y-101063908D01*
X120201460Y-101039856D01*
X120690264Y-100837387D01*
X120745906Y-100686890D01*
X122256524Y-100686890D01*
X122426355Y-101096924D01*
X122816642Y-101525183D01*
X123341108Y-101771486D01*
X123571000Y-101650819D01*
X123571000Y-100457000D01*
X123825000Y-100457000D01*
X123825000Y-101650819D01*
X124054892Y-101771486D01*
X124579358Y-101525183D01*
X124969645Y-101096924D01*
X125139476Y-100686890D01*
X125018155Y-100457000D01*
X123825000Y-100457000D01*
X123571000Y-100457000D01*
X122377845Y-100457000D01*
X122256524Y-100686890D01*
X120745906Y-100686890D01*
X120788927Y-100570532D01*
X119816000Y-99597605D01*
X118843073Y-100570532D01*
X116475707Y-100570532D01*
X116702086Y-100344153D01*
X116951000Y-99743222D01*
X116951000Y-99092778D01*
X116702086Y-98491847D01*
X116242153Y-98031914D01*
X115641222Y-97783000D01*
X114990778Y-97783000D01*
X114824626Y-97851823D01*
X104597949Y-87625148D01*
X104729740Y-87427909D01*
X104841113Y-86868000D01*
X104729740Y-86308091D01*
X104412577Y-85833423D01*
X104060242Y-85598000D01*
X104412577Y-85362577D01*
X104648978Y-85008777D01*
X113540000Y-93899800D01*
X113540001Y-94820151D01*
X113525112Y-94895002D01*
X113584097Y-95191539D01*
X113649839Y-95289928D01*
X113752072Y-95442931D01*
X113815528Y-95485331D01*
X116537658Y-98207462D01*
X116580059Y-98270919D01*
X116831451Y-98438894D01*
X117053136Y-98482990D01*
X117053141Y-98482990D01*
X117127988Y-98497878D01*
X117202835Y-98482990D01*
X118560913Y-98482990D01*
X118396613Y-98543736D01*
X118170092Y-99153461D01*
X118194144Y-99803460D01*
X118396613Y-100292264D01*
X118663468Y-100390927D01*
X119636395Y-99418000D01*
X119622253Y-99403858D01*
X119801858Y-99224253D01*
X119816000Y-99238395D01*
X119830143Y-99224253D01*
X120009748Y-99403858D01*
X119995605Y-99418000D01*
X120968532Y-100390927D01*
X121235387Y-100292264D01*
X121461908Y-99682539D01*
X121437856Y-99032540D01*
X121235387Y-98543736D01*
X121071087Y-98482990D01*
X122372355Y-98482990D01*
X122377219Y-98486240D01*
X122627375Y-98860625D01*
X122946478Y-99073843D01*
X122816642Y-99134817D01*
X122426355Y-99563076D01*
X122256524Y-99973110D01*
X122377845Y-100203000D01*
X123571000Y-100203000D01*
X123571000Y-100183000D01*
X123825000Y-100183000D01*
X123825000Y-100203000D01*
X125018155Y-100203000D01*
X125139476Y-99973110D01*
X124969645Y-99563076D01*
X124579358Y-99134817D01*
X124449522Y-99073843D01*
X124768625Y-98860625D01*
X125096839Y-98369418D01*
X125212092Y-97790000D01*
X125096839Y-97210582D01*
X124768625Y-96719375D01*
X124750381Y-96707184D01*
X124795765Y-96698157D01*
X125005809Y-96557809D01*
X125146157Y-96347765D01*
X125195440Y-96100000D01*
X125195440Y-94400000D01*
X125146157Y-94152235D01*
X125005809Y-93942191D01*
X124795765Y-93801843D01*
X124548000Y-93752560D01*
X122848000Y-93752560D01*
X122600235Y-93801843D01*
X122390191Y-93942191D01*
X122249843Y-94152235D01*
X122200560Y-94400000D01*
X122200560Y-96100000D01*
X122249843Y-96347765D01*
X122390191Y-96557809D01*
X122600235Y-96698157D01*
X122645619Y-96707184D01*
X122627375Y-96719375D01*
X122464597Y-96962990D01*
X117442790Y-96962990D01*
X116402800Y-95923000D01*
X117004309Y-95923000D01*
X117237698Y-95826327D01*
X117416327Y-95647699D01*
X117513000Y-95414310D01*
X117513000Y-94773750D01*
X117354250Y-94615000D01*
X116205000Y-94615000D01*
X116205000Y-94635000D01*
X115951000Y-94635000D01*
X115951000Y-94615000D01*
X115931000Y-94615000D01*
X115931000Y-94361000D01*
X115951000Y-94361000D01*
X115951000Y-94341000D01*
X116205000Y-94341000D01*
X116205000Y-94361000D01*
X117354250Y-94361000D01*
X117513000Y-94202250D01*
X117513000Y-93561690D01*
X117416327Y-93328301D01*
X117237698Y-93149673D01*
X117006082Y-93053735D01*
X117112577Y-92982577D01*
X117429740Y-92507909D01*
X117541113Y-91948000D01*
X117429740Y-91388091D01*
X117112577Y-90913423D01*
X116760242Y-90678000D01*
X117112577Y-90442577D01*
X117212521Y-90293000D01*
X122207522Y-90293000D01*
X122249843Y-90505765D01*
X122390191Y-90715809D01*
X122600235Y-90856157D01*
X122848000Y-90905440D01*
X124548000Y-90905440D01*
X124795765Y-90856157D01*
X125005809Y-90715809D01*
X125146157Y-90505765D01*
X125195440Y-90258000D01*
X125195440Y-88558000D01*
X125146157Y-88310235D01*
X125005809Y-88100191D01*
X124795765Y-87959843D01*
X124750381Y-87950816D01*
X124768625Y-87938625D01*
X125096839Y-87447418D01*
X125212092Y-86868000D01*
X125096839Y-86288582D01*
X124768625Y-85797375D01*
X124470239Y-85598000D01*
X124768625Y-85398625D01*
X125096839Y-84907418D01*
X125212092Y-84328000D01*
X125096839Y-83748582D01*
X124768625Y-83257375D01*
X124470239Y-83058000D01*
X124768625Y-82858625D01*
X125096839Y-82367418D01*
X125212092Y-81788000D01*
X125096839Y-81208582D01*
X124768625Y-80717375D01*
X124277418Y-80389161D01*
X123844256Y-80303000D01*
X123551744Y-80303000D01*
X123118582Y-80389161D01*
X122627375Y-80717375D01*
X122503344Y-80903000D01*
X117212521Y-80903000D01*
X117112577Y-80753423D01*
X116728892Y-80497053D01*
X116933134Y-80400389D01*
X117309041Y-79985423D01*
X117469904Y-79597039D01*
X117347915Y-79375000D01*
X116205000Y-79375000D01*
X116205000Y-79395000D01*
X115951000Y-79395000D01*
X115951000Y-79375000D01*
X114808085Y-79375000D01*
X114686096Y-79597039D01*
X114846959Y-79985423D01*
X115222866Y-80400389D01*
X115427108Y-80497053D01*
X115043423Y-80753423D01*
X114726260Y-81228091D01*
X114614887Y-81788000D01*
X114726260Y-82347909D01*
X115043423Y-82822577D01*
X115395758Y-83058000D01*
X115043423Y-83293423D01*
X114726260Y-83768091D01*
X114614887Y-84328000D01*
X114726260Y-84887909D01*
X115043423Y-85362577D01*
X115395758Y-85598000D01*
X115043423Y-85833423D01*
X114726260Y-86308091D01*
X114614887Y-86868000D01*
X114726260Y-87427909D01*
X115043423Y-87902577D01*
X115395758Y-88138000D01*
X115043423Y-88373423D01*
X114726260Y-88848091D01*
X114614887Y-89408000D01*
X114726260Y-89967909D01*
X115043423Y-90442577D01*
X115395758Y-90678000D01*
X115043423Y-90913423D01*
X114726260Y-91388091D01*
X114614887Y-91948000D01*
X114726260Y-92507909D01*
X115043423Y-92982577D01*
X115149918Y-93053735D01*
X114922114Y-93148094D01*
X114847929Y-93037069D01*
X114784473Y-92994669D01*
X104492607Y-82702804D01*
X104729740Y-82347909D01*
X104841113Y-81788000D01*
X104729740Y-81228091D01*
X104419474Y-80763745D01*
X107177861Y-80763745D01*
X107251995Y-81009864D01*
X107789223Y-81202965D01*
X108359454Y-81175778D01*
X108760005Y-81009864D01*
X108834139Y-80763745D01*
X108006000Y-79935605D01*
X107177861Y-80763745D01*
X104419474Y-80763745D01*
X104412577Y-80753423D01*
X104060242Y-80518000D01*
X104412577Y-80282577D01*
X104729740Y-79807909D01*
X104783185Y-79539223D01*
X106559035Y-79539223D01*
X106586222Y-80109454D01*
X106752136Y-80510005D01*
X106998255Y-80584139D01*
X107826395Y-79756000D01*
X108185605Y-79756000D01*
X109013745Y-80584139D01*
X109259864Y-80510005D01*
X109452965Y-79972777D01*
X109425778Y-79402546D01*
X109259864Y-79001995D01*
X109013745Y-78927861D01*
X108185605Y-79756000D01*
X107826395Y-79756000D01*
X106998255Y-78927861D01*
X106752136Y-79001995D01*
X106559035Y-79539223D01*
X104783185Y-79539223D01*
X104841113Y-79248000D01*
X104741708Y-78748255D01*
X107177861Y-78748255D01*
X108006000Y-79576395D01*
X108834139Y-78748255D01*
X108760005Y-78502136D01*
X108222777Y-78309035D01*
X107652546Y-78336222D01*
X107251995Y-78502136D01*
X107177861Y-78748255D01*
X104741708Y-78748255D01*
X104729740Y-78688091D01*
X104412577Y-78213423D01*
X104028892Y-77957053D01*
X104233134Y-77860389D01*
X104609041Y-77445423D01*
X104769904Y-77057039D01*
X104647915Y-76835000D01*
X103505000Y-76835000D01*
X103505000Y-76855000D01*
X103251000Y-76855000D01*
X103251000Y-76835000D01*
X102108085Y-76835000D01*
X101986096Y-77057039D01*
X102146959Y-77445423D01*
X102522866Y-77860389D01*
X102727108Y-77957053D01*
X102343423Y-78213423D01*
X102026260Y-78688091D01*
X101914887Y-79248000D01*
X102026260Y-79807909D01*
X102343423Y-80282577D01*
X102695758Y-80518000D01*
X102343423Y-80753423D01*
X102026260Y-81228091D01*
X101914887Y-81788000D01*
X101987490Y-82153001D01*
X100501033Y-82153001D01*
X100523113Y-82042000D01*
X100411740Y-81482091D01*
X100094577Y-81007423D01*
X99742242Y-80772000D01*
X100094577Y-80536577D01*
X100411740Y-80061909D01*
X100523113Y-79502000D01*
X100411740Y-78942091D01*
X100094577Y-78467423D01*
X99742242Y-78232000D01*
X100094577Y-77996577D01*
X100411740Y-77521909D01*
X100523113Y-76962000D01*
X100411740Y-76402091D01*
X100382922Y-76358961D01*
X101986096Y-76358961D01*
X102108085Y-76581000D01*
X103251000Y-76581000D01*
X103251000Y-75437371D01*
X103505000Y-75437371D01*
X103505000Y-76581000D01*
X104647915Y-76581000D01*
X104769904Y-76358961D01*
X104609041Y-75970577D01*
X104233134Y-75555611D01*
X103727041Y-75316086D01*
X103505000Y-75437371D01*
X103251000Y-75437371D01*
X103028959Y-75316086D01*
X102522866Y-75555611D01*
X102146959Y-75970577D01*
X101986096Y-76358961D01*
X100382922Y-76358961D01*
X100094577Y-75927423D01*
X99742242Y-75692000D01*
X100094577Y-75456577D01*
X100411740Y-74981909D01*
X100523113Y-74422000D01*
X100411740Y-73862091D01*
X100094577Y-73387423D01*
X99742242Y-73152000D01*
X100094577Y-72916577D01*
X100411740Y-72441909D01*
X100523113Y-71882000D01*
X100411740Y-71322091D01*
X100094577Y-70847423D01*
X99742242Y-70612000D01*
X100094577Y-70376577D01*
X100411740Y-69901909D01*
X100523113Y-69342000D01*
X100411740Y-68782091D01*
X100094577Y-68307423D01*
X99619909Y-67990260D01*
X99209408Y-67908606D01*
X94444565Y-63143763D01*
X94828996Y-63303000D01*
X95559004Y-63303000D01*
X95713448Y-63239027D01*
X95829844Y-63355423D01*
X95829847Y-63355425D01*
X96156576Y-63682154D01*
X96205952Y-63756050D01*
X96498691Y-63951653D01*
X96756836Y-64003001D01*
X96756840Y-64003001D01*
X96844001Y-64020338D01*
X96931162Y-64003001D01*
X106628999Y-64003001D01*
X106629000Y-68056834D01*
X106611662Y-68143999D01*
X106680347Y-68489308D01*
X106826575Y-68708153D01*
X106826577Y-68708155D01*
X106875951Y-68782048D01*
X106949844Y-68831422D01*
X114079255Y-75960834D01*
X113989845Y-76020576D01*
X113989844Y-76020577D01*
X113915951Y-76069951D01*
X113866577Y-76143844D01*
X111689422Y-78321000D01*
X111220561Y-78321000D01*
X110693138Y-78539466D01*
X110289466Y-78943138D01*
X110071000Y-79470561D01*
X110071000Y-80041439D01*
X110289466Y-80568862D01*
X110693138Y-80972534D01*
X111220561Y-81191000D01*
X111791439Y-81191000D01*
X112318862Y-80972534D01*
X112722534Y-80568862D01*
X112941000Y-80041439D01*
X112941000Y-79572578D01*
X114920579Y-77593000D01*
X114943479Y-77593000D01*
X115043423Y-77742577D01*
X115427108Y-77998947D01*
X115222866Y-78095611D01*
X114846959Y-78510577D01*
X114686096Y-78898961D01*
X114808085Y-79121000D01*
X115951000Y-79121000D01*
X115951000Y-79101000D01*
X116205000Y-79101000D01*
X116205000Y-79121000D01*
X117347915Y-79121000D01*
X117469904Y-78898961D01*
X117309041Y-78510577D01*
X116933134Y-78095611D01*
X116728892Y-77998947D01*
X117112577Y-77742577D01*
X117429740Y-77267909D01*
X117541113Y-76708000D01*
X117429740Y-76148091D01*
X117112577Y-75673423D01*
X116637909Y-75356260D01*
X116219333Y-75273000D01*
X115936667Y-75273000D01*
X115901562Y-75279983D01*
X112503579Y-71882000D01*
X118373908Y-71882000D01*
X118489161Y-72461418D01*
X118817375Y-72952625D01*
X119115761Y-73152000D01*
X118817375Y-73351375D01*
X118489161Y-73842582D01*
X118373908Y-74422000D01*
X118489161Y-75001418D01*
X118817375Y-75492625D01*
X119115761Y-75692000D01*
X118817375Y-75891375D01*
X118489161Y-76382582D01*
X118373908Y-76962000D01*
X118489161Y-77541418D01*
X118817375Y-78032625D01*
X119308582Y-78360839D01*
X119741744Y-78447000D01*
X120034256Y-78447000D01*
X120467418Y-78360839D01*
X120958625Y-78032625D01*
X121286839Y-77541418D01*
X121331102Y-77318890D01*
X122256524Y-77318890D01*
X122426355Y-77728924D01*
X122816642Y-78157183D01*
X123341108Y-78403486D01*
X123571000Y-78282819D01*
X123571000Y-77089000D01*
X123825000Y-77089000D01*
X123825000Y-78282819D01*
X124054892Y-78403486D01*
X124579358Y-78157183D01*
X124969645Y-77728924D01*
X125139476Y-77318890D01*
X125018155Y-77089000D01*
X123825000Y-77089000D01*
X123571000Y-77089000D01*
X122377845Y-77089000D01*
X122256524Y-77318890D01*
X121331102Y-77318890D01*
X121402092Y-76962000D01*
X121286839Y-76382582D01*
X120958625Y-75891375D01*
X120660239Y-75692000D01*
X120958625Y-75492625D01*
X121286839Y-75001418D01*
X121331102Y-74778890D01*
X122256524Y-74778890D01*
X122426355Y-75188924D01*
X122816642Y-75617183D01*
X122975954Y-75692000D01*
X122816642Y-75766817D01*
X122426355Y-76195076D01*
X122256524Y-76605110D01*
X122377845Y-76835000D01*
X123571000Y-76835000D01*
X123571000Y-74549000D01*
X123825000Y-74549000D01*
X123825000Y-76835000D01*
X125018155Y-76835000D01*
X125139476Y-76605110D01*
X124969645Y-76195076D01*
X124579358Y-75766817D01*
X124420046Y-75692000D01*
X124579358Y-75617183D01*
X124969645Y-75188924D01*
X125139476Y-74778890D01*
X125018155Y-74549000D01*
X123825000Y-74549000D01*
X123571000Y-74549000D01*
X122377845Y-74549000D01*
X122256524Y-74778890D01*
X121331102Y-74778890D01*
X121402092Y-74422000D01*
X121286839Y-73842582D01*
X120958625Y-73351375D01*
X120660239Y-73152000D01*
X120958625Y-72952625D01*
X121286839Y-72461418D01*
X121331102Y-72238890D01*
X122256524Y-72238890D01*
X122426355Y-72648924D01*
X122816642Y-73077183D01*
X122975954Y-73152000D01*
X122816642Y-73226817D01*
X122426355Y-73655076D01*
X122256524Y-74065110D01*
X122377845Y-74295000D01*
X123571000Y-74295000D01*
X123571000Y-72009000D01*
X123825000Y-72009000D01*
X123825000Y-74295000D01*
X125018155Y-74295000D01*
X125139476Y-74065110D01*
X124969645Y-73655076D01*
X124579358Y-73226817D01*
X124420046Y-73152000D01*
X124579358Y-73077183D01*
X124969645Y-72648924D01*
X125139476Y-72238890D01*
X125018155Y-72009000D01*
X123825000Y-72009000D01*
X123571000Y-72009000D01*
X122377845Y-72009000D01*
X122256524Y-72238890D01*
X121331102Y-72238890D01*
X121402092Y-71882000D01*
X121286839Y-71302582D01*
X120958625Y-70811375D01*
X120940381Y-70799184D01*
X120985765Y-70790157D01*
X121195809Y-70649809D01*
X121336157Y-70439765D01*
X121385440Y-70192000D01*
X121385440Y-69627750D01*
X122213000Y-69627750D01*
X122213000Y-70318310D01*
X122309673Y-70551699D01*
X122488302Y-70730327D01*
X122697878Y-70817136D01*
X122426355Y-71115076D01*
X122256524Y-71525110D01*
X122377845Y-71755000D01*
X123571000Y-71755000D01*
X123571000Y-69469000D01*
X123825000Y-69469000D01*
X123825000Y-71755000D01*
X125018155Y-71755000D01*
X125139476Y-71525110D01*
X124969645Y-71115076D01*
X124698122Y-70817136D01*
X124907698Y-70730327D01*
X125086327Y-70551699D01*
X125183000Y-70318310D01*
X125183000Y-69627750D01*
X125024250Y-69469000D01*
X123825000Y-69469000D01*
X123571000Y-69469000D01*
X122371750Y-69469000D01*
X122213000Y-69627750D01*
X121385440Y-69627750D01*
X121385440Y-68492000D01*
X121360316Y-68365690D01*
X122213000Y-68365690D01*
X122213000Y-69056250D01*
X122371750Y-69215000D01*
X123571000Y-69215000D01*
X123571000Y-68015750D01*
X123825000Y-68015750D01*
X123825000Y-69215000D01*
X125024250Y-69215000D01*
X125183000Y-69056250D01*
X125183000Y-68365690D01*
X125086327Y-68132301D01*
X124907698Y-67953673D01*
X124674309Y-67857000D01*
X123983750Y-67857000D01*
X123825000Y-68015750D01*
X123571000Y-68015750D01*
X123412250Y-67857000D01*
X122721691Y-67857000D01*
X122488302Y-67953673D01*
X122309673Y-68132301D01*
X122213000Y-68365690D01*
X121360316Y-68365690D01*
X121336157Y-68244235D01*
X121195809Y-68034191D01*
X120985765Y-67893843D01*
X120738000Y-67844560D01*
X119038000Y-67844560D01*
X118790235Y-67893843D01*
X118580191Y-68034191D01*
X118439843Y-68244235D01*
X118390560Y-68492000D01*
X118390560Y-70192000D01*
X118439843Y-70439765D01*
X118580191Y-70649809D01*
X118790235Y-70790157D01*
X118835619Y-70799184D01*
X118817375Y-70811375D01*
X118489161Y-71302582D01*
X118373908Y-71882000D01*
X112503579Y-71882000D01*
X108566579Y-67945000D01*
X114230000Y-67945000D01*
X114349107Y-68620490D01*
X114692062Y-69214506D01*
X115217500Y-69655400D01*
X115862045Y-69889995D01*
X116547955Y-69889995D01*
X117192500Y-69655400D01*
X117717938Y-69214506D01*
X118060893Y-68620490D01*
X118180000Y-67945000D01*
X118060893Y-67269510D01*
X117717938Y-66675494D01*
X117192500Y-66234600D01*
X116547955Y-66000005D01*
X115862045Y-66000005D01*
X115217500Y-66234600D01*
X114692062Y-66675494D01*
X114349107Y-67269510D01*
X114230000Y-67945000D01*
X108566579Y-67945000D01*
X108398999Y-67777421D01*
X108398999Y-63484579D01*
X108644551Y-63239027D01*
X108798996Y-63303000D01*
X109529004Y-63303000D01*
X110203444Y-63023638D01*
X110719638Y-62507444D01*
X110914000Y-62038212D01*
X111108362Y-62507444D01*
X111624556Y-63023638D01*
X112298996Y-63303000D01*
X113029004Y-63303000D01*
X113703444Y-63023638D01*
X114219638Y-62507444D01*
X114414000Y-62038212D01*
X114608362Y-62507444D01*
X115124556Y-63023638D01*
X115798996Y-63303000D01*
X116529004Y-63303000D01*
X117203444Y-63023638D01*
X117719638Y-62507444D01*
X117914000Y-62038212D01*
X118108362Y-62507444D01*
X118624556Y-63023638D01*
X119298996Y-63303000D01*
X120029004Y-63303000D01*
X120703444Y-63023638D01*
X120961907Y-62765175D01*
X122046430Y-62765175D01*
X122169565Y-63052788D01*
X122851734Y-63312707D01*
X123581443Y-63291786D01*
X124158435Y-63052788D01*
X124281570Y-62765175D01*
X123164000Y-61647605D01*
X122046430Y-62765175D01*
X120961907Y-62765175D01*
X121219638Y-62507444D01*
X121408747Y-62050895D01*
X121579212Y-62462435D01*
X121866825Y-62585570D01*
X122984395Y-61468000D01*
X123343605Y-61468000D01*
X124461175Y-62585570D01*
X124748788Y-62462435D01*
X125008707Y-61780266D01*
X124987786Y-61050557D01*
X124748788Y-60473565D01*
X124461175Y-60350430D01*
X123343605Y-61468000D01*
X122984395Y-61468000D01*
X121866825Y-60350430D01*
X121579212Y-60473565D01*
X121415862Y-60902284D01*
X121219638Y-60428556D01*
X120961907Y-60170825D01*
X122046430Y-60170825D01*
X123164000Y-61288395D01*
X124281570Y-60170825D01*
X124158435Y-59883212D01*
X123476266Y-59623293D01*
X122746557Y-59644214D01*
X122169565Y-59883212D01*
X122046430Y-60170825D01*
X120961907Y-60170825D01*
X120703444Y-59912362D01*
X120029004Y-59633000D01*
X119298996Y-59633000D01*
X119019552Y-59748749D01*
X117829311Y-58558510D01*
X117786909Y-58495051D01*
X117535517Y-58327076D01*
X117313832Y-58282980D01*
X117313827Y-58282980D01*
X117238980Y-58268092D01*
X117164133Y-58282980D01*
X87193866Y-58282980D01*
X87119019Y-58268092D01*
X87044172Y-58282980D01*
X87044168Y-58282980D01*
X86822483Y-58327076D01*
X86571091Y-58495051D01*
X86528691Y-58558507D01*
X85338449Y-59748750D01*
X85059004Y-59633000D01*
X84328996Y-59633000D01*
X83654556Y-59912362D01*
X83138362Y-60428556D01*
X83029000Y-60692579D01*
X83029000Y-60141690D01*
X82932327Y-59908301D01*
X82753698Y-59729673D01*
X82520309Y-59633000D01*
X81479750Y-59633000D01*
X81321000Y-59791750D01*
X81067000Y-59791750D01*
X80908250Y-59633000D01*
X79867691Y-59633000D01*
X79634302Y-59729673D01*
X79455673Y-59908301D01*
X79359000Y-60141690D01*
X78205000Y-60141690D01*
X78205000Y-57885000D01*
X126265001Y-57885000D01*
X126265000Y-113565000D01*
X126265000Y-113565000D01*
G37*
X126265000Y-113565000D02*
X78205000Y-113565000D01*
X78205000Y-111608890D01*
X122256524Y-111608890D01*
X122426355Y-112018924D01*
X122816642Y-112447183D01*
X123341108Y-112693486D01*
X123571000Y-112572819D01*
X123571000Y-111379000D01*
X123825000Y-111379000D01*
X123825000Y-112572819D01*
X124054892Y-112693486D01*
X124579358Y-112447183D01*
X124969645Y-112018924D01*
X125139476Y-111608890D01*
X125018155Y-111379000D01*
X123825000Y-111379000D01*
X123571000Y-111379000D01*
X122377845Y-111379000D01*
X122256524Y-111608890D01*
X78205000Y-111608890D01*
X78205000Y-108152670D01*
X91175000Y-108152670D01*
X91175000Y-108763330D01*
X91408690Y-109327507D01*
X91840493Y-109759310D01*
X92404670Y-109993000D01*
X93015330Y-109993000D01*
X93579507Y-109759310D01*
X94011310Y-109327507D01*
X94019438Y-109307885D01*
X94169841Y-109358554D01*
X95070395Y-108458000D01*
X94169841Y-107557446D01*
X94019438Y-107608115D01*
X94011310Y-107588493D01*
X93800658Y-107377841D01*
X94349446Y-107377841D01*
X95250000Y-108278395D01*
X95264143Y-108264253D01*
X95443748Y-108443858D01*
X95429605Y-108458000D01*
X95443748Y-108472143D01*
X95264143Y-108651748D01*
X95250000Y-108637605D01*
X94349446Y-109538159D01*
X94435852Y-109794643D01*
X95009336Y-110004458D01*
X95619460Y-109978839D01*
X96064148Y-109794643D01*
X96150553Y-109538161D01*
X96265110Y-109652718D01*
X96299942Y-109617886D01*
X96432191Y-109815809D01*
X96642235Y-109956157D01*
X96890000Y-110005440D01*
X98690000Y-110005440D01*
X98937765Y-109956157D01*
X99147809Y-109815809D01*
X99288157Y-109605765D01*
X99337440Y-109358000D01*
X99337440Y-108712000D01*
X122183908Y-108712000D01*
X122299161Y-109291418D01*
X122627375Y-109782625D01*
X122946478Y-109995843D01*
X122816642Y-110056817D01*
X122426355Y-110485076D01*
X122256524Y-110895110D01*
X122377845Y-111125000D01*
X123571000Y-111125000D01*
X123571000Y-111105000D01*
X123825000Y-111105000D01*
X123825000Y-111125000D01*
X125018155Y-111125000D01*
X125139476Y-110895110D01*
X124969645Y-110485076D01*
X124579358Y-110056817D01*
X124449522Y-109995843D01*
X124768625Y-109782625D01*
X125096839Y-109291418D01*
X125212092Y-108712000D01*
X125096839Y-108132582D01*
X124768625Y-107641375D01*
X124750381Y-107629184D01*
X124795765Y-107620157D01*
X125005809Y-107479809D01*
X125146157Y-107269765D01*
X125195440Y-107022000D01*
X125195440Y-105322000D01*
X125146157Y-105074235D01*
X125005809Y-104864191D01*
X124795765Y-104723843D01*
X124548000Y-104674560D01*
X122848000Y-104674560D01*
X122600235Y-104723843D01*
X122390191Y-104864191D01*
X122249843Y-105074235D01*
X122200560Y-105322000D01*
X122200560Y-107022000D01*
X122249843Y-107269765D01*
X122390191Y-107479809D01*
X122600235Y-107620157D01*
X122645619Y-107629184D01*
X122627375Y-107641375D01*
X122299161Y-108132582D01*
X122183908Y-108712000D01*
X99337440Y-108712000D01*
X99337440Y-107558000D01*
X99288157Y-107310235D01*
X99147809Y-107100191D01*
X98937765Y-106959843D01*
X98690000Y-106910560D01*
X96890000Y-106910560D01*
X96642235Y-106959843D01*
X96432191Y-107100191D01*
X96299942Y-107298114D01*
X96265110Y-107263282D01*
X96150553Y-107377839D01*
X96064148Y-107121357D01*
X95490664Y-106911542D01*
X94880540Y-106937161D01*
X94435852Y-107121357D01*
X94349446Y-107377841D01*
X93800658Y-107377841D01*
X93579507Y-107156690D01*
X93015330Y-106923000D01*
X92404670Y-106923000D01*
X91840493Y-107156690D01*
X91408690Y-107588493D01*
X91175000Y-108152670D01*
X78205000Y-108152670D01*
X78205000Y-106045000D01*
X78670000Y-106045000D01*
X78789107Y-106720490D01*
X79132062Y-107314506D01*
X79657500Y-107755400D01*
X80302045Y-107989995D01*
X80987955Y-107989995D01*
X81632500Y-107755400D01*
X82157938Y-107314506D01*
X82500893Y-106720490D01*
X82620000Y-106045000D01*
X109150000Y-106045000D01*
X109269107Y-106720490D01*
X109612062Y-107314506D01*
X110137500Y-107755400D01*
X110782045Y-107989995D01*
X111467955Y-107989995D01*
X112112500Y-107755400D01*
X112637938Y-107314506D01*
X112980893Y-106720490D01*
X113100000Y-106045000D01*
X113020262Y-105592778D01*
X113681000Y-105592778D01*
X113681000Y-106243222D01*
X113929914Y-106844153D01*
X114389847Y-107304086D01*
X114990778Y-107553000D01*
X115641222Y-107553000D01*
X116242153Y-107304086D01*
X116475707Y-107070532D01*
X118843073Y-107070532D01*
X118941736Y-107337387D01*
X119551461Y-107563908D01*
X120201460Y-107539856D01*
X120690264Y-107337387D01*
X120788927Y-107070532D01*
X119816000Y-106097605D01*
X118843073Y-107070532D01*
X116475707Y-107070532D01*
X116702086Y-106844153D01*
X116951000Y-106243222D01*
X116951000Y-105653461D01*
X118170092Y-105653461D01*
X118194144Y-106303460D01*
X118396613Y-106792264D01*
X118663468Y-106890927D01*
X119636395Y-105918000D01*
X119995605Y-105918000D01*
X120968532Y-106890927D01*
X121235387Y-106792264D01*
X121461908Y-106182539D01*
X121437856Y-105532540D01*
X121235387Y-105043736D01*
X120968532Y-104945073D01*
X119995605Y-105918000D01*
X119636395Y-105918000D01*
X118663468Y-104945073D01*
X118396613Y-105043736D01*
X118170092Y-105653461D01*
X116951000Y-105653461D01*
X116951000Y-105592778D01*
X116702086Y-104991847D01*
X116475707Y-104765468D01*
X118843073Y-104765468D01*
X119816000Y-105738395D01*
X120788927Y-104765468D01*
X120690264Y-104498613D01*
X120080539Y-104272092D01*
X119430540Y-104296144D01*
X118941736Y-104498613D01*
X118843073Y-104765468D01*
X116475707Y-104765468D01*
X116242153Y-104531914D01*
X115641222Y-104283000D01*
X114990778Y-104283000D01*
X114389847Y-104531914D01*
X113929914Y-104991847D01*
X113681000Y-105592778D01*
X113020262Y-105592778D01*
X112980893Y-105369510D01*
X112637938Y-104775494D01*
X112112500Y-104334600D01*
X111467955Y-104100005D01*
X110782045Y-104100005D01*
X110137500Y-104334600D01*
X109612062Y-104775494D01*
X109269107Y-105369510D01*
X109150000Y-106045000D01*
X82620000Y-106045000D01*
X82500893Y-105369510D01*
X82157938Y-104775494D01*
X81632500Y-104334600D01*
X80987955Y-104100005D01*
X80302045Y-104100005D01*
X79657500Y-104334600D01*
X79132062Y-104775494D01*
X78789107Y-105369510D01*
X78670000Y-106045000D01*
X78205000Y-106045000D01*
X78205000Y-100362506D01*
X81419000Y-100362506D01*
X81419000Y-100913494D01*
X81629853Y-101422540D01*
X82019460Y-101812147D01*
X82528506Y-102023000D01*
X83079494Y-102023000D01*
X83588540Y-101812147D01*
X83978147Y-101422540D01*
X84189000Y-100913494D01*
X84189000Y-100362506D01*
X83978147Y-99853460D01*
X83588540Y-99463853D01*
X83079494Y-99253000D01*
X82528506Y-99253000D01*
X82019460Y-99463853D01*
X81629853Y-99853460D01*
X81419000Y-100362506D01*
X78205000Y-100362506D01*
X78205000Y-95482506D01*
X81419000Y-95482506D01*
X81419000Y-96033494D01*
X81629853Y-96542540D01*
X82019460Y-96932147D01*
X82528506Y-97143000D01*
X83079494Y-97143000D01*
X83588540Y-96932147D01*
X83978147Y-96542540D01*
X84189000Y-96033494D01*
X84189000Y-95482506D01*
X83978147Y-94973460D01*
X83588540Y-94583853D01*
X83079494Y-94373000D01*
X82528506Y-94373000D01*
X82019460Y-94583853D01*
X81629853Y-94973460D01*
X81419000Y-95482506D01*
X78205000Y-95482506D01*
X78205000Y-74422000D01*
X79257908Y-74422000D01*
X79373161Y-75001418D01*
X79701375Y-75492625D01*
X79999761Y-75692000D01*
X79701375Y-75891375D01*
X79373161Y-76382582D01*
X79257908Y-76962000D01*
X79373161Y-77541418D01*
X79701375Y-78032625D01*
X79999761Y-78232000D01*
X79701375Y-78431375D01*
X79373161Y-78922582D01*
X79257908Y-79502000D01*
X79373161Y-80081418D01*
X79701375Y-80572625D01*
X79999761Y-80772000D01*
X79701375Y-80971375D01*
X79373161Y-81462582D01*
X79257908Y-82042000D01*
X79373161Y-82621418D01*
X79701375Y-83112625D01*
X79999761Y-83312000D01*
X79701375Y-83511375D01*
X79373161Y-84002582D01*
X79257908Y-84582000D01*
X79373161Y-85161418D01*
X79701375Y-85652625D01*
X79999761Y-85852000D01*
X79701375Y-86051375D01*
X79373161Y-86542582D01*
X79257908Y-87122000D01*
X79373161Y-87701418D01*
X79701375Y-88192625D01*
X79999761Y-88392000D01*
X79701375Y-88591375D01*
X79373161Y-89082582D01*
X79257908Y-89662000D01*
X79373161Y-90241418D01*
X79701375Y-90732625D01*
X80192582Y-91060839D01*
X80625744Y-91147000D01*
X80918256Y-91147000D01*
X81351418Y-91060839D01*
X81842625Y-90732625D01*
X82170839Y-90241418D01*
X82286092Y-89662000D01*
X82170839Y-89082582D01*
X81842625Y-88591375D01*
X81544239Y-88392000D01*
X81842625Y-88192625D01*
X82170839Y-87701418D01*
X82286092Y-87122000D01*
X82170839Y-86542582D01*
X81842625Y-86051375D01*
X81544239Y-85852000D01*
X81842625Y-85652625D01*
X82170839Y-85161418D01*
X82286092Y-84582000D01*
X82170839Y-84002582D01*
X81842625Y-83511375D01*
X81544239Y-83312000D01*
X81842625Y-83112625D01*
X82170839Y-82621418D01*
X82286092Y-82042000D01*
X82170839Y-81462582D01*
X81842625Y-80971375D01*
X81544239Y-80772000D01*
X81842625Y-80572625D01*
X82170839Y-80081418D01*
X82286092Y-79502000D01*
X82170839Y-78922582D01*
X81842625Y-78431375D01*
X81544239Y-78232000D01*
X81842625Y-78032625D01*
X82170839Y-77541418D01*
X82286092Y-76962000D01*
X82170839Y-76382582D01*
X81842625Y-75891375D01*
X81544239Y-75692000D01*
X81842625Y-75492625D01*
X82170839Y-75001418D01*
X82286092Y-74422000D01*
X82170839Y-73842582D01*
X81842625Y-73351375D01*
X81824381Y-73339184D01*
X81869765Y-73330157D01*
X82079809Y-73189809D01*
X82220157Y-72979765D01*
X82269440Y-72732000D01*
X82269440Y-71032000D01*
X82220157Y-70784235D01*
X82079809Y-70574191D01*
X81869765Y-70433843D01*
X81622000Y-70384560D01*
X79922000Y-70384560D01*
X79674235Y-70433843D01*
X79464191Y-70574191D01*
X79323843Y-70784235D01*
X79274560Y-71032000D01*
X79274560Y-72732000D01*
X79323843Y-72979765D01*
X79464191Y-73189809D01*
X79674235Y-73330157D01*
X79719619Y-73339184D01*
X79701375Y-73351375D01*
X79373161Y-73842582D01*
X79257908Y-74422000D01*
X78205000Y-74422000D01*
X78205000Y-67945000D01*
X78670000Y-67945000D01*
X78789107Y-68620490D01*
X79132062Y-69214506D01*
X79657500Y-69655400D01*
X80302045Y-69889995D01*
X80987955Y-69889995D01*
X81632500Y-69655400D01*
X82157938Y-69214506D01*
X82500893Y-68620490D01*
X82620000Y-67945000D01*
X82500893Y-67269510D01*
X82400140Y-67095000D01*
X82957560Y-67095000D01*
X82957560Y-68795000D01*
X83006843Y-69042765D01*
X83147191Y-69252809D01*
X83357235Y-69393157D01*
X83605000Y-69442440D01*
X85305000Y-69442440D01*
X85552765Y-69393157D01*
X85762809Y-69252809D01*
X85903157Y-69042765D01*
X85952440Y-68795000D01*
X85952440Y-67095000D01*
X85903157Y-66847235D01*
X85762809Y-66637191D01*
X85552765Y-66496843D01*
X85305000Y-66447560D01*
X83605000Y-66447560D01*
X83357235Y-66496843D01*
X83147191Y-66637191D01*
X83006843Y-66847235D01*
X82957560Y-67095000D01*
X82400140Y-67095000D01*
X82157938Y-66675494D01*
X81632500Y-66234600D01*
X80987955Y-66000005D01*
X80302045Y-66000005D01*
X79657500Y-66234600D01*
X79132062Y-66675494D01*
X78789107Y-67269510D01*
X78670000Y-67945000D01*
X78205000Y-67945000D01*
X78205000Y-61753750D01*
X79359000Y-61753750D01*
X79359000Y-62794310D01*
X79455673Y-63027699D01*
X79634302Y-63206327D01*
X79867691Y-63303000D01*
X80908250Y-63303000D01*
X81067000Y-63144250D01*
X81067000Y-61595000D01*
X79517750Y-61595000D01*
X79359000Y-61753750D01*
X78205000Y-61753750D01*
X78205000Y-60141690D01*
X79359000Y-60141690D01*
X79359000Y-61182250D01*
X79517750Y-61341000D01*
X81067000Y-61341000D01*
X81067000Y-59791750D01*
X81321000Y-59791750D01*
X81321000Y-61341000D01*
X81341000Y-61341000D01*
X81341000Y-61595000D01*
X81321000Y-61595000D01*
X81321000Y-63144250D01*
X81479750Y-63303000D01*
X82520309Y-63303000D01*
X82753698Y-63206327D01*
X82932327Y-63027699D01*
X83029000Y-62794310D01*
X83029000Y-62243421D01*
X83138362Y-62507444D01*
X83654556Y-63023638D01*
X84328996Y-63303000D01*
X85059004Y-63303000D01*
X85733444Y-63023638D01*
X86249638Y-62507444D01*
X86444000Y-62038212D01*
X86638362Y-62507444D01*
X87154556Y-63023638D01*
X87828996Y-63303000D01*
X88559004Y-63303000D01*
X88838449Y-63187250D01*
X97612701Y-71961503D01*
X97708260Y-72441909D01*
X98025423Y-72916577D01*
X98377758Y-73152000D01*
X98025423Y-73387423D01*
X97708260Y-73862091D01*
X97596887Y-74422000D01*
X97708260Y-74981909D01*
X98025423Y-75456577D01*
X98377758Y-75692000D01*
X98025423Y-75927423D01*
X97708260Y-76402091D01*
X97596887Y-76962000D01*
X97708260Y-77521909D01*
X98025423Y-77996577D01*
X98377758Y-78232000D01*
X98025423Y-78467423D01*
X97708260Y-78942091D01*
X97596887Y-79502000D01*
X97708260Y-80061909D01*
X98025423Y-80536577D01*
X98377758Y-80772000D01*
X98025423Y-81007423D01*
X97789022Y-81361222D01*
X93325001Y-76897202D01*
X93325001Y-69491847D01*
X93339889Y-69417000D01*
X93325001Y-69342153D01*
X93325001Y-69342149D01*
X93280905Y-69120464D01*
X93112930Y-68869072D01*
X93067970Y-68839031D01*
X93037929Y-68794071D01*
X92887440Y-68693517D01*
X92887440Y-68542000D01*
X92838157Y-68294235D01*
X92697809Y-68084191D01*
X92487765Y-67943843D01*
X92240000Y-67894560D01*
X90640000Y-67894560D01*
X90392235Y-67943843D01*
X90182191Y-68084191D01*
X90041843Y-68294235D01*
X89992560Y-68542000D01*
X89992560Y-70142000D01*
X90041843Y-70389765D01*
X90182191Y-70599809D01*
X90392235Y-70740157D01*
X90526106Y-70766785D01*
X90405423Y-70847423D01*
X90221957Y-71122000D01*
X86333440Y-71122000D01*
X86333440Y-71032000D01*
X86284157Y-70784235D01*
X86143809Y-70574191D01*
X85933765Y-70433843D01*
X85686000Y-70384560D01*
X83986000Y-70384560D01*
X83738235Y-70433843D01*
X83528191Y-70574191D01*
X83387843Y-70784235D01*
X83338560Y-71032000D01*
X83338560Y-72732000D01*
X83387843Y-72979765D01*
X83528191Y-73189809D01*
X83738235Y-73330157D01*
X83783619Y-73339184D01*
X83765375Y-73351375D01*
X83437161Y-73842582D01*
X83321908Y-74422000D01*
X83437161Y-75001418D01*
X83765375Y-75492625D01*
X84063761Y-75692000D01*
X83765375Y-75891375D01*
X83437161Y-76382582D01*
X83321908Y-76962000D01*
X83437161Y-77541418D01*
X83765375Y-78032625D01*
X84063761Y-78232000D01*
X83765375Y-78431375D01*
X83437161Y-78922582D01*
X83321908Y-79502000D01*
X83437161Y-80081418D01*
X83765375Y-80572625D01*
X84063761Y-80772000D01*
X83765375Y-80971375D01*
X83437161Y-81462582D01*
X83321908Y-82042000D01*
X83437161Y-82621418D01*
X83765375Y-83112625D01*
X84063761Y-83312000D01*
X83765375Y-83511375D01*
X83437161Y-84002582D01*
X83321908Y-84582000D01*
X83437161Y-85161418D01*
X83765375Y-85652625D01*
X84063761Y-85852000D01*
X83765375Y-86051375D01*
X83437161Y-86542582D01*
X83321908Y-87122000D01*
X83437161Y-87701418D01*
X83765375Y-88192625D01*
X84063761Y-88392000D01*
X83765375Y-88591375D01*
X83437161Y-89082582D01*
X83321908Y-89662000D01*
X83437161Y-90241418D01*
X83765375Y-90732625D01*
X84256582Y-91060839D01*
X84689744Y-91147000D01*
X84982256Y-91147000D01*
X85415418Y-91060839D01*
X85906625Y-90732625D01*
X86234839Y-90241418D01*
X86341980Y-89702782D01*
X88654977Y-92015780D01*
X88654978Y-93914947D01*
X88640089Y-93989799D01*
X88699074Y-94286336D01*
X88805399Y-94445462D01*
X88867049Y-94537728D01*
X88930505Y-94580128D01*
X89104988Y-94754611D01*
X89104989Y-98172136D01*
X89090100Y-98246988D01*
X89104989Y-98321840D01*
X89141602Y-98505904D01*
X89149085Y-98543525D01*
X89263352Y-98714537D01*
X89317060Y-98794917D01*
X89380516Y-98837317D01*
X90041312Y-99498114D01*
X89976887Y-99822000D01*
X90088260Y-100381909D01*
X90405423Y-100856577D01*
X90757758Y-101092000D01*
X90405423Y-101327423D01*
X90088260Y-101802091D01*
X89976887Y-102362000D01*
X90088260Y-102921909D01*
X90405423Y-103396577D01*
X90880091Y-103713740D01*
X91298667Y-103797000D01*
X91581333Y-103797000D01*
X91999909Y-103713740D01*
X92474577Y-103396577D01*
X92791740Y-102921909D01*
X92903113Y-102362000D01*
X92791740Y-101802091D01*
X92474577Y-101327423D01*
X92122242Y-101092000D01*
X92474577Y-100856577D01*
X92791740Y-100381909D01*
X92903113Y-99822000D01*
X92791740Y-99262091D01*
X92474577Y-98787423D01*
X92122242Y-98552000D01*
X92474577Y-98316577D01*
X92791740Y-97841909D01*
X92903113Y-97282000D01*
X92791740Y-96722091D01*
X92474577Y-96247423D01*
X92122242Y-96012000D01*
X92474577Y-95776577D01*
X92791740Y-95301909D01*
X92903113Y-94742000D01*
X92791740Y-94182091D01*
X92474577Y-93707423D01*
X92122242Y-93472000D01*
X92474577Y-93236577D01*
X92791740Y-92761909D01*
X92903113Y-92202000D01*
X92791740Y-91642091D01*
X92474577Y-91167423D01*
X92122242Y-90932000D01*
X92474577Y-90696577D01*
X92791740Y-90221909D01*
X92903113Y-89662000D01*
X92791740Y-89102091D01*
X92474577Y-88627423D01*
X92090892Y-88371053D01*
X92295134Y-88274389D01*
X92671041Y-87859423D01*
X92831904Y-87471039D01*
X92709915Y-87249000D01*
X91567000Y-87249000D01*
X91567000Y-87269000D01*
X91313000Y-87269000D01*
X91313000Y-87249000D01*
X91293000Y-87249000D01*
X91293000Y-86995000D01*
X91313000Y-86995000D01*
X91313000Y-86975000D01*
X91567000Y-86975000D01*
X91567000Y-86995000D01*
X92709915Y-86995000D01*
X92831904Y-86772961D01*
X92671041Y-86384577D01*
X92295134Y-85969611D01*
X92090892Y-85872947D01*
X92474577Y-85616577D01*
X92791740Y-85141909D01*
X92903113Y-84582000D01*
X92791740Y-84022091D01*
X92474577Y-83547423D01*
X92122242Y-83312000D01*
X92474577Y-83076577D01*
X92791740Y-82601909D01*
X92903113Y-82042000D01*
X92791740Y-81482091D01*
X92474577Y-81007423D01*
X92122242Y-80772000D01*
X92474577Y-80536577D01*
X92791740Y-80061909D01*
X92903113Y-79502000D01*
X92902595Y-79499396D01*
X97174999Y-83771801D01*
X97175000Y-85047150D01*
X97160111Y-85122001D01*
X97175000Y-85196853D01*
X97219096Y-85418538D01*
X97387071Y-85669930D01*
X97450527Y-85712330D01*
X97929669Y-86191473D01*
X97942784Y-86211101D01*
X97708260Y-86562091D01*
X97596887Y-87122000D01*
X97708260Y-87681909D01*
X98025423Y-88156577D01*
X98377758Y-88392000D01*
X98025423Y-88627423D01*
X97708260Y-89102091D01*
X97596887Y-89662000D01*
X97708260Y-90221909D01*
X98025423Y-90696577D01*
X98377758Y-90932000D01*
X98025423Y-91167423D01*
X97708260Y-91642091D01*
X97596887Y-92202000D01*
X97708260Y-92761909D01*
X98025423Y-93236577D01*
X98377758Y-93472000D01*
X98025423Y-93707423D01*
X97708260Y-94182091D01*
X97596887Y-94742000D01*
X97708260Y-95301909D01*
X98025423Y-95776577D01*
X98377758Y-96012000D01*
X98025423Y-96247423D01*
X97708260Y-96722091D01*
X97596887Y-97282000D01*
X97708260Y-97841909D01*
X98025423Y-98316577D01*
X98377758Y-98552000D01*
X98025423Y-98787423D01*
X97708260Y-99262091D01*
X97596887Y-99822000D01*
X97708260Y-100381909D01*
X98025423Y-100856577D01*
X98377758Y-101092000D01*
X98025423Y-101327423D01*
X97708260Y-101802091D01*
X97596887Y-102362000D01*
X97708260Y-102921909D01*
X98025423Y-103396577D01*
X98500091Y-103713740D01*
X98918667Y-103797000D01*
X99201333Y-103797000D01*
X99619909Y-103713740D01*
X100094577Y-103396577D01*
X100411740Y-102921909D01*
X100523113Y-102362000D01*
X100411740Y-101802091D01*
X100094577Y-101327423D01*
X99742242Y-101092000D01*
X100094577Y-100856577D01*
X100411740Y-100381909D01*
X100523113Y-99822000D01*
X100458688Y-99498113D01*
X101150801Y-98806000D01*
X102117908Y-98806000D01*
X102233161Y-99385418D01*
X102561375Y-99876625D01*
X102579619Y-99888816D01*
X102534235Y-99897843D01*
X102324191Y-100038191D01*
X102183843Y-100248235D01*
X102134560Y-100496000D01*
X102134560Y-102196000D01*
X102183843Y-102443765D01*
X102324191Y-102653809D01*
X102534235Y-102794157D01*
X102782000Y-102843440D01*
X104482000Y-102843440D01*
X104729765Y-102794157D01*
X104939809Y-102653809D01*
X105080157Y-102443765D01*
X105089184Y-102398381D01*
X105101375Y-102416625D01*
X105592582Y-102744839D01*
X106025744Y-102831000D01*
X106318256Y-102831000D01*
X106751418Y-102744839D01*
X107242625Y-102416625D01*
X107442000Y-102118239D01*
X107641375Y-102416625D01*
X108132582Y-102744839D01*
X108565744Y-102831000D01*
X108858256Y-102831000D01*
X109291418Y-102744839D01*
X109782625Y-102416625D01*
X110110839Y-101925418D01*
X110226092Y-101346000D01*
X110110839Y-100766582D01*
X109782625Y-100275375D01*
X109484239Y-100076000D01*
X109782625Y-99876625D01*
X110110839Y-99385418D01*
X110226092Y-98806000D01*
X110110839Y-98226582D01*
X109782625Y-97735375D01*
X109291418Y-97407161D01*
X108858256Y-97321000D01*
X108565744Y-97321000D01*
X108132582Y-97407161D01*
X107641375Y-97735375D01*
X107428157Y-98054478D01*
X107367183Y-97924642D01*
X106938924Y-97534355D01*
X106528890Y-97364524D01*
X106299000Y-97485845D01*
X106299000Y-98679000D01*
X106319000Y-98679000D01*
X106319000Y-98933000D01*
X106299000Y-98933000D01*
X106299000Y-98953000D01*
X106045000Y-98953000D01*
X106045000Y-98933000D01*
X106025000Y-98933000D01*
X106025000Y-98679000D01*
X106045000Y-98679000D01*
X106045000Y-97485845D01*
X105815110Y-97364524D01*
X105405076Y-97534355D01*
X104976817Y-97924642D01*
X104915843Y-98054478D01*
X104702625Y-97735375D01*
X104211418Y-97407161D01*
X103778256Y-97321000D01*
X103485744Y-97321000D01*
X103052582Y-97407161D01*
X102561375Y-97735375D01*
X102233161Y-98226582D01*
X102117908Y-98806000D01*
X101150801Y-98806000D01*
X103862473Y-96094329D01*
X103925929Y-96051929D01*
X104093904Y-95800537D01*
X104108822Y-95725540D01*
X104412577Y-95522577D01*
X104729740Y-95047909D01*
X104841113Y-94488000D01*
X104729740Y-93928091D01*
X104412577Y-93453423D01*
X104060242Y-93218000D01*
X104412577Y-92982577D01*
X104729740Y-92507909D01*
X104841113Y-91948000D01*
X104729740Y-91388091D01*
X104412577Y-90913423D01*
X104060242Y-90678000D01*
X104412577Y-90442577D01*
X104729740Y-89967909D01*
X104739922Y-89916723D01*
X113749823Y-98926626D01*
X113681000Y-99092778D01*
X113681000Y-99743222D01*
X113929914Y-100344153D01*
X114389847Y-100804086D01*
X114990778Y-101053000D01*
X115641222Y-101053000D01*
X116242153Y-100804086D01*
X116475707Y-100570532D01*
X118843073Y-100570532D01*
X118941736Y-100837387D01*
X119551461Y-101063908D01*
X120201460Y-101039856D01*
X120690264Y-100837387D01*
X120745906Y-100686890D01*
X122256524Y-100686890D01*
X122426355Y-101096924D01*
X122816642Y-101525183D01*
X123341108Y-101771486D01*
X123571000Y-101650819D01*
X123571000Y-100457000D01*
X123825000Y-100457000D01*
X123825000Y-101650819D01*
X124054892Y-101771486D01*
X124579358Y-101525183D01*
X124969645Y-101096924D01*
X125139476Y-100686890D01*
X125018155Y-100457000D01*
X123825000Y-100457000D01*
X123571000Y-100457000D01*
X122377845Y-100457000D01*
X122256524Y-100686890D01*
X120745906Y-100686890D01*
X120788927Y-100570532D01*
X119816000Y-99597605D01*
X118843073Y-100570532D01*
X116475707Y-100570532D01*
X116702086Y-100344153D01*
X116951000Y-99743222D01*
X116951000Y-99092778D01*
X116702086Y-98491847D01*
X116242153Y-98031914D01*
X115641222Y-97783000D01*
X114990778Y-97783000D01*
X114824626Y-97851823D01*
X104597949Y-87625148D01*
X104729740Y-87427909D01*
X104841113Y-86868000D01*
X104729740Y-86308091D01*
X104412577Y-85833423D01*
X104060242Y-85598000D01*
X104412577Y-85362577D01*
X104648978Y-85008777D01*
X113540000Y-93899800D01*
X113540001Y-94820151D01*
X113525112Y-94895002D01*
X113584097Y-95191539D01*
X113649839Y-95289928D01*
X113752072Y-95442931D01*
X113815528Y-95485331D01*
X116537658Y-98207462D01*
X116580059Y-98270919D01*
X116831451Y-98438894D01*
X117053136Y-98482990D01*
X117053141Y-98482990D01*
X117127988Y-98497878D01*
X117202835Y-98482990D01*
X118560913Y-98482990D01*
X118396613Y-98543736D01*
X118170092Y-99153461D01*
X118194144Y-99803460D01*
X118396613Y-100292264D01*
X118663468Y-100390927D01*
X119636395Y-99418000D01*
X119622253Y-99403858D01*
X119801858Y-99224253D01*
X119816000Y-99238395D01*
X119830143Y-99224253D01*
X120009748Y-99403858D01*
X119995605Y-99418000D01*
X120968532Y-100390927D01*
X121235387Y-100292264D01*
X121461908Y-99682539D01*
X121437856Y-99032540D01*
X121235387Y-98543736D01*
X121071087Y-98482990D01*
X122372355Y-98482990D01*
X122377219Y-98486240D01*
X122627375Y-98860625D01*
X122946478Y-99073843D01*
X122816642Y-99134817D01*
X122426355Y-99563076D01*
X122256524Y-99973110D01*
X122377845Y-100203000D01*
X123571000Y-100203000D01*
X123571000Y-100183000D01*
X123825000Y-100183000D01*
X123825000Y-100203000D01*
X125018155Y-100203000D01*
X125139476Y-99973110D01*
X124969645Y-99563076D01*
X124579358Y-99134817D01*
X124449522Y-99073843D01*
X124768625Y-98860625D01*
X125096839Y-98369418D01*
X125212092Y-97790000D01*
X125096839Y-97210582D01*
X124768625Y-96719375D01*
X124750381Y-96707184D01*
X124795765Y-96698157D01*
X125005809Y-96557809D01*
X125146157Y-96347765D01*
X125195440Y-96100000D01*
X125195440Y-94400000D01*
X125146157Y-94152235D01*
X125005809Y-93942191D01*
X124795765Y-93801843D01*
X124548000Y-93752560D01*
X122848000Y-93752560D01*
X122600235Y-93801843D01*
X122390191Y-93942191D01*
X122249843Y-94152235D01*
X122200560Y-94400000D01*
X122200560Y-96100000D01*
X122249843Y-96347765D01*
X122390191Y-96557809D01*
X122600235Y-96698157D01*
X122645619Y-96707184D01*
X122627375Y-96719375D01*
X122464597Y-96962990D01*
X117442790Y-96962990D01*
X116402800Y-95923000D01*
X117004309Y-95923000D01*
X117237698Y-95826327D01*
X117416327Y-95647699D01*
X117513000Y-95414310D01*
X117513000Y-94773750D01*
X117354250Y-94615000D01*
X116205000Y-94615000D01*
X116205000Y-94635000D01*
X115951000Y-94635000D01*
X115951000Y-94615000D01*
X115931000Y-94615000D01*
X115931000Y-94361000D01*
X115951000Y-94361000D01*
X115951000Y-94341000D01*
X116205000Y-94341000D01*
X116205000Y-94361000D01*
X117354250Y-94361000D01*
X117513000Y-94202250D01*
X117513000Y-93561690D01*
X117416327Y-93328301D01*
X117237698Y-93149673D01*
X117006082Y-93053735D01*
X117112577Y-92982577D01*
X117429740Y-92507909D01*
X117541113Y-91948000D01*
X117429740Y-91388091D01*
X117112577Y-90913423D01*
X116760242Y-90678000D01*
X117112577Y-90442577D01*
X117212521Y-90293000D01*
X122207522Y-90293000D01*
X122249843Y-90505765D01*
X122390191Y-90715809D01*
X122600235Y-90856157D01*
X122848000Y-90905440D01*
X124548000Y-90905440D01*
X124795765Y-90856157D01*
X125005809Y-90715809D01*
X125146157Y-90505765D01*
X125195440Y-90258000D01*
X125195440Y-88558000D01*
X125146157Y-88310235D01*
X125005809Y-88100191D01*
X124795765Y-87959843D01*
X124750381Y-87950816D01*
X124768625Y-87938625D01*
X125096839Y-87447418D01*
X125212092Y-86868000D01*
X125096839Y-86288582D01*
X124768625Y-85797375D01*
X124470239Y-85598000D01*
X124768625Y-85398625D01*
X125096839Y-84907418D01*
X125212092Y-84328000D01*
X125096839Y-83748582D01*
X124768625Y-83257375D01*
X124470239Y-83058000D01*
X124768625Y-82858625D01*
X125096839Y-82367418D01*
X125212092Y-81788000D01*
X125096839Y-81208582D01*
X124768625Y-80717375D01*
X124277418Y-80389161D01*
X123844256Y-80303000D01*
X123551744Y-80303000D01*
X123118582Y-80389161D01*
X122627375Y-80717375D01*
X122503344Y-80903000D01*
X117212521Y-80903000D01*
X117112577Y-80753423D01*
X116728892Y-80497053D01*
X116933134Y-80400389D01*
X117309041Y-79985423D01*
X117469904Y-79597039D01*
X117347915Y-79375000D01*
X116205000Y-79375000D01*
X116205000Y-79395000D01*
X115951000Y-79395000D01*
X115951000Y-79375000D01*
X114808085Y-79375000D01*
X114686096Y-79597039D01*
X114846959Y-79985423D01*
X115222866Y-80400389D01*
X115427108Y-80497053D01*
X115043423Y-80753423D01*
X114726260Y-81228091D01*
X114614887Y-81788000D01*
X114726260Y-82347909D01*
X115043423Y-82822577D01*
X115395758Y-83058000D01*
X115043423Y-83293423D01*
X114726260Y-83768091D01*
X114614887Y-84328000D01*
X114726260Y-84887909D01*
X115043423Y-85362577D01*
X115395758Y-85598000D01*
X115043423Y-85833423D01*
X114726260Y-86308091D01*
X114614887Y-86868000D01*
X114726260Y-87427909D01*
X115043423Y-87902577D01*
X115395758Y-88138000D01*
X115043423Y-88373423D01*
X114726260Y-88848091D01*
X114614887Y-89408000D01*
X114726260Y-89967909D01*
X115043423Y-90442577D01*
X115395758Y-90678000D01*
X115043423Y-90913423D01*
X114726260Y-91388091D01*
X114614887Y-91948000D01*
X114726260Y-92507909D01*
X115043423Y-92982577D01*
X115149918Y-93053735D01*
X114922114Y-93148094D01*
X114847929Y-93037069D01*
X114784473Y-92994669D01*
X104492607Y-82702804D01*
X104729740Y-82347909D01*
X104841113Y-81788000D01*
X104729740Y-81228091D01*
X104419474Y-80763745D01*
X107177861Y-80763745D01*
X107251995Y-81009864D01*
X107789223Y-81202965D01*
X108359454Y-81175778D01*
X108760005Y-81009864D01*
X108834139Y-80763745D01*
X108006000Y-79935605D01*
X107177861Y-80763745D01*
X104419474Y-80763745D01*
X104412577Y-80753423D01*
X104060242Y-80518000D01*
X104412577Y-80282577D01*
X104729740Y-79807909D01*
X104783185Y-79539223D01*
X106559035Y-79539223D01*
X106586222Y-80109454D01*
X106752136Y-80510005D01*
X106998255Y-80584139D01*
X107826395Y-79756000D01*
X108185605Y-79756000D01*
X109013745Y-80584139D01*
X109259864Y-80510005D01*
X109452965Y-79972777D01*
X109425778Y-79402546D01*
X109259864Y-79001995D01*
X109013745Y-78927861D01*
X108185605Y-79756000D01*
X107826395Y-79756000D01*
X106998255Y-78927861D01*
X106752136Y-79001995D01*
X106559035Y-79539223D01*
X104783185Y-79539223D01*
X104841113Y-79248000D01*
X104741708Y-78748255D01*
X107177861Y-78748255D01*
X108006000Y-79576395D01*
X108834139Y-78748255D01*
X108760005Y-78502136D01*
X108222777Y-78309035D01*
X107652546Y-78336222D01*
X107251995Y-78502136D01*
X107177861Y-78748255D01*
X104741708Y-78748255D01*
X104729740Y-78688091D01*
X104412577Y-78213423D01*
X104028892Y-77957053D01*
X104233134Y-77860389D01*
X104609041Y-77445423D01*
X104769904Y-77057039D01*
X104647915Y-76835000D01*
X103505000Y-76835000D01*
X103505000Y-76855000D01*
X103251000Y-76855000D01*
X103251000Y-76835000D01*
X102108085Y-76835000D01*
X101986096Y-77057039D01*
X102146959Y-77445423D01*
X102522866Y-77860389D01*
X102727108Y-77957053D01*
X102343423Y-78213423D01*
X102026260Y-78688091D01*
X101914887Y-79248000D01*
X102026260Y-79807909D01*
X102343423Y-80282577D01*
X102695758Y-80518000D01*
X102343423Y-80753423D01*
X102026260Y-81228091D01*
X101914887Y-81788000D01*
X101987490Y-82153001D01*
X100501033Y-82153001D01*
X100523113Y-82042000D01*
X100411740Y-81482091D01*
X100094577Y-81007423D01*
X99742242Y-80772000D01*
X100094577Y-80536577D01*
X100411740Y-80061909D01*
X100523113Y-79502000D01*
X100411740Y-78942091D01*
X100094577Y-78467423D01*
X99742242Y-78232000D01*
X100094577Y-77996577D01*
X100411740Y-77521909D01*
X100523113Y-76962000D01*
X100411740Y-76402091D01*
X100382922Y-76358961D01*
X101986096Y-76358961D01*
X102108085Y-76581000D01*
X103251000Y-76581000D01*
X103251000Y-75437371D01*
X103505000Y-75437371D01*
X103505000Y-76581000D01*
X104647915Y-76581000D01*
X104769904Y-76358961D01*
X104609041Y-75970577D01*
X104233134Y-75555611D01*
X103727041Y-75316086D01*
X103505000Y-75437371D01*
X103251000Y-75437371D01*
X103028959Y-75316086D01*
X102522866Y-75555611D01*
X102146959Y-75970577D01*
X101986096Y-76358961D01*
X100382922Y-76358961D01*
X100094577Y-75927423D01*
X99742242Y-75692000D01*
X100094577Y-75456577D01*
X100411740Y-74981909D01*
X100523113Y-74422000D01*
X100411740Y-73862091D01*
X100094577Y-73387423D01*
X99742242Y-73152000D01*
X100094577Y-72916577D01*
X100411740Y-72441909D01*
X100523113Y-71882000D01*
X100411740Y-71322091D01*
X100094577Y-70847423D01*
X99742242Y-70612000D01*
X100094577Y-70376577D01*
X100411740Y-69901909D01*
X100523113Y-69342000D01*
X100411740Y-68782091D01*
X100094577Y-68307423D01*
X99619909Y-67990260D01*
X99209408Y-67908606D01*
X94444565Y-63143763D01*
X94828996Y-63303000D01*
X95559004Y-63303000D01*
X95713448Y-63239027D01*
X95829844Y-63355423D01*
X95829847Y-63355425D01*
X96156576Y-63682154D01*
X96205952Y-63756050D01*
X96498691Y-63951653D01*
X96756836Y-64003001D01*
X96756840Y-64003001D01*
X96844001Y-64020338D01*
X96931162Y-64003001D01*
X106628999Y-64003001D01*
X106629000Y-68056834D01*
X106611662Y-68143999D01*
X106680347Y-68489308D01*
X106826575Y-68708153D01*
X106826577Y-68708155D01*
X106875951Y-68782048D01*
X106949844Y-68831422D01*
X114079255Y-75960834D01*
X113989845Y-76020576D01*
X113989844Y-76020577D01*
X113915951Y-76069951D01*
X113866577Y-76143844D01*
X111689422Y-78321000D01*
X111220561Y-78321000D01*
X110693138Y-78539466D01*
X110289466Y-78943138D01*
X110071000Y-79470561D01*
X110071000Y-80041439D01*
X110289466Y-80568862D01*
X110693138Y-80972534D01*
X111220561Y-81191000D01*
X111791439Y-81191000D01*
X112318862Y-80972534D01*
X112722534Y-80568862D01*
X112941000Y-80041439D01*
X112941000Y-79572578D01*
X114920579Y-77593000D01*
X114943479Y-77593000D01*
X115043423Y-77742577D01*
X115427108Y-77998947D01*
X115222866Y-78095611D01*
X114846959Y-78510577D01*
X114686096Y-78898961D01*
X114808085Y-79121000D01*
X115951000Y-79121000D01*
X115951000Y-79101000D01*
X116205000Y-79101000D01*
X116205000Y-79121000D01*
X117347915Y-79121000D01*
X117469904Y-78898961D01*
X117309041Y-78510577D01*
X116933134Y-78095611D01*
X116728892Y-77998947D01*
X117112577Y-77742577D01*
X117429740Y-77267909D01*
X117541113Y-76708000D01*
X117429740Y-76148091D01*
X117112577Y-75673423D01*
X116637909Y-75356260D01*
X116219333Y-75273000D01*
X115936667Y-75273000D01*
X115901562Y-75279983D01*
X112503579Y-71882000D01*
X118373908Y-71882000D01*
X118489161Y-72461418D01*
X118817375Y-72952625D01*
X119115761Y-73152000D01*
X118817375Y-73351375D01*
X118489161Y-73842582D01*
X118373908Y-74422000D01*
X118489161Y-75001418D01*
X118817375Y-75492625D01*
X119115761Y-75692000D01*
X118817375Y-75891375D01*
X118489161Y-76382582D01*
X118373908Y-76962000D01*
X118489161Y-77541418D01*
X118817375Y-78032625D01*
X119308582Y-78360839D01*
X119741744Y-78447000D01*
X120034256Y-78447000D01*
X120467418Y-78360839D01*
X120958625Y-78032625D01*
X121286839Y-77541418D01*
X121331102Y-77318890D01*
X122256524Y-77318890D01*
X122426355Y-77728924D01*
X122816642Y-78157183D01*
X123341108Y-78403486D01*
X123571000Y-78282819D01*
X123571000Y-77089000D01*
X123825000Y-77089000D01*
X123825000Y-78282819D01*
X124054892Y-78403486D01*
X124579358Y-78157183D01*
X124969645Y-77728924D01*
X125139476Y-77318890D01*
X125018155Y-77089000D01*
X123825000Y-77089000D01*
X123571000Y-77089000D01*
X122377845Y-77089000D01*
X122256524Y-77318890D01*
X121331102Y-77318890D01*
X121402092Y-76962000D01*
X121286839Y-76382582D01*
X120958625Y-75891375D01*
X120660239Y-75692000D01*
X120958625Y-75492625D01*
X121286839Y-75001418D01*
X121331102Y-74778890D01*
X122256524Y-74778890D01*
X122426355Y-75188924D01*
X122816642Y-75617183D01*
X122975954Y-75692000D01*
X122816642Y-75766817D01*
X122426355Y-76195076D01*
X122256524Y-76605110D01*
X122377845Y-76835000D01*
X123571000Y-76835000D01*
X123571000Y-74549000D01*
X123825000Y-74549000D01*
X123825000Y-76835000D01*
X125018155Y-76835000D01*
X125139476Y-76605110D01*
X124969645Y-76195076D01*
X124579358Y-75766817D01*
X124420046Y-75692000D01*
X124579358Y-75617183D01*
X124969645Y-75188924D01*
X125139476Y-74778890D01*
X125018155Y-74549000D01*
X123825000Y-74549000D01*
X123571000Y-74549000D01*
X122377845Y-74549000D01*
X122256524Y-74778890D01*
X121331102Y-74778890D01*
X121402092Y-74422000D01*
X121286839Y-73842582D01*
X120958625Y-73351375D01*
X120660239Y-73152000D01*
X120958625Y-72952625D01*
X121286839Y-72461418D01*
X121331102Y-72238890D01*
X122256524Y-72238890D01*
X122426355Y-72648924D01*
X122816642Y-73077183D01*
X122975954Y-73152000D01*
X122816642Y-73226817D01*
X122426355Y-73655076D01*
X122256524Y-74065110D01*
X122377845Y-74295000D01*
X123571000Y-74295000D01*
X123571000Y-72009000D01*
X123825000Y-72009000D01*
X123825000Y-74295000D01*
X125018155Y-74295000D01*
X125139476Y-74065110D01*
X124969645Y-73655076D01*
X124579358Y-73226817D01*
X124420046Y-73152000D01*
X124579358Y-73077183D01*
X124969645Y-72648924D01*
X125139476Y-72238890D01*
X125018155Y-72009000D01*
X123825000Y-72009000D01*
X123571000Y-72009000D01*
X122377845Y-72009000D01*
X122256524Y-72238890D01*
X121331102Y-72238890D01*
X121402092Y-71882000D01*
X121286839Y-71302582D01*
X120958625Y-70811375D01*
X120940381Y-70799184D01*
X120985765Y-70790157D01*
X121195809Y-70649809D01*
X121336157Y-70439765D01*
X121385440Y-70192000D01*
X121385440Y-69627750D01*
X122213000Y-69627750D01*
X122213000Y-70318310D01*
X122309673Y-70551699D01*
X122488302Y-70730327D01*
X122697878Y-70817136D01*
X122426355Y-71115076D01*
X122256524Y-71525110D01*
X122377845Y-71755000D01*
X123571000Y-71755000D01*
X123571000Y-69469000D01*
X123825000Y-69469000D01*
X123825000Y-71755000D01*
X125018155Y-71755000D01*
X125139476Y-71525110D01*
X124969645Y-71115076D01*
X124698122Y-70817136D01*
X124907698Y-70730327D01*
X125086327Y-70551699D01*
X125183000Y-70318310D01*
X125183000Y-69627750D01*
X125024250Y-69469000D01*
X123825000Y-69469000D01*
X123571000Y-69469000D01*
X122371750Y-69469000D01*
X122213000Y-69627750D01*
X121385440Y-69627750D01*
X121385440Y-68492000D01*
X121360316Y-68365690D01*
X122213000Y-68365690D01*
X122213000Y-69056250D01*
X122371750Y-69215000D01*
X123571000Y-69215000D01*
X123571000Y-68015750D01*
X123825000Y-68015750D01*
X123825000Y-69215000D01*
X125024250Y-69215000D01*
X125183000Y-69056250D01*
X125183000Y-68365690D01*
X125086327Y-68132301D01*
X124907698Y-67953673D01*
X124674309Y-67857000D01*
X123983750Y-67857000D01*
X123825000Y-68015750D01*
X123571000Y-68015750D01*
X123412250Y-67857000D01*
X122721691Y-67857000D01*
X122488302Y-67953673D01*
X122309673Y-68132301D01*
X122213000Y-68365690D01*
X121360316Y-68365690D01*
X121336157Y-68244235D01*
X121195809Y-68034191D01*
X120985765Y-67893843D01*
X120738000Y-67844560D01*
X119038000Y-67844560D01*
X118790235Y-67893843D01*
X118580191Y-68034191D01*
X118439843Y-68244235D01*
X118390560Y-68492000D01*
X118390560Y-70192000D01*
X118439843Y-70439765D01*
X118580191Y-70649809D01*
X118790235Y-70790157D01*
X118835619Y-70799184D01*
X118817375Y-70811375D01*
X118489161Y-71302582D01*
X118373908Y-71882000D01*
X112503579Y-71882000D01*
X108566579Y-67945000D01*
X114230000Y-67945000D01*
X114349107Y-68620490D01*
X114692062Y-69214506D01*
X115217500Y-69655400D01*
X115862045Y-69889995D01*
X116547955Y-69889995D01*
X117192500Y-69655400D01*
X117717938Y-69214506D01*
X118060893Y-68620490D01*
X118180000Y-67945000D01*
X118060893Y-67269510D01*
X117717938Y-66675494D01*
X117192500Y-66234600D01*
X116547955Y-66000005D01*
X115862045Y-66000005D01*
X115217500Y-66234600D01*
X114692062Y-66675494D01*
X114349107Y-67269510D01*
X114230000Y-67945000D01*
X108566579Y-67945000D01*
X108398999Y-67777421D01*
X108398999Y-63484579D01*
X108644551Y-63239027D01*
X108798996Y-63303000D01*
X109529004Y-63303000D01*
X110203444Y-63023638D01*
X110719638Y-62507444D01*
X110914000Y-62038212D01*
X111108362Y-62507444D01*
X111624556Y-63023638D01*
X112298996Y-63303000D01*
X113029004Y-63303000D01*
X113703444Y-63023638D01*
X114219638Y-62507444D01*
X114414000Y-62038212D01*
X114608362Y-62507444D01*
X115124556Y-63023638D01*
X115798996Y-63303000D01*
X116529004Y-63303000D01*
X117203444Y-63023638D01*
X117719638Y-62507444D01*
X117914000Y-62038212D01*
X118108362Y-62507444D01*
X118624556Y-63023638D01*
X119298996Y-63303000D01*
X120029004Y-63303000D01*
X120703444Y-63023638D01*
X120961907Y-62765175D01*
X122046430Y-62765175D01*
X122169565Y-63052788D01*
X122851734Y-63312707D01*
X123581443Y-63291786D01*
X124158435Y-63052788D01*
X124281570Y-62765175D01*
X123164000Y-61647605D01*
X122046430Y-62765175D01*
X120961907Y-62765175D01*
X121219638Y-62507444D01*
X121408747Y-62050895D01*
X121579212Y-62462435D01*
X121866825Y-62585570D01*
X122984395Y-61468000D01*
X123343605Y-61468000D01*
X124461175Y-62585570D01*
X124748788Y-62462435D01*
X125008707Y-61780266D01*
X124987786Y-61050557D01*
X124748788Y-60473565D01*
X124461175Y-60350430D01*
X123343605Y-61468000D01*
X122984395Y-61468000D01*
X121866825Y-60350430D01*
X121579212Y-60473565D01*
X121415862Y-60902284D01*
X121219638Y-60428556D01*
X120961907Y-60170825D01*
X122046430Y-60170825D01*
X123164000Y-61288395D01*
X124281570Y-60170825D01*
X124158435Y-59883212D01*
X123476266Y-59623293D01*
X122746557Y-59644214D01*
X122169565Y-59883212D01*
X122046430Y-60170825D01*
X120961907Y-60170825D01*
X120703444Y-59912362D01*
X120029004Y-59633000D01*
X119298996Y-59633000D01*
X119019552Y-59748749D01*
X117829311Y-58558510D01*
X117786909Y-58495051D01*
X117535517Y-58327076D01*
X117313832Y-58282980D01*
X117313827Y-58282980D01*
X117238980Y-58268092D01*
X117164133Y-58282980D01*
X87193866Y-58282980D01*
X87119019Y-58268092D01*
X87044172Y-58282980D01*
X87044168Y-58282980D01*
X86822483Y-58327076D01*
X86571091Y-58495051D01*
X86528691Y-58558507D01*
X85338449Y-59748750D01*
X85059004Y-59633000D01*
X84328996Y-59633000D01*
X83654556Y-59912362D01*
X83138362Y-60428556D01*
X83029000Y-60692579D01*
X83029000Y-60141690D01*
X82932327Y-59908301D01*
X82753698Y-59729673D01*
X82520309Y-59633000D01*
X81479750Y-59633000D01*
X81321000Y-59791750D01*
X81067000Y-59791750D01*
X80908250Y-59633000D01*
X79867691Y-59633000D01*
X79634302Y-59729673D01*
X79455673Y-59908301D01*
X79359000Y-60141690D01*
X78205000Y-60141690D01*
X78205000Y-57885000D01*
X126265001Y-57885000D01*
X126265000Y-113565000D01*
G36*
X99187000Y-84455000D02*
X99207000Y-84455000D01*
X99207000Y-84709000D01*
X99187000Y-84709000D01*
X99187000Y-84729000D01*
X98933000Y-84729000D01*
X98933000Y-84709000D01*
X98913000Y-84709000D01*
X98913000Y-84455000D01*
X98933000Y-84455000D01*
X98933000Y-84435000D01*
X99187000Y-84435000D01*
X99187000Y-84455000D01*
X99187000Y-84455000D01*
G37*
X99187000Y-84455000D02*
X99207000Y-84455000D01*
X99207000Y-84709000D01*
X99187000Y-84709000D01*
X99187000Y-84729000D01*
X98933000Y-84729000D01*
X98933000Y-84709000D01*
X98913000Y-84709000D01*
X98913000Y-84455000D01*
X98933000Y-84455000D01*
X98933000Y-84435000D01*
X99187000Y-84435000D01*
X99187000Y-84455000D01*
G04 #@! TD*
M02*
