M48
;DRILL file {KiCad 5.0.2-bee76a0~70~ubuntu16.04.1} date Mon 04 Mar 2019 11:22:57 PM EST
;FORMAT={-:-/ absolute / inch / decimal}
FMAT,2
INCH,TZ
T1C0.0315
T2C0.0354
T3C0.0394
T4C0.0433
T5C0.0472
%
G90
G05
T1
X4.2522Y-3.14
X4.39Y-3.14
X3.6Y-2.73
X3.6Y-2.83
X3.6Y-2.93
X3.6Y-3.03
X3.6Y-3.13
X3.6Y-3.23
X3.6Y-3.33
X3.6Y-3.43
X3.6Y-3.53
X3.6Y-3.63
X3.6Y-3.73
X3.6Y-3.83
X3.6Y-3.93
X3.6Y-4.03
X3.9Y-2.73
X3.9Y-2.83
X3.9Y-2.93
X3.9Y-3.03
X3.9Y-3.13
X3.9Y-3.23
X3.9Y-3.33
X3.9Y-3.43
X3.9Y-3.53
X3.9Y-3.63
X3.9Y-3.73
X3.9Y-3.83
X3.9Y-3.93
X3.9Y-4.03
X4.07Y-3.02
X4.07Y-3.12
X4.07Y-3.22
X4.07Y-3.32
X4.07Y-3.42
X4.07Y-3.52
X4.07Y-3.62
X4.07Y-3.72
X4.57Y-3.02
X4.57Y-3.12
X4.57Y-3.22
X4.57Y-3.32
X4.57Y-3.42
X4.57Y-3.52
X4.57Y-3.62
X4.57Y-3.72
X3.26Y-3.77
X3.26Y-3.9621
T2
X3.65Y-4.27
X3.75Y-4.27
X3.85Y-4.27
T3
X4.87Y-3.22
X4.87Y-3.32
X4.87Y-3.42
X4.87Y-3.52
X3.34Y-2.83
X3.34Y-2.93
X3.34Y-3.03
X3.34Y-3.13
X3.34Y-3.23
X3.34Y-3.33
X3.34Y-3.43
X3.34Y-3.53
X3.18Y-2.83
X3.18Y-2.93
X3.18Y-3.03
X3.18Y-3.13
X3.18Y-3.23
X3.18Y-3.33
X3.18Y-3.43
X3.18Y-3.53
X4.87Y-4.18
X4.87Y-4.28
X4.87Y-4.38
X3.325Y-2.675
X4.87Y-2.73
X4.87Y-2.83
X4.87Y-2.93
X4.87Y-3.03
X4.72Y-2.73
X4.72Y-2.83
X4.72Y-2.93
X4.72Y-3.03
X4.08Y-3.89
X4.08Y-3.99
X4.18Y-3.89
X4.18Y-3.99
X4.28Y-3.89
X4.28Y-3.99
X4.87Y-3.75
X4.87Y-3.85
X4.87Y-3.95
T4
X4.54Y-3.9141
X4.54Y-4.17
X4.7172Y-3.9141
X4.7172Y-4.17
T5
X3.1966Y-2.42
X3.3344Y-2.42
X3.4722Y-2.42
X3.61Y-2.42
X3.7478Y-2.42
X3.8856Y-2.42
X4.16Y-2.42
X4.2978Y-2.42
X4.4356Y-2.42
X4.5734Y-2.42
X4.7112Y-2.42
X4.849Y-2.42
T0
M30
