G04 #@! TF.GenerationSoftware,KiCad,Pcbnew,5.0.2-bee76a0~70~ubuntu16.04.1*
G04 #@! TF.CreationDate,2019-03-04T23:23:01-05:00*
G04 #@! TF.ProjectId,Unified,556e6966-6965-4642-9e6b-696361645f70,rev?*
G04 #@! TF.SameCoordinates,Original*
G04 #@! TF.FileFunction,Copper,L1,Top*
G04 #@! TF.FilePolarity,Positive*
%FSLAX46Y46*%
G04 Gerber Fmt 4.6, Leading zero omitted, Abs format (unit mm)*
G04 Created by KiCad (PCBNEW 5.0.2-bee76a0~70~ubuntu16.04.1) date Mon 04 Mar 2019 11:23:01 PM EST*
%MOMM*%
%LPD*%
G01*
G04 APERTURE LIST*
G04 #@! TA.AperFunction,ComponentPad*
%ADD10R,1.600000X1.600000*%
G04 #@! TD*
G04 #@! TA.AperFunction,ComponentPad*
%ADD11O,1.600000X1.600000*%
G04 #@! TD*
G04 #@! TA.AperFunction,Conductor*
%ADD12C,0.100000*%
G04 #@! TD*
G04 #@! TA.AperFunction,SMDPad,CuDef*
%ADD13C,1.425000*%
G04 #@! TD*
G04 #@! TA.AperFunction,ComponentPad*
%ADD14C,1.600000*%
G04 #@! TD*
G04 #@! TA.AperFunction,ComponentPad*
%ADD15R,1.800000X1.800000*%
G04 #@! TD*
G04 #@! TA.AperFunction,ComponentPad*
%ADD16C,1.800000*%
G04 #@! TD*
G04 #@! TA.AperFunction,ComponentPad*
%ADD17R,2.400000X2.400000*%
G04 #@! TD*
G04 #@! TA.AperFunction,ComponentPad*
%ADD18C,2.400000*%
G04 #@! TD*
G04 #@! TA.AperFunction,ComponentPad*
%ADD19R,1.700000X1.700000*%
G04 #@! TD*
G04 #@! TA.AperFunction,ComponentPad*
%ADD20O,1.700000X1.700000*%
G04 #@! TD*
G04 #@! TA.AperFunction,SMDPad,CuDef*
%ADD21C,0.500000*%
G04 #@! TD*
G04 #@! TA.AperFunction,ComponentPad*
%ADD22C,2.000000*%
G04 #@! TD*
G04 #@! TA.AperFunction,ComponentPad*
%ADD23C,1.500000*%
G04 #@! TD*
G04 #@! TA.AperFunction,SMDPad,CuDef*
%ADD24C,1.250000*%
G04 #@! TD*
G04 #@! TA.AperFunction,Conductor*
%ADD25C,0.500000*%
G04 #@! TD*
G04 #@! TA.AperFunction,Conductor*
%ADD26C,0.250000*%
G04 #@! TD*
G04 #@! TA.AperFunction,Conductor*
%ADD27C,0.254000*%
G04 #@! TD*
G04 APERTURE END LIST*
D10*
G04 #@! TO.P,A1,1*
G04 #@! TO.N,GND*
X116078000Y-94488000D03*
D11*
G04 #@! TO.P,A1,9*
X103378000Y-76708000D03*
G04 #@! TO.P,A1,2*
G04 #@! TO.N,+5V*
X116078000Y-91948000D03*
G04 #@! TO.P,A1,10*
G04 #@! TO.N,Net-(A1-Pad10)*
X103378000Y-79248000D03*
G04 #@! TO.P,A1,3*
G04 #@! TO.N,Net-(A1-Pad3)*
X116078000Y-89408000D03*
G04 #@! TO.P,A1,11*
G04 #@! TO.N,Net-(A1-Pad11)*
X103378000Y-81788000D03*
G04 #@! TO.P,A1,4*
G04 #@! TO.N,Net-(A1-Pad4)*
X116078000Y-86868000D03*
G04 #@! TO.P,A1,12*
G04 #@! TO.N,Net-(A1-Pad12)*
X103378000Y-84328000D03*
G04 #@! TO.P,A1,5*
G04 #@! TO.N,Net-(A1-Pad5)*
X116078000Y-84328000D03*
G04 #@! TO.P,A1,13*
G04 #@! TO.N,/A4988_RESET*
X103378000Y-86868000D03*
G04 #@! TO.P,A1,6*
G04 #@! TO.N,Net-(A1-Pad6)*
X116078000Y-81788000D03*
G04 #@! TO.P,A1,14*
G04 #@! TO.N,/A4988_SLEEP*
X103378000Y-89408000D03*
G04 #@! TO.P,A1,7*
G04 #@! TO.N,GND*
X116078000Y-79248000D03*
G04 #@! TO.P,A1,15*
G04 #@! TO.N,/A4988_STEP*
X103378000Y-91948000D03*
G04 #@! TO.P,A1,8*
G04 #@! TO.N,+12V*
X116078000Y-76708000D03*
G04 #@! TO.P,A1,16*
G04 #@! TO.N,/A4988_DIR*
X103378000Y-94488000D03*
G04 #@! TD*
D12*
G04 #@! TO.N,+5V*
G04 #@! TO.C,C3*
G36*
X89041504Y-83870704D02*
X89065773Y-83874304D01*
X89089571Y-83880265D01*
X89112671Y-83888530D01*
X89134849Y-83899020D01*
X89155893Y-83911633D01*
X89175598Y-83926247D01*
X89193777Y-83942723D01*
X89210253Y-83960902D01*
X89224867Y-83980607D01*
X89237480Y-84001651D01*
X89247970Y-84023829D01*
X89256235Y-84046929D01*
X89262196Y-84070727D01*
X89265796Y-84094996D01*
X89267000Y-84119500D01*
X89267000Y-85044500D01*
X89265796Y-85069004D01*
X89262196Y-85093273D01*
X89256235Y-85117071D01*
X89247970Y-85140171D01*
X89237480Y-85162349D01*
X89224867Y-85183393D01*
X89210253Y-85203098D01*
X89193777Y-85221277D01*
X89175598Y-85237753D01*
X89155893Y-85252367D01*
X89134849Y-85264980D01*
X89112671Y-85275470D01*
X89089571Y-85283735D01*
X89065773Y-85289696D01*
X89041504Y-85293296D01*
X89017000Y-85294500D01*
X87767000Y-85294500D01*
X87742496Y-85293296D01*
X87718227Y-85289696D01*
X87694429Y-85283735D01*
X87671329Y-85275470D01*
X87649151Y-85264980D01*
X87628107Y-85252367D01*
X87608402Y-85237753D01*
X87590223Y-85221277D01*
X87573747Y-85203098D01*
X87559133Y-85183393D01*
X87546520Y-85162349D01*
X87536030Y-85140171D01*
X87527765Y-85117071D01*
X87521804Y-85093273D01*
X87518204Y-85069004D01*
X87517000Y-85044500D01*
X87517000Y-84119500D01*
X87518204Y-84094996D01*
X87521804Y-84070727D01*
X87527765Y-84046929D01*
X87536030Y-84023829D01*
X87546520Y-84001651D01*
X87559133Y-83980607D01*
X87573747Y-83960902D01*
X87590223Y-83942723D01*
X87608402Y-83926247D01*
X87628107Y-83911633D01*
X87649151Y-83899020D01*
X87671329Y-83888530D01*
X87694429Y-83880265D01*
X87718227Y-83874304D01*
X87742496Y-83870704D01*
X87767000Y-83869500D01*
X89017000Y-83869500D01*
X89041504Y-83870704D01*
X89041504Y-83870704D01*
G37*
D13*
G04 #@! TD*
G04 #@! TO.P,C3,1*
G04 #@! TO.N,+5V*
X88392000Y-84582000D03*
D12*
G04 #@! TO.N,GND*
G04 #@! TO.C,C3*
G36*
X89041504Y-80895704D02*
X89065773Y-80899304D01*
X89089571Y-80905265D01*
X89112671Y-80913530D01*
X89134849Y-80924020D01*
X89155893Y-80936633D01*
X89175598Y-80951247D01*
X89193777Y-80967723D01*
X89210253Y-80985902D01*
X89224867Y-81005607D01*
X89237480Y-81026651D01*
X89247970Y-81048829D01*
X89256235Y-81071929D01*
X89262196Y-81095727D01*
X89265796Y-81119996D01*
X89267000Y-81144500D01*
X89267000Y-82069500D01*
X89265796Y-82094004D01*
X89262196Y-82118273D01*
X89256235Y-82142071D01*
X89247970Y-82165171D01*
X89237480Y-82187349D01*
X89224867Y-82208393D01*
X89210253Y-82228098D01*
X89193777Y-82246277D01*
X89175598Y-82262753D01*
X89155893Y-82277367D01*
X89134849Y-82289980D01*
X89112671Y-82300470D01*
X89089571Y-82308735D01*
X89065773Y-82314696D01*
X89041504Y-82318296D01*
X89017000Y-82319500D01*
X87767000Y-82319500D01*
X87742496Y-82318296D01*
X87718227Y-82314696D01*
X87694429Y-82308735D01*
X87671329Y-82300470D01*
X87649151Y-82289980D01*
X87628107Y-82277367D01*
X87608402Y-82262753D01*
X87590223Y-82246277D01*
X87573747Y-82228098D01*
X87559133Y-82208393D01*
X87546520Y-82187349D01*
X87536030Y-82165171D01*
X87527765Y-82142071D01*
X87521804Y-82118273D01*
X87518204Y-82094004D01*
X87517000Y-82069500D01*
X87517000Y-81144500D01*
X87518204Y-81119996D01*
X87521804Y-81095727D01*
X87527765Y-81071929D01*
X87536030Y-81048829D01*
X87546520Y-81026651D01*
X87559133Y-81005607D01*
X87573747Y-80985902D01*
X87590223Y-80967723D01*
X87608402Y-80951247D01*
X87628107Y-80936633D01*
X87649151Y-80924020D01*
X87671329Y-80913530D01*
X87694429Y-80905265D01*
X87718227Y-80899304D01*
X87742496Y-80895704D01*
X87767000Y-80894500D01*
X89017000Y-80894500D01*
X89041504Y-80895704D01*
X89041504Y-80895704D01*
G37*
D13*
G04 #@! TD*
G04 #@! TO.P,C3,2*
G04 #@! TO.N,GND*
X88392000Y-81607000D03*
D14*
G04 #@! TO.P,C4,1*
G04 #@! TO.N,+12V*
X111506000Y-79756000D03*
G04 #@! TO.P,C4,2*
G04 #@! TO.N,GND*
X108006000Y-79756000D03*
G04 #@! TD*
D12*
G04 #@! TO.N,GND*
G04 #@! TO.C,D1*
G36*
X110123504Y-67941704D02*
X110147773Y-67945304D01*
X110171571Y-67951265D01*
X110194671Y-67959530D01*
X110216849Y-67970020D01*
X110237893Y-67982633D01*
X110257598Y-67997247D01*
X110275777Y-68013723D01*
X110292253Y-68031902D01*
X110306867Y-68051607D01*
X110319480Y-68072651D01*
X110329970Y-68094829D01*
X110338235Y-68117929D01*
X110344196Y-68141727D01*
X110347796Y-68165996D01*
X110349000Y-68190500D01*
X110349000Y-69115500D01*
X110347796Y-69140004D01*
X110344196Y-69164273D01*
X110338235Y-69188071D01*
X110329970Y-69211171D01*
X110319480Y-69233349D01*
X110306867Y-69254393D01*
X110292253Y-69274098D01*
X110275777Y-69292277D01*
X110257598Y-69308753D01*
X110237893Y-69323367D01*
X110216849Y-69335980D01*
X110194671Y-69346470D01*
X110171571Y-69354735D01*
X110147773Y-69360696D01*
X110123504Y-69364296D01*
X110099000Y-69365500D01*
X108849000Y-69365500D01*
X108824496Y-69364296D01*
X108800227Y-69360696D01*
X108776429Y-69354735D01*
X108753329Y-69346470D01*
X108731151Y-69335980D01*
X108710107Y-69323367D01*
X108690402Y-69308753D01*
X108672223Y-69292277D01*
X108655747Y-69274098D01*
X108641133Y-69254393D01*
X108628520Y-69233349D01*
X108618030Y-69211171D01*
X108609765Y-69188071D01*
X108603804Y-69164273D01*
X108600204Y-69140004D01*
X108599000Y-69115500D01*
X108599000Y-68190500D01*
X108600204Y-68165996D01*
X108603804Y-68141727D01*
X108609765Y-68117929D01*
X108618030Y-68094829D01*
X108628520Y-68072651D01*
X108641133Y-68051607D01*
X108655747Y-68031902D01*
X108672223Y-68013723D01*
X108690402Y-67997247D01*
X108710107Y-67982633D01*
X108731151Y-67970020D01*
X108753329Y-67959530D01*
X108776429Y-67951265D01*
X108800227Y-67945304D01*
X108824496Y-67941704D01*
X108849000Y-67940500D01*
X110099000Y-67940500D01*
X110123504Y-67941704D01*
X110123504Y-67941704D01*
G37*
D13*
G04 #@! TD*
G04 #@! TO.P,D1,1*
G04 #@! TO.N,GND*
X109474000Y-68653000D03*
D12*
G04 #@! TO.N,Net-(D1-Pad2)*
G04 #@! TO.C,D1*
G36*
X110123504Y-70916704D02*
X110147773Y-70920304D01*
X110171571Y-70926265D01*
X110194671Y-70934530D01*
X110216849Y-70945020D01*
X110237893Y-70957633D01*
X110257598Y-70972247D01*
X110275777Y-70988723D01*
X110292253Y-71006902D01*
X110306867Y-71026607D01*
X110319480Y-71047651D01*
X110329970Y-71069829D01*
X110338235Y-71092929D01*
X110344196Y-71116727D01*
X110347796Y-71140996D01*
X110349000Y-71165500D01*
X110349000Y-72090500D01*
X110347796Y-72115004D01*
X110344196Y-72139273D01*
X110338235Y-72163071D01*
X110329970Y-72186171D01*
X110319480Y-72208349D01*
X110306867Y-72229393D01*
X110292253Y-72249098D01*
X110275777Y-72267277D01*
X110257598Y-72283753D01*
X110237893Y-72298367D01*
X110216849Y-72310980D01*
X110194671Y-72321470D01*
X110171571Y-72329735D01*
X110147773Y-72335696D01*
X110123504Y-72339296D01*
X110099000Y-72340500D01*
X108849000Y-72340500D01*
X108824496Y-72339296D01*
X108800227Y-72335696D01*
X108776429Y-72329735D01*
X108753329Y-72321470D01*
X108731151Y-72310980D01*
X108710107Y-72298367D01*
X108690402Y-72283753D01*
X108672223Y-72267277D01*
X108655747Y-72249098D01*
X108641133Y-72229393D01*
X108628520Y-72208349D01*
X108618030Y-72186171D01*
X108609765Y-72163071D01*
X108603804Y-72139273D01*
X108600204Y-72115004D01*
X108599000Y-72090500D01*
X108599000Y-71165500D01*
X108600204Y-71140996D01*
X108603804Y-71116727D01*
X108609765Y-71092929D01*
X108618030Y-71069829D01*
X108628520Y-71047651D01*
X108641133Y-71026607D01*
X108655747Y-71006902D01*
X108672223Y-70988723D01*
X108690402Y-70972247D01*
X108710107Y-70957633D01*
X108731151Y-70945020D01*
X108753329Y-70934530D01*
X108776429Y-70926265D01*
X108800227Y-70920304D01*
X108824496Y-70916704D01*
X108849000Y-70915500D01*
X110099000Y-70915500D01*
X110123504Y-70916704D01*
X110123504Y-70916704D01*
G37*
D13*
G04 #@! TD*
G04 #@! TO.P,D1,2*
G04 #@! TO.N,Net-(D1-Pad2)*
X109474000Y-71628000D03*
D15*
G04 #@! TO.P,D2,1*
G04 #@! TO.N,Net-(D2-Pad1)*
X97790000Y-108458000D03*
D16*
G04 #@! TO.P,D2,2*
G04 #@! TO.N,GND*
X95250000Y-108458000D03*
G04 #@! TO.P,D2,3*
G04 #@! TO.N,Net-(D2-Pad3)*
X92710000Y-108458000D03*
G04 #@! TD*
D17*
G04 #@! TO.P,J1,1*
G04 #@! TO.N,GND*
X81194000Y-61468000D03*
D18*
G04 #@! TO.P,J1,2*
G04 #@! TO.N,/SPARE_IN*
X84694000Y-61468000D03*
G04 #@! TO.P,J1,3*
G04 #@! TO.N,/SDA*
X88194000Y-61468000D03*
G04 #@! TO.P,J1,4*
G04 #@! TO.N,/SCL*
X91694000Y-61468000D03*
G04 #@! TO.P,J1,5*
G04 #@! TO.N,+12V*
X95194000Y-61468000D03*
G04 #@! TO.P,J1,6*
G04 #@! TO.N,+5V*
X98694000Y-61468000D03*
G04 #@! TD*
G04 #@! TO.P,J2,6*
G04 #@! TO.N,GND*
X123164000Y-61468000D03*
G04 #@! TO.P,J2,5*
G04 #@! TO.N,/SPARE_IN*
X119664000Y-61468000D03*
G04 #@! TO.P,J2,4*
G04 #@! TO.N,/SDA*
X116164000Y-61468000D03*
G04 #@! TO.P,J2,3*
G04 #@! TO.N,/SCL*
X112664000Y-61468000D03*
G04 #@! TO.P,J2,2*
G04 #@! TO.N,+12V*
X109164000Y-61468000D03*
D17*
G04 #@! TO.P,J2,1*
G04 #@! TO.N,+5V*
X105664000Y-61468000D03*
G04 #@! TD*
D19*
G04 #@! TO.P,J3,1*
G04 #@! TO.N,/SPARE_IN*
X84455000Y-67945000D03*
G04 #@! TD*
G04 #@! TO.P,J4,1*
G04 #@! TO.N,/MISO*
X103632000Y-101346000D03*
D20*
G04 #@! TO.P,J4,2*
G04 #@! TO.N,/SCK*
X103632000Y-98806000D03*
G04 #@! TO.P,J4,3*
G04 #@! TO.N,/A4988_RESET*
X106172000Y-101346000D03*
G04 #@! TO.P,J4,4*
G04 #@! TO.N,GND*
X106172000Y-98806000D03*
G04 #@! TO.P,J4,5*
G04 #@! TO.N,/MOSI*
X108712000Y-101346000D03*
G04 #@! TO.P,J4,6*
G04 #@! TO.N,+5V*
X108712000Y-98806000D03*
G04 #@! TD*
G04 #@! TO.P,J5,3*
G04 #@! TO.N,GND*
X123698000Y-111252000D03*
G04 #@! TO.P,J5,2*
G04 #@! TO.N,/SWITCH*
X123698000Y-108712000D03*
D19*
G04 #@! TO.P,J5,1*
G04 #@! TO.N,+5V*
X123698000Y-106172000D03*
G04 #@! TD*
G04 #@! TO.P,J6,1*
G04 #@! TO.N,+5V*
X123698000Y-95250000D03*
D20*
G04 #@! TO.P,J6,2*
G04 #@! TO.N,/HALL_SENSOR*
X123698000Y-97790000D03*
G04 #@! TO.P,J6,3*
G04 #@! TO.N,GND*
X123698000Y-100330000D03*
G04 #@! TD*
D19*
G04 #@! TO.P,J8,1*
G04 #@! TO.N,/SPARE_A*
X84836000Y-71882000D03*
D20*
G04 #@! TO.P,J8,2*
G04 #@! TO.N,/SPARE_B*
X84836000Y-74422000D03*
G04 #@! TO.P,J8,3*
G04 #@! TO.N,/SPARE_C*
X84836000Y-76962000D03*
G04 #@! TO.P,J8,4*
G04 #@! TO.N,/SPARE_D*
X84836000Y-79502000D03*
G04 #@! TO.P,J8,5*
G04 #@! TO.N,/SPARE_E*
X84836000Y-82042000D03*
G04 #@! TO.P,J8,6*
G04 #@! TO.N,/SPARE_F*
X84836000Y-84582000D03*
G04 #@! TO.P,J8,7*
G04 #@! TO.N,/SPARE_G*
X84836000Y-87122000D03*
G04 #@! TO.P,J8,8*
G04 #@! TO.N,/SPARE_AN_A*
X84836000Y-89662000D03*
G04 #@! TD*
D21*
G04 #@! TO.P,JP1,1*
G04 #@! TO.N,/A4988_RESET*
X88392000Y-73914000D03*
D12*
G04 #@! TD*
G04 #@! TO.N,/A4988_RESET*
G04 #@! TO.C,JP1*
G36*
X87642000Y-74414000D02*
X87642000Y-73914000D01*
X87642602Y-73914000D01*
X87642602Y-73889466D01*
X87647412Y-73840635D01*
X87656984Y-73792510D01*
X87671228Y-73745555D01*
X87690005Y-73700222D01*
X87713136Y-73656949D01*
X87740396Y-73616150D01*
X87771524Y-73578221D01*
X87806221Y-73543524D01*
X87844150Y-73512396D01*
X87884949Y-73485136D01*
X87928222Y-73462005D01*
X87973555Y-73443228D01*
X88020510Y-73428984D01*
X88068635Y-73419412D01*
X88117466Y-73414602D01*
X88142000Y-73414602D01*
X88142000Y-73414000D01*
X88642000Y-73414000D01*
X88642000Y-73414602D01*
X88666534Y-73414602D01*
X88715365Y-73419412D01*
X88763490Y-73428984D01*
X88810445Y-73443228D01*
X88855778Y-73462005D01*
X88899051Y-73485136D01*
X88939850Y-73512396D01*
X88977779Y-73543524D01*
X89012476Y-73578221D01*
X89043604Y-73616150D01*
X89070864Y-73656949D01*
X89093995Y-73700222D01*
X89112772Y-73745555D01*
X89127016Y-73792510D01*
X89136588Y-73840635D01*
X89141398Y-73889466D01*
X89141398Y-73914000D01*
X89142000Y-73914000D01*
X89142000Y-74414000D01*
X87642000Y-74414000D01*
X87642000Y-74414000D01*
G37*
D21*
G04 #@! TO.P,JP1,2*
G04 #@! TO.N,GND*
X88392000Y-75214000D03*
D12*
G04 #@! TD*
G04 #@! TO.N,GND*
G04 #@! TO.C,JP1*
G36*
X89141398Y-75214000D02*
X89141398Y-75238534D01*
X89136588Y-75287365D01*
X89127016Y-75335490D01*
X89112772Y-75382445D01*
X89093995Y-75427778D01*
X89070864Y-75471051D01*
X89043604Y-75511850D01*
X89012476Y-75549779D01*
X88977779Y-75584476D01*
X88939850Y-75615604D01*
X88899051Y-75642864D01*
X88855778Y-75665995D01*
X88810445Y-75684772D01*
X88763490Y-75699016D01*
X88715365Y-75708588D01*
X88666534Y-75713398D01*
X88642000Y-75713398D01*
X88642000Y-75714000D01*
X88142000Y-75714000D01*
X88142000Y-75713398D01*
X88117466Y-75713398D01*
X88068635Y-75708588D01*
X88020510Y-75699016D01*
X87973555Y-75684772D01*
X87928222Y-75665995D01*
X87884949Y-75642864D01*
X87844150Y-75615604D01*
X87806221Y-75584476D01*
X87771524Y-75549779D01*
X87740396Y-75511850D01*
X87713136Y-75471051D01*
X87690005Y-75427778D01*
X87671228Y-75382445D01*
X87656984Y-75335490D01*
X87647412Y-75287365D01*
X87642602Y-75238534D01*
X87642602Y-75214000D01*
X87642000Y-75214000D01*
X87642000Y-74714000D01*
X89142000Y-74714000D01*
X89142000Y-75214000D01*
X89141398Y-75214000D01*
X89141398Y-75214000D01*
G37*
G04 #@! TO.N,+5V*
G04 #@! TO.C,R1*
G36*
X107113004Y-73040204D02*
X107137273Y-73043804D01*
X107161071Y-73049765D01*
X107184171Y-73058030D01*
X107206349Y-73068520D01*
X107227393Y-73081133D01*
X107247098Y-73095747D01*
X107265277Y-73112223D01*
X107281753Y-73130402D01*
X107296367Y-73150107D01*
X107308980Y-73171151D01*
X107319470Y-73193329D01*
X107327735Y-73216429D01*
X107333696Y-73240227D01*
X107337296Y-73264496D01*
X107338500Y-73289000D01*
X107338500Y-74539000D01*
X107337296Y-74563504D01*
X107333696Y-74587773D01*
X107327735Y-74611571D01*
X107319470Y-74634671D01*
X107308980Y-74656849D01*
X107296367Y-74677893D01*
X107281753Y-74697598D01*
X107265277Y-74715777D01*
X107247098Y-74732253D01*
X107227393Y-74746867D01*
X107206349Y-74759480D01*
X107184171Y-74769970D01*
X107161071Y-74778235D01*
X107137273Y-74784196D01*
X107113004Y-74787796D01*
X107088500Y-74789000D01*
X106163500Y-74789000D01*
X106138996Y-74787796D01*
X106114727Y-74784196D01*
X106090929Y-74778235D01*
X106067829Y-74769970D01*
X106045651Y-74759480D01*
X106024607Y-74746867D01*
X106004902Y-74732253D01*
X105986723Y-74715777D01*
X105970247Y-74697598D01*
X105955633Y-74677893D01*
X105943020Y-74656849D01*
X105932530Y-74634671D01*
X105924265Y-74611571D01*
X105918304Y-74587773D01*
X105914704Y-74563504D01*
X105913500Y-74539000D01*
X105913500Y-73289000D01*
X105914704Y-73264496D01*
X105918304Y-73240227D01*
X105924265Y-73216429D01*
X105932530Y-73193329D01*
X105943020Y-73171151D01*
X105955633Y-73150107D01*
X105970247Y-73130402D01*
X105986723Y-73112223D01*
X106004902Y-73095747D01*
X106024607Y-73081133D01*
X106045651Y-73068520D01*
X106067829Y-73058030D01*
X106090929Y-73049765D01*
X106114727Y-73043804D01*
X106138996Y-73040204D01*
X106163500Y-73039000D01*
X107088500Y-73039000D01*
X107113004Y-73040204D01*
X107113004Y-73040204D01*
G37*
D13*
G04 #@! TD*
G04 #@! TO.P,R1,1*
G04 #@! TO.N,+5V*
X106626000Y-73914000D03*
D12*
G04 #@! TO.N,Net-(D1-Pad2)*
G04 #@! TO.C,R1*
G36*
X110088004Y-73040204D02*
X110112273Y-73043804D01*
X110136071Y-73049765D01*
X110159171Y-73058030D01*
X110181349Y-73068520D01*
X110202393Y-73081133D01*
X110222098Y-73095747D01*
X110240277Y-73112223D01*
X110256753Y-73130402D01*
X110271367Y-73150107D01*
X110283980Y-73171151D01*
X110294470Y-73193329D01*
X110302735Y-73216429D01*
X110308696Y-73240227D01*
X110312296Y-73264496D01*
X110313500Y-73289000D01*
X110313500Y-74539000D01*
X110312296Y-74563504D01*
X110308696Y-74587773D01*
X110302735Y-74611571D01*
X110294470Y-74634671D01*
X110283980Y-74656849D01*
X110271367Y-74677893D01*
X110256753Y-74697598D01*
X110240277Y-74715777D01*
X110222098Y-74732253D01*
X110202393Y-74746867D01*
X110181349Y-74759480D01*
X110159171Y-74769970D01*
X110136071Y-74778235D01*
X110112273Y-74784196D01*
X110088004Y-74787796D01*
X110063500Y-74789000D01*
X109138500Y-74789000D01*
X109113996Y-74787796D01*
X109089727Y-74784196D01*
X109065929Y-74778235D01*
X109042829Y-74769970D01*
X109020651Y-74759480D01*
X108999607Y-74746867D01*
X108979902Y-74732253D01*
X108961723Y-74715777D01*
X108945247Y-74697598D01*
X108930633Y-74677893D01*
X108918020Y-74656849D01*
X108907530Y-74634671D01*
X108899265Y-74611571D01*
X108893304Y-74587773D01*
X108889704Y-74563504D01*
X108888500Y-74539000D01*
X108888500Y-73289000D01*
X108889704Y-73264496D01*
X108893304Y-73240227D01*
X108899265Y-73216429D01*
X108907530Y-73193329D01*
X108918020Y-73171151D01*
X108930633Y-73150107D01*
X108945247Y-73130402D01*
X108961723Y-73112223D01*
X108979902Y-73095747D01*
X108999607Y-73081133D01*
X109020651Y-73068520D01*
X109042829Y-73058030D01*
X109065929Y-73049765D01*
X109089727Y-73043804D01*
X109113996Y-73040204D01*
X109138500Y-73039000D01*
X110063500Y-73039000D01*
X110088004Y-73040204D01*
X110088004Y-73040204D01*
G37*
D13*
G04 #@! TD*
G04 #@! TO.P,R1,2*
G04 #@! TO.N,Net-(D1-Pad2)*
X109601000Y-73914000D03*
D12*
G04 #@! TO.N,/A4988_RESET*
G04 #@! TO.C,R2*
G36*
X89041504Y-70843704D02*
X89065773Y-70847304D01*
X89089571Y-70853265D01*
X89112671Y-70861530D01*
X89134849Y-70872020D01*
X89155893Y-70884633D01*
X89175598Y-70899247D01*
X89193777Y-70915723D01*
X89210253Y-70933902D01*
X89224867Y-70953607D01*
X89237480Y-70974651D01*
X89247970Y-70996829D01*
X89256235Y-71019929D01*
X89262196Y-71043727D01*
X89265796Y-71067996D01*
X89267000Y-71092500D01*
X89267000Y-72017500D01*
X89265796Y-72042004D01*
X89262196Y-72066273D01*
X89256235Y-72090071D01*
X89247970Y-72113171D01*
X89237480Y-72135349D01*
X89224867Y-72156393D01*
X89210253Y-72176098D01*
X89193777Y-72194277D01*
X89175598Y-72210753D01*
X89155893Y-72225367D01*
X89134849Y-72237980D01*
X89112671Y-72248470D01*
X89089571Y-72256735D01*
X89065773Y-72262696D01*
X89041504Y-72266296D01*
X89017000Y-72267500D01*
X87767000Y-72267500D01*
X87742496Y-72266296D01*
X87718227Y-72262696D01*
X87694429Y-72256735D01*
X87671329Y-72248470D01*
X87649151Y-72237980D01*
X87628107Y-72225367D01*
X87608402Y-72210753D01*
X87590223Y-72194277D01*
X87573747Y-72176098D01*
X87559133Y-72156393D01*
X87546520Y-72135349D01*
X87536030Y-72113171D01*
X87527765Y-72090071D01*
X87521804Y-72066273D01*
X87518204Y-72042004D01*
X87517000Y-72017500D01*
X87517000Y-71092500D01*
X87518204Y-71067996D01*
X87521804Y-71043727D01*
X87527765Y-71019929D01*
X87536030Y-70996829D01*
X87546520Y-70974651D01*
X87559133Y-70953607D01*
X87573747Y-70933902D01*
X87590223Y-70915723D01*
X87608402Y-70899247D01*
X87628107Y-70884633D01*
X87649151Y-70872020D01*
X87671329Y-70861530D01*
X87694429Y-70853265D01*
X87718227Y-70847304D01*
X87742496Y-70843704D01*
X87767000Y-70842500D01*
X89017000Y-70842500D01*
X89041504Y-70843704D01*
X89041504Y-70843704D01*
G37*
D13*
G04 #@! TD*
G04 #@! TO.P,R2,2*
G04 #@! TO.N,/A4988_RESET*
X88392000Y-71555000D03*
D12*
G04 #@! TO.N,+5V*
G04 #@! TO.C,R2*
G36*
X89041504Y-67868704D02*
X89065773Y-67872304D01*
X89089571Y-67878265D01*
X89112671Y-67886530D01*
X89134849Y-67897020D01*
X89155893Y-67909633D01*
X89175598Y-67924247D01*
X89193777Y-67940723D01*
X89210253Y-67958902D01*
X89224867Y-67978607D01*
X89237480Y-67999651D01*
X89247970Y-68021829D01*
X89256235Y-68044929D01*
X89262196Y-68068727D01*
X89265796Y-68092996D01*
X89267000Y-68117500D01*
X89267000Y-69042500D01*
X89265796Y-69067004D01*
X89262196Y-69091273D01*
X89256235Y-69115071D01*
X89247970Y-69138171D01*
X89237480Y-69160349D01*
X89224867Y-69181393D01*
X89210253Y-69201098D01*
X89193777Y-69219277D01*
X89175598Y-69235753D01*
X89155893Y-69250367D01*
X89134849Y-69262980D01*
X89112671Y-69273470D01*
X89089571Y-69281735D01*
X89065773Y-69287696D01*
X89041504Y-69291296D01*
X89017000Y-69292500D01*
X87767000Y-69292500D01*
X87742496Y-69291296D01*
X87718227Y-69287696D01*
X87694429Y-69281735D01*
X87671329Y-69273470D01*
X87649151Y-69262980D01*
X87628107Y-69250367D01*
X87608402Y-69235753D01*
X87590223Y-69219277D01*
X87573747Y-69201098D01*
X87559133Y-69181393D01*
X87546520Y-69160349D01*
X87536030Y-69138171D01*
X87527765Y-69115071D01*
X87521804Y-69091273D01*
X87518204Y-69067004D01*
X87517000Y-69042500D01*
X87517000Y-68117500D01*
X87518204Y-68092996D01*
X87521804Y-68068727D01*
X87527765Y-68044929D01*
X87536030Y-68021829D01*
X87546520Y-67999651D01*
X87559133Y-67978607D01*
X87573747Y-67958902D01*
X87590223Y-67940723D01*
X87608402Y-67924247D01*
X87628107Y-67909633D01*
X87649151Y-67897020D01*
X87671329Y-67886530D01*
X87694429Y-67878265D01*
X87718227Y-67872304D01*
X87742496Y-67868704D01*
X87767000Y-67867500D01*
X89017000Y-67867500D01*
X89041504Y-67868704D01*
X89041504Y-67868704D01*
G37*
D13*
G04 #@! TD*
G04 #@! TO.P,R2,1*
G04 #@! TO.N,+5V*
X88392000Y-68580000D03*
D12*
G04 #@! TO.N,/STATUS_R*
G04 #@! TO.C,R3*
G36*
X90819504Y-104771704D02*
X90843773Y-104775304D01*
X90867571Y-104781265D01*
X90890671Y-104789530D01*
X90912849Y-104800020D01*
X90933893Y-104812633D01*
X90953598Y-104827247D01*
X90971777Y-104843723D01*
X90988253Y-104861902D01*
X91002867Y-104881607D01*
X91015480Y-104902651D01*
X91025970Y-104924829D01*
X91034235Y-104947929D01*
X91040196Y-104971727D01*
X91043796Y-104995996D01*
X91045000Y-105020500D01*
X91045000Y-105945500D01*
X91043796Y-105970004D01*
X91040196Y-105994273D01*
X91034235Y-106018071D01*
X91025970Y-106041171D01*
X91015480Y-106063349D01*
X91002867Y-106084393D01*
X90988253Y-106104098D01*
X90971777Y-106122277D01*
X90953598Y-106138753D01*
X90933893Y-106153367D01*
X90912849Y-106165980D01*
X90890671Y-106176470D01*
X90867571Y-106184735D01*
X90843773Y-106190696D01*
X90819504Y-106194296D01*
X90795000Y-106195500D01*
X89545000Y-106195500D01*
X89520496Y-106194296D01*
X89496227Y-106190696D01*
X89472429Y-106184735D01*
X89449329Y-106176470D01*
X89427151Y-106165980D01*
X89406107Y-106153367D01*
X89386402Y-106138753D01*
X89368223Y-106122277D01*
X89351747Y-106104098D01*
X89337133Y-106084393D01*
X89324520Y-106063349D01*
X89314030Y-106041171D01*
X89305765Y-106018071D01*
X89299804Y-105994273D01*
X89296204Y-105970004D01*
X89295000Y-105945500D01*
X89295000Y-105020500D01*
X89296204Y-104995996D01*
X89299804Y-104971727D01*
X89305765Y-104947929D01*
X89314030Y-104924829D01*
X89324520Y-104902651D01*
X89337133Y-104881607D01*
X89351747Y-104861902D01*
X89368223Y-104843723D01*
X89386402Y-104827247D01*
X89406107Y-104812633D01*
X89427151Y-104800020D01*
X89449329Y-104789530D01*
X89472429Y-104781265D01*
X89496227Y-104775304D01*
X89520496Y-104771704D01*
X89545000Y-104770500D01*
X90795000Y-104770500D01*
X90819504Y-104771704D01*
X90819504Y-104771704D01*
G37*
D13*
G04 #@! TD*
G04 #@! TO.P,R3,2*
G04 #@! TO.N,/STATUS_R*
X90170000Y-105483000D03*
D12*
G04 #@! TO.N,Net-(D2-Pad3)*
G04 #@! TO.C,R3*
G36*
X90819504Y-107746704D02*
X90843773Y-107750304D01*
X90867571Y-107756265D01*
X90890671Y-107764530D01*
X90912849Y-107775020D01*
X90933893Y-107787633D01*
X90953598Y-107802247D01*
X90971777Y-107818723D01*
X90988253Y-107836902D01*
X91002867Y-107856607D01*
X91015480Y-107877651D01*
X91025970Y-107899829D01*
X91034235Y-107922929D01*
X91040196Y-107946727D01*
X91043796Y-107970996D01*
X91045000Y-107995500D01*
X91045000Y-108920500D01*
X91043796Y-108945004D01*
X91040196Y-108969273D01*
X91034235Y-108993071D01*
X91025970Y-109016171D01*
X91015480Y-109038349D01*
X91002867Y-109059393D01*
X90988253Y-109079098D01*
X90971777Y-109097277D01*
X90953598Y-109113753D01*
X90933893Y-109128367D01*
X90912849Y-109140980D01*
X90890671Y-109151470D01*
X90867571Y-109159735D01*
X90843773Y-109165696D01*
X90819504Y-109169296D01*
X90795000Y-109170500D01*
X89545000Y-109170500D01*
X89520496Y-109169296D01*
X89496227Y-109165696D01*
X89472429Y-109159735D01*
X89449329Y-109151470D01*
X89427151Y-109140980D01*
X89406107Y-109128367D01*
X89386402Y-109113753D01*
X89368223Y-109097277D01*
X89351747Y-109079098D01*
X89337133Y-109059393D01*
X89324520Y-109038349D01*
X89314030Y-109016171D01*
X89305765Y-108993071D01*
X89299804Y-108969273D01*
X89296204Y-108945004D01*
X89295000Y-108920500D01*
X89295000Y-107995500D01*
X89296204Y-107970996D01*
X89299804Y-107946727D01*
X89305765Y-107922929D01*
X89314030Y-107899829D01*
X89324520Y-107877651D01*
X89337133Y-107856607D01*
X89351747Y-107836902D01*
X89368223Y-107818723D01*
X89386402Y-107802247D01*
X89406107Y-107787633D01*
X89427151Y-107775020D01*
X89449329Y-107764530D01*
X89472429Y-107756265D01*
X89496227Y-107750304D01*
X89520496Y-107746704D01*
X89545000Y-107745500D01*
X90795000Y-107745500D01*
X90819504Y-107746704D01*
X90819504Y-107746704D01*
G37*
D13*
G04 #@! TD*
G04 #@! TO.P,R3,1*
G04 #@! TO.N,Net-(D2-Pad3)*
X90170000Y-108458000D03*
D12*
G04 #@! TO.N,Net-(D2-Pad1)*
G04 #@! TO.C,R4*
G36*
X100979504Y-107673704D02*
X101003773Y-107677304D01*
X101027571Y-107683265D01*
X101050671Y-107691530D01*
X101072849Y-107702020D01*
X101093893Y-107714633D01*
X101113598Y-107729247D01*
X101131777Y-107745723D01*
X101148253Y-107763902D01*
X101162867Y-107783607D01*
X101175480Y-107804651D01*
X101185970Y-107826829D01*
X101194235Y-107849929D01*
X101200196Y-107873727D01*
X101203796Y-107897996D01*
X101205000Y-107922500D01*
X101205000Y-108847500D01*
X101203796Y-108872004D01*
X101200196Y-108896273D01*
X101194235Y-108920071D01*
X101185970Y-108943171D01*
X101175480Y-108965349D01*
X101162867Y-108986393D01*
X101148253Y-109006098D01*
X101131777Y-109024277D01*
X101113598Y-109040753D01*
X101093893Y-109055367D01*
X101072849Y-109067980D01*
X101050671Y-109078470D01*
X101027571Y-109086735D01*
X101003773Y-109092696D01*
X100979504Y-109096296D01*
X100955000Y-109097500D01*
X99705000Y-109097500D01*
X99680496Y-109096296D01*
X99656227Y-109092696D01*
X99632429Y-109086735D01*
X99609329Y-109078470D01*
X99587151Y-109067980D01*
X99566107Y-109055367D01*
X99546402Y-109040753D01*
X99528223Y-109024277D01*
X99511747Y-109006098D01*
X99497133Y-108986393D01*
X99484520Y-108965349D01*
X99474030Y-108943171D01*
X99465765Y-108920071D01*
X99459804Y-108896273D01*
X99456204Y-108872004D01*
X99455000Y-108847500D01*
X99455000Y-107922500D01*
X99456204Y-107897996D01*
X99459804Y-107873727D01*
X99465765Y-107849929D01*
X99474030Y-107826829D01*
X99484520Y-107804651D01*
X99497133Y-107783607D01*
X99511747Y-107763902D01*
X99528223Y-107745723D01*
X99546402Y-107729247D01*
X99566107Y-107714633D01*
X99587151Y-107702020D01*
X99609329Y-107691530D01*
X99632429Y-107683265D01*
X99656227Y-107677304D01*
X99680496Y-107673704D01*
X99705000Y-107672500D01*
X100955000Y-107672500D01*
X100979504Y-107673704D01*
X100979504Y-107673704D01*
G37*
D13*
G04 #@! TD*
G04 #@! TO.P,R4,1*
G04 #@! TO.N,Net-(D2-Pad1)*
X100330000Y-108385000D03*
D12*
G04 #@! TO.N,/STATUS_G*
G04 #@! TO.C,R4*
G36*
X100979504Y-104698704D02*
X101003773Y-104702304D01*
X101027571Y-104708265D01*
X101050671Y-104716530D01*
X101072849Y-104727020D01*
X101093893Y-104739633D01*
X101113598Y-104754247D01*
X101131777Y-104770723D01*
X101148253Y-104788902D01*
X101162867Y-104808607D01*
X101175480Y-104829651D01*
X101185970Y-104851829D01*
X101194235Y-104874929D01*
X101200196Y-104898727D01*
X101203796Y-104922996D01*
X101205000Y-104947500D01*
X101205000Y-105872500D01*
X101203796Y-105897004D01*
X101200196Y-105921273D01*
X101194235Y-105945071D01*
X101185970Y-105968171D01*
X101175480Y-105990349D01*
X101162867Y-106011393D01*
X101148253Y-106031098D01*
X101131777Y-106049277D01*
X101113598Y-106065753D01*
X101093893Y-106080367D01*
X101072849Y-106092980D01*
X101050671Y-106103470D01*
X101027571Y-106111735D01*
X101003773Y-106117696D01*
X100979504Y-106121296D01*
X100955000Y-106122500D01*
X99705000Y-106122500D01*
X99680496Y-106121296D01*
X99656227Y-106117696D01*
X99632429Y-106111735D01*
X99609329Y-106103470D01*
X99587151Y-106092980D01*
X99566107Y-106080367D01*
X99546402Y-106065753D01*
X99528223Y-106049277D01*
X99511747Y-106031098D01*
X99497133Y-106011393D01*
X99484520Y-105990349D01*
X99474030Y-105968171D01*
X99465765Y-105945071D01*
X99459804Y-105921273D01*
X99456204Y-105897004D01*
X99455000Y-105872500D01*
X99455000Y-104947500D01*
X99456204Y-104922996D01*
X99459804Y-104898727D01*
X99465765Y-104874929D01*
X99474030Y-104851829D01*
X99484520Y-104829651D01*
X99497133Y-104808607D01*
X99511747Y-104788902D01*
X99528223Y-104770723D01*
X99546402Y-104754247D01*
X99566107Y-104739633D01*
X99587151Y-104727020D01*
X99609329Y-104716530D01*
X99632429Y-104708265D01*
X99656227Y-104702304D01*
X99680496Y-104698704D01*
X99705000Y-104697500D01*
X100955000Y-104697500D01*
X100979504Y-104698704D01*
X100979504Y-104698704D01*
G37*
D13*
G04 #@! TD*
G04 #@! TO.P,R4,2*
G04 #@! TO.N,/STATUS_G*
X100330000Y-105410000D03*
D12*
G04 #@! TO.N,/SWITCH*
G04 #@! TO.C,R5*
G36*
X112917504Y-101069704D02*
X112941773Y-101073304D01*
X112965571Y-101079265D01*
X112988671Y-101087530D01*
X113010849Y-101098020D01*
X113031893Y-101110633D01*
X113051598Y-101125247D01*
X113069777Y-101141723D01*
X113086253Y-101159902D01*
X113100867Y-101179607D01*
X113113480Y-101200651D01*
X113123970Y-101222829D01*
X113132235Y-101245929D01*
X113138196Y-101269727D01*
X113141796Y-101293996D01*
X113143000Y-101318500D01*
X113143000Y-102243500D01*
X113141796Y-102268004D01*
X113138196Y-102292273D01*
X113132235Y-102316071D01*
X113123970Y-102339171D01*
X113113480Y-102361349D01*
X113100867Y-102382393D01*
X113086253Y-102402098D01*
X113069777Y-102420277D01*
X113051598Y-102436753D01*
X113031893Y-102451367D01*
X113010849Y-102463980D01*
X112988671Y-102474470D01*
X112965571Y-102482735D01*
X112941773Y-102488696D01*
X112917504Y-102492296D01*
X112893000Y-102493500D01*
X111643000Y-102493500D01*
X111618496Y-102492296D01*
X111594227Y-102488696D01*
X111570429Y-102482735D01*
X111547329Y-102474470D01*
X111525151Y-102463980D01*
X111504107Y-102451367D01*
X111484402Y-102436753D01*
X111466223Y-102420277D01*
X111449747Y-102402098D01*
X111435133Y-102382393D01*
X111422520Y-102361349D01*
X111412030Y-102339171D01*
X111403765Y-102316071D01*
X111397804Y-102292273D01*
X111394204Y-102268004D01*
X111393000Y-102243500D01*
X111393000Y-101318500D01*
X111394204Y-101293996D01*
X111397804Y-101269727D01*
X111403765Y-101245929D01*
X111412030Y-101222829D01*
X111422520Y-101200651D01*
X111435133Y-101179607D01*
X111449747Y-101159902D01*
X111466223Y-101141723D01*
X111484402Y-101125247D01*
X111504107Y-101110633D01*
X111525151Y-101098020D01*
X111547329Y-101087530D01*
X111570429Y-101079265D01*
X111594227Y-101073304D01*
X111618496Y-101069704D01*
X111643000Y-101068500D01*
X112893000Y-101068500D01*
X112917504Y-101069704D01*
X112917504Y-101069704D01*
G37*
D13*
G04 #@! TD*
G04 #@! TO.P,R5,2*
G04 #@! TO.N,/SWITCH*
X112268000Y-101781000D03*
D12*
G04 #@! TO.N,+5V*
G04 #@! TO.C,R5*
G36*
X112917504Y-98094704D02*
X112941773Y-98098304D01*
X112965571Y-98104265D01*
X112988671Y-98112530D01*
X113010849Y-98123020D01*
X113031893Y-98135633D01*
X113051598Y-98150247D01*
X113069777Y-98166723D01*
X113086253Y-98184902D01*
X113100867Y-98204607D01*
X113113480Y-98225651D01*
X113123970Y-98247829D01*
X113132235Y-98270929D01*
X113138196Y-98294727D01*
X113141796Y-98318996D01*
X113143000Y-98343500D01*
X113143000Y-99268500D01*
X113141796Y-99293004D01*
X113138196Y-99317273D01*
X113132235Y-99341071D01*
X113123970Y-99364171D01*
X113113480Y-99386349D01*
X113100867Y-99407393D01*
X113086253Y-99427098D01*
X113069777Y-99445277D01*
X113051598Y-99461753D01*
X113031893Y-99476367D01*
X113010849Y-99488980D01*
X112988671Y-99499470D01*
X112965571Y-99507735D01*
X112941773Y-99513696D01*
X112917504Y-99517296D01*
X112893000Y-99518500D01*
X111643000Y-99518500D01*
X111618496Y-99517296D01*
X111594227Y-99513696D01*
X111570429Y-99507735D01*
X111547329Y-99499470D01*
X111525151Y-99488980D01*
X111504107Y-99476367D01*
X111484402Y-99461753D01*
X111466223Y-99445277D01*
X111449747Y-99427098D01*
X111435133Y-99407393D01*
X111422520Y-99386349D01*
X111412030Y-99364171D01*
X111403765Y-99341071D01*
X111397804Y-99317273D01*
X111394204Y-99293004D01*
X111393000Y-99268500D01*
X111393000Y-98343500D01*
X111394204Y-98318996D01*
X111397804Y-98294727D01*
X111403765Y-98270929D01*
X111412030Y-98247829D01*
X111422520Y-98225651D01*
X111435133Y-98204607D01*
X111449747Y-98184902D01*
X111466223Y-98166723D01*
X111484402Y-98150247D01*
X111504107Y-98135633D01*
X111525151Y-98123020D01*
X111547329Y-98112530D01*
X111570429Y-98104265D01*
X111594227Y-98098304D01*
X111618496Y-98094704D01*
X111643000Y-98093500D01*
X112893000Y-98093500D01*
X112917504Y-98094704D01*
X112917504Y-98094704D01*
G37*
D13*
G04 #@! TD*
G04 #@! TO.P,R5,1*
G04 #@! TO.N,+5V*
X112268000Y-98806000D03*
D22*
G04 #@! TO.P,SW1,2*
G04 #@! TO.N,GND*
X119816000Y-105918000D03*
G04 #@! TO.P,SW1,1*
G04 #@! TO.N,/SWITCH*
X115316000Y-105918000D03*
G04 #@! TO.P,SW1,2*
G04 #@! TO.N,GND*
X119816000Y-99418000D03*
G04 #@! TO.P,SW1,1*
G04 #@! TO.N,/SWITCH*
X115316000Y-99418000D03*
G04 #@! TD*
D10*
G04 #@! TO.P,U1,1*
G04 #@! TO.N,/A4988_RESET*
X91440000Y-69342000D03*
D11*
G04 #@! TO.P,U1,15*
G04 #@! TO.N,/STATUS_G*
X99060000Y-102362000D03*
G04 #@! TO.P,U1,2*
G04 #@! TO.N,/SPARE_A*
X91440000Y-71882000D03*
G04 #@! TO.P,U1,16*
G04 #@! TO.N,/A4988_DIR*
X99060000Y-99822000D03*
G04 #@! TO.P,U1,3*
G04 #@! TO.N,/SPARE_B*
X91440000Y-74422000D03*
G04 #@! TO.P,U1,17*
G04 #@! TO.N,/MOSI*
X99060000Y-97282000D03*
G04 #@! TO.P,U1,4*
G04 #@! TO.N,/SWITCH*
X91440000Y-76962000D03*
G04 #@! TO.P,U1,18*
G04 #@! TO.N,/MISO*
X99060000Y-94742000D03*
G04 #@! TO.P,U1,5*
G04 #@! TO.N,/SPARE_C*
X91440000Y-79502000D03*
G04 #@! TO.P,U1,19*
G04 #@! TO.N,/SCK*
X99060000Y-92202000D03*
G04 #@! TO.P,U1,6*
G04 #@! TO.N,/SPARE_D*
X91440000Y-82042000D03*
G04 #@! TO.P,U1,20*
G04 #@! TO.N,+5V*
X99060000Y-89662000D03*
G04 #@! TO.P,U1,7*
X91440000Y-84582000D03*
G04 #@! TO.P,U1,21*
G04 #@! TO.N,Net-(U1-Pad21)*
X99060000Y-87122000D03*
G04 #@! TO.P,U1,8*
G04 #@! TO.N,GND*
X91440000Y-87122000D03*
G04 #@! TO.P,U1,22*
X99060000Y-84582000D03*
G04 #@! TO.P,U1,9*
G04 #@! TO.N,/XTAL1*
X91440000Y-89662000D03*
G04 #@! TO.P,U1,23*
G04 #@! TO.N,/HALL_SENSOR*
X99060000Y-82042000D03*
G04 #@! TO.P,U1,10*
G04 #@! TO.N,/XTAL2*
X91440000Y-92202000D03*
G04 #@! TO.P,U1,24*
G04 #@! TO.N,/SPARE_AN_A*
X99060000Y-79502000D03*
G04 #@! TO.P,U1,11*
G04 #@! TO.N,/SPARE_E*
X91440000Y-94742000D03*
G04 #@! TO.P,U1,25*
G04 #@! TO.N,/A4988_STEP*
X99060000Y-76962000D03*
G04 #@! TO.P,U1,12*
G04 #@! TO.N,/SPARE_F*
X91440000Y-97282000D03*
G04 #@! TO.P,U1,26*
G04 #@! TO.N,/A4988_SLEEP*
X99060000Y-74422000D03*
G04 #@! TO.P,U1,13*
G04 #@! TO.N,/SPARE_G*
X91440000Y-99822000D03*
G04 #@! TO.P,U1,27*
G04 #@! TO.N,/SDA*
X99060000Y-71882000D03*
G04 #@! TO.P,U1,14*
G04 #@! TO.N,/STATUS_R*
X91440000Y-102362000D03*
G04 #@! TO.P,U1,28*
G04 #@! TO.N,/SCL*
X99060000Y-69342000D03*
G04 #@! TD*
D23*
G04 #@! TO.P,Y1,1*
G04 #@! TO.N,/XTAL1*
X82804000Y-95758000D03*
G04 #@! TO.P,Y1,2*
G04 #@! TO.N,/XTAL2*
X82804000Y-100638000D03*
G04 #@! TD*
D19*
G04 #@! TO.P,J11,1*
G04 #@! TO.N,Net-(A1-Pad3)*
X123698000Y-89408000D03*
D20*
G04 #@! TO.P,J11,2*
G04 #@! TO.N,Net-(A1-Pad4)*
X123698000Y-86868000D03*
G04 #@! TO.P,J11,3*
G04 #@! TO.N,Net-(A1-Pad5)*
X123698000Y-84328000D03*
G04 #@! TO.P,J11,4*
G04 #@! TO.N,Net-(A1-Pad6)*
X123698000Y-81788000D03*
G04 #@! TD*
D19*
G04 #@! TO.P,J10,1*
G04 #@! TO.N,/SPARE_A*
X80772000Y-71882000D03*
D20*
G04 #@! TO.P,J10,2*
G04 #@! TO.N,/SPARE_B*
X80772000Y-74422000D03*
G04 #@! TO.P,J10,3*
G04 #@! TO.N,/SPARE_C*
X80772000Y-76962000D03*
G04 #@! TO.P,J10,4*
G04 #@! TO.N,/SPARE_D*
X80772000Y-79502000D03*
G04 #@! TO.P,J10,5*
G04 #@! TO.N,/SPARE_E*
X80772000Y-82042000D03*
G04 #@! TO.P,J10,6*
G04 #@! TO.N,/SPARE_F*
X80772000Y-84582000D03*
G04 #@! TO.P,J10,7*
G04 #@! TO.N,/SPARE_G*
X80772000Y-87122000D03*
G04 #@! TO.P,J10,8*
G04 #@! TO.N,/SPARE_AN_A*
X80772000Y-89662000D03*
G04 #@! TD*
D12*
G04 #@! TO.N,GND*
G04 #@! TO.C,C1*
G36*
X89041504Y-88778204D02*
X89065773Y-88781804D01*
X89089571Y-88787765D01*
X89112671Y-88796030D01*
X89134849Y-88806520D01*
X89155893Y-88819133D01*
X89175598Y-88833747D01*
X89193777Y-88850223D01*
X89210253Y-88868402D01*
X89224867Y-88888107D01*
X89237480Y-88909151D01*
X89247970Y-88931329D01*
X89256235Y-88954429D01*
X89262196Y-88978227D01*
X89265796Y-89002496D01*
X89267000Y-89027000D01*
X89267000Y-89777000D01*
X89265796Y-89801504D01*
X89262196Y-89825773D01*
X89256235Y-89849571D01*
X89247970Y-89872671D01*
X89237480Y-89894849D01*
X89224867Y-89915893D01*
X89210253Y-89935598D01*
X89193777Y-89953777D01*
X89175598Y-89970253D01*
X89155893Y-89984867D01*
X89134849Y-89997480D01*
X89112671Y-90007970D01*
X89089571Y-90016235D01*
X89065773Y-90022196D01*
X89041504Y-90025796D01*
X89017000Y-90027000D01*
X87767000Y-90027000D01*
X87742496Y-90025796D01*
X87718227Y-90022196D01*
X87694429Y-90016235D01*
X87671329Y-90007970D01*
X87649151Y-89997480D01*
X87628107Y-89984867D01*
X87608402Y-89970253D01*
X87590223Y-89953777D01*
X87573747Y-89935598D01*
X87559133Y-89915893D01*
X87546520Y-89894849D01*
X87536030Y-89872671D01*
X87527765Y-89849571D01*
X87521804Y-89825773D01*
X87518204Y-89801504D01*
X87517000Y-89777000D01*
X87517000Y-89027000D01*
X87518204Y-89002496D01*
X87521804Y-88978227D01*
X87527765Y-88954429D01*
X87536030Y-88931329D01*
X87546520Y-88909151D01*
X87559133Y-88888107D01*
X87573747Y-88868402D01*
X87590223Y-88850223D01*
X87608402Y-88833747D01*
X87628107Y-88819133D01*
X87649151Y-88806520D01*
X87671329Y-88796030D01*
X87694429Y-88787765D01*
X87718227Y-88781804D01*
X87742496Y-88778204D01*
X87767000Y-88777000D01*
X89017000Y-88777000D01*
X89041504Y-88778204D01*
X89041504Y-88778204D01*
G37*
D24*
G04 #@! TD*
G04 #@! TO.P,C1,2*
G04 #@! TO.N,GND*
X88392000Y-89402000D03*
D12*
G04 #@! TO.N,/XTAL1*
G04 #@! TO.C,C1*
G36*
X89041504Y-91578204D02*
X89065773Y-91581804D01*
X89089571Y-91587765D01*
X89112671Y-91596030D01*
X89134849Y-91606520D01*
X89155893Y-91619133D01*
X89175598Y-91633747D01*
X89193777Y-91650223D01*
X89210253Y-91668402D01*
X89224867Y-91688107D01*
X89237480Y-91709151D01*
X89247970Y-91731329D01*
X89256235Y-91754429D01*
X89262196Y-91778227D01*
X89265796Y-91802496D01*
X89267000Y-91827000D01*
X89267000Y-92577000D01*
X89265796Y-92601504D01*
X89262196Y-92625773D01*
X89256235Y-92649571D01*
X89247970Y-92672671D01*
X89237480Y-92694849D01*
X89224867Y-92715893D01*
X89210253Y-92735598D01*
X89193777Y-92753777D01*
X89175598Y-92770253D01*
X89155893Y-92784867D01*
X89134849Y-92797480D01*
X89112671Y-92807970D01*
X89089571Y-92816235D01*
X89065773Y-92822196D01*
X89041504Y-92825796D01*
X89017000Y-92827000D01*
X87767000Y-92827000D01*
X87742496Y-92825796D01*
X87718227Y-92822196D01*
X87694429Y-92816235D01*
X87671329Y-92807970D01*
X87649151Y-92797480D01*
X87628107Y-92784867D01*
X87608402Y-92770253D01*
X87590223Y-92753777D01*
X87573747Y-92735598D01*
X87559133Y-92715893D01*
X87546520Y-92694849D01*
X87536030Y-92672671D01*
X87527765Y-92649571D01*
X87521804Y-92625773D01*
X87518204Y-92601504D01*
X87517000Y-92577000D01*
X87517000Y-91827000D01*
X87518204Y-91802496D01*
X87521804Y-91778227D01*
X87527765Y-91754429D01*
X87536030Y-91731329D01*
X87546520Y-91709151D01*
X87559133Y-91688107D01*
X87573747Y-91668402D01*
X87590223Y-91650223D01*
X87608402Y-91633747D01*
X87628107Y-91619133D01*
X87649151Y-91606520D01*
X87671329Y-91596030D01*
X87694429Y-91587765D01*
X87718227Y-91581804D01*
X87742496Y-91578204D01*
X87767000Y-91577000D01*
X89017000Y-91577000D01*
X89041504Y-91578204D01*
X89041504Y-91578204D01*
G37*
D24*
G04 #@! TD*
G04 #@! TO.P,C1,1*
G04 #@! TO.N,/XTAL1*
X88392000Y-92202000D03*
D12*
G04 #@! TO.N,/XTAL2*
G04 #@! TO.C,C2*
G36*
X89041504Y-96144204D02*
X89065773Y-96147804D01*
X89089571Y-96153765D01*
X89112671Y-96162030D01*
X89134849Y-96172520D01*
X89155893Y-96185133D01*
X89175598Y-96199747D01*
X89193777Y-96216223D01*
X89210253Y-96234402D01*
X89224867Y-96254107D01*
X89237480Y-96275151D01*
X89247970Y-96297329D01*
X89256235Y-96320429D01*
X89262196Y-96344227D01*
X89265796Y-96368496D01*
X89267000Y-96393000D01*
X89267000Y-97143000D01*
X89265796Y-97167504D01*
X89262196Y-97191773D01*
X89256235Y-97215571D01*
X89247970Y-97238671D01*
X89237480Y-97260849D01*
X89224867Y-97281893D01*
X89210253Y-97301598D01*
X89193777Y-97319777D01*
X89175598Y-97336253D01*
X89155893Y-97350867D01*
X89134849Y-97363480D01*
X89112671Y-97373970D01*
X89089571Y-97382235D01*
X89065773Y-97388196D01*
X89041504Y-97391796D01*
X89017000Y-97393000D01*
X87767000Y-97393000D01*
X87742496Y-97391796D01*
X87718227Y-97388196D01*
X87694429Y-97382235D01*
X87671329Y-97373970D01*
X87649151Y-97363480D01*
X87628107Y-97350867D01*
X87608402Y-97336253D01*
X87590223Y-97319777D01*
X87573747Y-97301598D01*
X87559133Y-97281893D01*
X87546520Y-97260849D01*
X87536030Y-97238671D01*
X87527765Y-97215571D01*
X87521804Y-97191773D01*
X87518204Y-97167504D01*
X87517000Y-97143000D01*
X87517000Y-96393000D01*
X87518204Y-96368496D01*
X87521804Y-96344227D01*
X87527765Y-96320429D01*
X87536030Y-96297329D01*
X87546520Y-96275151D01*
X87559133Y-96254107D01*
X87573747Y-96234402D01*
X87590223Y-96216223D01*
X87608402Y-96199747D01*
X87628107Y-96185133D01*
X87649151Y-96172520D01*
X87671329Y-96162030D01*
X87694429Y-96153765D01*
X87718227Y-96147804D01*
X87742496Y-96144204D01*
X87767000Y-96143000D01*
X89017000Y-96143000D01*
X89041504Y-96144204D01*
X89041504Y-96144204D01*
G37*
D24*
G04 #@! TD*
G04 #@! TO.P,C2,1*
G04 #@! TO.N,/XTAL2*
X88392000Y-96768000D03*
D12*
G04 #@! TO.N,GND*
G04 #@! TO.C,C2*
G36*
X89041504Y-98944204D02*
X89065773Y-98947804D01*
X89089571Y-98953765D01*
X89112671Y-98962030D01*
X89134849Y-98972520D01*
X89155893Y-98985133D01*
X89175598Y-98999747D01*
X89193777Y-99016223D01*
X89210253Y-99034402D01*
X89224867Y-99054107D01*
X89237480Y-99075151D01*
X89247970Y-99097329D01*
X89256235Y-99120429D01*
X89262196Y-99144227D01*
X89265796Y-99168496D01*
X89267000Y-99193000D01*
X89267000Y-99943000D01*
X89265796Y-99967504D01*
X89262196Y-99991773D01*
X89256235Y-100015571D01*
X89247970Y-100038671D01*
X89237480Y-100060849D01*
X89224867Y-100081893D01*
X89210253Y-100101598D01*
X89193777Y-100119777D01*
X89175598Y-100136253D01*
X89155893Y-100150867D01*
X89134849Y-100163480D01*
X89112671Y-100173970D01*
X89089571Y-100182235D01*
X89065773Y-100188196D01*
X89041504Y-100191796D01*
X89017000Y-100193000D01*
X87767000Y-100193000D01*
X87742496Y-100191796D01*
X87718227Y-100188196D01*
X87694429Y-100182235D01*
X87671329Y-100173970D01*
X87649151Y-100163480D01*
X87628107Y-100150867D01*
X87608402Y-100136253D01*
X87590223Y-100119777D01*
X87573747Y-100101598D01*
X87559133Y-100081893D01*
X87546520Y-100060849D01*
X87536030Y-100038671D01*
X87527765Y-100015571D01*
X87521804Y-99991773D01*
X87518204Y-99967504D01*
X87517000Y-99943000D01*
X87517000Y-99193000D01*
X87518204Y-99168496D01*
X87521804Y-99144227D01*
X87527765Y-99120429D01*
X87536030Y-99097329D01*
X87546520Y-99075151D01*
X87559133Y-99054107D01*
X87573747Y-99034402D01*
X87590223Y-99016223D01*
X87608402Y-98999747D01*
X87628107Y-98985133D01*
X87649151Y-98972520D01*
X87671329Y-98962030D01*
X87694429Y-98953765D01*
X87718227Y-98947804D01*
X87742496Y-98944204D01*
X87767000Y-98943000D01*
X89017000Y-98943000D01*
X89041504Y-98944204D01*
X89041504Y-98944204D01*
G37*
D24*
G04 #@! TD*
G04 #@! TO.P,C2,2*
G04 #@! TO.N,GND*
X88392000Y-99568000D03*
D12*
G04 #@! TO.N,GND*
G04 #@! TO.C,D3*
G36*
X112663504Y-67941704D02*
X112687773Y-67945304D01*
X112711571Y-67951265D01*
X112734671Y-67959530D01*
X112756849Y-67970020D01*
X112777893Y-67982633D01*
X112797598Y-67997247D01*
X112815777Y-68013723D01*
X112832253Y-68031902D01*
X112846867Y-68051607D01*
X112859480Y-68072651D01*
X112869970Y-68094829D01*
X112878235Y-68117929D01*
X112884196Y-68141727D01*
X112887796Y-68165996D01*
X112889000Y-68190500D01*
X112889000Y-69115500D01*
X112887796Y-69140004D01*
X112884196Y-69164273D01*
X112878235Y-69188071D01*
X112869970Y-69211171D01*
X112859480Y-69233349D01*
X112846867Y-69254393D01*
X112832253Y-69274098D01*
X112815777Y-69292277D01*
X112797598Y-69308753D01*
X112777893Y-69323367D01*
X112756849Y-69335980D01*
X112734671Y-69346470D01*
X112711571Y-69354735D01*
X112687773Y-69360696D01*
X112663504Y-69364296D01*
X112639000Y-69365500D01*
X111389000Y-69365500D01*
X111364496Y-69364296D01*
X111340227Y-69360696D01*
X111316429Y-69354735D01*
X111293329Y-69346470D01*
X111271151Y-69335980D01*
X111250107Y-69323367D01*
X111230402Y-69308753D01*
X111212223Y-69292277D01*
X111195747Y-69274098D01*
X111181133Y-69254393D01*
X111168520Y-69233349D01*
X111158030Y-69211171D01*
X111149765Y-69188071D01*
X111143804Y-69164273D01*
X111140204Y-69140004D01*
X111139000Y-69115500D01*
X111139000Y-68190500D01*
X111140204Y-68165996D01*
X111143804Y-68141727D01*
X111149765Y-68117929D01*
X111158030Y-68094829D01*
X111168520Y-68072651D01*
X111181133Y-68051607D01*
X111195747Y-68031902D01*
X111212223Y-68013723D01*
X111230402Y-67997247D01*
X111250107Y-67982633D01*
X111271151Y-67970020D01*
X111293329Y-67959530D01*
X111316429Y-67951265D01*
X111340227Y-67945304D01*
X111364496Y-67941704D01*
X111389000Y-67940500D01*
X112639000Y-67940500D01*
X112663504Y-67941704D01*
X112663504Y-67941704D01*
G37*
D13*
G04 #@! TD*
G04 #@! TO.P,D3,1*
G04 #@! TO.N,GND*
X112014000Y-68653000D03*
D12*
G04 #@! TO.N,Net-(D3-Pad2)*
G04 #@! TO.C,D3*
G36*
X112663504Y-70916704D02*
X112687773Y-70920304D01*
X112711571Y-70926265D01*
X112734671Y-70934530D01*
X112756849Y-70945020D01*
X112777893Y-70957633D01*
X112797598Y-70972247D01*
X112815777Y-70988723D01*
X112832253Y-71006902D01*
X112846867Y-71026607D01*
X112859480Y-71047651D01*
X112869970Y-71069829D01*
X112878235Y-71092929D01*
X112884196Y-71116727D01*
X112887796Y-71140996D01*
X112889000Y-71165500D01*
X112889000Y-72090500D01*
X112887796Y-72115004D01*
X112884196Y-72139273D01*
X112878235Y-72163071D01*
X112869970Y-72186171D01*
X112859480Y-72208349D01*
X112846867Y-72229393D01*
X112832253Y-72249098D01*
X112815777Y-72267277D01*
X112797598Y-72283753D01*
X112777893Y-72298367D01*
X112756849Y-72310980D01*
X112734671Y-72321470D01*
X112711571Y-72329735D01*
X112687773Y-72335696D01*
X112663504Y-72339296D01*
X112639000Y-72340500D01*
X111389000Y-72340500D01*
X111364496Y-72339296D01*
X111340227Y-72335696D01*
X111316429Y-72329735D01*
X111293329Y-72321470D01*
X111271151Y-72310980D01*
X111250107Y-72298367D01*
X111230402Y-72283753D01*
X111212223Y-72267277D01*
X111195747Y-72249098D01*
X111181133Y-72229393D01*
X111168520Y-72208349D01*
X111158030Y-72186171D01*
X111149765Y-72163071D01*
X111143804Y-72139273D01*
X111140204Y-72115004D01*
X111139000Y-72090500D01*
X111139000Y-71165500D01*
X111140204Y-71140996D01*
X111143804Y-71116727D01*
X111149765Y-71092929D01*
X111158030Y-71069829D01*
X111168520Y-71047651D01*
X111181133Y-71026607D01*
X111195747Y-71006902D01*
X111212223Y-70988723D01*
X111230402Y-70972247D01*
X111250107Y-70957633D01*
X111271151Y-70945020D01*
X111293329Y-70934530D01*
X111316429Y-70926265D01*
X111340227Y-70920304D01*
X111364496Y-70916704D01*
X111389000Y-70915500D01*
X112639000Y-70915500D01*
X112663504Y-70916704D01*
X112663504Y-70916704D01*
G37*
D13*
G04 #@! TD*
G04 #@! TO.P,D3,2*
G04 #@! TO.N,Net-(D3-Pad2)*
X112014000Y-71628000D03*
D12*
G04 #@! TO.N,+12V*
G04 #@! TO.C,R6*
G36*
X115476004Y-73040204D02*
X115500273Y-73043804D01*
X115524071Y-73049765D01*
X115547171Y-73058030D01*
X115569349Y-73068520D01*
X115590393Y-73081133D01*
X115610098Y-73095747D01*
X115628277Y-73112223D01*
X115644753Y-73130402D01*
X115659367Y-73150107D01*
X115671980Y-73171151D01*
X115682470Y-73193329D01*
X115690735Y-73216429D01*
X115696696Y-73240227D01*
X115700296Y-73264496D01*
X115701500Y-73289000D01*
X115701500Y-74539000D01*
X115700296Y-74563504D01*
X115696696Y-74587773D01*
X115690735Y-74611571D01*
X115682470Y-74634671D01*
X115671980Y-74656849D01*
X115659367Y-74677893D01*
X115644753Y-74697598D01*
X115628277Y-74715777D01*
X115610098Y-74732253D01*
X115590393Y-74746867D01*
X115569349Y-74759480D01*
X115547171Y-74769970D01*
X115524071Y-74778235D01*
X115500273Y-74784196D01*
X115476004Y-74787796D01*
X115451500Y-74789000D01*
X114526500Y-74789000D01*
X114501996Y-74787796D01*
X114477727Y-74784196D01*
X114453929Y-74778235D01*
X114430829Y-74769970D01*
X114408651Y-74759480D01*
X114387607Y-74746867D01*
X114367902Y-74732253D01*
X114349723Y-74715777D01*
X114333247Y-74697598D01*
X114318633Y-74677893D01*
X114306020Y-74656849D01*
X114295530Y-74634671D01*
X114287265Y-74611571D01*
X114281304Y-74587773D01*
X114277704Y-74563504D01*
X114276500Y-74539000D01*
X114276500Y-73289000D01*
X114277704Y-73264496D01*
X114281304Y-73240227D01*
X114287265Y-73216429D01*
X114295530Y-73193329D01*
X114306020Y-73171151D01*
X114318633Y-73150107D01*
X114333247Y-73130402D01*
X114349723Y-73112223D01*
X114367902Y-73095747D01*
X114387607Y-73081133D01*
X114408651Y-73068520D01*
X114430829Y-73058030D01*
X114453929Y-73049765D01*
X114477727Y-73043804D01*
X114501996Y-73040204D01*
X114526500Y-73039000D01*
X115451500Y-73039000D01*
X115476004Y-73040204D01*
X115476004Y-73040204D01*
G37*
D13*
G04 #@! TD*
G04 #@! TO.P,R6,1*
G04 #@! TO.N,+12V*
X114989000Y-73914000D03*
D12*
G04 #@! TO.N,Net-(D3-Pad2)*
G04 #@! TO.C,R6*
G36*
X112501004Y-73040204D02*
X112525273Y-73043804D01*
X112549071Y-73049765D01*
X112572171Y-73058030D01*
X112594349Y-73068520D01*
X112615393Y-73081133D01*
X112635098Y-73095747D01*
X112653277Y-73112223D01*
X112669753Y-73130402D01*
X112684367Y-73150107D01*
X112696980Y-73171151D01*
X112707470Y-73193329D01*
X112715735Y-73216429D01*
X112721696Y-73240227D01*
X112725296Y-73264496D01*
X112726500Y-73289000D01*
X112726500Y-74539000D01*
X112725296Y-74563504D01*
X112721696Y-74587773D01*
X112715735Y-74611571D01*
X112707470Y-74634671D01*
X112696980Y-74656849D01*
X112684367Y-74677893D01*
X112669753Y-74697598D01*
X112653277Y-74715777D01*
X112635098Y-74732253D01*
X112615393Y-74746867D01*
X112594349Y-74759480D01*
X112572171Y-74769970D01*
X112549071Y-74778235D01*
X112525273Y-74784196D01*
X112501004Y-74787796D01*
X112476500Y-74789000D01*
X111551500Y-74789000D01*
X111526996Y-74787796D01*
X111502727Y-74784196D01*
X111478929Y-74778235D01*
X111455829Y-74769970D01*
X111433651Y-74759480D01*
X111412607Y-74746867D01*
X111392902Y-74732253D01*
X111374723Y-74715777D01*
X111358247Y-74697598D01*
X111343633Y-74677893D01*
X111331020Y-74656849D01*
X111320530Y-74634671D01*
X111312265Y-74611571D01*
X111306304Y-74587773D01*
X111302704Y-74563504D01*
X111301500Y-74539000D01*
X111301500Y-73289000D01*
X111302704Y-73264496D01*
X111306304Y-73240227D01*
X111312265Y-73216429D01*
X111320530Y-73193329D01*
X111331020Y-73171151D01*
X111343633Y-73150107D01*
X111358247Y-73130402D01*
X111374723Y-73112223D01*
X111392902Y-73095747D01*
X111412607Y-73081133D01*
X111433651Y-73068520D01*
X111455829Y-73058030D01*
X111478929Y-73049765D01*
X111502727Y-73043804D01*
X111526996Y-73040204D01*
X111551500Y-73039000D01*
X112476500Y-73039000D01*
X112501004Y-73040204D01*
X112501004Y-73040204D01*
G37*
D13*
G04 #@! TD*
G04 #@! TO.P,R6,2*
G04 #@! TO.N,Net-(D3-Pad2)*
X112014000Y-73914000D03*
D19*
G04 #@! TO.P,J7,1*
G04 #@! TO.N,+5V*
X119888000Y-69342000D03*
D20*
G04 #@! TO.P,J7,2*
X119888000Y-71882000D03*
G04 #@! TO.P,J7,3*
X119888000Y-74422000D03*
G04 #@! TO.P,J7,4*
X119888000Y-76962000D03*
G04 #@! TD*
D19*
G04 #@! TO.P,J9,1*
G04 #@! TO.N,GND*
X123698000Y-69342000D03*
D20*
G04 #@! TO.P,J9,2*
X123698000Y-71882000D03*
G04 #@! TO.P,J9,3*
X123698000Y-74422000D03*
G04 #@! TO.P,J9,4*
X123698000Y-76962000D03*
G04 #@! TD*
D12*
G04 #@! TO.N,Net-(A1-Pad10)*
G04 #@! TO.C,R7*
G36*
X112917504Y-86229704D02*
X112941773Y-86233304D01*
X112965571Y-86239265D01*
X112988671Y-86247530D01*
X113010849Y-86258020D01*
X113031893Y-86270633D01*
X113051598Y-86285247D01*
X113069777Y-86301723D01*
X113086253Y-86319902D01*
X113100867Y-86339607D01*
X113113480Y-86360651D01*
X113123970Y-86382829D01*
X113132235Y-86405929D01*
X113138196Y-86429727D01*
X113141796Y-86453996D01*
X113143000Y-86478500D01*
X113143000Y-87403500D01*
X113141796Y-87428004D01*
X113138196Y-87452273D01*
X113132235Y-87476071D01*
X113123970Y-87499171D01*
X113113480Y-87521349D01*
X113100867Y-87542393D01*
X113086253Y-87562098D01*
X113069777Y-87580277D01*
X113051598Y-87596753D01*
X113031893Y-87611367D01*
X113010849Y-87623980D01*
X112988671Y-87634470D01*
X112965571Y-87642735D01*
X112941773Y-87648696D01*
X112917504Y-87652296D01*
X112893000Y-87653500D01*
X111643000Y-87653500D01*
X111618496Y-87652296D01*
X111594227Y-87648696D01*
X111570429Y-87642735D01*
X111547329Y-87634470D01*
X111525151Y-87623980D01*
X111504107Y-87611367D01*
X111484402Y-87596753D01*
X111466223Y-87580277D01*
X111449747Y-87562098D01*
X111435133Y-87542393D01*
X111422520Y-87521349D01*
X111412030Y-87499171D01*
X111403765Y-87476071D01*
X111397804Y-87452273D01*
X111394204Y-87428004D01*
X111393000Y-87403500D01*
X111393000Y-86478500D01*
X111394204Y-86453996D01*
X111397804Y-86429727D01*
X111403765Y-86405929D01*
X111412030Y-86382829D01*
X111422520Y-86360651D01*
X111435133Y-86339607D01*
X111449747Y-86319902D01*
X111466223Y-86301723D01*
X111484402Y-86285247D01*
X111504107Y-86270633D01*
X111525151Y-86258020D01*
X111547329Y-86247530D01*
X111570429Y-86239265D01*
X111594227Y-86233304D01*
X111618496Y-86229704D01*
X111643000Y-86228500D01*
X112893000Y-86228500D01*
X112917504Y-86229704D01*
X112917504Y-86229704D01*
G37*
D13*
G04 #@! TD*
G04 #@! TO.P,R7,1*
G04 #@! TO.N,Net-(A1-Pad10)*
X112268000Y-86941000D03*
D12*
G04 #@! TO.N,+5V*
G04 #@! TO.C,R7*
G36*
X112917504Y-89204704D02*
X112941773Y-89208304D01*
X112965571Y-89214265D01*
X112988671Y-89222530D01*
X113010849Y-89233020D01*
X113031893Y-89245633D01*
X113051598Y-89260247D01*
X113069777Y-89276723D01*
X113086253Y-89294902D01*
X113100867Y-89314607D01*
X113113480Y-89335651D01*
X113123970Y-89357829D01*
X113132235Y-89380929D01*
X113138196Y-89404727D01*
X113141796Y-89428996D01*
X113143000Y-89453500D01*
X113143000Y-90378500D01*
X113141796Y-90403004D01*
X113138196Y-90427273D01*
X113132235Y-90451071D01*
X113123970Y-90474171D01*
X113113480Y-90496349D01*
X113100867Y-90517393D01*
X113086253Y-90537098D01*
X113069777Y-90555277D01*
X113051598Y-90571753D01*
X113031893Y-90586367D01*
X113010849Y-90598980D01*
X112988671Y-90609470D01*
X112965571Y-90617735D01*
X112941773Y-90623696D01*
X112917504Y-90627296D01*
X112893000Y-90628500D01*
X111643000Y-90628500D01*
X111618496Y-90627296D01*
X111594227Y-90623696D01*
X111570429Y-90617735D01*
X111547329Y-90609470D01*
X111525151Y-90598980D01*
X111504107Y-90586367D01*
X111484402Y-90571753D01*
X111466223Y-90555277D01*
X111449747Y-90537098D01*
X111435133Y-90517393D01*
X111422520Y-90496349D01*
X111412030Y-90474171D01*
X111403765Y-90451071D01*
X111397804Y-90427273D01*
X111394204Y-90403004D01*
X111393000Y-90378500D01*
X111393000Y-89453500D01*
X111394204Y-89428996D01*
X111397804Y-89404727D01*
X111403765Y-89380929D01*
X111412030Y-89357829D01*
X111422520Y-89335651D01*
X111435133Y-89314607D01*
X111449747Y-89294902D01*
X111466223Y-89276723D01*
X111484402Y-89260247D01*
X111504107Y-89245633D01*
X111525151Y-89233020D01*
X111547329Y-89222530D01*
X111570429Y-89214265D01*
X111594227Y-89208304D01*
X111618496Y-89204704D01*
X111643000Y-89203500D01*
X112893000Y-89203500D01*
X112917504Y-89204704D01*
X112917504Y-89204704D01*
G37*
D13*
G04 #@! TD*
G04 #@! TO.P,R7,2*
G04 #@! TO.N,+5V*
X112268000Y-89916000D03*
D12*
G04 #@! TO.N,+5V*
G04 #@! TO.C,R8*
G36*
X110377504Y-89204704D02*
X110401773Y-89208304D01*
X110425571Y-89214265D01*
X110448671Y-89222530D01*
X110470849Y-89233020D01*
X110491893Y-89245633D01*
X110511598Y-89260247D01*
X110529777Y-89276723D01*
X110546253Y-89294902D01*
X110560867Y-89314607D01*
X110573480Y-89335651D01*
X110583970Y-89357829D01*
X110592235Y-89380929D01*
X110598196Y-89404727D01*
X110601796Y-89428996D01*
X110603000Y-89453500D01*
X110603000Y-90378500D01*
X110601796Y-90403004D01*
X110598196Y-90427273D01*
X110592235Y-90451071D01*
X110583970Y-90474171D01*
X110573480Y-90496349D01*
X110560867Y-90517393D01*
X110546253Y-90537098D01*
X110529777Y-90555277D01*
X110511598Y-90571753D01*
X110491893Y-90586367D01*
X110470849Y-90598980D01*
X110448671Y-90609470D01*
X110425571Y-90617735D01*
X110401773Y-90623696D01*
X110377504Y-90627296D01*
X110353000Y-90628500D01*
X109103000Y-90628500D01*
X109078496Y-90627296D01*
X109054227Y-90623696D01*
X109030429Y-90617735D01*
X109007329Y-90609470D01*
X108985151Y-90598980D01*
X108964107Y-90586367D01*
X108944402Y-90571753D01*
X108926223Y-90555277D01*
X108909747Y-90537098D01*
X108895133Y-90517393D01*
X108882520Y-90496349D01*
X108872030Y-90474171D01*
X108863765Y-90451071D01*
X108857804Y-90427273D01*
X108854204Y-90403004D01*
X108853000Y-90378500D01*
X108853000Y-89453500D01*
X108854204Y-89428996D01*
X108857804Y-89404727D01*
X108863765Y-89380929D01*
X108872030Y-89357829D01*
X108882520Y-89335651D01*
X108895133Y-89314607D01*
X108909747Y-89294902D01*
X108926223Y-89276723D01*
X108944402Y-89260247D01*
X108964107Y-89245633D01*
X108985151Y-89233020D01*
X109007329Y-89222530D01*
X109030429Y-89214265D01*
X109054227Y-89208304D01*
X109078496Y-89204704D01*
X109103000Y-89203500D01*
X110353000Y-89203500D01*
X110377504Y-89204704D01*
X110377504Y-89204704D01*
G37*
D13*
G04 #@! TD*
G04 #@! TO.P,R8,2*
G04 #@! TO.N,+5V*
X109728000Y-89916000D03*
D12*
G04 #@! TO.N,Net-(A1-Pad11)*
G04 #@! TO.C,R8*
G36*
X110377504Y-86229704D02*
X110401773Y-86233304D01*
X110425571Y-86239265D01*
X110448671Y-86247530D01*
X110470849Y-86258020D01*
X110491893Y-86270633D01*
X110511598Y-86285247D01*
X110529777Y-86301723D01*
X110546253Y-86319902D01*
X110560867Y-86339607D01*
X110573480Y-86360651D01*
X110583970Y-86382829D01*
X110592235Y-86405929D01*
X110598196Y-86429727D01*
X110601796Y-86453996D01*
X110603000Y-86478500D01*
X110603000Y-87403500D01*
X110601796Y-87428004D01*
X110598196Y-87452273D01*
X110592235Y-87476071D01*
X110583970Y-87499171D01*
X110573480Y-87521349D01*
X110560867Y-87542393D01*
X110546253Y-87562098D01*
X110529777Y-87580277D01*
X110511598Y-87596753D01*
X110491893Y-87611367D01*
X110470849Y-87623980D01*
X110448671Y-87634470D01*
X110425571Y-87642735D01*
X110401773Y-87648696D01*
X110377504Y-87652296D01*
X110353000Y-87653500D01*
X109103000Y-87653500D01*
X109078496Y-87652296D01*
X109054227Y-87648696D01*
X109030429Y-87642735D01*
X109007329Y-87634470D01*
X108985151Y-87623980D01*
X108964107Y-87611367D01*
X108944402Y-87596753D01*
X108926223Y-87580277D01*
X108909747Y-87562098D01*
X108895133Y-87542393D01*
X108882520Y-87521349D01*
X108872030Y-87499171D01*
X108863765Y-87476071D01*
X108857804Y-87452273D01*
X108854204Y-87428004D01*
X108853000Y-87403500D01*
X108853000Y-86478500D01*
X108854204Y-86453996D01*
X108857804Y-86429727D01*
X108863765Y-86405929D01*
X108872030Y-86382829D01*
X108882520Y-86360651D01*
X108895133Y-86339607D01*
X108909747Y-86319902D01*
X108926223Y-86301723D01*
X108944402Y-86285247D01*
X108964107Y-86270633D01*
X108985151Y-86258020D01*
X109007329Y-86247530D01*
X109030429Y-86239265D01*
X109054227Y-86233304D01*
X109078496Y-86229704D01*
X109103000Y-86228500D01*
X110353000Y-86228500D01*
X110377504Y-86229704D01*
X110377504Y-86229704D01*
G37*
D13*
G04 #@! TD*
G04 #@! TO.P,R8,1*
G04 #@! TO.N,Net-(A1-Pad11)*
X109728000Y-86941000D03*
D12*
G04 #@! TO.N,Net-(A1-Pad12)*
G04 #@! TO.C,R9*
G36*
X107837504Y-86229704D02*
X107861773Y-86233304D01*
X107885571Y-86239265D01*
X107908671Y-86247530D01*
X107930849Y-86258020D01*
X107951893Y-86270633D01*
X107971598Y-86285247D01*
X107989777Y-86301723D01*
X108006253Y-86319902D01*
X108020867Y-86339607D01*
X108033480Y-86360651D01*
X108043970Y-86382829D01*
X108052235Y-86405929D01*
X108058196Y-86429727D01*
X108061796Y-86453996D01*
X108063000Y-86478500D01*
X108063000Y-87403500D01*
X108061796Y-87428004D01*
X108058196Y-87452273D01*
X108052235Y-87476071D01*
X108043970Y-87499171D01*
X108033480Y-87521349D01*
X108020867Y-87542393D01*
X108006253Y-87562098D01*
X107989777Y-87580277D01*
X107971598Y-87596753D01*
X107951893Y-87611367D01*
X107930849Y-87623980D01*
X107908671Y-87634470D01*
X107885571Y-87642735D01*
X107861773Y-87648696D01*
X107837504Y-87652296D01*
X107813000Y-87653500D01*
X106563000Y-87653500D01*
X106538496Y-87652296D01*
X106514227Y-87648696D01*
X106490429Y-87642735D01*
X106467329Y-87634470D01*
X106445151Y-87623980D01*
X106424107Y-87611367D01*
X106404402Y-87596753D01*
X106386223Y-87580277D01*
X106369747Y-87562098D01*
X106355133Y-87542393D01*
X106342520Y-87521349D01*
X106332030Y-87499171D01*
X106323765Y-87476071D01*
X106317804Y-87452273D01*
X106314204Y-87428004D01*
X106313000Y-87403500D01*
X106313000Y-86478500D01*
X106314204Y-86453996D01*
X106317804Y-86429727D01*
X106323765Y-86405929D01*
X106332030Y-86382829D01*
X106342520Y-86360651D01*
X106355133Y-86339607D01*
X106369747Y-86319902D01*
X106386223Y-86301723D01*
X106404402Y-86285247D01*
X106424107Y-86270633D01*
X106445151Y-86258020D01*
X106467329Y-86247530D01*
X106490429Y-86239265D01*
X106514227Y-86233304D01*
X106538496Y-86229704D01*
X106563000Y-86228500D01*
X107813000Y-86228500D01*
X107837504Y-86229704D01*
X107837504Y-86229704D01*
G37*
D13*
G04 #@! TD*
G04 #@! TO.P,R9,1*
G04 #@! TO.N,Net-(A1-Pad12)*
X107188000Y-86941000D03*
D12*
G04 #@! TO.N,+5V*
G04 #@! TO.C,R9*
G36*
X107837504Y-89204704D02*
X107861773Y-89208304D01*
X107885571Y-89214265D01*
X107908671Y-89222530D01*
X107930849Y-89233020D01*
X107951893Y-89245633D01*
X107971598Y-89260247D01*
X107989777Y-89276723D01*
X108006253Y-89294902D01*
X108020867Y-89314607D01*
X108033480Y-89335651D01*
X108043970Y-89357829D01*
X108052235Y-89380929D01*
X108058196Y-89404727D01*
X108061796Y-89428996D01*
X108063000Y-89453500D01*
X108063000Y-90378500D01*
X108061796Y-90403004D01*
X108058196Y-90427273D01*
X108052235Y-90451071D01*
X108043970Y-90474171D01*
X108033480Y-90496349D01*
X108020867Y-90517393D01*
X108006253Y-90537098D01*
X107989777Y-90555277D01*
X107971598Y-90571753D01*
X107951893Y-90586367D01*
X107930849Y-90598980D01*
X107908671Y-90609470D01*
X107885571Y-90617735D01*
X107861773Y-90623696D01*
X107837504Y-90627296D01*
X107813000Y-90628500D01*
X106563000Y-90628500D01*
X106538496Y-90627296D01*
X106514227Y-90623696D01*
X106490429Y-90617735D01*
X106467329Y-90609470D01*
X106445151Y-90598980D01*
X106424107Y-90586367D01*
X106404402Y-90571753D01*
X106386223Y-90555277D01*
X106369747Y-90537098D01*
X106355133Y-90517393D01*
X106342520Y-90496349D01*
X106332030Y-90474171D01*
X106323765Y-90451071D01*
X106317804Y-90427273D01*
X106314204Y-90403004D01*
X106313000Y-90378500D01*
X106313000Y-89453500D01*
X106314204Y-89428996D01*
X106317804Y-89404727D01*
X106323765Y-89380929D01*
X106332030Y-89357829D01*
X106342520Y-89335651D01*
X106355133Y-89314607D01*
X106369747Y-89294902D01*
X106386223Y-89276723D01*
X106404402Y-89260247D01*
X106424107Y-89245633D01*
X106445151Y-89233020D01*
X106467329Y-89222530D01*
X106490429Y-89214265D01*
X106514227Y-89208304D01*
X106538496Y-89204704D01*
X106563000Y-89203500D01*
X107813000Y-89203500D01*
X107837504Y-89204704D01*
X107837504Y-89204704D01*
G37*
D13*
G04 #@! TD*
G04 #@! TO.P,R9,2*
G04 #@! TO.N,+5V*
X107188000Y-89916000D03*
D12*
G04 #@! TO.N,+5V*
G04 #@! TO.C,R10*
G36*
X105062004Y-71008204D02*
X105086273Y-71011804D01*
X105110071Y-71017765D01*
X105133171Y-71026030D01*
X105155349Y-71036520D01*
X105176393Y-71049133D01*
X105196098Y-71063747D01*
X105214277Y-71080223D01*
X105230753Y-71098402D01*
X105245367Y-71118107D01*
X105257980Y-71139151D01*
X105268470Y-71161329D01*
X105276735Y-71184429D01*
X105282696Y-71208227D01*
X105286296Y-71232496D01*
X105287500Y-71257000D01*
X105287500Y-72507000D01*
X105286296Y-72531504D01*
X105282696Y-72555773D01*
X105276735Y-72579571D01*
X105268470Y-72602671D01*
X105257980Y-72624849D01*
X105245367Y-72645893D01*
X105230753Y-72665598D01*
X105214277Y-72683777D01*
X105196098Y-72700253D01*
X105176393Y-72714867D01*
X105155349Y-72727480D01*
X105133171Y-72737970D01*
X105110071Y-72746235D01*
X105086273Y-72752196D01*
X105062004Y-72755796D01*
X105037500Y-72757000D01*
X104112500Y-72757000D01*
X104087996Y-72755796D01*
X104063727Y-72752196D01*
X104039929Y-72746235D01*
X104016829Y-72737970D01*
X103994651Y-72727480D01*
X103973607Y-72714867D01*
X103953902Y-72700253D01*
X103935723Y-72683777D01*
X103919247Y-72665598D01*
X103904633Y-72645893D01*
X103892020Y-72624849D01*
X103881530Y-72602671D01*
X103873265Y-72579571D01*
X103867304Y-72555773D01*
X103863704Y-72531504D01*
X103862500Y-72507000D01*
X103862500Y-71257000D01*
X103863704Y-71232496D01*
X103867304Y-71208227D01*
X103873265Y-71184429D01*
X103881530Y-71161329D01*
X103892020Y-71139151D01*
X103904633Y-71118107D01*
X103919247Y-71098402D01*
X103935723Y-71080223D01*
X103953902Y-71063747D01*
X103973607Y-71049133D01*
X103994651Y-71036520D01*
X104016829Y-71026030D01*
X104039929Y-71017765D01*
X104063727Y-71011804D01*
X104087996Y-71008204D01*
X104112500Y-71007000D01*
X105037500Y-71007000D01*
X105062004Y-71008204D01*
X105062004Y-71008204D01*
G37*
D13*
G04 #@! TD*
G04 #@! TO.P,R10,2*
G04 #@! TO.N,+5V*
X104575000Y-71882000D03*
D12*
G04 #@! TO.N,/SDA*
G04 #@! TO.C,R10*
G36*
X102087004Y-71008204D02*
X102111273Y-71011804D01*
X102135071Y-71017765D01*
X102158171Y-71026030D01*
X102180349Y-71036520D01*
X102201393Y-71049133D01*
X102221098Y-71063747D01*
X102239277Y-71080223D01*
X102255753Y-71098402D01*
X102270367Y-71118107D01*
X102282980Y-71139151D01*
X102293470Y-71161329D01*
X102301735Y-71184429D01*
X102307696Y-71208227D01*
X102311296Y-71232496D01*
X102312500Y-71257000D01*
X102312500Y-72507000D01*
X102311296Y-72531504D01*
X102307696Y-72555773D01*
X102301735Y-72579571D01*
X102293470Y-72602671D01*
X102282980Y-72624849D01*
X102270367Y-72645893D01*
X102255753Y-72665598D01*
X102239277Y-72683777D01*
X102221098Y-72700253D01*
X102201393Y-72714867D01*
X102180349Y-72727480D01*
X102158171Y-72737970D01*
X102135071Y-72746235D01*
X102111273Y-72752196D01*
X102087004Y-72755796D01*
X102062500Y-72757000D01*
X101137500Y-72757000D01*
X101112996Y-72755796D01*
X101088727Y-72752196D01*
X101064929Y-72746235D01*
X101041829Y-72737970D01*
X101019651Y-72727480D01*
X100998607Y-72714867D01*
X100978902Y-72700253D01*
X100960723Y-72683777D01*
X100944247Y-72665598D01*
X100929633Y-72645893D01*
X100917020Y-72624849D01*
X100906530Y-72602671D01*
X100898265Y-72579571D01*
X100892304Y-72555773D01*
X100888704Y-72531504D01*
X100887500Y-72507000D01*
X100887500Y-71257000D01*
X100888704Y-71232496D01*
X100892304Y-71208227D01*
X100898265Y-71184429D01*
X100906530Y-71161329D01*
X100917020Y-71139151D01*
X100929633Y-71118107D01*
X100944247Y-71098402D01*
X100960723Y-71080223D01*
X100978902Y-71063747D01*
X100998607Y-71049133D01*
X101019651Y-71036520D01*
X101041829Y-71026030D01*
X101064929Y-71017765D01*
X101088727Y-71011804D01*
X101112996Y-71008204D01*
X101137500Y-71007000D01*
X102062500Y-71007000D01*
X102087004Y-71008204D01*
X102087004Y-71008204D01*
G37*
D13*
G04 #@! TD*
G04 #@! TO.P,R10,1*
G04 #@! TO.N,/SDA*
X101600000Y-71882000D03*
D12*
G04 #@! TO.N,+5V*
G04 #@! TO.C,R11*
G36*
X105062004Y-68468204D02*
X105086273Y-68471804D01*
X105110071Y-68477765D01*
X105133171Y-68486030D01*
X105155349Y-68496520D01*
X105176393Y-68509133D01*
X105196098Y-68523747D01*
X105214277Y-68540223D01*
X105230753Y-68558402D01*
X105245367Y-68578107D01*
X105257980Y-68599151D01*
X105268470Y-68621329D01*
X105276735Y-68644429D01*
X105282696Y-68668227D01*
X105286296Y-68692496D01*
X105287500Y-68717000D01*
X105287500Y-69967000D01*
X105286296Y-69991504D01*
X105282696Y-70015773D01*
X105276735Y-70039571D01*
X105268470Y-70062671D01*
X105257980Y-70084849D01*
X105245367Y-70105893D01*
X105230753Y-70125598D01*
X105214277Y-70143777D01*
X105196098Y-70160253D01*
X105176393Y-70174867D01*
X105155349Y-70187480D01*
X105133171Y-70197970D01*
X105110071Y-70206235D01*
X105086273Y-70212196D01*
X105062004Y-70215796D01*
X105037500Y-70217000D01*
X104112500Y-70217000D01*
X104087996Y-70215796D01*
X104063727Y-70212196D01*
X104039929Y-70206235D01*
X104016829Y-70197970D01*
X103994651Y-70187480D01*
X103973607Y-70174867D01*
X103953902Y-70160253D01*
X103935723Y-70143777D01*
X103919247Y-70125598D01*
X103904633Y-70105893D01*
X103892020Y-70084849D01*
X103881530Y-70062671D01*
X103873265Y-70039571D01*
X103867304Y-70015773D01*
X103863704Y-69991504D01*
X103862500Y-69967000D01*
X103862500Y-68717000D01*
X103863704Y-68692496D01*
X103867304Y-68668227D01*
X103873265Y-68644429D01*
X103881530Y-68621329D01*
X103892020Y-68599151D01*
X103904633Y-68578107D01*
X103919247Y-68558402D01*
X103935723Y-68540223D01*
X103953902Y-68523747D01*
X103973607Y-68509133D01*
X103994651Y-68496520D01*
X104016829Y-68486030D01*
X104039929Y-68477765D01*
X104063727Y-68471804D01*
X104087996Y-68468204D01*
X104112500Y-68467000D01*
X105037500Y-68467000D01*
X105062004Y-68468204D01*
X105062004Y-68468204D01*
G37*
D13*
G04 #@! TD*
G04 #@! TO.P,R11,1*
G04 #@! TO.N,+5V*
X104575000Y-69342000D03*
D12*
G04 #@! TO.N,/SCL*
G04 #@! TO.C,R11*
G36*
X102087004Y-68468204D02*
X102111273Y-68471804D01*
X102135071Y-68477765D01*
X102158171Y-68486030D01*
X102180349Y-68496520D01*
X102201393Y-68509133D01*
X102221098Y-68523747D01*
X102239277Y-68540223D01*
X102255753Y-68558402D01*
X102270367Y-68578107D01*
X102282980Y-68599151D01*
X102293470Y-68621329D01*
X102301735Y-68644429D01*
X102307696Y-68668227D01*
X102311296Y-68692496D01*
X102312500Y-68717000D01*
X102312500Y-69967000D01*
X102311296Y-69991504D01*
X102307696Y-70015773D01*
X102301735Y-70039571D01*
X102293470Y-70062671D01*
X102282980Y-70084849D01*
X102270367Y-70105893D01*
X102255753Y-70125598D01*
X102239277Y-70143777D01*
X102221098Y-70160253D01*
X102201393Y-70174867D01*
X102180349Y-70187480D01*
X102158171Y-70197970D01*
X102135071Y-70206235D01*
X102111273Y-70212196D01*
X102087004Y-70215796D01*
X102062500Y-70217000D01*
X101137500Y-70217000D01*
X101112996Y-70215796D01*
X101088727Y-70212196D01*
X101064929Y-70206235D01*
X101041829Y-70197970D01*
X101019651Y-70187480D01*
X100998607Y-70174867D01*
X100978902Y-70160253D01*
X100960723Y-70143777D01*
X100944247Y-70125598D01*
X100929633Y-70105893D01*
X100917020Y-70084849D01*
X100906530Y-70062671D01*
X100898265Y-70039571D01*
X100892304Y-70015773D01*
X100888704Y-69991504D01*
X100887500Y-69967000D01*
X100887500Y-68717000D01*
X100888704Y-68692496D01*
X100892304Y-68668227D01*
X100898265Y-68644429D01*
X100906530Y-68621329D01*
X100917020Y-68599151D01*
X100929633Y-68578107D01*
X100944247Y-68558402D01*
X100960723Y-68540223D01*
X100978902Y-68523747D01*
X100998607Y-68509133D01*
X101019651Y-68496520D01*
X101041829Y-68486030D01*
X101064929Y-68477765D01*
X101088727Y-68471804D01*
X101112996Y-68468204D01*
X101137500Y-68467000D01*
X102062500Y-68467000D01*
X102087004Y-68468204D01*
X102087004Y-68468204D01*
G37*
D13*
G04 #@! TD*
G04 #@! TO.P,R11,2*
G04 #@! TO.N,/SCL*
X101600000Y-69342000D03*
D25*
G04 #@! TO.N,GND*
X88392000Y-75814000D02*
X88392000Y-81607000D01*
X88392000Y-75214000D02*
X88392000Y-75814000D01*
G04 #@! TO.N,+5V*
X97790000Y-89662000D02*
X99060000Y-89662000D01*
X91440000Y-84582000D02*
X92710000Y-84582000D01*
X91440000Y-84582000D02*
X92571370Y-84582000D01*
X97028000Y-88900000D02*
X97790000Y-89662000D01*
X92710000Y-84582000D02*
X97028000Y-88900000D01*
X89611500Y-66548000D02*
X89916000Y-66548000D01*
X88392000Y-67767500D02*
X89611500Y-66548000D01*
X88392000Y-68580000D02*
X88392000Y-67767500D01*
X93344001Y-82677999D02*
X93344001Y-66674001D01*
X93344001Y-66674001D02*
X93218000Y-66548000D01*
X91440000Y-84582000D02*
X93344001Y-82677999D01*
X98806000Y-66548000D02*
X93218000Y-66548000D01*
X93218000Y-66548000D02*
X89916000Y-66548000D01*
X102108000Y-61468000D02*
X102108000Y-66548000D01*
X102108000Y-61468000D02*
X105664000Y-61468000D01*
X98694000Y-61468000D02*
X102108000Y-61468000D01*
X102108000Y-66548000D02*
X98806000Y-66548000D01*
X119888000Y-69342000D02*
X119888000Y-71882000D01*
X119888000Y-71882000D02*
X119888000Y-74422000D01*
X119888000Y-74422000D02*
X119888000Y-76962000D01*
X108712000Y-98806000D02*
X112268000Y-98806000D01*
X112268000Y-95758000D02*
X116078000Y-91948000D01*
X112268000Y-98806000D02*
X112268000Y-95758000D01*
X119888000Y-88138000D02*
X116078000Y-91948000D01*
X119888000Y-76962000D02*
X119888000Y-88138000D01*
X119888000Y-92790000D02*
X119888000Y-88138000D01*
X122348000Y-95250000D02*
X119888000Y-92790000D01*
X123698000Y-95250000D02*
X122348000Y-95250000D01*
X124998001Y-103521999D02*
X124998001Y-96550001D01*
X123698000Y-104822000D02*
X124998001Y-103521999D01*
X124998001Y-96550001D02*
X123698000Y-95250000D01*
X123698000Y-106172000D02*
X123698000Y-104822000D01*
X102108000Y-66548000D02*
X111816486Y-66548000D01*
X88392000Y-84582000D02*
X91440000Y-84582000D01*
X107188000Y-89916000D02*
X109728000Y-89916000D01*
X112268000Y-89916000D02*
X109728000Y-89916000D01*
X114046000Y-89916000D02*
X116078000Y-91948000D01*
X112268000Y-89916000D02*
X114046000Y-89916000D01*
X117504833Y-65608834D02*
X112755652Y-65608834D01*
X119888000Y-67992000D02*
X117504833Y-65608834D01*
X112755652Y-65608834D02*
X111816486Y-66548000D01*
X119888000Y-69342000D02*
X119888000Y-67992000D01*
X104575000Y-71882000D02*
X104575000Y-69342000D01*
X104756000Y-69161000D02*
X104575000Y-69342000D01*
X106607000Y-73914000D02*
X104575000Y-71882000D01*
X106626000Y-73914000D02*
X106607000Y-73914000D01*
X102756000Y-66548000D02*
X102108000Y-66548000D01*
X104575000Y-68367000D02*
X102756000Y-66548000D01*
X104575000Y-69342000D02*
X104575000Y-68367000D01*
D26*
G04 #@! TO.N,Net-(A1-Pad10)*
X104575000Y-79248000D02*
X112268000Y-86941000D01*
X103378000Y-79248000D02*
X104575000Y-79248000D01*
G04 #@! TO.N,Net-(A1-Pad11)*
X104575000Y-81788000D02*
X109728000Y-86941000D01*
X103378000Y-81788000D02*
X104575000Y-81788000D01*
G04 #@! TO.N,Net-(A1-Pad12)*
X104575000Y-84328000D02*
X107188000Y-86941000D01*
X103378000Y-84328000D02*
X104575000Y-84328000D01*
G04 #@! TO.N,/A4988_RESET*
X90390000Y-69342000D02*
X88392000Y-71340000D01*
X88392000Y-71340000D02*
X88392000Y-71555000D01*
X91440000Y-69342000D02*
X90390000Y-69342000D01*
X104177999Y-87667999D02*
X103378000Y-86868000D01*
X104996999Y-100170999D02*
X104996999Y-88486999D01*
X104996999Y-88486999D02*
X104177999Y-87667999D01*
X106172000Y-101346000D02*
X104996999Y-100170999D01*
X88392000Y-73914000D02*
X88392000Y-71555000D01*
G04 #@! TO.N,/A4988_SLEEP*
X102578001Y-88608001D02*
X103378000Y-89408000D01*
X102252999Y-77614999D02*
X102252999Y-88282999D01*
X102252999Y-88282999D02*
X102578001Y-88608001D01*
X99060000Y-74422000D02*
X102252999Y-77614999D01*
G04 #@! TO.N,/A4988_STEP*
X102578001Y-91148001D02*
X103378000Y-91948000D01*
X101727000Y-90297000D02*
X102578001Y-91148001D01*
X101727000Y-79629000D02*
X101727000Y-90297000D01*
X99060000Y-76962000D02*
X101727000Y-79629000D01*
D25*
G04 #@! TO.N,+12V*
X114989000Y-75619000D02*
X116078000Y-76708000D01*
X114989000Y-73914000D02*
X114989000Y-75619000D01*
D26*
G04 #@! TO.N,/XTAL1*
X88900000Y-92202000D02*
X88392000Y-92202000D01*
X91440000Y-89662000D02*
X88900000Y-92202000D01*
X86360000Y-92202000D02*
X82804000Y-95758000D01*
X88392000Y-92202000D02*
X86360000Y-92202000D01*
G04 #@! TO.N,/XTAL2*
X88392000Y-95250000D02*
X88392000Y-96768000D01*
X91440000Y-92202000D02*
X88392000Y-95250000D01*
X86674000Y-96768000D02*
X82804000Y-100638000D01*
X88392000Y-96768000D02*
X86674000Y-96768000D01*
G04 #@! TO.N,Net-(D1-Pad2)*
X109474000Y-73787000D02*
X109601000Y-73914000D01*
X109474000Y-71628000D02*
X109474000Y-73787000D01*
G04 #@! TO.N,Net-(D2-Pad1)*
X97863000Y-108385000D02*
X97790000Y-108458000D01*
X100330000Y-108385000D02*
X97863000Y-108385000D01*
G04 #@! TO.N,/SPARE_IN*
X84694000Y-67706000D02*
X84455000Y-67945000D01*
X84694000Y-61468000D02*
X84694000Y-67706000D01*
G04 #@! TO.N,/SCL*
X100787500Y-69342000D02*
X99060000Y-69342000D01*
X101600000Y-69342000D02*
X100787500Y-69342000D01*
G04 #@! TO.N,/SDA*
X100787500Y-71882000D02*
X99060000Y-71882000D01*
X101600000Y-71882000D02*
X100787500Y-71882000D01*
G04 #@! TO.N,/MISO*
X102532000Y-101346000D02*
X103632000Y-101346000D01*
X102456999Y-101270999D02*
X102532000Y-101346000D01*
X102456999Y-98138999D02*
X102456999Y-101270999D01*
X99060000Y-94742000D02*
X102456999Y-98138999D01*
G04 #@! TO.N,/SCK*
X103632000Y-96774000D02*
X103632000Y-98806000D01*
X99060000Y-92202000D02*
X103632000Y-96774000D01*
G04 #@! TO.N,/MOSI*
X102521999Y-102521001D02*
X107536999Y-102521001D01*
X107862001Y-102195999D02*
X108712000Y-101346000D01*
X100185001Y-100184003D02*
X102521999Y-102521001D01*
X100185001Y-98407001D02*
X100185001Y-100184003D01*
X107536999Y-102521001D02*
X107862001Y-102195999D01*
X99060000Y-97282000D02*
X100185001Y-98407001D01*
G04 #@! TO.N,/SWITCH*
X114631000Y-99418000D02*
X115316000Y-99418000D01*
X112268000Y-101781000D02*
X114631000Y-99418000D01*
X115316000Y-99418000D02*
X115316000Y-105918000D01*
X118110000Y-108712000D02*
X123698000Y-108712000D01*
X115316000Y-105918000D02*
X118110000Y-108712000D01*
G04 #@! TO.N,/SPARE_A*
X83736000Y-71882000D02*
X80772000Y-71882000D01*
X84836000Y-71882000D02*
X83736000Y-71882000D01*
G04 #@! TO.N,/SPARE_B*
X84836000Y-74422000D02*
X80772000Y-74422000D01*
G04 #@! TO.N,/SPARE_C*
X83633919Y-76962000D02*
X80772000Y-76962000D01*
X84836000Y-76962000D02*
X83633919Y-76962000D01*
G04 #@! TO.N,/SPARE_D*
X83633919Y-79502000D02*
X80772000Y-79502000D01*
X84836000Y-79502000D02*
X83633919Y-79502000D01*
G04 #@! TO.N,/SPARE_E*
X84836000Y-82042000D02*
X80772000Y-82042000D01*
G04 #@! TO.N,/SPARE_F*
X84836000Y-84582000D02*
X80772000Y-84582000D01*
G04 #@! TO.N,/SPARE_G*
X80772000Y-87122000D02*
X84836000Y-87122000D01*
G04 #@! TO.N,/SPARE_AN_A*
X80772000Y-89662000D02*
X84836000Y-89662000D01*
X85685999Y-88812001D02*
X84836000Y-89662000D01*
X86046010Y-88451990D02*
X85685999Y-88812001D01*
X91894992Y-88451990D02*
X86046010Y-88451990D01*
X99600001Y-90787001D02*
X94230003Y-90787001D01*
X94230003Y-90787001D02*
X91894992Y-88451990D01*
X100185001Y-90202001D02*
X99600001Y-90787001D01*
X100185001Y-80627001D02*
X100185001Y-90202001D01*
X99060000Y-79502000D02*
X100185001Y-80627001D01*
G04 #@! TO.N,/STATUS_R*
X90170000Y-102500630D02*
X90170000Y-104670500D01*
X90170000Y-104670500D02*
X90170000Y-105483000D01*
X90308630Y-102362000D02*
X90170000Y-102500630D01*
X91440000Y-102362000D02*
X90308630Y-102362000D01*
G04 #@! TO.N,/STATUS_G*
X100191370Y-102362000D02*
X99060000Y-102362000D01*
X100330000Y-102500630D02*
X100191370Y-102362000D01*
X100330000Y-105410000D02*
X100330000Y-102500630D01*
G04 #@! TO.N,Net-(D2-Pad3)*
X90170000Y-108458000D02*
X92710000Y-108458000D01*
G04 #@! TO.N,Net-(D3-Pad2)*
X112014000Y-71628000D02*
X112014000Y-73914000D01*
G04 #@! TD*
D27*
G04 #@! TO.N,GND*
G36*
X126265000Y-113565000D02*
X78205000Y-113565000D01*
X78205000Y-111608890D01*
X122256524Y-111608890D01*
X122426355Y-112018924D01*
X122816642Y-112447183D01*
X123341108Y-112693486D01*
X123571000Y-112572819D01*
X123571000Y-111379000D01*
X123825000Y-111379000D01*
X123825000Y-112572819D01*
X124054892Y-112693486D01*
X124579358Y-112447183D01*
X124969645Y-112018924D01*
X125139476Y-111608890D01*
X125018155Y-111379000D01*
X123825000Y-111379000D01*
X123571000Y-111379000D01*
X122377845Y-111379000D01*
X122256524Y-111608890D01*
X78205000Y-111608890D01*
X78205000Y-107995500D01*
X88647560Y-107995500D01*
X88647560Y-108920500D01*
X88715874Y-109263935D01*
X88910414Y-109555086D01*
X89201565Y-109749626D01*
X89545000Y-109817940D01*
X90795000Y-109817940D01*
X91138435Y-109749626D01*
X91429586Y-109555086D01*
X91512371Y-109431188D01*
X91840493Y-109759310D01*
X92404670Y-109993000D01*
X93015330Y-109993000D01*
X93579507Y-109759310D01*
X94011310Y-109327507D01*
X94019438Y-109307885D01*
X94169841Y-109358554D01*
X95070395Y-108458000D01*
X94169841Y-107557446D01*
X94019438Y-107608115D01*
X94011310Y-107588493D01*
X93800658Y-107377841D01*
X94349446Y-107377841D01*
X95250000Y-108278395D01*
X95264143Y-108264253D01*
X95443748Y-108443858D01*
X95429605Y-108458000D01*
X95443748Y-108472143D01*
X95264143Y-108651748D01*
X95250000Y-108637605D01*
X94349446Y-109538159D01*
X94435852Y-109794643D01*
X95009336Y-110004458D01*
X95619460Y-109978839D01*
X96064148Y-109794643D01*
X96150553Y-109538161D01*
X96265110Y-109652718D01*
X96299942Y-109617886D01*
X96432191Y-109815809D01*
X96642235Y-109956157D01*
X96890000Y-110005440D01*
X98690000Y-110005440D01*
X98937765Y-109956157D01*
X99147809Y-109815809D01*
X99278081Y-109620844D01*
X99361565Y-109676626D01*
X99705000Y-109744940D01*
X100955000Y-109744940D01*
X101298435Y-109676626D01*
X101589586Y-109482086D01*
X101784126Y-109190935D01*
X101852440Y-108847500D01*
X101852440Y-107922500D01*
X101784126Y-107579065D01*
X101589586Y-107287914D01*
X101298435Y-107093374D01*
X100955000Y-107025060D01*
X99705000Y-107025060D01*
X99361565Y-107093374D01*
X99210638Y-107194220D01*
X99147809Y-107100191D01*
X98937765Y-106959843D01*
X98690000Y-106910560D01*
X96890000Y-106910560D01*
X96642235Y-106959843D01*
X96432191Y-107100191D01*
X96299942Y-107298114D01*
X96265110Y-107263282D01*
X96150553Y-107377839D01*
X96064148Y-107121357D01*
X95490664Y-106911542D01*
X94880540Y-106937161D01*
X94435852Y-107121357D01*
X94349446Y-107377841D01*
X93800658Y-107377841D01*
X93579507Y-107156690D01*
X93015330Y-106923000D01*
X92404670Y-106923000D01*
X91840493Y-107156690D01*
X91512371Y-107484812D01*
X91429586Y-107360914D01*
X91138435Y-107166374D01*
X90795000Y-107098060D01*
X89545000Y-107098060D01*
X89201565Y-107166374D01*
X88910414Y-107360914D01*
X88715874Y-107652065D01*
X88647560Y-107995500D01*
X78205000Y-107995500D01*
X78205000Y-106045000D01*
X78670000Y-106045000D01*
X78789107Y-106720490D01*
X79132062Y-107314506D01*
X79657500Y-107755400D01*
X80302045Y-107989995D01*
X80987955Y-107989995D01*
X81632500Y-107755400D01*
X82157938Y-107314506D01*
X82500893Y-106720490D01*
X82620000Y-106045000D01*
X82500893Y-105369510D01*
X82157938Y-104775494D01*
X81632500Y-104334600D01*
X80987955Y-104100005D01*
X80302045Y-104100005D01*
X79657500Y-104334600D01*
X79132062Y-104775494D01*
X78789107Y-105369510D01*
X78670000Y-106045000D01*
X78205000Y-106045000D01*
X78205000Y-74422000D01*
X79257908Y-74422000D01*
X79373161Y-75001418D01*
X79701375Y-75492625D01*
X79999761Y-75692000D01*
X79701375Y-75891375D01*
X79373161Y-76382582D01*
X79257908Y-76962000D01*
X79373161Y-77541418D01*
X79701375Y-78032625D01*
X79999761Y-78232000D01*
X79701375Y-78431375D01*
X79373161Y-78922582D01*
X79257908Y-79502000D01*
X79373161Y-80081418D01*
X79701375Y-80572625D01*
X79999761Y-80772000D01*
X79701375Y-80971375D01*
X79373161Y-81462582D01*
X79257908Y-82042000D01*
X79373161Y-82621418D01*
X79701375Y-83112625D01*
X79999761Y-83312000D01*
X79701375Y-83511375D01*
X79373161Y-84002582D01*
X79257908Y-84582000D01*
X79373161Y-85161418D01*
X79701375Y-85652625D01*
X79999761Y-85852000D01*
X79701375Y-86051375D01*
X79373161Y-86542582D01*
X79257908Y-87122000D01*
X79373161Y-87701418D01*
X79701375Y-88192625D01*
X79999761Y-88392000D01*
X79701375Y-88591375D01*
X79373161Y-89082582D01*
X79257908Y-89662000D01*
X79373161Y-90241418D01*
X79701375Y-90732625D01*
X80192582Y-91060839D01*
X80625744Y-91147000D01*
X80918256Y-91147000D01*
X81351418Y-91060839D01*
X81842625Y-90732625D01*
X82050178Y-90422000D01*
X83557822Y-90422000D01*
X83765375Y-90732625D01*
X84256582Y-91060839D01*
X84689744Y-91147000D01*
X84982256Y-91147000D01*
X85415418Y-91060839D01*
X85906625Y-90732625D01*
X86234839Y-90241418D01*
X86344970Y-89687750D01*
X86882000Y-89687750D01*
X86882000Y-90153309D01*
X86978673Y-90386698D01*
X87157301Y-90565327D01*
X87390690Y-90662000D01*
X88106250Y-90662000D01*
X88265000Y-90503250D01*
X88265000Y-89529000D01*
X87040750Y-89529000D01*
X86882000Y-89687750D01*
X86344970Y-89687750D01*
X86350092Y-89662000D01*
X86277209Y-89295592D01*
X86360811Y-89211990D01*
X86977740Y-89211990D01*
X87040750Y-89275000D01*
X88265000Y-89275000D01*
X88265000Y-89255000D01*
X88519000Y-89255000D01*
X88519000Y-89275000D01*
X89743250Y-89275000D01*
X89806260Y-89211990D01*
X90066400Y-89211990D01*
X89976887Y-89662000D01*
X90041312Y-89985886D01*
X89902000Y-90125198D01*
X89902000Y-89687750D01*
X89743250Y-89529000D01*
X88519000Y-89529000D01*
X88519000Y-90503250D01*
X88677750Y-90662000D01*
X89365198Y-90662000D01*
X89084260Y-90942939D01*
X89017000Y-90929560D01*
X87767000Y-90929560D01*
X87423565Y-90997874D01*
X87132414Y-91192414D01*
X86965647Y-91442000D01*
X86434846Y-91442000D01*
X86359999Y-91427112D01*
X86285152Y-91442000D01*
X86285148Y-91442000D01*
X86063463Y-91486096D01*
X86063461Y-91486097D01*
X86063462Y-91486097D01*
X85875526Y-91611671D01*
X85875524Y-91611673D01*
X85812071Y-91654071D01*
X85769673Y-91717524D01*
X83104034Y-94383165D01*
X83079494Y-94373000D01*
X82528506Y-94373000D01*
X82019460Y-94583853D01*
X81629853Y-94973460D01*
X81419000Y-95482506D01*
X81419000Y-96033494D01*
X81629853Y-96542540D01*
X82019460Y-96932147D01*
X82528506Y-97143000D01*
X83079494Y-97143000D01*
X83588540Y-96932147D01*
X83978147Y-96542540D01*
X84189000Y-96033494D01*
X84189000Y-95482506D01*
X84178835Y-95457966D01*
X86674803Y-92962000D01*
X86965647Y-92962000D01*
X87132414Y-93211586D01*
X87423565Y-93406126D01*
X87767000Y-93474440D01*
X89017000Y-93474440D01*
X89111570Y-93455629D01*
X87907530Y-94659669D01*
X87844071Y-94702071D01*
X87676096Y-94953464D01*
X87632000Y-95175149D01*
X87632000Y-95175153D01*
X87617112Y-95250000D01*
X87632000Y-95324847D01*
X87632000Y-95522413D01*
X87423565Y-95563874D01*
X87132414Y-95758414D01*
X86965647Y-96008000D01*
X86748846Y-96008000D01*
X86673999Y-95993112D01*
X86599152Y-96008000D01*
X86599148Y-96008000D01*
X86377463Y-96052096D01*
X86330238Y-96083651D01*
X86189526Y-96177671D01*
X86189524Y-96177673D01*
X86126071Y-96220071D01*
X86083673Y-96283524D01*
X83104034Y-99263165D01*
X83079494Y-99253000D01*
X82528506Y-99253000D01*
X82019460Y-99463853D01*
X81629853Y-99853460D01*
X81419000Y-100362506D01*
X81419000Y-100913494D01*
X81629853Y-101422540D01*
X82019460Y-101812147D01*
X82528506Y-102023000D01*
X83079494Y-102023000D01*
X83588540Y-101812147D01*
X83978147Y-101422540D01*
X84189000Y-100913494D01*
X84189000Y-100362506D01*
X84178835Y-100337966D01*
X84663051Y-99853750D01*
X86882000Y-99853750D01*
X86882000Y-100319309D01*
X86978673Y-100552698D01*
X87157301Y-100731327D01*
X87390690Y-100828000D01*
X88106250Y-100828000D01*
X88265000Y-100669250D01*
X88265000Y-99695000D01*
X88519000Y-99695000D01*
X88519000Y-100669250D01*
X88677750Y-100828000D01*
X89393310Y-100828000D01*
X89626699Y-100731327D01*
X89805327Y-100552698D01*
X89902000Y-100319309D01*
X89902000Y-99853750D01*
X89743250Y-99695000D01*
X88519000Y-99695000D01*
X88265000Y-99695000D01*
X87040750Y-99695000D01*
X86882000Y-99853750D01*
X84663051Y-99853750D01*
X85700110Y-98816691D01*
X86882000Y-98816691D01*
X86882000Y-99282250D01*
X87040750Y-99441000D01*
X88265000Y-99441000D01*
X88265000Y-98466750D01*
X88519000Y-98466750D01*
X88519000Y-99441000D01*
X89743250Y-99441000D01*
X89902000Y-99282250D01*
X89902000Y-98816691D01*
X89805327Y-98583302D01*
X89626699Y-98404673D01*
X89393310Y-98308000D01*
X88677750Y-98308000D01*
X88519000Y-98466750D01*
X88265000Y-98466750D01*
X88106250Y-98308000D01*
X87390690Y-98308000D01*
X87157301Y-98404673D01*
X86978673Y-98583302D01*
X86882000Y-98816691D01*
X85700110Y-98816691D01*
X86974922Y-97541881D01*
X87132414Y-97777586D01*
X87423565Y-97972126D01*
X87767000Y-98040440D01*
X89017000Y-98040440D01*
X89360435Y-97972126D01*
X89651586Y-97777586D01*
X89846126Y-97486435D01*
X89914440Y-97143000D01*
X89914440Y-96393000D01*
X89846126Y-96049565D01*
X89651586Y-95758414D01*
X89360435Y-95563874D01*
X89187355Y-95529446D01*
X89977405Y-94739396D01*
X89976887Y-94742000D01*
X90088260Y-95301909D01*
X90405423Y-95776577D01*
X90757758Y-96012000D01*
X90405423Y-96247423D01*
X90088260Y-96722091D01*
X89976887Y-97282000D01*
X90088260Y-97841909D01*
X90405423Y-98316577D01*
X90757758Y-98552000D01*
X90405423Y-98787423D01*
X90088260Y-99262091D01*
X89976887Y-99822000D01*
X90088260Y-100381909D01*
X90405423Y-100856577D01*
X90757758Y-101092000D01*
X90405423Y-101327423D01*
X90220145Y-101604712D01*
X90012093Y-101646096D01*
X89760701Y-101814071D01*
X89718300Y-101877528D01*
X89685529Y-101910300D01*
X89622071Y-101952701D01*
X89454096Y-102204094D01*
X89410000Y-102425779D01*
X89410000Y-102425783D01*
X89395112Y-102500630D01*
X89410000Y-102575477D01*
X89410001Y-104149913D01*
X89201565Y-104191374D01*
X88910414Y-104385914D01*
X88715874Y-104677065D01*
X88647560Y-105020500D01*
X88647560Y-105945500D01*
X88715874Y-106288935D01*
X88910414Y-106580086D01*
X89201565Y-106774626D01*
X89545000Y-106842940D01*
X90795000Y-106842940D01*
X91138435Y-106774626D01*
X91429586Y-106580086D01*
X91624126Y-106288935D01*
X91692440Y-105945500D01*
X91692440Y-105020500D01*
X91624126Y-104677065D01*
X91429586Y-104385914D01*
X91138435Y-104191374D01*
X90930000Y-104149913D01*
X90930000Y-103723668D01*
X91298667Y-103797000D01*
X91581333Y-103797000D01*
X91999909Y-103713740D01*
X92474577Y-103396577D01*
X92791740Y-102921909D01*
X92903113Y-102362000D01*
X92791740Y-101802091D01*
X92474577Y-101327423D01*
X92122242Y-101092000D01*
X92474577Y-100856577D01*
X92791740Y-100381909D01*
X92903113Y-99822000D01*
X92791740Y-99262091D01*
X92474577Y-98787423D01*
X92122242Y-98552000D01*
X92474577Y-98316577D01*
X92791740Y-97841909D01*
X92903113Y-97282000D01*
X92791740Y-96722091D01*
X92474577Y-96247423D01*
X92122242Y-96012000D01*
X92474577Y-95776577D01*
X92791740Y-95301909D01*
X92903113Y-94742000D01*
X92791740Y-94182091D01*
X92474577Y-93707423D01*
X92122242Y-93472000D01*
X92474577Y-93236577D01*
X92791740Y-92761909D01*
X92903113Y-92202000D01*
X92791740Y-91642091D01*
X92474577Y-91167423D01*
X92122242Y-90932000D01*
X92474577Y-90696577D01*
X92710978Y-90342778D01*
X93639674Y-91271474D01*
X93682074Y-91334930D01*
X93933466Y-91502905D01*
X94155151Y-91547001D01*
X94155155Y-91547001D01*
X94230002Y-91561889D01*
X94304849Y-91547001D01*
X97771797Y-91547001D01*
X97708260Y-91642091D01*
X97596887Y-92202000D01*
X97708260Y-92761909D01*
X98025423Y-93236577D01*
X98377758Y-93472000D01*
X98025423Y-93707423D01*
X97708260Y-94182091D01*
X97596887Y-94742000D01*
X97708260Y-95301909D01*
X98025423Y-95776577D01*
X98377758Y-96012000D01*
X98025423Y-96247423D01*
X97708260Y-96722091D01*
X97596887Y-97282000D01*
X97708260Y-97841909D01*
X98025423Y-98316577D01*
X98377758Y-98552000D01*
X98025423Y-98787423D01*
X97708260Y-99262091D01*
X97596887Y-99822000D01*
X97708260Y-100381909D01*
X98025423Y-100856577D01*
X98377758Y-101092000D01*
X98025423Y-101327423D01*
X97708260Y-101802091D01*
X97596887Y-102362000D01*
X97708260Y-102921909D01*
X98025423Y-103396577D01*
X98500091Y-103713740D01*
X98918667Y-103797000D01*
X99201333Y-103797000D01*
X99570001Y-103723667D01*
X99570000Y-104076913D01*
X99361565Y-104118374D01*
X99070414Y-104312914D01*
X98875874Y-104604065D01*
X98807560Y-104947500D01*
X98807560Y-105872500D01*
X98875874Y-106215935D01*
X99070414Y-106507086D01*
X99361565Y-106701626D01*
X99705000Y-106769940D01*
X100955000Y-106769940D01*
X101298435Y-106701626D01*
X101589586Y-106507086D01*
X101784126Y-106215935D01*
X101818127Y-106045000D01*
X109150000Y-106045000D01*
X109269107Y-106720490D01*
X109612062Y-107314506D01*
X110137500Y-107755400D01*
X110782045Y-107989995D01*
X111467955Y-107989995D01*
X112112500Y-107755400D01*
X112637938Y-107314506D01*
X112980893Y-106720490D01*
X113100000Y-106045000D01*
X112980893Y-105369510D01*
X112637938Y-104775494D01*
X112112500Y-104334600D01*
X111467955Y-104100005D01*
X110782045Y-104100005D01*
X110137500Y-104334600D01*
X109612062Y-104775494D01*
X109269107Y-105369510D01*
X109150000Y-106045000D01*
X101818127Y-106045000D01*
X101852440Y-105872500D01*
X101852440Y-104947500D01*
X101784126Y-104604065D01*
X101589586Y-104312914D01*
X101298435Y-104118374D01*
X101090000Y-104076913D01*
X101090000Y-102575476D01*
X101104888Y-102500629D01*
X101090000Y-102425782D01*
X101090000Y-102425778D01*
X101045904Y-102204093D01*
X100877929Y-101952701D01*
X100814472Y-101910300D01*
X100781700Y-101877529D01*
X100739299Y-101814071D01*
X100487907Y-101646096D01*
X100279855Y-101604712D01*
X100094577Y-101327423D01*
X99742242Y-101092000D01*
X99907665Y-100981468D01*
X101931670Y-103005474D01*
X101974070Y-103068930D01*
X102225462Y-103236905D01*
X102447147Y-103281001D01*
X102447151Y-103281001D01*
X102521998Y-103295889D01*
X102596845Y-103281001D01*
X107462152Y-103281001D01*
X107536999Y-103295889D01*
X107611846Y-103281001D01*
X107611851Y-103281001D01*
X107833536Y-103236905D01*
X108084928Y-103068930D01*
X108127330Y-103005471D01*
X108345592Y-102787209D01*
X108565744Y-102831000D01*
X108858256Y-102831000D01*
X109291418Y-102744839D01*
X109782625Y-102416625D01*
X110110839Y-101925418D01*
X110226092Y-101346000D01*
X110110839Y-100766582D01*
X109782625Y-100275375D01*
X109484239Y-100076000D01*
X109782625Y-99876625D01*
X109906656Y-99691000D01*
X110866703Y-99691000D01*
X111008414Y-99903086D01*
X111299565Y-100097626D01*
X111643000Y-100165940D01*
X112808259Y-100165940D01*
X112553139Y-100421060D01*
X111643000Y-100421060D01*
X111299565Y-100489374D01*
X111008414Y-100683914D01*
X110813874Y-100975065D01*
X110745560Y-101318500D01*
X110745560Y-102243500D01*
X110813874Y-102586935D01*
X111008414Y-102878086D01*
X111299565Y-103072626D01*
X111643000Y-103140940D01*
X112893000Y-103140940D01*
X113236435Y-103072626D01*
X113527586Y-102878086D01*
X113722126Y-102586935D01*
X113790440Y-102243500D01*
X113790440Y-101333361D01*
X114354781Y-100769020D01*
X114389847Y-100804086D01*
X114556000Y-100872909D01*
X114556001Y-104463091D01*
X114389847Y-104531914D01*
X113929914Y-104991847D01*
X113681000Y-105592778D01*
X113681000Y-106243222D01*
X113929914Y-106844153D01*
X114389847Y-107304086D01*
X114990778Y-107553000D01*
X115641222Y-107553000D01*
X115807376Y-107484177D01*
X117519671Y-109196473D01*
X117562071Y-109259929D01*
X117625527Y-109302329D01*
X117813462Y-109427904D01*
X117861605Y-109437480D01*
X118035148Y-109472000D01*
X118035152Y-109472000D01*
X118110000Y-109486888D01*
X118184848Y-109472000D01*
X122419822Y-109472000D01*
X122627375Y-109782625D01*
X122946478Y-109995843D01*
X122816642Y-110056817D01*
X122426355Y-110485076D01*
X122256524Y-110895110D01*
X122377845Y-111125000D01*
X123571000Y-111125000D01*
X123571000Y-111105000D01*
X123825000Y-111105000D01*
X123825000Y-111125000D01*
X125018155Y-111125000D01*
X125139476Y-110895110D01*
X124969645Y-110485076D01*
X124579358Y-110056817D01*
X124449522Y-109995843D01*
X124768625Y-109782625D01*
X125096839Y-109291418D01*
X125212092Y-108712000D01*
X125096839Y-108132582D01*
X124768625Y-107641375D01*
X124750381Y-107629184D01*
X124795765Y-107620157D01*
X125005809Y-107479809D01*
X125146157Y-107269765D01*
X125195440Y-107022000D01*
X125195440Y-105322000D01*
X125146157Y-105074235D01*
X125005809Y-104864191D01*
X124946810Y-104824769D01*
X125562157Y-104209422D01*
X125636050Y-104160048D01*
X125831653Y-103867309D01*
X125883001Y-103609164D01*
X125883001Y-103609159D01*
X125900338Y-103522000D01*
X125883001Y-103434840D01*
X125883001Y-96637160D01*
X125900338Y-96550000D01*
X125883001Y-96462841D01*
X125883001Y-96462836D01*
X125831653Y-96204691D01*
X125636050Y-95911952D01*
X125562157Y-95862578D01*
X125195440Y-95495861D01*
X125195440Y-94400000D01*
X125146157Y-94152235D01*
X125005809Y-93942191D01*
X124795765Y-93801843D01*
X124548000Y-93752560D01*
X122848000Y-93752560D01*
X122600235Y-93801843D01*
X122390191Y-93942191D01*
X122350769Y-94001190D01*
X120773000Y-92423422D01*
X120773000Y-88225161D01*
X120790337Y-88138000D01*
X120773000Y-88050839D01*
X120773000Y-81788000D01*
X122183908Y-81788000D01*
X122299161Y-82367418D01*
X122627375Y-82858625D01*
X122925761Y-83058000D01*
X122627375Y-83257375D01*
X122299161Y-83748582D01*
X122183908Y-84328000D01*
X122299161Y-84907418D01*
X122627375Y-85398625D01*
X122925761Y-85598000D01*
X122627375Y-85797375D01*
X122299161Y-86288582D01*
X122183908Y-86868000D01*
X122299161Y-87447418D01*
X122627375Y-87938625D01*
X122645619Y-87950816D01*
X122600235Y-87959843D01*
X122390191Y-88100191D01*
X122249843Y-88310235D01*
X122200560Y-88558000D01*
X122200560Y-90258000D01*
X122249843Y-90505765D01*
X122390191Y-90715809D01*
X122600235Y-90856157D01*
X122848000Y-90905440D01*
X124548000Y-90905440D01*
X124795765Y-90856157D01*
X125005809Y-90715809D01*
X125146157Y-90505765D01*
X125195440Y-90258000D01*
X125195440Y-88558000D01*
X125146157Y-88310235D01*
X125005809Y-88100191D01*
X124795765Y-87959843D01*
X124750381Y-87950816D01*
X124768625Y-87938625D01*
X125096839Y-87447418D01*
X125212092Y-86868000D01*
X125096839Y-86288582D01*
X124768625Y-85797375D01*
X124470239Y-85598000D01*
X124768625Y-85398625D01*
X125096839Y-84907418D01*
X125212092Y-84328000D01*
X125096839Y-83748582D01*
X124768625Y-83257375D01*
X124470239Y-83058000D01*
X124768625Y-82858625D01*
X125096839Y-82367418D01*
X125212092Y-81788000D01*
X125096839Y-81208582D01*
X124768625Y-80717375D01*
X124277418Y-80389161D01*
X123844256Y-80303000D01*
X123551744Y-80303000D01*
X123118582Y-80389161D01*
X122627375Y-80717375D01*
X122299161Y-81208582D01*
X122183908Y-81788000D01*
X120773000Y-81788000D01*
X120773000Y-78156656D01*
X120958625Y-78032625D01*
X121286839Y-77541418D01*
X121331102Y-77318890D01*
X122256524Y-77318890D01*
X122426355Y-77728924D01*
X122816642Y-78157183D01*
X123341108Y-78403486D01*
X123571000Y-78282819D01*
X123571000Y-77089000D01*
X123825000Y-77089000D01*
X123825000Y-78282819D01*
X124054892Y-78403486D01*
X124579358Y-78157183D01*
X124969645Y-77728924D01*
X125139476Y-77318890D01*
X125018155Y-77089000D01*
X123825000Y-77089000D01*
X123571000Y-77089000D01*
X122377845Y-77089000D01*
X122256524Y-77318890D01*
X121331102Y-77318890D01*
X121402092Y-76962000D01*
X121286839Y-76382582D01*
X120958625Y-75891375D01*
X120773000Y-75767344D01*
X120773000Y-75616656D01*
X120958625Y-75492625D01*
X121286839Y-75001418D01*
X121331102Y-74778890D01*
X122256524Y-74778890D01*
X122426355Y-75188924D01*
X122816642Y-75617183D01*
X122975954Y-75692000D01*
X122816642Y-75766817D01*
X122426355Y-76195076D01*
X122256524Y-76605110D01*
X122377845Y-76835000D01*
X123571000Y-76835000D01*
X123571000Y-74549000D01*
X123825000Y-74549000D01*
X123825000Y-76835000D01*
X125018155Y-76835000D01*
X125139476Y-76605110D01*
X124969645Y-76195076D01*
X124579358Y-75766817D01*
X124420046Y-75692000D01*
X124579358Y-75617183D01*
X124969645Y-75188924D01*
X125139476Y-74778890D01*
X125018155Y-74549000D01*
X123825000Y-74549000D01*
X123571000Y-74549000D01*
X122377845Y-74549000D01*
X122256524Y-74778890D01*
X121331102Y-74778890D01*
X121402092Y-74422000D01*
X121286839Y-73842582D01*
X120958625Y-73351375D01*
X120773000Y-73227344D01*
X120773000Y-73076656D01*
X120958625Y-72952625D01*
X121286839Y-72461418D01*
X121331102Y-72238890D01*
X122256524Y-72238890D01*
X122426355Y-72648924D01*
X122816642Y-73077183D01*
X122975954Y-73152000D01*
X122816642Y-73226817D01*
X122426355Y-73655076D01*
X122256524Y-74065110D01*
X122377845Y-74295000D01*
X123571000Y-74295000D01*
X123571000Y-72009000D01*
X123825000Y-72009000D01*
X123825000Y-74295000D01*
X125018155Y-74295000D01*
X125139476Y-74065110D01*
X124969645Y-73655076D01*
X124579358Y-73226817D01*
X124420046Y-73152000D01*
X124579358Y-73077183D01*
X124969645Y-72648924D01*
X125139476Y-72238890D01*
X125018155Y-72009000D01*
X123825000Y-72009000D01*
X123571000Y-72009000D01*
X122377845Y-72009000D01*
X122256524Y-72238890D01*
X121331102Y-72238890D01*
X121402092Y-71882000D01*
X121286839Y-71302582D01*
X120958625Y-70811375D01*
X120940381Y-70799184D01*
X120985765Y-70790157D01*
X121195809Y-70649809D01*
X121336157Y-70439765D01*
X121385440Y-70192000D01*
X121385440Y-69627750D01*
X122213000Y-69627750D01*
X122213000Y-70318310D01*
X122309673Y-70551699D01*
X122488302Y-70730327D01*
X122697878Y-70817136D01*
X122426355Y-71115076D01*
X122256524Y-71525110D01*
X122377845Y-71755000D01*
X123571000Y-71755000D01*
X123571000Y-69469000D01*
X123825000Y-69469000D01*
X123825000Y-71755000D01*
X125018155Y-71755000D01*
X125139476Y-71525110D01*
X124969645Y-71115076D01*
X124698122Y-70817136D01*
X124907698Y-70730327D01*
X125086327Y-70551699D01*
X125183000Y-70318310D01*
X125183000Y-69627750D01*
X125024250Y-69469000D01*
X123825000Y-69469000D01*
X123571000Y-69469000D01*
X122371750Y-69469000D01*
X122213000Y-69627750D01*
X121385440Y-69627750D01*
X121385440Y-68492000D01*
X121360316Y-68365690D01*
X122213000Y-68365690D01*
X122213000Y-69056250D01*
X122371750Y-69215000D01*
X123571000Y-69215000D01*
X123571000Y-68015750D01*
X123825000Y-68015750D01*
X123825000Y-69215000D01*
X125024250Y-69215000D01*
X125183000Y-69056250D01*
X125183000Y-68365690D01*
X125086327Y-68132301D01*
X124907698Y-67953673D01*
X124674309Y-67857000D01*
X123983750Y-67857000D01*
X123825000Y-68015750D01*
X123571000Y-68015750D01*
X123412250Y-67857000D01*
X122721691Y-67857000D01*
X122488302Y-67953673D01*
X122309673Y-68132301D01*
X122213000Y-68365690D01*
X121360316Y-68365690D01*
X121336157Y-68244235D01*
X121195809Y-68034191D01*
X120985765Y-67893843D01*
X120761959Y-67849326D01*
X120721652Y-67646690D01*
X120590453Y-67450338D01*
X120575424Y-67427845D01*
X120575423Y-67427844D01*
X120526049Y-67353951D01*
X120452156Y-67304577D01*
X118192258Y-65044681D01*
X118142882Y-64970785D01*
X117850143Y-64775182D01*
X117591998Y-64723834D01*
X117591994Y-64723834D01*
X117504833Y-64706497D01*
X117417673Y-64723834D01*
X112842811Y-64723834D01*
X112755651Y-64706497D01*
X112668491Y-64723834D01*
X112668487Y-64723834D01*
X112410342Y-64775182D01*
X112410340Y-64775183D01*
X112410341Y-64775183D01*
X112191497Y-64921410D01*
X112191496Y-64921411D01*
X112117603Y-64970785D01*
X112068229Y-65044678D01*
X111449908Y-65663000D01*
X102993000Y-65663000D01*
X102993000Y-62353000D01*
X103816560Y-62353000D01*
X103816560Y-62668000D01*
X103865843Y-62915765D01*
X104006191Y-63125809D01*
X104216235Y-63266157D01*
X104464000Y-63315440D01*
X106864000Y-63315440D01*
X107111765Y-63266157D01*
X107321809Y-63125809D01*
X107462157Y-62915765D01*
X107511440Y-62668000D01*
X107511440Y-62273453D01*
X107608362Y-62507444D01*
X108124556Y-63023638D01*
X108798996Y-63303000D01*
X109529004Y-63303000D01*
X110203444Y-63023638D01*
X110719638Y-62507444D01*
X110914000Y-62038212D01*
X111108362Y-62507444D01*
X111624556Y-63023638D01*
X112298996Y-63303000D01*
X113029004Y-63303000D01*
X113703444Y-63023638D01*
X114219638Y-62507444D01*
X114414000Y-62038212D01*
X114608362Y-62507444D01*
X115124556Y-63023638D01*
X115798996Y-63303000D01*
X116529004Y-63303000D01*
X117203444Y-63023638D01*
X117719638Y-62507444D01*
X117914000Y-62038212D01*
X118108362Y-62507444D01*
X118624556Y-63023638D01*
X119298996Y-63303000D01*
X120029004Y-63303000D01*
X120703444Y-63023638D01*
X120961907Y-62765175D01*
X122046430Y-62765175D01*
X122169565Y-63052788D01*
X122851734Y-63312707D01*
X123581443Y-63291786D01*
X124158435Y-63052788D01*
X124281570Y-62765175D01*
X123164000Y-61647605D01*
X122046430Y-62765175D01*
X120961907Y-62765175D01*
X121219638Y-62507444D01*
X121408747Y-62050895D01*
X121579212Y-62462435D01*
X121866825Y-62585570D01*
X122984395Y-61468000D01*
X123343605Y-61468000D01*
X124461175Y-62585570D01*
X124748788Y-62462435D01*
X125008707Y-61780266D01*
X124987786Y-61050557D01*
X124748788Y-60473565D01*
X124461175Y-60350430D01*
X123343605Y-61468000D01*
X122984395Y-61468000D01*
X121866825Y-60350430D01*
X121579212Y-60473565D01*
X121415862Y-60902284D01*
X121219638Y-60428556D01*
X120961907Y-60170825D01*
X122046430Y-60170825D01*
X123164000Y-61288395D01*
X124281570Y-60170825D01*
X124158435Y-59883212D01*
X123476266Y-59623293D01*
X122746557Y-59644214D01*
X122169565Y-59883212D01*
X122046430Y-60170825D01*
X120961907Y-60170825D01*
X120703444Y-59912362D01*
X120029004Y-59633000D01*
X119298996Y-59633000D01*
X118624556Y-59912362D01*
X118108362Y-60428556D01*
X117914000Y-60897788D01*
X117719638Y-60428556D01*
X117203444Y-59912362D01*
X116529004Y-59633000D01*
X115798996Y-59633000D01*
X115124556Y-59912362D01*
X114608362Y-60428556D01*
X114414000Y-60897788D01*
X114219638Y-60428556D01*
X113703444Y-59912362D01*
X113029004Y-59633000D01*
X112298996Y-59633000D01*
X111624556Y-59912362D01*
X111108362Y-60428556D01*
X110914000Y-60897788D01*
X110719638Y-60428556D01*
X110203444Y-59912362D01*
X109529004Y-59633000D01*
X108798996Y-59633000D01*
X108124556Y-59912362D01*
X107608362Y-60428556D01*
X107511440Y-60662547D01*
X107511440Y-60268000D01*
X107462157Y-60020235D01*
X107321809Y-59810191D01*
X107111765Y-59669843D01*
X106864000Y-59620560D01*
X104464000Y-59620560D01*
X104216235Y-59669843D01*
X104006191Y-59810191D01*
X103865843Y-60020235D01*
X103816560Y-60268000D01*
X103816560Y-60583000D01*
X102195164Y-60583000D01*
X102108000Y-60565662D01*
X102020835Y-60583000D01*
X100313611Y-60583000D01*
X100249638Y-60428556D01*
X99733444Y-59912362D01*
X99059004Y-59633000D01*
X98328996Y-59633000D01*
X97654556Y-59912362D01*
X97138362Y-60428556D01*
X96944000Y-60897788D01*
X96749638Y-60428556D01*
X96233444Y-59912362D01*
X95559004Y-59633000D01*
X94828996Y-59633000D01*
X94154556Y-59912362D01*
X93638362Y-60428556D01*
X93444000Y-60897788D01*
X93249638Y-60428556D01*
X92733444Y-59912362D01*
X92059004Y-59633000D01*
X91328996Y-59633000D01*
X90654556Y-59912362D01*
X90138362Y-60428556D01*
X89944000Y-60897788D01*
X89749638Y-60428556D01*
X89233444Y-59912362D01*
X88559004Y-59633000D01*
X87828996Y-59633000D01*
X87154556Y-59912362D01*
X86638362Y-60428556D01*
X86444000Y-60897788D01*
X86249638Y-60428556D01*
X85733444Y-59912362D01*
X85059004Y-59633000D01*
X84328996Y-59633000D01*
X83654556Y-59912362D01*
X83138362Y-60428556D01*
X83029000Y-60692579D01*
X83029000Y-60141690D01*
X82932327Y-59908301D01*
X82753698Y-59729673D01*
X82520309Y-59633000D01*
X81479750Y-59633000D01*
X81321000Y-59791750D01*
X81321000Y-61341000D01*
X81341000Y-61341000D01*
X81341000Y-61595000D01*
X81321000Y-61595000D01*
X81321000Y-63144250D01*
X81479750Y-63303000D01*
X82520309Y-63303000D01*
X82753698Y-63206327D01*
X82932327Y-63027699D01*
X83029000Y-62794310D01*
X83029000Y-62243421D01*
X83138362Y-62507444D01*
X83654556Y-63023638D01*
X83934000Y-63139388D01*
X83934001Y-66447560D01*
X83605000Y-66447560D01*
X83357235Y-66496843D01*
X83147191Y-66637191D01*
X83006843Y-66847235D01*
X82957560Y-67095000D01*
X82957560Y-68795000D01*
X83006843Y-69042765D01*
X83147191Y-69252809D01*
X83357235Y-69393157D01*
X83605000Y-69442440D01*
X85305000Y-69442440D01*
X85552765Y-69393157D01*
X85762809Y-69252809D01*
X85903157Y-69042765D01*
X85952440Y-68795000D01*
X85952440Y-67095000D01*
X85903157Y-66847235D01*
X85762809Y-66637191D01*
X85552765Y-66496843D01*
X85454000Y-66477198D01*
X85454000Y-63139387D01*
X85733444Y-63023638D01*
X86249638Y-62507444D01*
X86444000Y-62038212D01*
X86638362Y-62507444D01*
X87154556Y-63023638D01*
X87828996Y-63303000D01*
X88559004Y-63303000D01*
X89233444Y-63023638D01*
X89749638Y-62507444D01*
X89944000Y-62038212D01*
X90138362Y-62507444D01*
X90654556Y-63023638D01*
X91328996Y-63303000D01*
X92059004Y-63303000D01*
X92733444Y-63023638D01*
X93249638Y-62507444D01*
X93444000Y-62038212D01*
X93638362Y-62507444D01*
X94154556Y-63023638D01*
X94828996Y-63303000D01*
X95559004Y-63303000D01*
X96233444Y-63023638D01*
X96749638Y-62507444D01*
X96944000Y-62038212D01*
X97138362Y-62507444D01*
X97654556Y-63023638D01*
X98328996Y-63303000D01*
X99059004Y-63303000D01*
X99733444Y-63023638D01*
X100249638Y-62507444D01*
X100313611Y-62353000D01*
X101223000Y-62353000D01*
X101223001Y-65663000D01*
X93305161Y-65663000D01*
X93218000Y-65645663D01*
X93130839Y-65663000D01*
X89698659Y-65663000D01*
X89611499Y-65645663D01*
X89524339Y-65663000D01*
X89524335Y-65663000D01*
X89266190Y-65714348D01*
X89266188Y-65714349D01*
X89266189Y-65714349D01*
X89047345Y-65860576D01*
X89047344Y-65860577D01*
X88973451Y-65909951D01*
X88924077Y-65983844D01*
X87827845Y-67080077D01*
X87753952Y-67129451D01*
X87704578Y-67203344D01*
X87704576Y-67203346D01*
X87682128Y-67236942D01*
X87423565Y-67288374D01*
X87132414Y-67482914D01*
X86937874Y-67774065D01*
X86869560Y-68117500D01*
X86869560Y-69042500D01*
X86937874Y-69385935D01*
X87132414Y-69677086D01*
X87423565Y-69871626D01*
X87767000Y-69939940D01*
X88717259Y-69939940D01*
X88462139Y-70195060D01*
X87767000Y-70195060D01*
X87423565Y-70263374D01*
X87132414Y-70457914D01*
X86937874Y-70749065D01*
X86869560Y-71092500D01*
X86869560Y-72017500D01*
X86937874Y-72360935D01*
X87132414Y-72652086D01*
X87423565Y-72846626D01*
X87632000Y-72888087D01*
X87632000Y-72889067D01*
X87546603Y-72934713D01*
X87465104Y-72989169D01*
X87366994Y-73069686D01*
X87297686Y-73138994D01*
X87217169Y-73237104D01*
X87162713Y-73318603D01*
X87102881Y-73430540D01*
X87065372Y-73521096D01*
X87028530Y-73642549D01*
X87009408Y-73738682D01*
X86996968Y-73864991D01*
X86996968Y-73901894D01*
X86994560Y-73914000D01*
X86994560Y-74414000D01*
X87024397Y-74564000D01*
X86994560Y-74714000D01*
X86994560Y-75214000D01*
X86996968Y-75226106D01*
X86996968Y-75263009D01*
X87009408Y-75389318D01*
X87028530Y-75485451D01*
X87065372Y-75606904D01*
X87102881Y-75697460D01*
X87162713Y-75809397D01*
X87217169Y-75890896D01*
X87297686Y-75989006D01*
X87366994Y-76058314D01*
X87465104Y-76138831D01*
X87546603Y-76193287D01*
X87658540Y-76253119D01*
X87749096Y-76290628D01*
X87870549Y-76327470D01*
X87966682Y-76346592D01*
X88092991Y-76359032D01*
X88129894Y-76359032D01*
X88142000Y-76361440D01*
X88642000Y-76361440D01*
X88654106Y-76359032D01*
X88691009Y-76359032D01*
X88817318Y-76346592D01*
X88913451Y-76327470D01*
X89034904Y-76290628D01*
X89125460Y-76253119D01*
X89237397Y-76193287D01*
X89318896Y-76138831D01*
X89417006Y-76058314D01*
X89486314Y-75989006D01*
X89566831Y-75890896D01*
X89621287Y-75809397D01*
X89681119Y-75697460D01*
X89718628Y-75606904D01*
X89755470Y-75485451D01*
X89774592Y-75389318D01*
X89787032Y-75263009D01*
X89787032Y-75226106D01*
X89789440Y-75214000D01*
X89789440Y-74714000D01*
X89759603Y-74564000D01*
X89789440Y-74414000D01*
X89789440Y-73914000D01*
X89787032Y-73901894D01*
X89787032Y-73864991D01*
X89774592Y-73738682D01*
X89755470Y-73642549D01*
X89718628Y-73521096D01*
X89681119Y-73430540D01*
X89621287Y-73318603D01*
X89566831Y-73237104D01*
X89486314Y-73138994D01*
X89417006Y-73069686D01*
X89318896Y-72989169D01*
X89237397Y-72934713D01*
X89152000Y-72889067D01*
X89152000Y-72888087D01*
X89360435Y-72846626D01*
X89651586Y-72652086D01*
X89846126Y-72360935D01*
X89914440Y-72017500D01*
X89914440Y-71092500D01*
X89881235Y-70925567D01*
X90197058Y-70609743D01*
X90392235Y-70740157D01*
X90526106Y-70766785D01*
X90405423Y-70847423D01*
X90088260Y-71322091D01*
X89976887Y-71882000D01*
X90088260Y-72441909D01*
X90405423Y-72916577D01*
X90757758Y-73152000D01*
X90405423Y-73387423D01*
X90088260Y-73862091D01*
X89976887Y-74422000D01*
X90088260Y-74981909D01*
X90405423Y-75456577D01*
X90757758Y-75692000D01*
X90405423Y-75927423D01*
X90088260Y-76402091D01*
X89976887Y-76962000D01*
X90088260Y-77521909D01*
X90405423Y-77996577D01*
X90757758Y-78232000D01*
X90405423Y-78467423D01*
X90088260Y-78942091D01*
X89976887Y-79502000D01*
X90088260Y-80061909D01*
X90405423Y-80536577D01*
X90757758Y-80772000D01*
X90405423Y-81007423D01*
X90088260Y-81482091D01*
X89976887Y-82042000D01*
X90088260Y-82601909D01*
X90405423Y-83076577D01*
X90757758Y-83312000D01*
X90405423Y-83547423D01*
X90305479Y-83697000D01*
X89793297Y-83697000D01*
X89651586Y-83484914D01*
X89360435Y-83290374D01*
X89017000Y-83222060D01*
X87767000Y-83222060D01*
X87423565Y-83290374D01*
X87132414Y-83484914D01*
X86937874Y-83776065D01*
X86869560Y-84119500D01*
X86869560Y-85044500D01*
X86937874Y-85387935D01*
X87132414Y-85679086D01*
X87423565Y-85873626D01*
X87767000Y-85941940D01*
X89017000Y-85941940D01*
X89360435Y-85873626D01*
X89651586Y-85679086D01*
X89793297Y-85467000D01*
X90305479Y-85467000D01*
X90405423Y-85616577D01*
X90789108Y-85872947D01*
X90584866Y-85969611D01*
X90208959Y-86384577D01*
X90048096Y-86772961D01*
X90170085Y-86995000D01*
X91313000Y-86995000D01*
X91313000Y-86975000D01*
X91567000Y-86975000D01*
X91567000Y-86995000D01*
X92709915Y-86995000D01*
X92831904Y-86772961D01*
X92671041Y-86384577D01*
X92295134Y-85969611D01*
X92090892Y-85872947D01*
X92474577Y-85616577D01*
X92481956Y-85605534D01*
X96463845Y-89587424D01*
X96463848Y-89587426D01*
X96903422Y-90027001D01*
X94544805Y-90027001D01*
X92531389Y-88013586D01*
X92671041Y-87859423D01*
X92831904Y-87471039D01*
X92709915Y-87249000D01*
X91567000Y-87249000D01*
X91567000Y-87269000D01*
X91313000Y-87269000D01*
X91313000Y-87249000D01*
X90170085Y-87249000D01*
X90048096Y-87471039D01*
X90139611Y-87691990D01*
X86236714Y-87691990D01*
X86350092Y-87122000D01*
X86234839Y-86542582D01*
X85906625Y-86051375D01*
X85608239Y-85852000D01*
X85906625Y-85652625D01*
X86234839Y-85161418D01*
X86350092Y-84582000D01*
X86234839Y-84002582D01*
X85906625Y-83511375D01*
X85608239Y-83312000D01*
X85906625Y-83112625D01*
X86234839Y-82621418D01*
X86350092Y-82042000D01*
X86320405Y-81892750D01*
X86882000Y-81892750D01*
X86882000Y-82445809D01*
X86978673Y-82679198D01*
X87157301Y-82857827D01*
X87390690Y-82954500D01*
X88106250Y-82954500D01*
X88265000Y-82795750D01*
X88265000Y-81734000D01*
X88519000Y-81734000D01*
X88519000Y-82795750D01*
X88677750Y-82954500D01*
X89393310Y-82954500D01*
X89626699Y-82857827D01*
X89805327Y-82679198D01*
X89902000Y-82445809D01*
X89902000Y-81892750D01*
X89743250Y-81734000D01*
X88519000Y-81734000D01*
X88265000Y-81734000D01*
X87040750Y-81734000D01*
X86882000Y-81892750D01*
X86320405Y-81892750D01*
X86234839Y-81462582D01*
X85906625Y-80971375D01*
X85608239Y-80772000D01*
X85613939Y-80768191D01*
X86882000Y-80768191D01*
X86882000Y-81321250D01*
X87040750Y-81480000D01*
X88265000Y-81480000D01*
X88265000Y-80418250D01*
X88519000Y-80418250D01*
X88519000Y-81480000D01*
X89743250Y-81480000D01*
X89902000Y-81321250D01*
X89902000Y-80768191D01*
X89805327Y-80534802D01*
X89626699Y-80356173D01*
X89393310Y-80259500D01*
X88677750Y-80259500D01*
X88519000Y-80418250D01*
X88265000Y-80418250D01*
X88106250Y-80259500D01*
X87390690Y-80259500D01*
X87157301Y-80356173D01*
X86978673Y-80534802D01*
X86882000Y-80768191D01*
X85613939Y-80768191D01*
X85906625Y-80572625D01*
X86234839Y-80081418D01*
X86350092Y-79502000D01*
X86234839Y-78922582D01*
X85906625Y-78431375D01*
X85608239Y-78232000D01*
X85906625Y-78032625D01*
X86234839Y-77541418D01*
X86350092Y-76962000D01*
X86234839Y-76382582D01*
X85906625Y-75891375D01*
X85608239Y-75692000D01*
X85906625Y-75492625D01*
X86234839Y-75001418D01*
X86350092Y-74422000D01*
X86234839Y-73842582D01*
X85906625Y-73351375D01*
X85888381Y-73339184D01*
X85933765Y-73330157D01*
X86143809Y-73189809D01*
X86284157Y-72979765D01*
X86333440Y-72732000D01*
X86333440Y-71032000D01*
X86284157Y-70784235D01*
X86143809Y-70574191D01*
X85933765Y-70433843D01*
X85686000Y-70384560D01*
X83986000Y-70384560D01*
X83738235Y-70433843D01*
X83528191Y-70574191D01*
X83387843Y-70784235D01*
X83338560Y-71032000D01*
X83338560Y-71122000D01*
X82269440Y-71122000D01*
X82269440Y-71032000D01*
X82220157Y-70784235D01*
X82079809Y-70574191D01*
X81869765Y-70433843D01*
X81622000Y-70384560D01*
X79922000Y-70384560D01*
X79674235Y-70433843D01*
X79464191Y-70574191D01*
X79323843Y-70784235D01*
X79274560Y-71032000D01*
X79274560Y-72732000D01*
X79323843Y-72979765D01*
X79464191Y-73189809D01*
X79674235Y-73330157D01*
X79719619Y-73339184D01*
X79701375Y-73351375D01*
X79373161Y-73842582D01*
X79257908Y-74422000D01*
X78205000Y-74422000D01*
X78205000Y-67945000D01*
X78670000Y-67945000D01*
X78789107Y-68620490D01*
X79132062Y-69214506D01*
X79657500Y-69655400D01*
X80302045Y-69889995D01*
X80987955Y-69889995D01*
X81632500Y-69655400D01*
X82157938Y-69214506D01*
X82500893Y-68620490D01*
X82620000Y-67945000D01*
X82500893Y-67269510D01*
X82157938Y-66675494D01*
X81632500Y-66234600D01*
X80987955Y-66000005D01*
X80302045Y-66000005D01*
X79657500Y-66234600D01*
X79132062Y-66675494D01*
X78789107Y-67269510D01*
X78670000Y-67945000D01*
X78205000Y-67945000D01*
X78205000Y-61753750D01*
X79359000Y-61753750D01*
X79359000Y-62794310D01*
X79455673Y-63027699D01*
X79634302Y-63206327D01*
X79867691Y-63303000D01*
X80908250Y-63303000D01*
X81067000Y-63144250D01*
X81067000Y-61595000D01*
X79517750Y-61595000D01*
X79359000Y-61753750D01*
X78205000Y-61753750D01*
X78205000Y-60141690D01*
X79359000Y-60141690D01*
X79359000Y-61182250D01*
X79517750Y-61341000D01*
X81067000Y-61341000D01*
X81067000Y-59791750D01*
X80908250Y-59633000D01*
X79867691Y-59633000D01*
X79634302Y-59729673D01*
X79455673Y-59908301D01*
X79359000Y-60141690D01*
X78205000Y-60141690D01*
X78205000Y-57885000D01*
X126265001Y-57885000D01*
X126265000Y-113565000D01*
X126265000Y-113565000D01*
G37*
X126265000Y-113565000D02*
X78205000Y-113565000D01*
X78205000Y-111608890D01*
X122256524Y-111608890D01*
X122426355Y-112018924D01*
X122816642Y-112447183D01*
X123341108Y-112693486D01*
X123571000Y-112572819D01*
X123571000Y-111379000D01*
X123825000Y-111379000D01*
X123825000Y-112572819D01*
X124054892Y-112693486D01*
X124579358Y-112447183D01*
X124969645Y-112018924D01*
X125139476Y-111608890D01*
X125018155Y-111379000D01*
X123825000Y-111379000D01*
X123571000Y-111379000D01*
X122377845Y-111379000D01*
X122256524Y-111608890D01*
X78205000Y-111608890D01*
X78205000Y-107995500D01*
X88647560Y-107995500D01*
X88647560Y-108920500D01*
X88715874Y-109263935D01*
X88910414Y-109555086D01*
X89201565Y-109749626D01*
X89545000Y-109817940D01*
X90795000Y-109817940D01*
X91138435Y-109749626D01*
X91429586Y-109555086D01*
X91512371Y-109431188D01*
X91840493Y-109759310D01*
X92404670Y-109993000D01*
X93015330Y-109993000D01*
X93579507Y-109759310D01*
X94011310Y-109327507D01*
X94019438Y-109307885D01*
X94169841Y-109358554D01*
X95070395Y-108458000D01*
X94169841Y-107557446D01*
X94019438Y-107608115D01*
X94011310Y-107588493D01*
X93800658Y-107377841D01*
X94349446Y-107377841D01*
X95250000Y-108278395D01*
X95264143Y-108264253D01*
X95443748Y-108443858D01*
X95429605Y-108458000D01*
X95443748Y-108472143D01*
X95264143Y-108651748D01*
X95250000Y-108637605D01*
X94349446Y-109538159D01*
X94435852Y-109794643D01*
X95009336Y-110004458D01*
X95619460Y-109978839D01*
X96064148Y-109794643D01*
X96150553Y-109538161D01*
X96265110Y-109652718D01*
X96299942Y-109617886D01*
X96432191Y-109815809D01*
X96642235Y-109956157D01*
X96890000Y-110005440D01*
X98690000Y-110005440D01*
X98937765Y-109956157D01*
X99147809Y-109815809D01*
X99278081Y-109620844D01*
X99361565Y-109676626D01*
X99705000Y-109744940D01*
X100955000Y-109744940D01*
X101298435Y-109676626D01*
X101589586Y-109482086D01*
X101784126Y-109190935D01*
X101852440Y-108847500D01*
X101852440Y-107922500D01*
X101784126Y-107579065D01*
X101589586Y-107287914D01*
X101298435Y-107093374D01*
X100955000Y-107025060D01*
X99705000Y-107025060D01*
X99361565Y-107093374D01*
X99210638Y-107194220D01*
X99147809Y-107100191D01*
X98937765Y-106959843D01*
X98690000Y-106910560D01*
X96890000Y-106910560D01*
X96642235Y-106959843D01*
X96432191Y-107100191D01*
X96299942Y-107298114D01*
X96265110Y-107263282D01*
X96150553Y-107377839D01*
X96064148Y-107121357D01*
X95490664Y-106911542D01*
X94880540Y-106937161D01*
X94435852Y-107121357D01*
X94349446Y-107377841D01*
X93800658Y-107377841D01*
X93579507Y-107156690D01*
X93015330Y-106923000D01*
X92404670Y-106923000D01*
X91840493Y-107156690D01*
X91512371Y-107484812D01*
X91429586Y-107360914D01*
X91138435Y-107166374D01*
X90795000Y-107098060D01*
X89545000Y-107098060D01*
X89201565Y-107166374D01*
X88910414Y-107360914D01*
X88715874Y-107652065D01*
X88647560Y-107995500D01*
X78205000Y-107995500D01*
X78205000Y-106045000D01*
X78670000Y-106045000D01*
X78789107Y-106720490D01*
X79132062Y-107314506D01*
X79657500Y-107755400D01*
X80302045Y-107989995D01*
X80987955Y-107989995D01*
X81632500Y-107755400D01*
X82157938Y-107314506D01*
X82500893Y-106720490D01*
X82620000Y-106045000D01*
X82500893Y-105369510D01*
X82157938Y-104775494D01*
X81632500Y-104334600D01*
X80987955Y-104100005D01*
X80302045Y-104100005D01*
X79657500Y-104334600D01*
X79132062Y-104775494D01*
X78789107Y-105369510D01*
X78670000Y-106045000D01*
X78205000Y-106045000D01*
X78205000Y-74422000D01*
X79257908Y-74422000D01*
X79373161Y-75001418D01*
X79701375Y-75492625D01*
X79999761Y-75692000D01*
X79701375Y-75891375D01*
X79373161Y-76382582D01*
X79257908Y-76962000D01*
X79373161Y-77541418D01*
X79701375Y-78032625D01*
X79999761Y-78232000D01*
X79701375Y-78431375D01*
X79373161Y-78922582D01*
X79257908Y-79502000D01*
X79373161Y-80081418D01*
X79701375Y-80572625D01*
X79999761Y-80772000D01*
X79701375Y-80971375D01*
X79373161Y-81462582D01*
X79257908Y-82042000D01*
X79373161Y-82621418D01*
X79701375Y-83112625D01*
X79999761Y-83312000D01*
X79701375Y-83511375D01*
X79373161Y-84002582D01*
X79257908Y-84582000D01*
X79373161Y-85161418D01*
X79701375Y-85652625D01*
X79999761Y-85852000D01*
X79701375Y-86051375D01*
X79373161Y-86542582D01*
X79257908Y-87122000D01*
X79373161Y-87701418D01*
X79701375Y-88192625D01*
X79999761Y-88392000D01*
X79701375Y-88591375D01*
X79373161Y-89082582D01*
X79257908Y-89662000D01*
X79373161Y-90241418D01*
X79701375Y-90732625D01*
X80192582Y-91060839D01*
X80625744Y-91147000D01*
X80918256Y-91147000D01*
X81351418Y-91060839D01*
X81842625Y-90732625D01*
X82050178Y-90422000D01*
X83557822Y-90422000D01*
X83765375Y-90732625D01*
X84256582Y-91060839D01*
X84689744Y-91147000D01*
X84982256Y-91147000D01*
X85415418Y-91060839D01*
X85906625Y-90732625D01*
X86234839Y-90241418D01*
X86344970Y-89687750D01*
X86882000Y-89687750D01*
X86882000Y-90153309D01*
X86978673Y-90386698D01*
X87157301Y-90565327D01*
X87390690Y-90662000D01*
X88106250Y-90662000D01*
X88265000Y-90503250D01*
X88265000Y-89529000D01*
X87040750Y-89529000D01*
X86882000Y-89687750D01*
X86344970Y-89687750D01*
X86350092Y-89662000D01*
X86277209Y-89295592D01*
X86360811Y-89211990D01*
X86977740Y-89211990D01*
X87040750Y-89275000D01*
X88265000Y-89275000D01*
X88265000Y-89255000D01*
X88519000Y-89255000D01*
X88519000Y-89275000D01*
X89743250Y-89275000D01*
X89806260Y-89211990D01*
X90066400Y-89211990D01*
X89976887Y-89662000D01*
X90041312Y-89985886D01*
X89902000Y-90125198D01*
X89902000Y-89687750D01*
X89743250Y-89529000D01*
X88519000Y-89529000D01*
X88519000Y-90503250D01*
X88677750Y-90662000D01*
X89365198Y-90662000D01*
X89084260Y-90942939D01*
X89017000Y-90929560D01*
X87767000Y-90929560D01*
X87423565Y-90997874D01*
X87132414Y-91192414D01*
X86965647Y-91442000D01*
X86434846Y-91442000D01*
X86359999Y-91427112D01*
X86285152Y-91442000D01*
X86285148Y-91442000D01*
X86063463Y-91486096D01*
X86063461Y-91486097D01*
X86063462Y-91486097D01*
X85875526Y-91611671D01*
X85875524Y-91611673D01*
X85812071Y-91654071D01*
X85769673Y-91717524D01*
X83104034Y-94383165D01*
X83079494Y-94373000D01*
X82528506Y-94373000D01*
X82019460Y-94583853D01*
X81629853Y-94973460D01*
X81419000Y-95482506D01*
X81419000Y-96033494D01*
X81629853Y-96542540D01*
X82019460Y-96932147D01*
X82528506Y-97143000D01*
X83079494Y-97143000D01*
X83588540Y-96932147D01*
X83978147Y-96542540D01*
X84189000Y-96033494D01*
X84189000Y-95482506D01*
X84178835Y-95457966D01*
X86674803Y-92962000D01*
X86965647Y-92962000D01*
X87132414Y-93211586D01*
X87423565Y-93406126D01*
X87767000Y-93474440D01*
X89017000Y-93474440D01*
X89111570Y-93455629D01*
X87907530Y-94659669D01*
X87844071Y-94702071D01*
X87676096Y-94953464D01*
X87632000Y-95175149D01*
X87632000Y-95175153D01*
X87617112Y-95250000D01*
X87632000Y-95324847D01*
X87632000Y-95522413D01*
X87423565Y-95563874D01*
X87132414Y-95758414D01*
X86965647Y-96008000D01*
X86748846Y-96008000D01*
X86673999Y-95993112D01*
X86599152Y-96008000D01*
X86599148Y-96008000D01*
X86377463Y-96052096D01*
X86330238Y-96083651D01*
X86189526Y-96177671D01*
X86189524Y-96177673D01*
X86126071Y-96220071D01*
X86083673Y-96283524D01*
X83104034Y-99263165D01*
X83079494Y-99253000D01*
X82528506Y-99253000D01*
X82019460Y-99463853D01*
X81629853Y-99853460D01*
X81419000Y-100362506D01*
X81419000Y-100913494D01*
X81629853Y-101422540D01*
X82019460Y-101812147D01*
X82528506Y-102023000D01*
X83079494Y-102023000D01*
X83588540Y-101812147D01*
X83978147Y-101422540D01*
X84189000Y-100913494D01*
X84189000Y-100362506D01*
X84178835Y-100337966D01*
X84663051Y-99853750D01*
X86882000Y-99853750D01*
X86882000Y-100319309D01*
X86978673Y-100552698D01*
X87157301Y-100731327D01*
X87390690Y-100828000D01*
X88106250Y-100828000D01*
X88265000Y-100669250D01*
X88265000Y-99695000D01*
X88519000Y-99695000D01*
X88519000Y-100669250D01*
X88677750Y-100828000D01*
X89393310Y-100828000D01*
X89626699Y-100731327D01*
X89805327Y-100552698D01*
X89902000Y-100319309D01*
X89902000Y-99853750D01*
X89743250Y-99695000D01*
X88519000Y-99695000D01*
X88265000Y-99695000D01*
X87040750Y-99695000D01*
X86882000Y-99853750D01*
X84663051Y-99853750D01*
X85700110Y-98816691D01*
X86882000Y-98816691D01*
X86882000Y-99282250D01*
X87040750Y-99441000D01*
X88265000Y-99441000D01*
X88265000Y-98466750D01*
X88519000Y-98466750D01*
X88519000Y-99441000D01*
X89743250Y-99441000D01*
X89902000Y-99282250D01*
X89902000Y-98816691D01*
X89805327Y-98583302D01*
X89626699Y-98404673D01*
X89393310Y-98308000D01*
X88677750Y-98308000D01*
X88519000Y-98466750D01*
X88265000Y-98466750D01*
X88106250Y-98308000D01*
X87390690Y-98308000D01*
X87157301Y-98404673D01*
X86978673Y-98583302D01*
X86882000Y-98816691D01*
X85700110Y-98816691D01*
X86974922Y-97541881D01*
X87132414Y-97777586D01*
X87423565Y-97972126D01*
X87767000Y-98040440D01*
X89017000Y-98040440D01*
X89360435Y-97972126D01*
X89651586Y-97777586D01*
X89846126Y-97486435D01*
X89914440Y-97143000D01*
X89914440Y-96393000D01*
X89846126Y-96049565D01*
X89651586Y-95758414D01*
X89360435Y-95563874D01*
X89187355Y-95529446D01*
X89977405Y-94739396D01*
X89976887Y-94742000D01*
X90088260Y-95301909D01*
X90405423Y-95776577D01*
X90757758Y-96012000D01*
X90405423Y-96247423D01*
X90088260Y-96722091D01*
X89976887Y-97282000D01*
X90088260Y-97841909D01*
X90405423Y-98316577D01*
X90757758Y-98552000D01*
X90405423Y-98787423D01*
X90088260Y-99262091D01*
X89976887Y-99822000D01*
X90088260Y-100381909D01*
X90405423Y-100856577D01*
X90757758Y-101092000D01*
X90405423Y-101327423D01*
X90220145Y-101604712D01*
X90012093Y-101646096D01*
X89760701Y-101814071D01*
X89718300Y-101877528D01*
X89685529Y-101910300D01*
X89622071Y-101952701D01*
X89454096Y-102204094D01*
X89410000Y-102425779D01*
X89410000Y-102425783D01*
X89395112Y-102500630D01*
X89410000Y-102575477D01*
X89410001Y-104149913D01*
X89201565Y-104191374D01*
X88910414Y-104385914D01*
X88715874Y-104677065D01*
X88647560Y-105020500D01*
X88647560Y-105945500D01*
X88715874Y-106288935D01*
X88910414Y-106580086D01*
X89201565Y-106774626D01*
X89545000Y-106842940D01*
X90795000Y-106842940D01*
X91138435Y-106774626D01*
X91429586Y-106580086D01*
X91624126Y-106288935D01*
X91692440Y-105945500D01*
X91692440Y-105020500D01*
X91624126Y-104677065D01*
X91429586Y-104385914D01*
X91138435Y-104191374D01*
X90930000Y-104149913D01*
X90930000Y-103723668D01*
X91298667Y-103797000D01*
X91581333Y-103797000D01*
X91999909Y-103713740D01*
X92474577Y-103396577D01*
X92791740Y-102921909D01*
X92903113Y-102362000D01*
X92791740Y-101802091D01*
X92474577Y-101327423D01*
X92122242Y-101092000D01*
X92474577Y-100856577D01*
X92791740Y-100381909D01*
X92903113Y-99822000D01*
X92791740Y-99262091D01*
X92474577Y-98787423D01*
X92122242Y-98552000D01*
X92474577Y-98316577D01*
X92791740Y-97841909D01*
X92903113Y-97282000D01*
X92791740Y-96722091D01*
X92474577Y-96247423D01*
X92122242Y-96012000D01*
X92474577Y-95776577D01*
X92791740Y-95301909D01*
X92903113Y-94742000D01*
X92791740Y-94182091D01*
X92474577Y-93707423D01*
X92122242Y-93472000D01*
X92474577Y-93236577D01*
X92791740Y-92761909D01*
X92903113Y-92202000D01*
X92791740Y-91642091D01*
X92474577Y-91167423D01*
X92122242Y-90932000D01*
X92474577Y-90696577D01*
X92710978Y-90342778D01*
X93639674Y-91271474D01*
X93682074Y-91334930D01*
X93933466Y-91502905D01*
X94155151Y-91547001D01*
X94155155Y-91547001D01*
X94230002Y-91561889D01*
X94304849Y-91547001D01*
X97771797Y-91547001D01*
X97708260Y-91642091D01*
X97596887Y-92202000D01*
X97708260Y-92761909D01*
X98025423Y-93236577D01*
X98377758Y-93472000D01*
X98025423Y-93707423D01*
X97708260Y-94182091D01*
X97596887Y-94742000D01*
X97708260Y-95301909D01*
X98025423Y-95776577D01*
X98377758Y-96012000D01*
X98025423Y-96247423D01*
X97708260Y-96722091D01*
X97596887Y-97282000D01*
X97708260Y-97841909D01*
X98025423Y-98316577D01*
X98377758Y-98552000D01*
X98025423Y-98787423D01*
X97708260Y-99262091D01*
X97596887Y-99822000D01*
X97708260Y-100381909D01*
X98025423Y-100856577D01*
X98377758Y-101092000D01*
X98025423Y-101327423D01*
X97708260Y-101802091D01*
X97596887Y-102362000D01*
X97708260Y-102921909D01*
X98025423Y-103396577D01*
X98500091Y-103713740D01*
X98918667Y-103797000D01*
X99201333Y-103797000D01*
X99570001Y-103723667D01*
X99570000Y-104076913D01*
X99361565Y-104118374D01*
X99070414Y-104312914D01*
X98875874Y-104604065D01*
X98807560Y-104947500D01*
X98807560Y-105872500D01*
X98875874Y-106215935D01*
X99070414Y-106507086D01*
X99361565Y-106701626D01*
X99705000Y-106769940D01*
X100955000Y-106769940D01*
X101298435Y-106701626D01*
X101589586Y-106507086D01*
X101784126Y-106215935D01*
X101818127Y-106045000D01*
X109150000Y-106045000D01*
X109269107Y-106720490D01*
X109612062Y-107314506D01*
X110137500Y-107755400D01*
X110782045Y-107989995D01*
X111467955Y-107989995D01*
X112112500Y-107755400D01*
X112637938Y-107314506D01*
X112980893Y-106720490D01*
X113100000Y-106045000D01*
X112980893Y-105369510D01*
X112637938Y-104775494D01*
X112112500Y-104334600D01*
X111467955Y-104100005D01*
X110782045Y-104100005D01*
X110137500Y-104334600D01*
X109612062Y-104775494D01*
X109269107Y-105369510D01*
X109150000Y-106045000D01*
X101818127Y-106045000D01*
X101852440Y-105872500D01*
X101852440Y-104947500D01*
X101784126Y-104604065D01*
X101589586Y-104312914D01*
X101298435Y-104118374D01*
X101090000Y-104076913D01*
X101090000Y-102575476D01*
X101104888Y-102500629D01*
X101090000Y-102425782D01*
X101090000Y-102425778D01*
X101045904Y-102204093D01*
X100877929Y-101952701D01*
X100814472Y-101910300D01*
X100781700Y-101877529D01*
X100739299Y-101814071D01*
X100487907Y-101646096D01*
X100279855Y-101604712D01*
X100094577Y-101327423D01*
X99742242Y-101092000D01*
X99907665Y-100981468D01*
X101931670Y-103005474D01*
X101974070Y-103068930D01*
X102225462Y-103236905D01*
X102447147Y-103281001D01*
X102447151Y-103281001D01*
X102521998Y-103295889D01*
X102596845Y-103281001D01*
X107462152Y-103281001D01*
X107536999Y-103295889D01*
X107611846Y-103281001D01*
X107611851Y-103281001D01*
X107833536Y-103236905D01*
X108084928Y-103068930D01*
X108127330Y-103005471D01*
X108345592Y-102787209D01*
X108565744Y-102831000D01*
X108858256Y-102831000D01*
X109291418Y-102744839D01*
X109782625Y-102416625D01*
X110110839Y-101925418D01*
X110226092Y-101346000D01*
X110110839Y-100766582D01*
X109782625Y-100275375D01*
X109484239Y-100076000D01*
X109782625Y-99876625D01*
X109906656Y-99691000D01*
X110866703Y-99691000D01*
X111008414Y-99903086D01*
X111299565Y-100097626D01*
X111643000Y-100165940D01*
X112808259Y-100165940D01*
X112553139Y-100421060D01*
X111643000Y-100421060D01*
X111299565Y-100489374D01*
X111008414Y-100683914D01*
X110813874Y-100975065D01*
X110745560Y-101318500D01*
X110745560Y-102243500D01*
X110813874Y-102586935D01*
X111008414Y-102878086D01*
X111299565Y-103072626D01*
X111643000Y-103140940D01*
X112893000Y-103140940D01*
X113236435Y-103072626D01*
X113527586Y-102878086D01*
X113722126Y-102586935D01*
X113790440Y-102243500D01*
X113790440Y-101333361D01*
X114354781Y-100769020D01*
X114389847Y-100804086D01*
X114556000Y-100872909D01*
X114556001Y-104463091D01*
X114389847Y-104531914D01*
X113929914Y-104991847D01*
X113681000Y-105592778D01*
X113681000Y-106243222D01*
X113929914Y-106844153D01*
X114389847Y-107304086D01*
X114990778Y-107553000D01*
X115641222Y-107553000D01*
X115807376Y-107484177D01*
X117519671Y-109196473D01*
X117562071Y-109259929D01*
X117625527Y-109302329D01*
X117813462Y-109427904D01*
X117861605Y-109437480D01*
X118035148Y-109472000D01*
X118035152Y-109472000D01*
X118110000Y-109486888D01*
X118184848Y-109472000D01*
X122419822Y-109472000D01*
X122627375Y-109782625D01*
X122946478Y-109995843D01*
X122816642Y-110056817D01*
X122426355Y-110485076D01*
X122256524Y-110895110D01*
X122377845Y-111125000D01*
X123571000Y-111125000D01*
X123571000Y-111105000D01*
X123825000Y-111105000D01*
X123825000Y-111125000D01*
X125018155Y-111125000D01*
X125139476Y-110895110D01*
X124969645Y-110485076D01*
X124579358Y-110056817D01*
X124449522Y-109995843D01*
X124768625Y-109782625D01*
X125096839Y-109291418D01*
X125212092Y-108712000D01*
X125096839Y-108132582D01*
X124768625Y-107641375D01*
X124750381Y-107629184D01*
X124795765Y-107620157D01*
X125005809Y-107479809D01*
X125146157Y-107269765D01*
X125195440Y-107022000D01*
X125195440Y-105322000D01*
X125146157Y-105074235D01*
X125005809Y-104864191D01*
X124946810Y-104824769D01*
X125562157Y-104209422D01*
X125636050Y-104160048D01*
X125831653Y-103867309D01*
X125883001Y-103609164D01*
X125883001Y-103609159D01*
X125900338Y-103522000D01*
X125883001Y-103434840D01*
X125883001Y-96637160D01*
X125900338Y-96550000D01*
X125883001Y-96462841D01*
X125883001Y-96462836D01*
X125831653Y-96204691D01*
X125636050Y-95911952D01*
X125562157Y-95862578D01*
X125195440Y-95495861D01*
X125195440Y-94400000D01*
X125146157Y-94152235D01*
X125005809Y-93942191D01*
X124795765Y-93801843D01*
X124548000Y-93752560D01*
X122848000Y-93752560D01*
X122600235Y-93801843D01*
X122390191Y-93942191D01*
X122350769Y-94001190D01*
X120773000Y-92423422D01*
X120773000Y-88225161D01*
X120790337Y-88138000D01*
X120773000Y-88050839D01*
X120773000Y-81788000D01*
X122183908Y-81788000D01*
X122299161Y-82367418D01*
X122627375Y-82858625D01*
X122925761Y-83058000D01*
X122627375Y-83257375D01*
X122299161Y-83748582D01*
X122183908Y-84328000D01*
X122299161Y-84907418D01*
X122627375Y-85398625D01*
X122925761Y-85598000D01*
X122627375Y-85797375D01*
X122299161Y-86288582D01*
X122183908Y-86868000D01*
X122299161Y-87447418D01*
X122627375Y-87938625D01*
X122645619Y-87950816D01*
X122600235Y-87959843D01*
X122390191Y-88100191D01*
X122249843Y-88310235D01*
X122200560Y-88558000D01*
X122200560Y-90258000D01*
X122249843Y-90505765D01*
X122390191Y-90715809D01*
X122600235Y-90856157D01*
X122848000Y-90905440D01*
X124548000Y-90905440D01*
X124795765Y-90856157D01*
X125005809Y-90715809D01*
X125146157Y-90505765D01*
X125195440Y-90258000D01*
X125195440Y-88558000D01*
X125146157Y-88310235D01*
X125005809Y-88100191D01*
X124795765Y-87959843D01*
X124750381Y-87950816D01*
X124768625Y-87938625D01*
X125096839Y-87447418D01*
X125212092Y-86868000D01*
X125096839Y-86288582D01*
X124768625Y-85797375D01*
X124470239Y-85598000D01*
X124768625Y-85398625D01*
X125096839Y-84907418D01*
X125212092Y-84328000D01*
X125096839Y-83748582D01*
X124768625Y-83257375D01*
X124470239Y-83058000D01*
X124768625Y-82858625D01*
X125096839Y-82367418D01*
X125212092Y-81788000D01*
X125096839Y-81208582D01*
X124768625Y-80717375D01*
X124277418Y-80389161D01*
X123844256Y-80303000D01*
X123551744Y-80303000D01*
X123118582Y-80389161D01*
X122627375Y-80717375D01*
X122299161Y-81208582D01*
X122183908Y-81788000D01*
X120773000Y-81788000D01*
X120773000Y-78156656D01*
X120958625Y-78032625D01*
X121286839Y-77541418D01*
X121331102Y-77318890D01*
X122256524Y-77318890D01*
X122426355Y-77728924D01*
X122816642Y-78157183D01*
X123341108Y-78403486D01*
X123571000Y-78282819D01*
X123571000Y-77089000D01*
X123825000Y-77089000D01*
X123825000Y-78282819D01*
X124054892Y-78403486D01*
X124579358Y-78157183D01*
X124969645Y-77728924D01*
X125139476Y-77318890D01*
X125018155Y-77089000D01*
X123825000Y-77089000D01*
X123571000Y-77089000D01*
X122377845Y-77089000D01*
X122256524Y-77318890D01*
X121331102Y-77318890D01*
X121402092Y-76962000D01*
X121286839Y-76382582D01*
X120958625Y-75891375D01*
X120773000Y-75767344D01*
X120773000Y-75616656D01*
X120958625Y-75492625D01*
X121286839Y-75001418D01*
X121331102Y-74778890D01*
X122256524Y-74778890D01*
X122426355Y-75188924D01*
X122816642Y-75617183D01*
X122975954Y-75692000D01*
X122816642Y-75766817D01*
X122426355Y-76195076D01*
X122256524Y-76605110D01*
X122377845Y-76835000D01*
X123571000Y-76835000D01*
X123571000Y-74549000D01*
X123825000Y-74549000D01*
X123825000Y-76835000D01*
X125018155Y-76835000D01*
X125139476Y-76605110D01*
X124969645Y-76195076D01*
X124579358Y-75766817D01*
X124420046Y-75692000D01*
X124579358Y-75617183D01*
X124969645Y-75188924D01*
X125139476Y-74778890D01*
X125018155Y-74549000D01*
X123825000Y-74549000D01*
X123571000Y-74549000D01*
X122377845Y-74549000D01*
X122256524Y-74778890D01*
X121331102Y-74778890D01*
X121402092Y-74422000D01*
X121286839Y-73842582D01*
X120958625Y-73351375D01*
X120773000Y-73227344D01*
X120773000Y-73076656D01*
X120958625Y-72952625D01*
X121286839Y-72461418D01*
X121331102Y-72238890D01*
X122256524Y-72238890D01*
X122426355Y-72648924D01*
X122816642Y-73077183D01*
X122975954Y-73152000D01*
X122816642Y-73226817D01*
X122426355Y-73655076D01*
X122256524Y-74065110D01*
X122377845Y-74295000D01*
X123571000Y-74295000D01*
X123571000Y-72009000D01*
X123825000Y-72009000D01*
X123825000Y-74295000D01*
X125018155Y-74295000D01*
X125139476Y-74065110D01*
X124969645Y-73655076D01*
X124579358Y-73226817D01*
X124420046Y-73152000D01*
X124579358Y-73077183D01*
X124969645Y-72648924D01*
X125139476Y-72238890D01*
X125018155Y-72009000D01*
X123825000Y-72009000D01*
X123571000Y-72009000D01*
X122377845Y-72009000D01*
X122256524Y-72238890D01*
X121331102Y-72238890D01*
X121402092Y-71882000D01*
X121286839Y-71302582D01*
X120958625Y-70811375D01*
X120940381Y-70799184D01*
X120985765Y-70790157D01*
X121195809Y-70649809D01*
X121336157Y-70439765D01*
X121385440Y-70192000D01*
X121385440Y-69627750D01*
X122213000Y-69627750D01*
X122213000Y-70318310D01*
X122309673Y-70551699D01*
X122488302Y-70730327D01*
X122697878Y-70817136D01*
X122426355Y-71115076D01*
X122256524Y-71525110D01*
X122377845Y-71755000D01*
X123571000Y-71755000D01*
X123571000Y-69469000D01*
X123825000Y-69469000D01*
X123825000Y-71755000D01*
X125018155Y-71755000D01*
X125139476Y-71525110D01*
X124969645Y-71115076D01*
X124698122Y-70817136D01*
X124907698Y-70730327D01*
X125086327Y-70551699D01*
X125183000Y-70318310D01*
X125183000Y-69627750D01*
X125024250Y-69469000D01*
X123825000Y-69469000D01*
X123571000Y-69469000D01*
X122371750Y-69469000D01*
X122213000Y-69627750D01*
X121385440Y-69627750D01*
X121385440Y-68492000D01*
X121360316Y-68365690D01*
X122213000Y-68365690D01*
X122213000Y-69056250D01*
X122371750Y-69215000D01*
X123571000Y-69215000D01*
X123571000Y-68015750D01*
X123825000Y-68015750D01*
X123825000Y-69215000D01*
X125024250Y-69215000D01*
X125183000Y-69056250D01*
X125183000Y-68365690D01*
X125086327Y-68132301D01*
X124907698Y-67953673D01*
X124674309Y-67857000D01*
X123983750Y-67857000D01*
X123825000Y-68015750D01*
X123571000Y-68015750D01*
X123412250Y-67857000D01*
X122721691Y-67857000D01*
X122488302Y-67953673D01*
X122309673Y-68132301D01*
X122213000Y-68365690D01*
X121360316Y-68365690D01*
X121336157Y-68244235D01*
X121195809Y-68034191D01*
X120985765Y-67893843D01*
X120761959Y-67849326D01*
X120721652Y-67646690D01*
X120590453Y-67450338D01*
X120575424Y-67427845D01*
X120575423Y-67427844D01*
X120526049Y-67353951D01*
X120452156Y-67304577D01*
X118192258Y-65044681D01*
X118142882Y-64970785D01*
X117850143Y-64775182D01*
X117591998Y-64723834D01*
X117591994Y-64723834D01*
X117504833Y-64706497D01*
X117417673Y-64723834D01*
X112842811Y-64723834D01*
X112755651Y-64706497D01*
X112668491Y-64723834D01*
X112668487Y-64723834D01*
X112410342Y-64775182D01*
X112410340Y-64775183D01*
X112410341Y-64775183D01*
X112191497Y-64921410D01*
X112191496Y-64921411D01*
X112117603Y-64970785D01*
X112068229Y-65044678D01*
X111449908Y-65663000D01*
X102993000Y-65663000D01*
X102993000Y-62353000D01*
X103816560Y-62353000D01*
X103816560Y-62668000D01*
X103865843Y-62915765D01*
X104006191Y-63125809D01*
X104216235Y-63266157D01*
X104464000Y-63315440D01*
X106864000Y-63315440D01*
X107111765Y-63266157D01*
X107321809Y-63125809D01*
X107462157Y-62915765D01*
X107511440Y-62668000D01*
X107511440Y-62273453D01*
X107608362Y-62507444D01*
X108124556Y-63023638D01*
X108798996Y-63303000D01*
X109529004Y-63303000D01*
X110203444Y-63023638D01*
X110719638Y-62507444D01*
X110914000Y-62038212D01*
X111108362Y-62507444D01*
X111624556Y-63023638D01*
X112298996Y-63303000D01*
X113029004Y-63303000D01*
X113703444Y-63023638D01*
X114219638Y-62507444D01*
X114414000Y-62038212D01*
X114608362Y-62507444D01*
X115124556Y-63023638D01*
X115798996Y-63303000D01*
X116529004Y-63303000D01*
X117203444Y-63023638D01*
X117719638Y-62507444D01*
X117914000Y-62038212D01*
X118108362Y-62507444D01*
X118624556Y-63023638D01*
X119298996Y-63303000D01*
X120029004Y-63303000D01*
X120703444Y-63023638D01*
X120961907Y-62765175D01*
X122046430Y-62765175D01*
X122169565Y-63052788D01*
X122851734Y-63312707D01*
X123581443Y-63291786D01*
X124158435Y-63052788D01*
X124281570Y-62765175D01*
X123164000Y-61647605D01*
X122046430Y-62765175D01*
X120961907Y-62765175D01*
X121219638Y-62507444D01*
X121408747Y-62050895D01*
X121579212Y-62462435D01*
X121866825Y-62585570D01*
X122984395Y-61468000D01*
X123343605Y-61468000D01*
X124461175Y-62585570D01*
X124748788Y-62462435D01*
X125008707Y-61780266D01*
X124987786Y-61050557D01*
X124748788Y-60473565D01*
X124461175Y-60350430D01*
X123343605Y-61468000D01*
X122984395Y-61468000D01*
X121866825Y-60350430D01*
X121579212Y-60473565D01*
X121415862Y-60902284D01*
X121219638Y-60428556D01*
X120961907Y-60170825D01*
X122046430Y-60170825D01*
X123164000Y-61288395D01*
X124281570Y-60170825D01*
X124158435Y-59883212D01*
X123476266Y-59623293D01*
X122746557Y-59644214D01*
X122169565Y-59883212D01*
X122046430Y-60170825D01*
X120961907Y-60170825D01*
X120703444Y-59912362D01*
X120029004Y-59633000D01*
X119298996Y-59633000D01*
X118624556Y-59912362D01*
X118108362Y-60428556D01*
X117914000Y-60897788D01*
X117719638Y-60428556D01*
X117203444Y-59912362D01*
X116529004Y-59633000D01*
X115798996Y-59633000D01*
X115124556Y-59912362D01*
X114608362Y-60428556D01*
X114414000Y-60897788D01*
X114219638Y-60428556D01*
X113703444Y-59912362D01*
X113029004Y-59633000D01*
X112298996Y-59633000D01*
X111624556Y-59912362D01*
X111108362Y-60428556D01*
X110914000Y-60897788D01*
X110719638Y-60428556D01*
X110203444Y-59912362D01*
X109529004Y-59633000D01*
X108798996Y-59633000D01*
X108124556Y-59912362D01*
X107608362Y-60428556D01*
X107511440Y-60662547D01*
X107511440Y-60268000D01*
X107462157Y-60020235D01*
X107321809Y-59810191D01*
X107111765Y-59669843D01*
X106864000Y-59620560D01*
X104464000Y-59620560D01*
X104216235Y-59669843D01*
X104006191Y-59810191D01*
X103865843Y-60020235D01*
X103816560Y-60268000D01*
X103816560Y-60583000D01*
X102195164Y-60583000D01*
X102108000Y-60565662D01*
X102020835Y-60583000D01*
X100313611Y-60583000D01*
X100249638Y-60428556D01*
X99733444Y-59912362D01*
X99059004Y-59633000D01*
X98328996Y-59633000D01*
X97654556Y-59912362D01*
X97138362Y-60428556D01*
X96944000Y-60897788D01*
X96749638Y-60428556D01*
X96233444Y-59912362D01*
X95559004Y-59633000D01*
X94828996Y-59633000D01*
X94154556Y-59912362D01*
X93638362Y-60428556D01*
X93444000Y-60897788D01*
X93249638Y-60428556D01*
X92733444Y-59912362D01*
X92059004Y-59633000D01*
X91328996Y-59633000D01*
X90654556Y-59912362D01*
X90138362Y-60428556D01*
X89944000Y-60897788D01*
X89749638Y-60428556D01*
X89233444Y-59912362D01*
X88559004Y-59633000D01*
X87828996Y-59633000D01*
X87154556Y-59912362D01*
X86638362Y-60428556D01*
X86444000Y-60897788D01*
X86249638Y-60428556D01*
X85733444Y-59912362D01*
X85059004Y-59633000D01*
X84328996Y-59633000D01*
X83654556Y-59912362D01*
X83138362Y-60428556D01*
X83029000Y-60692579D01*
X83029000Y-60141690D01*
X82932327Y-59908301D01*
X82753698Y-59729673D01*
X82520309Y-59633000D01*
X81479750Y-59633000D01*
X81321000Y-59791750D01*
X81321000Y-61341000D01*
X81341000Y-61341000D01*
X81341000Y-61595000D01*
X81321000Y-61595000D01*
X81321000Y-63144250D01*
X81479750Y-63303000D01*
X82520309Y-63303000D01*
X82753698Y-63206327D01*
X82932327Y-63027699D01*
X83029000Y-62794310D01*
X83029000Y-62243421D01*
X83138362Y-62507444D01*
X83654556Y-63023638D01*
X83934000Y-63139388D01*
X83934001Y-66447560D01*
X83605000Y-66447560D01*
X83357235Y-66496843D01*
X83147191Y-66637191D01*
X83006843Y-66847235D01*
X82957560Y-67095000D01*
X82957560Y-68795000D01*
X83006843Y-69042765D01*
X83147191Y-69252809D01*
X83357235Y-69393157D01*
X83605000Y-69442440D01*
X85305000Y-69442440D01*
X85552765Y-69393157D01*
X85762809Y-69252809D01*
X85903157Y-69042765D01*
X85952440Y-68795000D01*
X85952440Y-67095000D01*
X85903157Y-66847235D01*
X85762809Y-66637191D01*
X85552765Y-66496843D01*
X85454000Y-66477198D01*
X85454000Y-63139387D01*
X85733444Y-63023638D01*
X86249638Y-62507444D01*
X86444000Y-62038212D01*
X86638362Y-62507444D01*
X87154556Y-63023638D01*
X87828996Y-63303000D01*
X88559004Y-63303000D01*
X89233444Y-63023638D01*
X89749638Y-62507444D01*
X89944000Y-62038212D01*
X90138362Y-62507444D01*
X90654556Y-63023638D01*
X91328996Y-63303000D01*
X92059004Y-63303000D01*
X92733444Y-63023638D01*
X93249638Y-62507444D01*
X93444000Y-62038212D01*
X93638362Y-62507444D01*
X94154556Y-63023638D01*
X94828996Y-63303000D01*
X95559004Y-63303000D01*
X96233444Y-63023638D01*
X96749638Y-62507444D01*
X96944000Y-62038212D01*
X97138362Y-62507444D01*
X97654556Y-63023638D01*
X98328996Y-63303000D01*
X99059004Y-63303000D01*
X99733444Y-63023638D01*
X100249638Y-62507444D01*
X100313611Y-62353000D01*
X101223000Y-62353000D01*
X101223001Y-65663000D01*
X93305161Y-65663000D01*
X93218000Y-65645663D01*
X93130839Y-65663000D01*
X89698659Y-65663000D01*
X89611499Y-65645663D01*
X89524339Y-65663000D01*
X89524335Y-65663000D01*
X89266190Y-65714348D01*
X89266188Y-65714349D01*
X89266189Y-65714349D01*
X89047345Y-65860576D01*
X89047344Y-65860577D01*
X88973451Y-65909951D01*
X88924077Y-65983844D01*
X87827845Y-67080077D01*
X87753952Y-67129451D01*
X87704578Y-67203344D01*
X87704576Y-67203346D01*
X87682128Y-67236942D01*
X87423565Y-67288374D01*
X87132414Y-67482914D01*
X86937874Y-67774065D01*
X86869560Y-68117500D01*
X86869560Y-69042500D01*
X86937874Y-69385935D01*
X87132414Y-69677086D01*
X87423565Y-69871626D01*
X87767000Y-69939940D01*
X88717259Y-69939940D01*
X88462139Y-70195060D01*
X87767000Y-70195060D01*
X87423565Y-70263374D01*
X87132414Y-70457914D01*
X86937874Y-70749065D01*
X86869560Y-71092500D01*
X86869560Y-72017500D01*
X86937874Y-72360935D01*
X87132414Y-72652086D01*
X87423565Y-72846626D01*
X87632000Y-72888087D01*
X87632000Y-72889067D01*
X87546603Y-72934713D01*
X87465104Y-72989169D01*
X87366994Y-73069686D01*
X87297686Y-73138994D01*
X87217169Y-73237104D01*
X87162713Y-73318603D01*
X87102881Y-73430540D01*
X87065372Y-73521096D01*
X87028530Y-73642549D01*
X87009408Y-73738682D01*
X86996968Y-73864991D01*
X86996968Y-73901894D01*
X86994560Y-73914000D01*
X86994560Y-74414000D01*
X87024397Y-74564000D01*
X86994560Y-74714000D01*
X86994560Y-75214000D01*
X86996968Y-75226106D01*
X86996968Y-75263009D01*
X87009408Y-75389318D01*
X87028530Y-75485451D01*
X87065372Y-75606904D01*
X87102881Y-75697460D01*
X87162713Y-75809397D01*
X87217169Y-75890896D01*
X87297686Y-75989006D01*
X87366994Y-76058314D01*
X87465104Y-76138831D01*
X87546603Y-76193287D01*
X87658540Y-76253119D01*
X87749096Y-76290628D01*
X87870549Y-76327470D01*
X87966682Y-76346592D01*
X88092991Y-76359032D01*
X88129894Y-76359032D01*
X88142000Y-76361440D01*
X88642000Y-76361440D01*
X88654106Y-76359032D01*
X88691009Y-76359032D01*
X88817318Y-76346592D01*
X88913451Y-76327470D01*
X89034904Y-76290628D01*
X89125460Y-76253119D01*
X89237397Y-76193287D01*
X89318896Y-76138831D01*
X89417006Y-76058314D01*
X89486314Y-75989006D01*
X89566831Y-75890896D01*
X89621287Y-75809397D01*
X89681119Y-75697460D01*
X89718628Y-75606904D01*
X89755470Y-75485451D01*
X89774592Y-75389318D01*
X89787032Y-75263009D01*
X89787032Y-75226106D01*
X89789440Y-75214000D01*
X89789440Y-74714000D01*
X89759603Y-74564000D01*
X89789440Y-74414000D01*
X89789440Y-73914000D01*
X89787032Y-73901894D01*
X89787032Y-73864991D01*
X89774592Y-73738682D01*
X89755470Y-73642549D01*
X89718628Y-73521096D01*
X89681119Y-73430540D01*
X89621287Y-73318603D01*
X89566831Y-73237104D01*
X89486314Y-73138994D01*
X89417006Y-73069686D01*
X89318896Y-72989169D01*
X89237397Y-72934713D01*
X89152000Y-72889067D01*
X89152000Y-72888087D01*
X89360435Y-72846626D01*
X89651586Y-72652086D01*
X89846126Y-72360935D01*
X89914440Y-72017500D01*
X89914440Y-71092500D01*
X89881235Y-70925567D01*
X90197058Y-70609743D01*
X90392235Y-70740157D01*
X90526106Y-70766785D01*
X90405423Y-70847423D01*
X90088260Y-71322091D01*
X89976887Y-71882000D01*
X90088260Y-72441909D01*
X90405423Y-72916577D01*
X90757758Y-73152000D01*
X90405423Y-73387423D01*
X90088260Y-73862091D01*
X89976887Y-74422000D01*
X90088260Y-74981909D01*
X90405423Y-75456577D01*
X90757758Y-75692000D01*
X90405423Y-75927423D01*
X90088260Y-76402091D01*
X89976887Y-76962000D01*
X90088260Y-77521909D01*
X90405423Y-77996577D01*
X90757758Y-78232000D01*
X90405423Y-78467423D01*
X90088260Y-78942091D01*
X89976887Y-79502000D01*
X90088260Y-80061909D01*
X90405423Y-80536577D01*
X90757758Y-80772000D01*
X90405423Y-81007423D01*
X90088260Y-81482091D01*
X89976887Y-82042000D01*
X90088260Y-82601909D01*
X90405423Y-83076577D01*
X90757758Y-83312000D01*
X90405423Y-83547423D01*
X90305479Y-83697000D01*
X89793297Y-83697000D01*
X89651586Y-83484914D01*
X89360435Y-83290374D01*
X89017000Y-83222060D01*
X87767000Y-83222060D01*
X87423565Y-83290374D01*
X87132414Y-83484914D01*
X86937874Y-83776065D01*
X86869560Y-84119500D01*
X86869560Y-85044500D01*
X86937874Y-85387935D01*
X87132414Y-85679086D01*
X87423565Y-85873626D01*
X87767000Y-85941940D01*
X89017000Y-85941940D01*
X89360435Y-85873626D01*
X89651586Y-85679086D01*
X89793297Y-85467000D01*
X90305479Y-85467000D01*
X90405423Y-85616577D01*
X90789108Y-85872947D01*
X90584866Y-85969611D01*
X90208959Y-86384577D01*
X90048096Y-86772961D01*
X90170085Y-86995000D01*
X91313000Y-86995000D01*
X91313000Y-86975000D01*
X91567000Y-86975000D01*
X91567000Y-86995000D01*
X92709915Y-86995000D01*
X92831904Y-86772961D01*
X92671041Y-86384577D01*
X92295134Y-85969611D01*
X92090892Y-85872947D01*
X92474577Y-85616577D01*
X92481956Y-85605534D01*
X96463845Y-89587424D01*
X96463848Y-89587426D01*
X96903422Y-90027001D01*
X94544805Y-90027001D01*
X92531389Y-88013586D01*
X92671041Y-87859423D01*
X92831904Y-87471039D01*
X92709915Y-87249000D01*
X91567000Y-87249000D01*
X91567000Y-87269000D01*
X91313000Y-87269000D01*
X91313000Y-87249000D01*
X90170085Y-87249000D01*
X90048096Y-87471039D01*
X90139611Y-87691990D01*
X86236714Y-87691990D01*
X86350092Y-87122000D01*
X86234839Y-86542582D01*
X85906625Y-86051375D01*
X85608239Y-85852000D01*
X85906625Y-85652625D01*
X86234839Y-85161418D01*
X86350092Y-84582000D01*
X86234839Y-84002582D01*
X85906625Y-83511375D01*
X85608239Y-83312000D01*
X85906625Y-83112625D01*
X86234839Y-82621418D01*
X86350092Y-82042000D01*
X86320405Y-81892750D01*
X86882000Y-81892750D01*
X86882000Y-82445809D01*
X86978673Y-82679198D01*
X87157301Y-82857827D01*
X87390690Y-82954500D01*
X88106250Y-82954500D01*
X88265000Y-82795750D01*
X88265000Y-81734000D01*
X88519000Y-81734000D01*
X88519000Y-82795750D01*
X88677750Y-82954500D01*
X89393310Y-82954500D01*
X89626699Y-82857827D01*
X89805327Y-82679198D01*
X89902000Y-82445809D01*
X89902000Y-81892750D01*
X89743250Y-81734000D01*
X88519000Y-81734000D01*
X88265000Y-81734000D01*
X87040750Y-81734000D01*
X86882000Y-81892750D01*
X86320405Y-81892750D01*
X86234839Y-81462582D01*
X85906625Y-80971375D01*
X85608239Y-80772000D01*
X85613939Y-80768191D01*
X86882000Y-80768191D01*
X86882000Y-81321250D01*
X87040750Y-81480000D01*
X88265000Y-81480000D01*
X88265000Y-80418250D01*
X88519000Y-80418250D01*
X88519000Y-81480000D01*
X89743250Y-81480000D01*
X89902000Y-81321250D01*
X89902000Y-80768191D01*
X89805327Y-80534802D01*
X89626699Y-80356173D01*
X89393310Y-80259500D01*
X88677750Y-80259500D01*
X88519000Y-80418250D01*
X88265000Y-80418250D01*
X88106250Y-80259500D01*
X87390690Y-80259500D01*
X87157301Y-80356173D01*
X86978673Y-80534802D01*
X86882000Y-80768191D01*
X85613939Y-80768191D01*
X85906625Y-80572625D01*
X86234839Y-80081418D01*
X86350092Y-79502000D01*
X86234839Y-78922582D01*
X85906625Y-78431375D01*
X85608239Y-78232000D01*
X85906625Y-78032625D01*
X86234839Y-77541418D01*
X86350092Y-76962000D01*
X86234839Y-76382582D01*
X85906625Y-75891375D01*
X85608239Y-75692000D01*
X85906625Y-75492625D01*
X86234839Y-75001418D01*
X86350092Y-74422000D01*
X86234839Y-73842582D01*
X85906625Y-73351375D01*
X85888381Y-73339184D01*
X85933765Y-73330157D01*
X86143809Y-73189809D01*
X86284157Y-72979765D01*
X86333440Y-72732000D01*
X86333440Y-71032000D01*
X86284157Y-70784235D01*
X86143809Y-70574191D01*
X85933765Y-70433843D01*
X85686000Y-70384560D01*
X83986000Y-70384560D01*
X83738235Y-70433843D01*
X83528191Y-70574191D01*
X83387843Y-70784235D01*
X83338560Y-71032000D01*
X83338560Y-71122000D01*
X82269440Y-71122000D01*
X82269440Y-71032000D01*
X82220157Y-70784235D01*
X82079809Y-70574191D01*
X81869765Y-70433843D01*
X81622000Y-70384560D01*
X79922000Y-70384560D01*
X79674235Y-70433843D01*
X79464191Y-70574191D01*
X79323843Y-70784235D01*
X79274560Y-71032000D01*
X79274560Y-72732000D01*
X79323843Y-72979765D01*
X79464191Y-73189809D01*
X79674235Y-73330157D01*
X79719619Y-73339184D01*
X79701375Y-73351375D01*
X79373161Y-73842582D01*
X79257908Y-74422000D01*
X78205000Y-74422000D01*
X78205000Y-67945000D01*
X78670000Y-67945000D01*
X78789107Y-68620490D01*
X79132062Y-69214506D01*
X79657500Y-69655400D01*
X80302045Y-69889995D01*
X80987955Y-69889995D01*
X81632500Y-69655400D01*
X82157938Y-69214506D01*
X82500893Y-68620490D01*
X82620000Y-67945000D01*
X82500893Y-67269510D01*
X82157938Y-66675494D01*
X81632500Y-66234600D01*
X80987955Y-66000005D01*
X80302045Y-66000005D01*
X79657500Y-66234600D01*
X79132062Y-66675494D01*
X78789107Y-67269510D01*
X78670000Y-67945000D01*
X78205000Y-67945000D01*
X78205000Y-61753750D01*
X79359000Y-61753750D01*
X79359000Y-62794310D01*
X79455673Y-63027699D01*
X79634302Y-63206327D01*
X79867691Y-63303000D01*
X80908250Y-63303000D01*
X81067000Y-63144250D01*
X81067000Y-61595000D01*
X79517750Y-61595000D01*
X79359000Y-61753750D01*
X78205000Y-61753750D01*
X78205000Y-60141690D01*
X79359000Y-60141690D01*
X79359000Y-61182250D01*
X79517750Y-61341000D01*
X81067000Y-61341000D01*
X81067000Y-59791750D01*
X80908250Y-59633000D01*
X79867691Y-59633000D01*
X79634302Y-59729673D01*
X79455673Y-59908301D01*
X79359000Y-60141690D01*
X78205000Y-60141690D01*
X78205000Y-57885000D01*
X126265001Y-57885000D01*
X126265000Y-113565000D01*
G36*
X119003000Y-92702839D02*
X118985663Y-92790000D01*
X119003000Y-92877161D01*
X119003000Y-92877164D01*
X119054348Y-93135309D01*
X119249951Y-93428049D01*
X119323847Y-93477425D01*
X121660577Y-95814156D01*
X121709951Y-95888049D01*
X121783844Y-95937423D01*
X121783845Y-95937424D01*
X121826467Y-95965903D01*
X122002690Y-96083652D01*
X122205326Y-96123959D01*
X122249843Y-96347765D01*
X122390191Y-96557809D01*
X122600235Y-96698157D01*
X122645619Y-96707184D01*
X122627375Y-96719375D01*
X122299161Y-97210582D01*
X122183908Y-97790000D01*
X122299161Y-98369418D01*
X122627375Y-98860625D01*
X122946478Y-99073843D01*
X122816642Y-99134817D01*
X122426355Y-99563076D01*
X122256524Y-99973110D01*
X122377845Y-100203000D01*
X123571000Y-100203000D01*
X123571000Y-100183000D01*
X123825000Y-100183000D01*
X123825000Y-100203000D01*
X123845000Y-100203000D01*
X123845000Y-100457000D01*
X123825000Y-100457000D01*
X123825000Y-101650819D01*
X124054892Y-101771486D01*
X124113001Y-101744196D01*
X124113001Y-103155420D01*
X123133845Y-104134577D01*
X123059952Y-104183951D01*
X123010578Y-104257844D01*
X123010576Y-104257846D01*
X122864348Y-104476691D01*
X122824042Y-104679325D01*
X122600235Y-104723843D01*
X122390191Y-104864191D01*
X122249843Y-105074235D01*
X122200560Y-105322000D01*
X122200560Y-107022000D01*
X122249843Y-107269765D01*
X122390191Y-107479809D01*
X122600235Y-107620157D01*
X122645619Y-107629184D01*
X122627375Y-107641375D01*
X122419822Y-107952000D01*
X118424802Y-107952000D01*
X117543334Y-107070532D01*
X118843073Y-107070532D01*
X118941736Y-107337387D01*
X119551461Y-107563908D01*
X120201460Y-107539856D01*
X120690264Y-107337387D01*
X120788927Y-107070532D01*
X119816000Y-106097605D01*
X118843073Y-107070532D01*
X117543334Y-107070532D01*
X116882177Y-106409376D01*
X116951000Y-106243222D01*
X116951000Y-105653461D01*
X118170092Y-105653461D01*
X118194144Y-106303460D01*
X118396613Y-106792264D01*
X118663468Y-106890927D01*
X119636395Y-105918000D01*
X119995605Y-105918000D01*
X120968532Y-106890927D01*
X121235387Y-106792264D01*
X121461908Y-106182539D01*
X121437856Y-105532540D01*
X121235387Y-105043736D01*
X120968532Y-104945073D01*
X119995605Y-105918000D01*
X119636395Y-105918000D01*
X118663468Y-104945073D01*
X118396613Y-105043736D01*
X118170092Y-105653461D01*
X116951000Y-105653461D01*
X116951000Y-105592778D01*
X116702086Y-104991847D01*
X116475707Y-104765468D01*
X118843073Y-104765468D01*
X119816000Y-105738395D01*
X120788927Y-104765468D01*
X120690264Y-104498613D01*
X120080539Y-104272092D01*
X119430540Y-104296144D01*
X118941736Y-104498613D01*
X118843073Y-104765468D01*
X116475707Y-104765468D01*
X116242153Y-104531914D01*
X116076000Y-104463091D01*
X116076000Y-100872909D01*
X116242153Y-100804086D01*
X116475707Y-100570532D01*
X118843073Y-100570532D01*
X118941736Y-100837387D01*
X119551461Y-101063908D01*
X120201460Y-101039856D01*
X120690264Y-100837387D01*
X120745906Y-100686890D01*
X122256524Y-100686890D01*
X122426355Y-101096924D01*
X122816642Y-101525183D01*
X123341108Y-101771486D01*
X123571000Y-101650819D01*
X123571000Y-100457000D01*
X122377845Y-100457000D01*
X122256524Y-100686890D01*
X120745906Y-100686890D01*
X120788927Y-100570532D01*
X119816000Y-99597605D01*
X118843073Y-100570532D01*
X116475707Y-100570532D01*
X116702086Y-100344153D01*
X116951000Y-99743222D01*
X116951000Y-99153461D01*
X118170092Y-99153461D01*
X118194144Y-99803460D01*
X118396613Y-100292264D01*
X118663468Y-100390927D01*
X119636395Y-99418000D01*
X119995605Y-99418000D01*
X120968532Y-100390927D01*
X121235387Y-100292264D01*
X121461908Y-99682539D01*
X121437856Y-99032540D01*
X121235387Y-98543736D01*
X120968532Y-98445073D01*
X119995605Y-99418000D01*
X119636395Y-99418000D01*
X118663468Y-98445073D01*
X118396613Y-98543736D01*
X118170092Y-99153461D01*
X116951000Y-99153461D01*
X116951000Y-99092778D01*
X116702086Y-98491847D01*
X116475707Y-98265468D01*
X118843073Y-98265468D01*
X119816000Y-99238395D01*
X120788927Y-98265468D01*
X120690264Y-97998613D01*
X120080539Y-97772092D01*
X119430540Y-97796144D01*
X118941736Y-97998613D01*
X118843073Y-98265468D01*
X116475707Y-98265468D01*
X116242153Y-98031914D01*
X115641222Y-97783000D01*
X114990778Y-97783000D01*
X114389847Y-98031914D01*
X113929914Y-98491847D01*
X113790440Y-98828567D01*
X113790440Y-98343500D01*
X113722126Y-98000065D01*
X113527586Y-97708914D01*
X113236435Y-97514374D01*
X113153000Y-97497778D01*
X113153000Y-96124578D01*
X114662577Y-94615002D01*
X114801748Y-94615002D01*
X114643000Y-94773750D01*
X114643000Y-95414310D01*
X114739673Y-95647699D01*
X114918302Y-95826327D01*
X115151691Y-95923000D01*
X115792250Y-95923000D01*
X115951000Y-95764250D01*
X115951000Y-94615000D01*
X116205000Y-94615000D01*
X116205000Y-95764250D01*
X116363750Y-95923000D01*
X117004309Y-95923000D01*
X117237698Y-95826327D01*
X117416327Y-95647699D01*
X117513000Y-95414310D01*
X117513000Y-94773750D01*
X117354250Y-94615000D01*
X116205000Y-94615000D01*
X115951000Y-94615000D01*
X115931000Y-94615000D01*
X115931000Y-94361000D01*
X115951000Y-94361000D01*
X115951000Y-94341000D01*
X116205000Y-94341000D01*
X116205000Y-94361000D01*
X117354250Y-94361000D01*
X117513000Y-94202250D01*
X117513000Y-93561690D01*
X117416327Y-93328301D01*
X117237698Y-93149673D01*
X117006082Y-93053735D01*
X117112577Y-92982577D01*
X117429740Y-92507909D01*
X117541113Y-91948000D01*
X117506017Y-91771561D01*
X119003001Y-90274578D01*
X119003000Y-92702839D01*
X119003000Y-92702839D01*
G37*
X119003000Y-92702839D02*
X118985663Y-92790000D01*
X119003000Y-92877161D01*
X119003000Y-92877164D01*
X119054348Y-93135309D01*
X119249951Y-93428049D01*
X119323847Y-93477425D01*
X121660577Y-95814156D01*
X121709951Y-95888049D01*
X121783844Y-95937423D01*
X121783845Y-95937424D01*
X121826467Y-95965903D01*
X122002690Y-96083652D01*
X122205326Y-96123959D01*
X122249843Y-96347765D01*
X122390191Y-96557809D01*
X122600235Y-96698157D01*
X122645619Y-96707184D01*
X122627375Y-96719375D01*
X122299161Y-97210582D01*
X122183908Y-97790000D01*
X122299161Y-98369418D01*
X122627375Y-98860625D01*
X122946478Y-99073843D01*
X122816642Y-99134817D01*
X122426355Y-99563076D01*
X122256524Y-99973110D01*
X122377845Y-100203000D01*
X123571000Y-100203000D01*
X123571000Y-100183000D01*
X123825000Y-100183000D01*
X123825000Y-100203000D01*
X123845000Y-100203000D01*
X123845000Y-100457000D01*
X123825000Y-100457000D01*
X123825000Y-101650819D01*
X124054892Y-101771486D01*
X124113001Y-101744196D01*
X124113001Y-103155420D01*
X123133845Y-104134577D01*
X123059952Y-104183951D01*
X123010578Y-104257844D01*
X123010576Y-104257846D01*
X122864348Y-104476691D01*
X122824042Y-104679325D01*
X122600235Y-104723843D01*
X122390191Y-104864191D01*
X122249843Y-105074235D01*
X122200560Y-105322000D01*
X122200560Y-107022000D01*
X122249843Y-107269765D01*
X122390191Y-107479809D01*
X122600235Y-107620157D01*
X122645619Y-107629184D01*
X122627375Y-107641375D01*
X122419822Y-107952000D01*
X118424802Y-107952000D01*
X117543334Y-107070532D01*
X118843073Y-107070532D01*
X118941736Y-107337387D01*
X119551461Y-107563908D01*
X120201460Y-107539856D01*
X120690264Y-107337387D01*
X120788927Y-107070532D01*
X119816000Y-106097605D01*
X118843073Y-107070532D01*
X117543334Y-107070532D01*
X116882177Y-106409376D01*
X116951000Y-106243222D01*
X116951000Y-105653461D01*
X118170092Y-105653461D01*
X118194144Y-106303460D01*
X118396613Y-106792264D01*
X118663468Y-106890927D01*
X119636395Y-105918000D01*
X119995605Y-105918000D01*
X120968532Y-106890927D01*
X121235387Y-106792264D01*
X121461908Y-106182539D01*
X121437856Y-105532540D01*
X121235387Y-105043736D01*
X120968532Y-104945073D01*
X119995605Y-105918000D01*
X119636395Y-105918000D01*
X118663468Y-104945073D01*
X118396613Y-105043736D01*
X118170092Y-105653461D01*
X116951000Y-105653461D01*
X116951000Y-105592778D01*
X116702086Y-104991847D01*
X116475707Y-104765468D01*
X118843073Y-104765468D01*
X119816000Y-105738395D01*
X120788927Y-104765468D01*
X120690264Y-104498613D01*
X120080539Y-104272092D01*
X119430540Y-104296144D01*
X118941736Y-104498613D01*
X118843073Y-104765468D01*
X116475707Y-104765468D01*
X116242153Y-104531914D01*
X116076000Y-104463091D01*
X116076000Y-100872909D01*
X116242153Y-100804086D01*
X116475707Y-100570532D01*
X118843073Y-100570532D01*
X118941736Y-100837387D01*
X119551461Y-101063908D01*
X120201460Y-101039856D01*
X120690264Y-100837387D01*
X120745906Y-100686890D01*
X122256524Y-100686890D01*
X122426355Y-101096924D01*
X122816642Y-101525183D01*
X123341108Y-101771486D01*
X123571000Y-101650819D01*
X123571000Y-100457000D01*
X122377845Y-100457000D01*
X122256524Y-100686890D01*
X120745906Y-100686890D01*
X120788927Y-100570532D01*
X119816000Y-99597605D01*
X118843073Y-100570532D01*
X116475707Y-100570532D01*
X116702086Y-100344153D01*
X116951000Y-99743222D01*
X116951000Y-99153461D01*
X118170092Y-99153461D01*
X118194144Y-99803460D01*
X118396613Y-100292264D01*
X118663468Y-100390927D01*
X119636395Y-99418000D01*
X119995605Y-99418000D01*
X120968532Y-100390927D01*
X121235387Y-100292264D01*
X121461908Y-99682539D01*
X121437856Y-99032540D01*
X121235387Y-98543736D01*
X120968532Y-98445073D01*
X119995605Y-99418000D01*
X119636395Y-99418000D01*
X118663468Y-98445073D01*
X118396613Y-98543736D01*
X118170092Y-99153461D01*
X116951000Y-99153461D01*
X116951000Y-99092778D01*
X116702086Y-98491847D01*
X116475707Y-98265468D01*
X118843073Y-98265468D01*
X119816000Y-99238395D01*
X120788927Y-98265468D01*
X120690264Y-97998613D01*
X120080539Y-97772092D01*
X119430540Y-97796144D01*
X118941736Y-97998613D01*
X118843073Y-98265468D01*
X116475707Y-98265468D01*
X116242153Y-98031914D01*
X115641222Y-97783000D01*
X114990778Y-97783000D01*
X114389847Y-98031914D01*
X113929914Y-98491847D01*
X113790440Y-98828567D01*
X113790440Y-98343500D01*
X113722126Y-98000065D01*
X113527586Y-97708914D01*
X113236435Y-97514374D01*
X113153000Y-97497778D01*
X113153000Y-96124578D01*
X114662577Y-94615002D01*
X114801748Y-94615002D01*
X114643000Y-94773750D01*
X114643000Y-95414310D01*
X114739673Y-95647699D01*
X114918302Y-95826327D01*
X115151691Y-95923000D01*
X115792250Y-95923000D01*
X115951000Y-95764250D01*
X115951000Y-94615000D01*
X116205000Y-94615000D01*
X116205000Y-95764250D01*
X116363750Y-95923000D01*
X117004309Y-95923000D01*
X117237698Y-95826327D01*
X117416327Y-95647699D01*
X117513000Y-95414310D01*
X117513000Y-94773750D01*
X117354250Y-94615000D01*
X116205000Y-94615000D01*
X115951000Y-94615000D01*
X115931000Y-94615000D01*
X115931000Y-94361000D01*
X115951000Y-94361000D01*
X115951000Y-94341000D01*
X116205000Y-94341000D01*
X116205000Y-94361000D01*
X117354250Y-94361000D01*
X117513000Y-94202250D01*
X117513000Y-93561690D01*
X117416327Y-93328301D01*
X117237698Y-93149673D01*
X117006082Y-93053735D01*
X117112577Y-92982577D01*
X117429740Y-92507909D01*
X117541113Y-91948000D01*
X117506017Y-91771561D01*
X119003001Y-90274578D01*
X119003000Y-92702839D01*
G36*
X105928414Y-91013086D02*
X106219565Y-91207626D01*
X106563000Y-91275940D01*
X107813000Y-91275940D01*
X108156435Y-91207626D01*
X108447586Y-91013086D01*
X108458000Y-90997500D01*
X108468414Y-91013086D01*
X108759565Y-91207626D01*
X109103000Y-91275940D01*
X110353000Y-91275940D01*
X110696435Y-91207626D01*
X110987586Y-91013086D01*
X110998000Y-90997500D01*
X111008414Y-91013086D01*
X111299565Y-91207626D01*
X111643000Y-91275940D01*
X112893000Y-91275940D01*
X113236435Y-91207626D01*
X113527586Y-91013086D01*
X113669297Y-90801000D01*
X113679422Y-90801000D01*
X114649983Y-91771561D01*
X114614887Y-91948000D01*
X114649983Y-92124438D01*
X111703845Y-95070577D01*
X111629952Y-95119951D01*
X111580578Y-95193844D01*
X111580576Y-95193846D01*
X111434348Y-95412691D01*
X111365663Y-95758000D01*
X111383001Y-95845165D01*
X111383000Y-97497778D01*
X111299565Y-97514374D01*
X111008414Y-97708914D01*
X110866703Y-97921000D01*
X109906656Y-97921000D01*
X109782625Y-97735375D01*
X109291418Y-97407161D01*
X108858256Y-97321000D01*
X108565744Y-97321000D01*
X108132582Y-97407161D01*
X107641375Y-97735375D01*
X107428157Y-98054478D01*
X107367183Y-97924642D01*
X106938924Y-97534355D01*
X106528890Y-97364524D01*
X106299000Y-97485845D01*
X106299000Y-98679000D01*
X106319000Y-98679000D01*
X106319000Y-98933000D01*
X106299000Y-98933000D01*
X106299000Y-98953000D01*
X106045000Y-98953000D01*
X106045000Y-98933000D01*
X106025000Y-98933000D01*
X106025000Y-98679000D01*
X106045000Y-98679000D01*
X106045000Y-97485845D01*
X105815110Y-97364524D01*
X105756999Y-97388593D01*
X105756999Y-90756544D01*
X105928414Y-91013086D01*
X105928414Y-91013086D01*
G37*
X105928414Y-91013086D02*
X106219565Y-91207626D01*
X106563000Y-91275940D01*
X107813000Y-91275940D01*
X108156435Y-91207626D01*
X108447586Y-91013086D01*
X108458000Y-90997500D01*
X108468414Y-91013086D01*
X108759565Y-91207626D01*
X109103000Y-91275940D01*
X110353000Y-91275940D01*
X110696435Y-91207626D01*
X110987586Y-91013086D01*
X110998000Y-90997500D01*
X111008414Y-91013086D01*
X111299565Y-91207626D01*
X111643000Y-91275940D01*
X112893000Y-91275940D01*
X113236435Y-91207626D01*
X113527586Y-91013086D01*
X113669297Y-90801000D01*
X113679422Y-90801000D01*
X114649983Y-91771561D01*
X114614887Y-91948000D01*
X114649983Y-92124438D01*
X111703845Y-95070577D01*
X111629952Y-95119951D01*
X111580578Y-95193844D01*
X111580576Y-95193846D01*
X111434348Y-95412691D01*
X111365663Y-95758000D01*
X111383001Y-95845165D01*
X111383000Y-97497778D01*
X111299565Y-97514374D01*
X111008414Y-97708914D01*
X110866703Y-97921000D01*
X109906656Y-97921000D01*
X109782625Y-97735375D01*
X109291418Y-97407161D01*
X108858256Y-97321000D01*
X108565744Y-97321000D01*
X108132582Y-97407161D01*
X107641375Y-97735375D01*
X107428157Y-98054478D01*
X107367183Y-97924642D01*
X106938924Y-97534355D01*
X106528890Y-97364524D01*
X106299000Y-97485845D01*
X106299000Y-98679000D01*
X106319000Y-98679000D01*
X106319000Y-98933000D01*
X106299000Y-98933000D01*
X106299000Y-98953000D01*
X106045000Y-98953000D01*
X106045000Y-98933000D01*
X106025000Y-98933000D01*
X106025000Y-98679000D01*
X106045000Y-98679000D01*
X106045000Y-97485845D01*
X105815110Y-97364524D01*
X105756999Y-97388593D01*
X105756999Y-90756544D01*
X105928414Y-91013086D01*
G36*
X114692062Y-66675494D02*
X114349107Y-67269510D01*
X114230000Y-67945000D01*
X114349107Y-68620490D01*
X114692062Y-69214506D01*
X115217500Y-69655400D01*
X115862045Y-69889995D01*
X116547955Y-69889995D01*
X117192500Y-69655400D01*
X117717938Y-69214506D01*
X118060893Y-68620490D01*
X118180000Y-67945000D01*
X118092354Y-67447933D01*
X118639190Y-67994769D01*
X118580191Y-68034191D01*
X118439843Y-68244235D01*
X118390560Y-68492000D01*
X118390560Y-70192000D01*
X118439843Y-70439765D01*
X118580191Y-70649809D01*
X118790235Y-70790157D01*
X118835619Y-70799184D01*
X118817375Y-70811375D01*
X118489161Y-71302582D01*
X118373908Y-71882000D01*
X118489161Y-72461418D01*
X118817375Y-72952625D01*
X119003000Y-73076656D01*
X119003001Y-73227344D01*
X118817375Y-73351375D01*
X118489161Y-73842582D01*
X118373908Y-74422000D01*
X118489161Y-75001418D01*
X118817375Y-75492625D01*
X119003000Y-75616656D01*
X119003001Y-75767344D01*
X118817375Y-75891375D01*
X118489161Y-76382582D01*
X118373908Y-76962000D01*
X118489161Y-77541418D01*
X118817375Y-78032625D01*
X119003000Y-78156656D01*
X119003001Y-87771420D01*
X117512130Y-89262292D01*
X117429740Y-88848091D01*
X117112577Y-88373423D01*
X116760242Y-88138000D01*
X117112577Y-87902577D01*
X117429740Y-87427909D01*
X117541113Y-86868000D01*
X117429740Y-86308091D01*
X117112577Y-85833423D01*
X116760242Y-85598000D01*
X117112577Y-85362577D01*
X117429740Y-84887909D01*
X117541113Y-84328000D01*
X117429740Y-83768091D01*
X117112577Y-83293423D01*
X116760242Y-83058000D01*
X117112577Y-82822577D01*
X117429740Y-82347909D01*
X117541113Y-81788000D01*
X117429740Y-81228091D01*
X117112577Y-80753423D01*
X116728892Y-80497053D01*
X116933134Y-80400389D01*
X117309041Y-79985423D01*
X117469904Y-79597039D01*
X117347915Y-79375000D01*
X116205000Y-79375000D01*
X116205000Y-79395000D01*
X115951000Y-79395000D01*
X115951000Y-79375000D01*
X114808085Y-79375000D01*
X114686096Y-79597039D01*
X114846959Y-79985423D01*
X115222866Y-80400389D01*
X115427108Y-80497053D01*
X115043423Y-80753423D01*
X114726260Y-81228091D01*
X114614887Y-81788000D01*
X114726260Y-82347909D01*
X115043423Y-82822577D01*
X115395758Y-83058000D01*
X115043423Y-83293423D01*
X114726260Y-83768091D01*
X114614887Y-84328000D01*
X114726260Y-84887909D01*
X115043423Y-85362577D01*
X115395758Y-85598000D01*
X115043423Y-85833423D01*
X114726260Y-86308091D01*
X114614887Y-86868000D01*
X114726260Y-87427909D01*
X115043423Y-87902577D01*
X115395758Y-88138000D01*
X115043423Y-88373423D01*
X114726260Y-88848091D01*
X114645834Y-89252417D01*
X114391310Y-89082348D01*
X114133165Y-89031000D01*
X114133161Y-89031000D01*
X114046000Y-89013663D01*
X113958839Y-89031000D01*
X113669297Y-89031000D01*
X113527586Y-88818914D01*
X113236435Y-88624374D01*
X112893000Y-88556060D01*
X111643000Y-88556060D01*
X111299565Y-88624374D01*
X111008414Y-88818914D01*
X110998000Y-88834500D01*
X110987586Y-88818914D01*
X110696435Y-88624374D01*
X110353000Y-88556060D01*
X109103000Y-88556060D01*
X108759565Y-88624374D01*
X108468414Y-88818914D01*
X108458000Y-88834500D01*
X108447586Y-88818914D01*
X108156435Y-88624374D01*
X107813000Y-88556060D01*
X106563000Y-88556060D01*
X106219565Y-88624374D01*
X105928414Y-88818914D01*
X105756999Y-89075456D01*
X105756999Y-88561846D01*
X105771887Y-88486999D01*
X105756999Y-88412152D01*
X105756999Y-88412147D01*
X105712903Y-88190462D01*
X105544928Y-87939070D01*
X105481472Y-87896670D01*
X104776688Y-87191887D01*
X104841113Y-86868000D01*
X104729740Y-86308091D01*
X104412577Y-85833423D01*
X104060242Y-85598000D01*
X104412577Y-85362577D01*
X104461523Y-85289324D01*
X105665560Y-86493362D01*
X105665560Y-87403500D01*
X105733874Y-87746935D01*
X105928414Y-88038086D01*
X106219565Y-88232626D01*
X106563000Y-88300940D01*
X107813000Y-88300940D01*
X108156435Y-88232626D01*
X108447586Y-88038086D01*
X108458000Y-88022500D01*
X108468414Y-88038086D01*
X108759565Y-88232626D01*
X109103000Y-88300940D01*
X110353000Y-88300940D01*
X110696435Y-88232626D01*
X110987586Y-88038086D01*
X110998000Y-88022500D01*
X111008414Y-88038086D01*
X111299565Y-88232626D01*
X111643000Y-88300940D01*
X112893000Y-88300940D01*
X113236435Y-88232626D01*
X113527586Y-88038086D01*
X113722126Y-87746935D01*
X113790440Y-87403500D01*
X113790440Y-86478500D01*
X113722126Y-86135065D01*
X113527586Y-85843914D01*
X113236435Y-85649374D01*
X112893000Y-85581060D01*
X111982862Y-85581060D01*
X107501262Y-81099460D01*
X107789223Y-81202965D01*
X108359454Y-81175778D01*
X108760005Y-81009864D01*
X108834139Y-80763745D01*
X108006000Y-79935605D01*
X107991858Y-79949748D01*
X107812252Y-79770142D01*
X107826395Y-79756000D01*
X108185605Y-79756000D01*
X109013745Y-80584139D01*
X109259864Y-80510005D01*
X109452965Y-79972777D01*
X109429021Y-79470561D01*
X110071000Y-79470561D01*
X110071000Y-80041439D01*
X110289466Y-80568862D01*
X110693138Y-80972534D01*
X111220561Y-81191000D01*
X111791439Y-81191000D01*
X112318862Y-80972534D01*
X112722534Y-80568862D01*
X112941000Y-80041439D01*
X112941000Y-79470561D01*
X112722534Y-78943138D01*
X112318862Y-78539466D01*
X111791439Y-78321000D01*
X111220561Y-78321000D01*
X110693138Y-78539466D01*
X110289466Y-78943138D01*
X110071000Y-79470561D01*
X109429021Y-79470561D01*
X109425778Y-79402546D01*
X109259864Y-79001995D01*
X109013745Y-78927861D01*
X108185605Y-79756000D01*
X107826395Y-79756000D01*
X106998255Y-78927861D01*
X106752136Y-79001995D01*
X106559035Y-79539223D01*
X106586222Y-80109454D01*
X106639232Y-80237431D01*
X105165331Y-78763530D01*
X105155125Y-78748255D01*
X107177861Y-78748255D01*
X108006000Y-79576395D01*
X108834139Y-78748255D01*
X108760005Y-78502136D01*
X108222777Y-78309035D01*
X107652546Y-78336222D01*
X107251995Y-78502136D01*
X107177861Y-78748255D01*
X105155125Y-78748255D01*
X105122929Y-78700071D01*
X104871537Y-78532096D01*
X104649852Y-78488000D01*
X104649847Y-78488000D01*
X104587796Y-78475657D01*
X104412577Y-78213423D01*
X104028892Y-77957053D01*
X104233134Y-77860389D01*
X104609041Y-77445423D01*
X104769904Y-77057039D01*
X104647915Y-76835000D01*
X103505000Y-76835000D01*
X103505000Y-76855000D01*
X103251000Y-76855000D01*
X103251000Y-76835000D01*
X103231000Y-76835000D01*
X103231000Y-76581000D01*
X103251000Y-76581000D01*
X103251000Y-75437371D01*
X103505000Y-75437371D01*
X103505000Y-76581000D01*
X104647915Y-76581000D01*
X104769904Y-76358961D01*
X104609041Y-75970577D01*
X104233134Y-75555611D01*
X103727041Y-75316086D01*
X103505000Y-75437371D01*
X103251000Y-75437371D01*
X103028959Y-75316086D01*
X102522866Y-75555611D01*
X102146959Y-75970577D01*
X102011186Y-76298384D01*
X100458688Y-74745886D01*
X100523113Y-74422000D01*
X100411740Y-73862091D01*
X100094577Y-73387423D01*
X99742242Y-73152000D01*
X100094577Y-72916577D01*
X100269467Y-72654836D01*
X100308374Y-72850435D01*
X100502914Y-73141586D01*
X100794065Y-73336126D01*
X101137500Y-73404440D01*
X102062500Y-73404440D01*
X102405935Y-73336126D01*
X102697086Y-73141586D01*
X102891626Y-72850435D01*
X102959940Y-72507000D01*
X102959940Y-71257000D01*
X102891626Y-70913565D01*
X102697086Y-70622414D01*
X102681500Y-70612000D01*
X102697086Y-70601586D01*
X102891626Y-70310435D01*
X102959940Y-69967000D01*
X102959940Y-68717000D01*
X102891626Y-68373565D01*
X102697086Y-68082414D01*
X102405935Y-67887874D01*
X102062500Y-67819560D01*
X101137500Y-67819560D01*
X100794065Y-67887874D01*
X100502914Y-68082414D01*
X100308374Y-68373565D01*
X100269467Y-68569164D01*
X100094577Y-68307423D01*
X99619909Y-67990260D01*
X99201333Y-67907000D01*
X98918667Y-67907000D01*
X98500091Y-67990260D01*
X98025423Y-68307423D01*
X97708260Y-68782091D01*
X97596887Y-69342000D01*
X97708260Y-69901909D01*
X98025423Y-70376577D01*
X98377758Y-70612000D01*
X98025423Y-70847423D01*
X97708260Y-71322091D01*
X97596887Y-71882000D01*
X97708260Y-72441909D01*
X98025423Y-72916577D01*
X98377758Y-73152000D01*
X98025423Y-73387423D01*
X97708260Y-73862091D01*
X97596887Y-74422000D01*
X97708260Y-74981909D01*
X98025423Y-75456577D01*
X98377758Y-75692000D01*
X98025423Y-75927423D01*
X97708260Y-76402091D01*
X97596887Y-76962000D01*
X97708260Y-77521909D01*
X98025423Y-77996577D01*
X98377758Y-78232000D01*
X98025423Y-78467423D01*
X97708260Y-78942091D01*
X97596887Y-79502000D01*
X97708260Y-80061909D01*
X98025423Y-80536577D01*
X98377758Y-80772000D01*
X98025423Y-81007423D01*
X97708260Y-81482091D01*
X97596887Y-82042000D01*
X97708260Y-82601909D01*
X98025423Y-83076577D01*
X98409108Y-83332947D01*
X98204866Y-83429611D01*
X97828959Y-83844577D01*
X97668096Y-84232961D01*
X97790085Y-84455000D01*
X98933000Y-84455000D01*
X98933000Y-84435000D01*
X99187000Y-84435000D01*
X99187000Y-84455000D01*
X99207000Y-84455000D01*
X99207000Y-84709000D01*
X99187000Y-84709000D01*
X99187000Y-84729000D01*
X98933000Y-84729000D01*
X98933000Y-84709000D01*
X97790085Y-84709000D01*
X97668096Y-84931039D01*
X97828959Y-85319423D01*
X98204866Y-85734389D01*
X98409108Y-85831053D01*
X98025423Y-86087423D01*
X97708260Y-86562091D01*
X97596887Y-87122000D01*
X97708260Y-87681909D01*
X98025423Y-88156577D01*
X98377758Y-88392000D01*
X98025423Y-88627423D01*
X98018044Y-88638466D01*
X97715426Y-88335848D01*
X97715424Y-88335845D01*
X93397424Y-84017846D01*
X93348049Y-83943951D01*
X93337006Y-83936572D01*
X93908157Y-83365422D01*
X93982050Y-83316048D01*
X94177653Y-83023309D01*
X94229001Y-82765164D01*
X94229001Y-82765159D01*
X94246338Y-82678000D01*
X94229001Y-82590840D01*
X94229001Y-67433000D01*
X102020836Y-67433000D01*
X102108000Y-67450338D01*
X102195165Y-67433000D01*
X102389422Y-67433000D01*
X103302044Y-68345623D01*
X103283374Y-68373565D01*
X103215060Y-68717000D01*
X103215060Y-69967000D01*
X103283374Y-70310435D01*
X103477914Y-70601586D01*
X103493500Y-70612000D01*
X103477914Y-70622414D01*
X103283374Y-70913565D01*
X103215060Y-71257000D01*
X103215060Y-72507000D01*
X103283374Y-72850435D01*
X103477914Y-73141586D01*
X103769065Y-73336126D01*
X104112500Y-73404440D01*
X104845862Y-73404440D01*
X105266060Y-73824639D01*
X105266060Y-74539000D01*
X105334374Y-74882435D01*
X105528914Y-75173586D01*
X105820065Y-75368126D01*
X106163500Y-75436440D01*
X107088500Y-75436440D01*
X107431935Y-75368126D01*
X107723086Y-75173586D01*
X107917626Y-74882435D01*
X107985940Y-74539000D01*
X107985940Y-73289000D01*
X107917626Y-72945565D01*
X107723086Y-72654414D01*
X107431935Y-72459874D01*
X107088500Y-72391560D01*
X106336139Y-72391560D01*
X105934940Y-71990362D01*
X105934940Y-71257000D01*
X105916740Y-71165500D01*
X107951560Y-71165500D01*
X107951560Y-72090500D01*
X108019874Y-72433935D01*
X108214414Y-72725086D01*
X108381912Y-72837004D01*
X108309374Y-72945565D01*
X108241060Y-73289000D01*
X108241060Y-74539000D01*
X108309374Y-74882435D01*
X108503914Y-75173586D01*
X108795065Y-75368126D01*
X109138500Y-75436440D01*
X110063500Y-75436440D01*
X110406935Y-75368126D01*
X110698086Y-75173586D01*
X110807500Y-75009836D01*
X110916914Y-75173586D01*
X111208065Y-75368126D01*
X111551500Y-75436440D01*
X112476500Y-75436440D01*
X112819935Y-75368126D01*
X113111086Y-75173586D01*
X113305626Y-74882435D01*
X113373940Y-74539000D01*
X113373940Y-73289000D01*
X113629060Y-73289000D01*
X113629060Y-74539000D01*
X113697374Y-74882435D01*
X113891914Y-75173586D01*
X114104001Y-75315297D01*
X114104001Y-75531835D01*
X114086663Y-75619000D01*
X114155348Y-75964309D01*
X114301576Y-76183154D01*
X114301578Y-76183156D01*
X114350952Y-76257049D01*
X114424845Y-76306423D01*
X114649983Y-76531561D01*
X114614887Y-76708000D01*
X114726260Y-77267909D01*
X115043423Y-77742577D01*
X115427108Y-77998947D01*
X115222866Y-78095611D01*
X114846959Y-78510577D01*
X114686096Y-78898961D01*
X114808085Y-79121000D01*
X115951000Y-79121000D01*
X115951000Y-79101000D01*
X116205000Y-79101000D01*
X116205000Y-79121000D01*
X117347915Y-79121000D01*
X117469904Y-78898961D01*
X117309041Y-78510577D01*
X116933134Y-78095611D01*
X116728892Y-77998947D01*
X117112577Y-77742577D01*
X117429740Y-77267909D01*
X117541113Y-76708000D01*
X117429740Y-76148091D01*
X117112577Y-75673423D01*
X116637909Y-75356260D01*
X116219333Y-75273000D01*
X115937302Y-75273000D01*
X116086086Y-75173586D01*
X116280626Y-74882435D01*
X116348940Y-74539000D01*
X116348940Y-73289000D01*
X116280626Y-72945565D01*
X116086086Y-72654414D01*
X115794935Y-72459874D01*
X115451500Y-72391560D01*
X114526500Y-72391560D01*
X114183065Y-72459874D01*
X113891914Y-72654414D01*
X113697374Y-72945565D01*
X113629060Y-73289000D01*
X113373940Y-73289000D01*
X113305626Y-72945565D01*
X113193889Y-72778338D01*
X113273586Y-72725086D01*
X113468126Y-72433935D01*
X113536440Y-72090500D01*
X113536440Y-71165500D01*
X113468126Y-70822065D01*
X113273586Y-70530914D01*
X112982435Y-70336374D01*
X112639000Y-70268060D01*
X111389000Y-70268060D01*
X111045565Y-70336374D01*
X110754414Y-70530914D01*
X110744000Y-70546500D01*
X110733586Y-70530914D01*
X110442435Y-70336374D01*
X110099000Y-70268060D01*
X108849000Y-70268060D01*
X108505565Y-70336374D01*
X108214414Y-70530914D01*
X108019874Y-70822065D01*
X107951560Y-71165500D01*
X105916740Y-71165500D01*
X105866626Y-70913565D01*
X105672086Y-70622414D01*
X105656500Y-70612000D01*
X105672086Y-70601586D01*
X105866626Y-70310435D01*
X105934940Y-69967000D01*
X105934940Y-68938750D01*
X107964000Y-68938750D01*
X107964000Y-69491809D01*
X108060673Y-69725198D01*
X108239301Y-69903827D01*
X108472690Y-70000500D01*
X109188250Y-70000500D01*
X109347000Y-69841750D01*
X109347000Y-68780000D01*
X109601000Y-68780000D01*
X109601000Y-69841750D01*
X109759750Y-70000500D01*
X110475310Y-70000500D01*
X110708699Y-69903827D01*
X110744000Y-69868526D01*
X110779301Y-69903827D01*
X111012690Y-70000500D01*
X111728250Y-70000500D01*
X111887000Y-69841750D01*
X111887000Y-68780000D01*
X112141000Y-68780000D01*
X112141000Y-69841750D01*
X112299750Y-70000500D01*
X113015310Y-70000500D01*
X113248699Y-69903827D01*
X113427327Y-69725198D01*
X113524000Y-69491809D01*
X113524000Y-68938750D01*
X113365250Y-68780000D01*
X112141000Y-68780000D01*
X111887000Y-68780000D01*
X109601000Y-68780000D01*
X109347000Y-68780000D01*
X108122750Y-68780000D01*
X107964000Y-68938750D01*
X105934940Y-68938750D01*
X105934940Y-68717000D01*
X105866626Y-68373565D01*
X105672086Y-68082414D01*
X105380935Y-67887874D01*
X105309781Y-67873721D01*
X105290297Y-67844560D01*
X105262424Y-67802845D01*
X105262423Y-67802844D01*
X105213049Y-67728951D01*
X105139156Y-67679577D01*
X104892579Y-67433000D01*
X108208474Y-67433000D01*
X108060673Y-67580802D01*
X107964000Y-67814191D01*
X107964000Y-68367250D01*
X108122750Y-68526000D01*
X109347000Y-68526000D01*
X109347000Y-68506000D01*
X109601000Y-68506000D01*
X109601000Y-68526000D01*
X111887000Y-68526000D01*
X111887000Y-68506000D01*
X112141000Y-68506000D01*
X112141000Y-68526000D01*
X113365250Y-68526000D01*
X113524000Y-68367250D01*
X113524000Y-67814191D01*
X113427327Y-67580802D01*
X113248699Y-67402173D01*
X113015310Y-67305500D01*
X112299750Y-67305500D01*
X112141002Y-67464248D01*
X112141002Y-67385788D01*
X112161796Y-67381652D01*
X112454535Y-67186049D01*
X112503911Y-67112153D01*
X113122231Y-66493834D01*
X114908556Y-66493834D01*
X114692062Y-66675494D01*
X114692062Y-66675494D01*
G37*
X114692062Y-66675494D02*
X114349107Y-67269510D01*
X114230000Y-67945000D01*
X114349107Y-68620490D01*
X114692062Y-69214506D01*
X115217500Y-69655400D01*
X115862045Y-69889995D01*
X116547955Y-69889995D01*
X117192500Y-69655400D01*
X117717938Y-69214506D01*
X118060893Y-68620490D01*
X118180000Y-67945000D01*
X118092354Y-67447933D01*
X118639190Y-67994769D01*
X118580191Y-68034191D01*
X118439843Y-68244235D01*
X118390560Y-68492000D01*
X118390560Y-70192000D01*
X118439843Y-70439765D01*
X118580191Y-70649809D01*
X118790235Y-70790157D01*
X118835619Y-70799184D01*
X118817375Y-70811375D01*
X118489161Y-71302582D01*
X118373908Y-71882000D01*
X118489161Y-72461418D01*
X118817375Y-72952625D01*
X119003000Y-73076656D01*
X119003001Y-73227344D01*
X118817375Y-73351375D01*
X118489161Y-73842582D01*
X118373908Y-74422000D01*
X118489161Y-75001418D01*
X118817375Y-75492625D01*
X119003000Y-75616656D01*
X119003001Y-75767344D01*
X118817375Y-75891375D01*
X118489161Y-76382582D01*
X118373908Y-76962000D01*
X118489161Y-77541418D01*
X118817375Y-78032625D01*
X119003000Y-78156656D01*
X119003001Y-87771420D01*
X117512130Y-89262292D01*
X117429740Y-88848091D01*
X117112577Y-88373423D01*
X116760242Y-88138000D01*
X117112577Y-87902577D01*
X117429740Y-87427909D01*
X117541113Y-86868000D01*
X117429740Y-86308091D01*
X117112577Y-85833423D01*
X116760242Y-85598000D01*
X117112577Y-85362577D01*
X117429740Y-84887909D01*
X117541113Y-84328000D01*
X117429740Y-83768091D01*
X117112577Y-83293423D01*
X116760242Y-83058000D01*
X117112577Y-82822577D01*
X117429740Y-82347909D01*
X117541113Y-81788000D01*
X117429740Y-81228091D01*
X117112577Y-80753423D01*
X116728892Y-80497053D01*
X116933134Y-80400389D01*
X117309041Y-79985423D01*
X117469904Y-79597039D01*
X117347915Y-79375000D01*
X116205000Y-79375000D01*
X116205000Y-79395000D01*
X115951000Y-79395000D01*
X115951000Y-79375000D01*
X114808085Y-79375000D01*
X114686096Y-79597039D01*
X114846959Y-79985423D01*
X115222866Y-80400389D01*
X115427108Y-80497053D01*
X115043423Y-80753423D01*
X114726260Y-81228091D01*
X114614887Y-81788000D01*
X114726260Y-82347909D01*
X115043423Y-82822577D01*
X115395758Y-83058000D01*
X115043423Y-83293423D01*
X114726260Y-83768091D01*
X114614887Y-84328000D01*
X114726260Y-84887909D01*
X115043423Y-85362577D01*
X115395758Y-85598000D01*
X115043423Y-85833423D01*
X114726260Y-86308091D01*
X114614887Y-86868000D01*
X114726260Y-87427909D01*
X115043423Y-87902577D01*
X115395758Y-88138000D01*
X115043423Y-88373423D01*
X114726260Y-88848091D01*
X114645834Y-89252417D01*
X114391310Y-89082348D01*
X114133165Y-89031000D01*
X114133161Y-89031000D01*
X114046000Y-89013663D01*
X113958839Y-89031000D01*
X113669297Y-89031000D01*
X113527586Y-88818914D01*
X113236435Y-88624374D01*
X112893000Y-88556060D01*
X111643000Y-88556060D01*
X111299565Y-88624374D01*
X111008414Y-88818914D01*
X110998000Y-88834500D01*
X110987586Y-88818914D01*
X110696435Y-88624374D01*
X110353000Y-88556060D01*
X109103000Y-88556060D01*
X108759565Y-88624374D01*
X108468414Y-88818914D01*
X108458000Y-88834500D01*
X108447586Y-88818914D01*
X108156435Y-88624374D01*
X107813000Y-88556060D01*
X106563000Y-88556060D01*
X106219565Y-88624374D01*
X105928414Y-88818914D01*
X105756999Y-89075456D01*
X105756999Y-88561846D01*
X105771887Y-88486999D01*
X105756999Y-88412152D01*
X105756999Y-88412147D01*
X105712903Y-88190462D01*
X105544928Y-87939070D01*
X105481472Y-87896670D01*
X104776688Y-87191887D01*
X104841113Y-86868000D01*
X104729740Y-86308091D01*
X104412577Y-85833423D01*
X104060242Y-85598000D01*
X104412577Y-85362577D01*
X104461523Y-85289324D01*
X105665560Y-86493362D01*
X105665560Y-87403500D01*
X105733874Y-87746935D01*
X105928414Y-88038086D01*
X106219565Y-88232626D01*
X106563000Y-88300940D01*
X107813000Y-88300940D01*
X108156435Y-88232626D01*
X108447586Y-88038086D01*
X108458000Y-88022500D01*
X108468414Y-88038086D01*
X108759565Y-88232626D01*
X109103000Y-88300940D01*
X110353000Y-88300940D01*
X110696435Y-88232626D01*
X110987586Y-88038086D01*
X110998000Y-88022500D01*
X111008414Y-88038086D01*
X111299565Y-88232626D01*
X111643000Y-88300940D01*
X112893000Y-88300940D01*
X113236435Y-88232626D01*
X113527586Y-88038086D01*
X113722126Y-87746935D01*
X113790440Y-87403500D01*
X113790440Y-86478500D01*
X113722126Y-86135065D01*
X113527586Y-85843914D01*
X113236435Y-85649374D01*
X112893000Y-85581060D01*
X111982862Y-85581060D01*
X107501262Y-81099460D01*
X107789223Y-81202965D01*
X108359454Y-81175778D01*
X108760005Y-81009864D01*
X108834139Y-80763745D01*
X108006000Y-79935605D01*
X107991858Y-79949748D01*
X107812252Y-79770142D01*
X107826395Y-79756000D01*
X108185605Y-79756000D01*
X109013745Y-80584139D01*
X109259864Y-80510005D01*
X109452965Y-79972777D01*
X109429021Y-79470561D01*
X110071000Y-79470561D01*
X110071000Y-80041439D01*
X110289466Y-80568862D01*
X110693138Y-80972534D01*
X111220561Y-81191000D01*
X111791439Y-81191000D01*
X112318862Y-80972534D01*
X112722534Y-80568862D01*
X112941000Y-80041439D01*
X112941000Y-79470561D01*
X112722534Y-78943138D01*
X112318862Y-78539466D01*
X111791439Y-78321000D01*
X111220561Y-78321000D01*
X110693138Y-78539466D01*
X110289466Y-78943138D01*
X110071000Y-79470561D01*
X109429021Y-79470561D01*
X109425778Y-79402546D01*
X109259864Y-79001995D01*
X109013745Y-78927861D01*
X108185605Y-79756000D01*
X107826395Y-79756000D01*
X106998255Y-78927861D01*
X106752136Y-79001995D01*
X106559035Y-79539223D01*
X106586222Y-80109454D01*
X106639232Y-80237431D01*
X105165331Y-78763530D01*
X105155125Y-78748255D01*
X107177861Y-78748255D01*
X108006000Y-79576395D01*
X108834139Y-78748255D01*
X108760005Y-78502136D01*
X108222777Y-78309035D01*
X107652546Y-78336222D01*
X107251995Y-78502136D01*
X107177861Y-78748255D01*
X105155125Y-78748255D01*
X105122929Y-78700071D01*
X104871537Y-78532096D01*
X104649852Y-78488000D01*
X104649847Y-78488000D01*
X104587796Y-78475657D01*
X104412577Y-78213423D01*
X104028892Y-77957053D01*
X104233134Y-77860389D01*
X104609041Y-77445423D01*
X104769904Y-77057039D01*
X104647915Y-76835000D01*
X103505000Y-76835000D01*
X103505000Y-76855000D01*
X103251000Y-76855000D01*
X103251000Y-76835000D01*
X103231000Y-76835000D01*
X103231000Y-76581000D01*
X103251000Y-76581000D01*
X103251000Y-75437371D01*
X103505000Y-75437371D01*
X103505000Y-76581000D01*
X104647915Y-76581000D01*
X104769904Y-76358961D01*
X104609041Y-75970577D01*
X104233134Y-75555611D01*
X103727041Y-75316086D01*
X103505000Y-75437371D01*
X103251000Y-75437371D01*
X103028959Y-75316086D01*
X102522866Y-75555611D01*
X102146959Y-75970577D01*
X102011186Y-76298384D01*
X100458688Y-74745886D01*
X100523113Y-74422000D01*
X100411740Y-73862091D01*
X100094577Y-73387423D01*
X99742242Y-73152000D01*
X100094577Y-72916577D01*
X100269467Y-72654836D01*
X100308374Y-72850435D01*
X100502914Y-73141586D01*
X100794065Y-73336126D01*
X101137500Y-73404440D01*
X102062500Y-73404440D01*
X102405935Y-73336126D01*
X102697086Y-73141586D01*
X102891626Y-72850435D01*
X102959940Y-72507000D01*
X102959940Y-71257000D01*
X102891626Y-70913565D01*
X102697086Y-70622414D01*
X102681500Y-70612000D01*
X102697086Y-70601586D01*
X102891626Y-70310435D01*
X102959940Y-69967000D01*
X102959940Y-68717000D01*
X102891626Y-68373565D01*
X102697086Y-68082414D01*
X102405935Y-67887874D01*
X102062500Y-67819560D01*
X101137500Y-67819560D01*
X100794065Y-67887874D01*
X100502914Y-68082414D01*
X100308374Y-68373565D01*
X100269467Y-68569164D01*
X100094577Y-68307423D01*
X99619909Y-67990260D01*
X99201333Y-67907000D01*
X98918667Y-67907000D01*
X98500091Y-67990260D01*
X98025423Y-68307423D01*
X97708260Y-68782091D01*
X97596887Y-69342000D01*
X97708260Y-69901909D01*
X98025423Y-70376577D01*
X98377758Y-70612000D01*
X98025423Y-70847423D01*
X97708260Y-71322091D01*
X97596887Y-71882000D01*
X97708260Y-72441909D01*
X98025423Y-72916577D01*
X98377758Y-73152000D01*
X98025423Y-73387423D01*
X97708260Y-73862091D01*
X97596887Y-74422000D01*
X97708260Y-74981909D01*
X98025423Y-75456577D01*
X98377758Y-75692000D01*
X98025423Y-75927423D01*
X97708260Y-76402091D01*
X97596887Y-76962000D01*
X97708260Y-77521909D01*
X98025423Y-77996577D01*
X98377758Y-78232000D01*
X98025423Y-78467423D01*
X97708260Y-78942091D01*
X97596887Y-79502000D01*
X97708260Y-80061909D01*
X98025423Y-80536577D01*
X98377758Y-80772000D01*
X98025423Y-81007423D01*
X97708260Y-81482091D01*
X97596887Y-82042000D01*
X97708260Y-82601909D01*
X98025423Y-83076577D01*
X98409108Y-83332947D01*
X98204866Y-83429611D01*
X97828959Y-83844577D01*
X97668096Y-84232961D01*
X97790085Y-84455000D01*
X98933000Y-84455000D01*
X98933000Y-84435000D01*
X99187000Y-84435000D01*
X99187000Y-84455000D01*
X99207000Y-84455000D01*
X99207000Y-84709000D01*
X99187000Y-84709000D01*
X99187000Y-84729000D01*
X98933000Y-84729000D01*
X98933000Y-84709000D01*
X97790085Y-84709000D01*
X97668096Y-84931039D01*
X97828959Y-85319423D01*
X98204866Y-85734389D01*
X98409108Y-85831053D01*
X98025423Y-86087423D01*
X97708260Y-86562091D01*
X97596887Y-87122000D01*
X97708260Y-87681909D01*
X98025423Y-88156577D01*
X98377758Y-88392000D01*
X98025423Y-88627423D01*
X98018044Y-88638466D01*
X97715426Y-88335848D01*
X97715424Y-88335845D01*
X93397424Y-84017846D01*
X93348049Y-83943951D01*
X93337006Y-83936572D01*
X93908157Y-83365422D01*
X93982050Y-83316048D01*
X94177653Y-83023309D01*
X94229001Y-82765164D01*
X94229001Y-82765159D01*
X94246338Y-82678000D01*
X94229001Y-82590840D01*
X94229001Y-67433000D01*
X102020836Y-67433000D01*
X102108000Y-67450338D01*
X102195165Y-67433000D01*
X102389422Y-67433000D01*
X103302044Y-68345623D01*
X103283374Y-68373565D01*
X103215060Y-68717000D01*
X103215060Y-69967000D01*
X103283374Y-70310435D01*
X103477914Y-70601586D01*
X103493500Y-70612000D01*
X103477914Y-70622414D01*
X103283374Y-70913565D01*
X103215060Y-71257000D01*
X103215060Y-72507000D01*
X103283374Y-72850435D01*
X103477914Y-73141586D01*
X103769065Y-73336126D01*
X104112500Y-73404440D01*
X104845862Y-73404440D01*
X105266060Y-73824639D01*
X105266060Y-74539000D01*
X105334374Y-74882435D01*
X105528914Y-75173586D01*
X105820065Y-75368126D01*
X106163500Y-75436440D01*
X107088500Y-75436440D01*
X107431935Y-75368126D01*
X107723086Y-75173586D01*
X107917626Y-74882435D01*
X107985940Y-74539000D01*
X107985940Y-73289000D01*
X107917626Y-72945565D01*
X107723086Y-72654414D01*
X107431935Y-72459874D01*
X107088500Y-72391560D01*
X106336139Y-72391560D01*
X105934940Y-71990362D01*
X105934940Y-71257000D01*
X105916740Y-71165500D01*
X107951560Y-71165500D01*
X107951560Y-72090500D01*
X108019874Y-72433935D01*
X108214414Y-72725086D01*
X108381912Y-72837004D01*
X108309374Y-72945565D01*
X108241060Y-73289000D01*
X108241060Y-74539000D01*
X108309374Y-74882435D01*
X108503914Y-75173586D01*
X108795065Y-75368126D01*
X109138500Y-75436440D01*
X110063500Y-75436440D01*
X110406935Y-75368126D01*
X110698086Y-75173586D01*
X110807500Y-75009836D01*
X110916914Y-75173586D01*
X111208065Y-75368126D01*
X111551500Y-75436440D01*
X112476500Y-75436440D01*
X112819935Y-75368126D01*
X113111086Y-75173586D01*
X113305626Y-74882435D01*
X113373940Y-74539000D01*
X113373940Y-73289000D01*
X113629060Y-73289000D01*
X113629060Y-74539000D01*
X113697374Y-74882435D01*
X113891914Y-75173586D01*
X114104001Y-75315297D01*
X114104001Y-75531835D01*
X114086663Y-75619000D01*
X114155348Y-75964309D01*
X114301576Y-76183154D01*
X114301578Y-76183156D01*
X114350952Y-76257049D01*
X114424845Y-76306423D01*
X114649983Y-76531561D01*
X114614887Y-76708000D01*
X114726260Y-77267909D01*
X115043423Y-77742577D01*
X115427108Y-77998947D01*
X115222866Y-78095611D01*
X114846959Y-78510577D01*
X114686096Y-78898961D01*
X114808085Y-79121000D01*
X115951000Y-79121000D01*
X115951000Y-79101000D01*
X116205000Y-79101000D01*
X116205000Y-79121000D01*
X117347915Y-79121000D01*
X117469904Y-78898961D01*
X117309041Y-78510577D01*
X116933134Y-78095611D01*
X116728892Y-77998947D01*
X117112577Y-77742577D01*
X117429740Y-77267909D01*
X117541113Y-76708000D01*
X117429740Y-76148091D01*
X117112577Y-75673423D01*
X116637909Y-75356260D01*
X116219333Y-75273000D01*
X115937302Y-75273000D01*
X116086086Y-75173586D01*
X116280626Y-74882435D01*
X116348940Y-74539000D01*
X116348940Y-73289000D01*
X116280626Y-72945565D01*
X116086086Y-72654414D01*
X115794935Y-72459874D01*
X115451500Y-72391560D01*
X114526500Y-72391560D01*
X114183065Y-72459874D01*
X113891914Y-72654414D01*
X113697374Y-72945565D01*
X113629060Y-73289000D01*
X113373940Y-73289000D01*
X113305626Y-72945565D01*
X113193889Y-72778338D01*
X113273586Y-72725086D01*
X113468126Y-72433935D01*
X113536440Y-72090500D01*
X113536440Y-71165500D01*
X113468126Y-70822065D01*
X113273586Y-70530914D01*
X112982435Y-70336374D01*
X112639000Y-70268060D01*
X111389000Y-70268060D01*
X111045565Y-70336374D01*
X110754414Y-70530914D01*
X110744000Y-70546500D01*
X110733586Y-70530914D01*
X110442435Y-70336374D01*
X110099000Y-70268060D01*
X108849000Y-70268060D01*
X108505565Y-70336374D01*
X108214414Y-70530914D01*
X108019874Y-70822065D01*
X107951560Y-71165500D01*
X105916740Y-71165500D01*
X105866626Y-70913565D01*
X105672086Y-70622414D01*
X105656500Y-70612000D01*
X105672086Y-70601586D01*
X105866626Y-70310435D01*
X105934940Y-69967000D01*
X105934940Y-68938750D01*
X107964000Y-68938750D01*
X107964000Y-69491809D01*
X108060673Y-69725198D01*
X108239301Y-69903827D01*
X108472690Y-70000500D01*
X109188250Y-70000500D01*
X109347000Y-69841750D01*
X109347000Y-68780000D01*
X109601000Y-68780000D01*
X109601000Y-69841750D01*
X109759750Y-70000500D01*
X110475310Y-70000500D01*
X110708699Y-69903827D01*
X110744000Y-69868526D01*
X110779301Y-69903827D01*
X111012690Y-70000500D01*
X111728250Y-70000500D01*
X111887000Y-69841750D01*
X111887000Y-68780000D01*
X112141000Y-68780000D01*
X112141000Y-69841750D01*
X112299750Y-70000500D01*
X113015310Y-70000500D01*
X113248699Y-69903827D01*
X113427327Y-69725198D01*
X113524000Y-69491809D01*
X113524000Y-68938750D01*
X113365250Y-68780000D01*
X112141000Y-68780000D01*
X111887000Y-68780000D01*
X109601000Y-68780000D01*
X109347000Y-68780000D01*
X108122750Y-68780000D01*
X107964000Y-68938750D01*
X105934940Y-68938750D01*
X105934940Y-68717000D01*
X105866626Y-68373565D01*
X105672086Y-68082414D01*
X105380935Y-67887874D01*
X105309781Y-67873721D01*
X105290297Y-67844560D01*
X105262424Y-67802845D01*
X105262423Y-67802844D01*
X105213049Y-67728951D01*
X105139156Y-67679577D01*
X104892579Y-67433000D01*
X108208474Y-67433000D01*
X108060673Y-67580802D01*
X107964000Y-67814191D01*
X107964000Y-68367250D01*
X108122750Y-68526000D01*
X109347000Y-68526000D01*
X109347000Y-68506000D01*
X109601000Y-68506000D01*
X109601000Y-68526000D01*
X111887000Y-68526000D01*
X111887000Y-68506000D01*
X112141000Y-68506000D01*
X112141000Y-68526000D01*
X113365250Y-68526000D01*
X113524000Y-68367250D01*
X113524000Y-67814191D01*
X113427327Y-67580802D01*
X113248699Y-67402173D01*
X113015310Y-67305500D01*
X112299750Y-67305500D01*
X112141002Y-67464248D01*
X112141002Y-67385788D01*
X112161796Y-67381652D01*
X112454535Y-67186049D01*
X112503911Y-67112153D01*
X113122231Y-66493834D01*
X114908556Y-66493834D01*
X114692062Y-66675494D01*
G04 #@! TD*
M02*
